<?xml version="1.0" encoding="utf-8"?>
<!-- Generator: Adobe Illustrator 19.0.0, SVG Export Plug-In . SVG Version: 6.00 Build 0)  -->
<svg version="1.1" id="Capa_1" xmlns="http://www.w3.org/2000/svg" xmlns:xlink="http://www.w3.org/1999/xlink" x="0px" y="0px"
	 viewBox="0 0 600 300" enable-background="new 0 0 600 300" xml:space="preserve">
<g id="XMLID_1242_">
	<path id="XMLID_1553_" fill="#FFFFFF" d="M362.905,37.209C339.04,13.16,317.471,0.999,298.785,1.047
		c-36.698,0.08-76.633,47.467-97.158,75.721c-25.599,35.199-51.467,83.957-51.56,113.517c0.009,26.78,9.989,51.004,28.863,70.052
		c26.608,26.877,68.051,41.075,119.883,41.063c44.24-0.003,81.599-10.631,108.053-30.727c26.223-19.945,40.668-48.439,40.668-80.236
		C447.534,151.558,402.858,77.463,362.905,37.209z"/>
	<path id="XMLID_1552_" fill="#A72419" d="M360.449,42.462c-22.873-23.057-43.564-34.716-61.477-34.67
		c-35.183,0.077-73.468,45.506-93.143,72.596c-24.538,33.745-49.343,80.493-49.435,108.832c0.01,25.676,9.581,48.898,27.673,67.167
		c25.507,25.758,65.244,39.372,114.935,39.363c42.415-0.004,78.231-10.189,103.593-29.458
		c25.144-19.123,39.003-46.443,39.003-76.927C441.598,152.093,398.755,81.054,360.449,42.462z"/>
	<g id="XMLID_1184_">
		<path id="XMLID_739_" fill="#B32825" d="M357.836,46.226c-21.979-22.148-41.846-33.347-59.051-33.302
			c-33.792,0.072-70.571,43.712-89.474,69.731c-23.577,32.416-47.396,77.319-47.479,104.542c0.007,24.66,9.199,46.969,26.58,64.514
			c24.501,24.749,62.668,37.823,110.402,37.812c40.743-0.006,75.141-9.789,99.504-28.295c24.15-18.371,37.455-44.611,37.455-73.893
			C435.771,151.535,394.627,83.297,357.836,46.226z"/>
		<path id="XMLID_840_" fill="#B42825" d="M357.741,46.394c-21.944-22.113-41.779-33.294-58.956-33.248
			c-33.738,0.072-70.458,43.642-89.33,69.619c-23.539,32.364-47.32,77.195-47.403,104.374c0.007,24.62,9.184,46.894,26.537,64.41
			c24.462,24.709,62.568,37.762,110.225,37.751c40.678-0.006,75.021-9.773,99.344-28.25c24.112-18.341,37.395-44.539,37.395-73.774
			C435.551,151.534,394.473,83.406,357.741,46.394z"/>
		<path id="XMLID_838_" fill="#B42825" d="M357.646,46.563c-21.909-22.077-41.711-33.24-58.861-33.195
			C265.1,13.44,228.44,56.94,209.598,82.875c-23.501,32.312-47.244,77.071-47.327,104.206c0.007,24.58,9.169,46.818,26.495,64.306
			c24.422,24.669,62.467,37.702,110.048,37.691c40.612-0.006,74.9-9.757,99.184-28.204c24.073-18.312,37.334-44.467,37.334-73.656
			C435.331,151.534,394.319,83.515,357.646,46.563z"/>
		<path id="XMLID_837_" fill="#B52925" d="M357.551,46.731c-21.873-22.041-41.644-33.187-58.767-33.141
			c-33.63,0.072-70.231,43.502-89.043,69.395c-23.463,32.26-47.168,76.947-47.251,104.038c0.007,24.541,9.154,46.743,26.452,64.203
			c24.383,24.63,62.367,37.641,109.871,37.63c40.547-0.006,74.779-9.742,99.024-28.159c24.034-18.282,37.274-44.395,37.274-73.537
			C435.111,151.533,394.165,83.624,357.551,46.731z"/>
		<path id="XMLID_834_" fill="#B62925" d="M357.456,46.9c-21.838-22.006-41.577-33.133-58.672-33.088
			c-33.576,0.072-70.118,43.431-88.899,69.283c-23.426,32.208-47.092,76.823-47.174,103.87c0.007,24.501,9.14,46.667,26.409,64.099
			c24.344,24.59,62.266,37.58,109.693,37.569c40.481-0.006,74.659-9.726,98.864-28.113c23.995-18.252,37.214-44.324,37.214-73.418
			C434.891,151.533,394.011,83.733,357.456,46.9z"/>
		<path id="XMLID_833_" fill="#B62925" d="M357.361,47.069c-21.803-21.97-41.51-33.079-58.577-33.034
			c-33.521,0.072-70.005,43.361-88.755,69.171c-23.388,32.156-47.016,76.699-47.098,103.702
			c0.007,24.462,9.125,46.592,26.366,63.995c24.305,24.55,62.166,37.52,109.516,37.509c40.416-0.006,74.538-9.71,98.705-28.068
			c23.956-18.223,37.154-44.252,37.154-73.3C434.671,151.532,393.857,83.842,357.361,47.069z"/>
		<path id="XMLID_832_" fill="#B72924" d="M357.266,47.237c-21.767-21.935-41.442-33.026-58.482-32.981
			c-33.467,0.072-69.892,43.291-88.612,69.059c-23.35,32.104-46.94,76.574-47.022,103.535c0.007,24.422,9.11,46.516,26.324,63.892
			c24.265,24.511,62.065,37.459,109.339,37.448c40.35-0.006,74.417-9.694,98.545-28.023c23.917-18.193,37.093-44.18,37.093-73.181
			C434.451,151.532,393.703,83.951,357.266,47.237z"/>
		<path id="XMLID_829_" fill="#B82924" d="M357.172,47.406c-21.732-21.899-41.375-32.972-58.387-32.927
			c-33.413,0.072-69.778,43.221-88.468,68.947c-23.312,32.052-46.864,76.45-46.946,103.367c0.007,24.383,9.096,46.441,26.281,63.788
			c24.226,24.471,61.965,37.398,109.162,37.387c40.285-0.005,74.297-9.679,98.385-27.977c23.878-18.164,37.033-44.109,37.033-73.062
			C434.231,151.531,393.549,84.06,357.172,47.406z"/>
		<path id="XMLID_828_" fill="#B92924" d="M357.077,47.575c-21.697-21.864-41.308-32.919-58.292-32.874
			c-33.359,0.072-69.665,43.151-88.324,68.835c-23.274,32-46.788,76.326-46.87,103.199c0.007,24.343,9.081,46.365,26.238,63.684
			c24.187,24.431,61.864,37.337,108.985,37.327c40.219-0.005,74.176-9.663,98.225-27.932c23.839-18.134,36.973-44.037,36.973-72.944
			C434.011,151.531,393.395,84.169,357.077,47.575z"/>
		<path id="XMLID_826_" fill="#B92924" d="M356.982,47.743c-21.661-21.828-41.241-32.865-58.198-32.821
			c-33.304,0.071-69.552,43.08-88.18,68.723c-23.236,31.948-46.712,76.202-46.794,103.031c0.007,24.303,9.066,46.29,26.195,63.581
			c24.147,24.392,61.764,37.277,108.808,37.266c40.154-0.005,74.055-9.647,98.065-27.886c23.801-18.105,36.913-43.965,36.913-72.825
			C433.792,151.53,393.241,84.278,356.982,47.743z"/>
		<path id="XMLID_825_" fill="#BA2924" d="M356.887,47.912c-21.626-21.793-41.173-32.812-58.103-32.767
			c-33.25,0.071-69.438,43.01-88.037,68.611c-23.198,31.896-46.636,76.078-46.717,102.863c0.007,24.264,9.051,46.215,26.153,63.477
			c24.108,24.352,61.663,37.216,108.63,37.205c40.088-0.005,73.935-9.631,97.906-27.841c23.762-18.075,36.853-43.893,36.853-72.706
			C433.572,151.53,393.087,84.387,356.887,47.912z"/>
		<path id="XMLID_823_" fill="#BB2924" d="M356.792,48.081c-21.591-21.757-41.106-32.758-58.008-32.714
			c-33.196,0.071-69.325,42.94-87.893,68.499c-23.161,31.844-46.56,75.954-46.641,102.695c0.007,24.224,9.037,46.139,26.11,63.373
			c24.069,24.312,61.563,37.155,108.453,37.145c40.023-0.005,73.814-9.616,97.746-27.796c23.723-18.045,36.792-43.822,36.792-72.588
			C433.352,151.529,392.934,84.497,356.792,48.081z"/>
		<path id="XMLID_821_" fill="#BB2924" d="M356.697,48.249c-21.556-21.722-41.039-32.705-57.913-32.66
			c-33.142,0.071-69.212,42.87-87.749,68.387c-23.123,31.792-46.484,75.83-46.565,102.528c0.007,24.185,9.022,46.064,26.067,63.27
			c24.03,24.273,61.462,37.095,108.276,37.084c39.957-0.005,73.693-9.6,97.586-27.75c23.684-18.016,36.732-43.75,36.732-72.469
			C433.132,151.529,392.78,84.606,356.697,48.249z"/>
		<path id="XMLID_819_" fill="#BC2924" d="M356.602,48.418c-21.52-21.686-40.972-32.651-57.818-32.607
			c-33.087,0.071-69.099,42.8-87.605,68.275c-23.085,31.74-46.408,75.705-46.489,102.36c0.007,24.145,9.007,45.988,26.024,63.166
			c23.99,24.233,61.361,37.034,108.099,37.023c39.892-0.005,73.573-9.584,97.426-27.705c23.645-17.986,36.672-43.678,36.672-72.35
			C432.912,151.528,392.626,84.715,356.602,48.418z"/>
		<path id="XMLID_818_" fill="#BD2924" d="M356.508,48.586c-21.485-21.651-40.904-32.598-57.723-32.553
			c-33.033,0.071-68.985,42.729-87.462,68.163c-23.047,31.688-46.332,75.581-46.413,102.192
			c0.007,24.105,8.992,45.913,25.982,63.062c23.951,24.193,61.261,36.973,107.922,36.963c39.826-0.005,73.452-9.568,97.266-27.659
			c23.606-17.957,36.612-43.607,36.612-72.231C432.692,151.528,392.472,84.824,356.508,48.586z"/>
		<path id="XMLID_815_" fill="#BD2924" d="M356.413,48.755c-21.45-21.615-40.837-32.544-57.629-32.5
			c-32.979,0.071-68.872,42.659-87.318,68.051c-23.009,31.636-46.256,75.457-46.336,102.024
			c0.007,24.066,8.978,45.837,25.939,62.959c23.912,24.154,61.16,36.912,107.745,36.902c39.761-0.005,73.331-9.553,97.107-27.614
			c23.567-17.927,36.551-43.535,36.551-72.113C432.472,151.527,392.318,84.933,356.413,48.755z"/>
		<path id="XMLID_814_" fill="#BE2923" d="M356.318,48.924c-21.414-21.58-40.77-32.491-57.534-32.446
			c-32.925,0.071-68.759,42.589-87.174,67.939c-22.971,31.584-46.18,75.333-46.26,101.856c0.007,24.026,8.963,45.762,25.896,62.855
			c23.872,24.114,61.06,36.852,107.567,36.842c39.695-0.004,73.211-9.537,96.947-27.569c23.529-17.898,36.491-43.463,36.491-71.994
			C432.252,151.527,392.164,85.042,356.318,48.924z"/>
		<path id="XMLID_813_" fill="#BF2A23" d="M356.223,49.092C334.844,27.548,315.52,16.655,298.784,16.7
			c-32.871,0.071-68.645,42.519-87.03,67.827c-22.933,31.532-46.104,75.209-46.184,101.688c0.007,23.987,8.948,45.686,25.853,62.751
			c23.833,24.074,60.959,36.791,107.39,36.781c39.63-0.004,73.09-9.521,96.787-27.523c23.49-17.868,36.431-43.392,36.431-71.875
			C432.032,151.526,392.01,85.151,356.223,49.092z"/>
		<path id="XMLID_810_" fill="#BF2A23" d="M356.128,49.261c-21.344-21.509-40.635-32.384-57.344-32.339
			c-32.816,0.071-68.532,42.449-86.886,67.715c-22.896,31.48-46.028,75.085-46.108,101.52c0.007,23.947,8.933,45.611,25.811,62.648
			c23.794,24.035,60.859,36.73,107.213,36.72c39.564-0.004,72.969-9.506,96.627-27.478c23.451-17.838,36.371-43.32,36.371-71.757
			C431.812,151.526,391.856,85.26,356.128,49.261z"/>
		<path id="XMLID_809_" fill="#C02A23" d="M356.033,49.43c-21.308-21.473-40.568-32.33-57.249-32.286
			c-32.762,0.071-68.419,42.378-86.743,67.603c-22.858,31.428-45.952,74.961-46.032,101.353
			c0.007,23.907,8.919,45.535,25.768,62.544c23.754,23.995,60.758,36.669,107.036,36.66c39.499-0.004,72.849-9.49,96.467-27.432
			c23.412-17.809,36.311-43.248,36.311-71.638C431.592,151.525,391.702,85.369,356.033,49.43z"/>
		<path id="XMLID_808_" fill="#C12A23" d="M355.938,49.598c-21.273-21.438-40.501-32.277-57.154-32.232
			c-32.708,0.07-68.305,42.308-86.599,67.491c-22.82,31.376-45.876,74.836-45.955,101.185c0.007,23.868,8.904,45.46,25.725,62.44
			c23.715,23.955,60.658,36.609,106.859,36.599c39.433-0.004,72.728-9.474,96.308-27.387c23.373-17.779,36.25-43.176,36.25-71.519
			C431.372,151.525,391.548,85.478,355.938,49.598z"/>
		<path id="XMLID_807_" fill="#C12A23" d="M355.844,49.767c-21.238-21.402-40.434-32.223-57.06-32.179
			c-32.654,0.07-68.192,42.238-86.455,67.379c-22.782,31.324-45.8,74.712-45.879,101.017c0.007,23.828,8.889,45.385,25.682,62.337
			c23.676,23.916,60.557,36.548,106.682,36.538c39.368-0.004,72.607-9.458,96.148-27.342c23.334-17.75,36.19-43.105,36.19-71.401
			C431.152,151.524,391.394,85.587,355.844,49.767z"/>
		<path id="XMLID_806_" fill="#C22A23" d="M355.749,49.936c-21.202-21.367-40.366-32.17-56.965-32.126
			c-32.599,0.07-68.079,42.168-86.311,67.267c-22.744,31.272-45.724,74.588-45.803,100.849c0.007,23.789,8.875,45.309,25.64,62.233
			c23.637,23.876,60.457,36.487,106.505,36.478c39.302-0.004,72.487-9.443,95.988-27.296c23.295-17.72,36.13-43.033,36.13-71.282
			C430.932,151.523,391.24,85.696,355.749,49.936z"/>
		<path id="XMLID_805_" fill="#C32A23" d="M355.654,50.104c-21.167-21.331-40.299-32.116-56.87-32.072
			c-32.545,0.07-67.966,42.098-86.168,67.155c-22.706,31.22-45.648,74.464-45.727,100.681c0.007,23.749,8.86,45.234,25.597,62.129
			c23.597,23.836,60.356,36.427,106.327,36.417c39.237-0.004,72.366-9.427,95.828-27.251c23.257-17.691,36.07-42.961,36.07-71.163
			C430.712,151.523,391.087,85.805,355.654,50.104z"/>
		<path id="XMLID_802_" fill="#C42A23" d="M355.559,50.273c-21.132-21.295-40.232-32.063-56.775-32.019
			c-32.491,0.07-67.852,42.027-86.024,67.043c-22.669,31.168-45.572,74.34-45.651,100.513c0.007,23.71,8.845,45.158,25.554,62.026
			c23.558,23.797,60.256,36.366,106.15,36.356c39.171-0.004,72.245-9.411,95.668-27.205c23.218-17.661,36.009-42.89,36.009-71.045
			C430.492,151.522,390.933,85.915,355.559,50.273z"/>
		<path id="XMLID_763_" fill="#C42A23" d="M355.464,50.441c-21.097-21.26-40.165-32.009-56.68-31.965
			c-32.437,0.07-67.739,41.957-85.88,66.931c-22.631,31.116-45.496,74.216-45.574,100.345c0.008,23.67,8.83,45.083,25.511,61.922
			c23.519,23.757,60.155,36.305,105.973,36.296c39.106-0.004,72.125-9.395,95.509-27.16c23.179-17.631,35.949-42.818,35.949-70.926
			C430.272,151.522,390.779,86.024,355.464,50.441z"/>
		<path id="XMLID_762_" fill="#C52A22" d="M355.369,50.61c-21.061-21.224-40.098-31.956-56.585-31.912
			c-32.382,0.07-67.626,41.887-85.736,66.819c-22.593,31.064-45.42,74.092-45.498,100.178c0.008,23.63,8.816,45.007,25.469,61.818
			c23.479,23.717,60.055,36.244,105.796,36.235c39.04-0.003,72.004-9.38,95.349-27.115c23.14-17.602,35.889-42.746,35.889-70.807
			C430.052,151.521,390.625,86.133,355.369,50.61z"/>
		<path id="XMLID_761_" fill="#C62A22" d="M355.274,50.779c-21.026-21.189-40.03-31.902-56.491-31.858
			c-32.328,0.07-67.512,41.817-85.593,66.707c-22.555,31.012-45.344,73.967-45.422,100.01c0.008,23.591,8.801,44.932,25.426,61.715
			c23.44,23.678,59.954,36.184,105.619,36.174c38.975-0.003,71.883-9.364,95.189-27.069c23.101-17.572,35.829-42.674,35.829-70.689
			C429.832,151.521,390.471,86.242,355.274,50.779z"/>
		<path id="XMLID_760_" fill="#C62A22" d="M355.18,50.947c-20.991-21.153-39.963-31.849-56.396-31.805
			c-32.274,0.07-67.399,41.747-85.449,66.595c-22.517,30.96-45.268,73.843-45.346,99.842c0.008,23.551,8.786,44.856,25.383,61.611
			c23.401,23.638,59.854,36.123,105.442,36.114c38.909-0.003,71.763-9.348,95.029-27.024c23.062-17.543,35.769-42.603,35.769-70.57
			C429.612,151.52,390.317,86.351,355.18,50.947z"/>
		<path id="XMLID_759_" fill="#C72A22" d="M355.085,51.116c-20.955-21.118-39.896-31.795-56.301-31.751
			c-32.22,0.07-67.286,41.676-85.305,66.483c-22.479,30.908-45.192,73.719-45.27,99.674c0.008,23.512,8.771,44.781,25.34,61.507
			c23.362,23.598,59.753,36.062,105.264,36.053c38.844-0.003,71.642-9.332,94.87-26.978c23.023-17.513,35.708-42.531,35.708-70.451
			C429.392,151.52,390.163,86.46,355.085,51.116z"/>
		<path id="XMLID_758_" fill="#C72A22" d="M354.99,51.285c-20.92-21.082-39.828-31.742-56.206-31.698
			c-32.165,0.07-67.172,41.606-85.161,66.371c-22.441,30.856-45.116,73.595-45.194,99.506c0.008,23.472,8.757,44.706,25.298,61.404
			c23.322,23.559,59.653,36.002,105.087,35.993c38.778-0.003,71.521-9.317,94.71-26.933c22.984-17.484,35.648-42.459,35.648-70.333
			C429.172,151.519,390.009,86.569,354.99,51.285z"/>
		<path id="XMLID_757_" fill="#C82A22" d="M354.895,51.453c-20.885-21.047-39.761-31.688-56.111-31.644
			c-32.111,0.069-67.059,41.536-85.018,66.259c-22.404,30.804-45.04,73.471-45.117,99.338c0.008,23.432,8.742,44.63,25.255,61.3
			c23.283,23.519,59.552,35.941,104.91,35.932c38.713-0.003,71.401-9.301,94.55-26.888c22.946-17.454,35.588-42.388,35.588-70.214
			C428.952,151.519,389.855,86.678,354.895,51.453z"/>
		<path id="XMLID_756_" fill="#C92B22" d="M354.8,51.622c-20.849-21.011-39.694-31.635-56.016-31.591
			c-32.057,0.069-66.946,41.466-84.874,66.147c-22.366,30.752-44.964,73.347-45.041,99.17c0.008,23.393,8.727,44.555,25.212,61.196
			c23.244,23.479,59.452,35.88,104.733,35.871c38.647-0.003,71.28-9.285,94.39-26.842c22.907-17.425,35.528-42.316,35.528-70.095
			C428.732,151.518,389.701,86.787,354.8,51.622z"/>
		<path id="XMLID_755_" fill="#C92B22" d="M354.705,51.791c-20.814-20.976-39.627-31.581-55.922-31.537
			c-32.003,0.069-66.833,41.396-84.73,66.035c-22.328,30.7-44.888,73.223-44.965,99.003c0.008,23.353,8.712,44.479,25.169,61.093
			c23.204,23.44,59.351,35.819,104.556,35.811c38.582-0.003,71.159-9.27,94.23-26.797c22.868-17.395,35.467-42.244,35.467-69.977
			C428.512,151.518,389.547,86.896,354.705,51.791z"/>
		<path id="XMLID_754_" fill="#CA2B22" d="M354.611,51.959c-20.779-20.94-39.56-31.528-55.827-31.484
			c-31.949,0.069-66.719,41.325-84.586,65.923c-22.29,30.648-44.811,73.098-44.889,98.835c0.008,23.314,8.698,44.404,25.127,60.989
			c23.165,23.4,59.251,35.759,104.379,35.75c38.516-0.003,71.039-9.254,94.071-26.751c22.829-17.365,35.407-42.173,35.407-69.858
			C428.292,151.517,389.393,87.005,354.611,51.959z"/>
		<path id="XMLID_753_" fill="#CB2B21" d="M354.516,52.128c-20.743-20.905-39.492-31.474-55.732-31.43
			c-31.894,0.069-66.606,41.255-84.443,65.811c-22.252,30.596-44.735,72.974-44.813,98.667c0.008,23.274,8.683,44.328,25.084,60.885
			c23.126,23.36,59.15,35.698,104.201,35.689c38.451-0.002,70.918-9.238,93.911-26.706c22.79-17.336,35.347-42.101,35.347-69.739
			C428.072,151.517,389.239,87.114,354.516,52.128z"/>
		<path id="XMLID_752_" fill="#CB2B21" d="M354.421,52.297c-20.708-20.869-39.425-31.421-55.637-31.377
			c-31.84,0.069-66.493,41.185-84.299,65.699c-22.214,30.544-44.659,72.85-44.736,98.499c0.008,23.235,8.668,44.253,25.041,60.782
			c23.086,23.32,59.05,35.637,104.024,35.629c38.385-0.002,70.797-9.222,93.751-26.661c22.751-17.306,35.287-42.029,35.287-69.62
			C427.852,151.516,389.086,87.224,354.421,52.297z"/>
		<path id="XMLID_751_" fill="#CC2B21" d="M354.326,52.465c-20.673-20.834-39.358-31.367-55.542-31.324
			c-31.786,0.069-66.379,41.115-84.155,65.587c-22.177,30.492-44.583,72.726-44.66,98.331c0.008,23.195,8.654,44.177,24.998,60.678
			c23.047,23.281,58.949,35.577,103.847,35.568c38.32-0.002,70.677-9.207,93.591-26.615c22.712-17.277,35.227-41.957,35.227-69.502
			C427.632,151.516,388.932,87.333,354.326,52.465z"/>
		<path id="XMLID_750_" fill="#CD2B21" d="M354.231,52.634c-20.638-20.798-39.29-31.314-55.447-31.27
			c-31.732,0.069-66.266,41.044-84.011,65.475c-22.139,30.44-44.507,72.602-44.584,98.163c0.008,23.155,8.639,44.102,24.956,60.574
			c23.008,23.241,58.849,35.516,103.67,35.507c38.254-0.002,70.556-9.191,93.431-26.57c22.674-17.247,35.166-41.886,35.166-69.383
			C427.412,151.515,388.778,87.442,354.231,52.634z"/>
		<path id="XMLID_749_" fill="#CD2B21" d="M354.136,52.802c-20.602-20.763-39.223-31.26-55.353-31.217
			c-31.677,0.069-66.153,40.974-83.867,65.363c-22.101,30.388-44.431,72.478-44.508,97.995c0.008,23.116,8.624,44.026,24.913,60.471
			c22.969,23.201,58.748,35.455,103.493,35.447c38.189-0.002,70.435-9.175,93.272-26.524c22.635-17.218,35.106-41.814,35.106-69.264
			C427.192,151.515,388.624,87.551,354.136,52.802z"/>
		<path id="XMLID_748_" fill="#CE2B21" d="M354.041,52.971c-20.567-20.727-39.156-31.207-55.258-31.163
			c-31.623,0.069-66.039,40.904-83.724,65.251c-22.063,30.336-44.355,72.354-44.432,97.828c0.008,23.076,8.609,43.951,24.87,60.367
			c22.929,23.162,58.648,35.394,103.316,35.386c38.123-0.002,70.315-9.159,93.112-26.479c22.596-17.188,35.046-41.742,35.046-69.146
			C426.972,151.514,388.47,87.66,354.041,52.971z"/>
		<path id="XMLID_747_" fill="#CF2B21" d="M353.947,53.14c-20.532-20.692-39.089-31.153-55.163-31.11
			c-31.569,0.069-65.926,40.834-83.58,65.139c-22.025,30.284-44.279,72.229-44.355,97.66c0.008,23.037,8.595,43.876,24.827,60.263
			c22.89,23.122,58.547,35.334,103.139,35.325c38.058-0.002,70.194-9.144,92.952-26.434c22.557-17.158,34.986-41.671,34.986-69.027
			C426.752,151.514,388.316,87.769,353.947,53.14z"/>
		<path id="XMLID_746_" fill="#CF2C21" d="M353.852,53.308c-20.496-20.656-39.022-31.1-55.068-31.056
			c-31.515,0.068-65.813,40.764-83.436,65.027c-21.987,30.232-44.203,72.105-44.279,97.492c0.008,22.997,8.58,43.8,24.785,60.16
			c22.851,23.082,58.447,35.273,102.961,35.265c37.992-0.002,70.074-9.128,92.792-26.388c22.518-17.129,34.925-41.599,34.925-68.908
			C426.532,151.513,388.162,87.878,353.852,53.308z"/>
		<path id="XMLID_745_" fill="#D02C21" d="M353.757,53.477c-20.461-20.621-38.954-31.046-54.973-31.003
			c-31.461,0.068-65.7,40.693-83.292,64.915c-21.949,30.18-44.127,71.981-44.203,97.324c0.008,22.957,8.565,43.725,24.742,60.056
			c22.811,23.043,58.346,35.212,102.784,35.204c37.927-0.002,69.953-9.112,92.632-26.343c22.479-17.099,34.865-41.527,34.865-68.79
			C426.312,151.513,388.008,87.987,353.757,53.477z"/>
		<path id="XMLID_744_" fill="#D02C20" d="M353.662,53.646c-20.426-20.585-38.887-30.993-54.878-30.949
			c-31.406,0.068-65.586,40.623-83.149,64.803c-21.912,30.128-44.051,71.857-44.127,97.156c0.008,22.918,8.55,43.649,24.699,59.952
			c22.772,23.003,58.246,35.152,102.607,35.143c37.861-0.002,69.832-9.096,92.473-26.297c22.44-17.07,34.805-41.456,34.805-68.671
			C426.092,151.512,387.854,88.096,353.662,53.646z"/>
		<path id="XMLID_743_" fill="#D12C20" d="M353.567,53.814c-20.39-20.549-38.82-30.939-54.784-30.896
			c-31.352,0.068-65.473,40.553-83.005,64.691c-21.874,30.076-43.975,71.733-44.051,96.988c0.008,22.878,8.536,43.574,24.656,59.848
			c22.733,22.963,58.145,35.091,102.43,35.083c37.796-0.001,69.712-9.081,92.313-26.252c22.402-17.04,34.745-41.384,34.745-68.552
			C425.872,151.512,387.7,88.205,353.567,53.814z"/>
		<path id="XMLID_742_" fill="#D22C20" d="M353.472,53.983c-20.355-20.514-38.753-30.886-54.689-30.842
			c-31.298,0.068-65.36,40.483-82.861,64.579c-21.836,30.024-43.899,71.609-43.974,96.82c0.008,22.839,8.521,43.498,24.614,59.745
			c22.693,22.924,58.045,35.03,102.253,35.022c37.73-0.001,69.591-9.065,92.153-26.207c22.363-17.011,34.685-41.312,34.685-68.434
			C425.652,151.511,387.546,88.314,353.472,53.983z"/>
		<path id="XMLID_741_" fill="#D22C20" d="M353.377,54.152c-20.32-20.478-38.685-30.832-54.594-30.789
			c-31.244,0.068-65.246,40.413-82.717,64.467c-21.798,29.972-43.823,71.485-43.898,96.653c0.008,22.799,8.506,43.423,24.571,59.641
			c22.654,22.884,57.944,34.969,102.076,34.962c37.665-0.001,69.47-9.049,91.993-26.161c22.324-16.981,34.624-41.24,34.624-68.315
			C425.432,151.511,387.392,88.423,353.377,54.152z"/>
		<path id="XMLID_740_" fill="#D32C20" d="M353.283,54.32c-20.284-20.443-38.618-30.779-54.499-30.735
			c-31.189,0.068-65.133,40.342-82.574,64.355c-21.76,29.92-43.747,71.36-43.822,96.485c0.008,22.76,8.491,43.347,24.528,59.537
			c22.615,22.844,57.844,34.909,101.898,34.901c37.599-0.001,69.35-9.034,91.833-26.116c22.285-16.951,34.564-41.169,34.564-68.196
			C425.212,151.51,387.238,88.533,353.283,54.32z"/>
		<path id="XMLID_738_" fill="#D32C20" d="M353.188,54.489c-20.249-20.407-38.551-30.725-54.404-30.682
			c-31.135,0.068-65.02,40.272-82.43,64.243c-21.722,29.868-43.671,71.236-43.746,96.317c0.008,22.72,8.477,43.272,24.486,59.434
			c22.576,22.805,57.743,34.848,101.721,34.84c37.534-0.001,69.229-9.018,91.674-26.07c22.246-16.922,34.504-41.097,34.504-68.078
			C424.992,151.51,387.085,88.642,353.188,54.489z"/>
	</g>
	<g id="XMLID_872_">
		<path id="XMLID_493_" fill="#D32C20" d="M190.269,186.803c0,43.898,6.335,56.301,6.335,56.301s-21.066-18.84-21.13-51.665
			c0-1.602,0.063-3.288,0.167-4.96c4.302-50.869,73.285-133.43,73.285-133.43S190.269,142.387,190.269,186.803z"/>
		<path id="XMLID_737_" fill="#D42E21" d="M196.574,243.043c0,0-21.01-18.806-21.077-51.596c0-1.599,0.044-3.283,0.166-4.951
			c3.71-50.848,73.133-133.25,73.133-133.25s-58.551,89.191-58.551,133.571C190.244,230.656,196.574,243.043,196.574,243.043z"/>
		<path id="XMLID_736_" fill="#D43021" d="M196.544,242.982c0,0-20.954-18.772-21.025-51.526c0-1.596,0.044-3.277,0.165-4.942
			c3.693-50.781,72.98-133.071,72.98-133.071s-58.445,89.044-58.445,133.389C190.22,230.612,196.544,242.982,196.544,242.982z"/>
		<path id="XMLID_735_" fill="#D43222" d="M196.515,242.92c0,0-20.898-18.738-20.972-51.457c0-1.593,0.043-3.271,0.164-4.932
			c3.677-50.714,72.828-132.891,72.828-132.891s-58.339,88.898-58.339,133.207C190.195,230.567,196.515,242.92,196.515,242.92z"/>
		<path id="XMLID_734_" fill="#D43423" d="M196.485,242.859c0,0-20.842-18.704-20.92-51.388c-0.001-1.59,0.043-3.264,0.163-4.923
			c3.661-50.648,72.676-132.712,72.676-132.712s-58.233,88.751-58.233,133.024C190.171,230.522,196.485,242.859,196.485,242.859z"/>
		<path id="XMLID_733_" fill="#D43524" d="M196.455,242.797c0,0-20.787-18.67-20.867-51.319c-0.001-1.587,0.043-3.258,0.162-4.914
			c3.644-50.581,72.524-132.533,72.524-132.533s-58.127,88.604-58.127,132.842C190.147,230.477,196.455,242.797,196.455,242.797z"/>
		<path id="XMLID_732_" fill="#D53724" d="M196.425,242.736c0,0-20.731-18.637-20.815-51.25c-0.001-1.584,0.042-3.252,0.161-4.904
			c3.628-50.514,72.372-132.353,72.372-132.353s-58.021,88.458-58.021,132.66C190.122,230.433,196.425,242.736,196.425,242.736z"/>
		<path id="XMLID_731_" fill="#D53925" d="M196.395,242.674c0,0-20.675-18.603-20.762-51.181c-0.001-1.581,0.042-3.246,0.16-4.895
			c3.611-50.447,72.22-132.174,72.22-132.174s-57.914,88.311-57.914,132.477C190.098,230.388,196.395,242.674,196.395,242.674z"/>
		<path id="XMLID_730_" fill="#D53A26" d="M196.365,242.613c0,0-20.619-18.569-20.71-51.112c-0.001-1.578,0.041-3.239,0.159-4.886
			c3.595-50.38,72.068-131.994,72.068-131.994s-57.808,88.164-57.808,132.295C190.074,230.343,196.365,242.613,196.365,242.613z"/>
		<path id="XMLID_729_" fill="#D53C27" d="M196.336,242.552c0,0-20.563-18.535-20.658-51.042c-0.001-1.575,0.041-3.233,0.158-4.876
			c3.579-50.313,71.915-131.815,71.915-131.815s-57.702,88.018-57.702,132.113C190.049,230.298,196.336,242.552,196.336,242.552z"/>
		<path id="XMLID_728_" fill="#D53D28" d="M196.306,242.49c0,0-20.507-18.501-20.605-50.973c-0.001-1.572,0.041-3.227,0.157-4.867
			c3.562-50.247,71.763-131.635,71.763-131.635s-57.596,87.871-57.596,131.93C190.025,230.253,196.306,242.49,196.306,242.49z"/>
		<path id="XMLID_727_" fill="#D63E28" d="M196.276,242.429c0,0-20.451-18.467-20.553-50.904c-0.001-1.569,0.04-3.221,0.156-4.858
			c3.546-50.18,71.611-131.456,71.611-131.456S190,142.935,190,186.959C190,230.209,196.276,242.429,196.276,242.429z"/>
		<path id="XMLID_726_" fill="#D64029" d="M196.246,242.367c0,0-20.395-18.433-20.5-50.835c-0.002-1.566,0.04-3.215,0.155-4.848
			c3.529-50.113,71.459-131.277,71.459-131.277s-57.384,87.578-57.384,131.566C189.976,230.164,196.246,242.367,196.246,242.367z"/>
		<path id="XMLID_725_" fill="#D6412A" d="M196.216,242.306c0,0-20.339-18.4-20.448-50.766c-0.002-1.563,0.04-3.208,0.154-4.839
			c3.513-50.046,71.307-131.097,71.307-131.097s-57.278,87.431-57.278,131.383C189.952,230.119,196.216,242.306,196.216,242.306z"/>
		<path id="XMLID_724_" fill="#D6432B" d="M196.186,242.244c0,0-20.283-18.366-20.395-50.697c-0.002-1.56,0.039-3.202,0.153-4.83
			C179.441,136.739,247.099,55.8,247.099,55.8s-57.172,87.285-57.172,131.201C189.927,230.074,196.186,242.244,196.186,242.244z"/>
		<path id="XMLID_723_" fill="#D6442C" d="M196.157,242.183c0,0-20.228-18.332-20.343-50.628c-0.002-1.557,0.039-3.196,0.152-4.82
			c3.48-49.913,71.003-130.738,71.003-130.738s-57.065,87.138-57.065,131.019C189.903,230.03,196.157,242.183,196.157,242.183z"/>
		<path id="XMLID_722_" fill="#D7462D" d="M196.127,242.122c0,0-20.172-18.298-20.29-50.559c-0.002-1.554,0.038-3.19,0.151-4.811
			c3.464-49.846,70.85-130.559,70.85-130.559s-56.959,86.991-56.959,130.836C189.878,229.985,196.127,242.122,196.127,242.122z"/>
		<path id="XMLID_721_" fill="#D7472D" d="M196.097,242.06c0,0-20.116-18.264-20.238-50.489c-0.002-1.551,0.038-3.183,0.15-4.802
			c3.447-49.779,70.698-130.379,70.698-130.379s-56.853,86.845-56.853,130.654C189.854,229.94,196.097,242.06,196.097,242.06z"/>
		<path id="XMLID_720_" fill="#D7482E" d="M196.067,241.999c0,0-20.06-18.23-20.186-50.42c-0.002-1.548,0.038-3.177,0.149-4.792
			c3.431-49.712,70.546-130.2,70.546-130.2s-56.747,86.698-56.747,130.472C189.83,229.895,196.067,241.999,196.067,241.999z"/>
		<path id="XMLID_719_" fill="#D7492F" d="M196.037,241.937c0,0-20.004-18.196-20.133-50.351c-0.003-1.545,0.037-3.171,0.148-4.783
			c3.414-49.645,70.394-130.02,70.394-130.02s-56.641,86.552-56.641,130.289C189.805,229.85,196.037,241.937,196.037,241.937z"/>
		<path id="XMLID_718_" fill="#D74A30" d="M196.007,241.876c0,0-19.948-18.162-20.081-50.282c-0.003-1.542,0.037-3.165,0.147-4.774
			c3.398-49.579,70.242-129.841,70.242-129.841s-56.535,86.405-56.535,130.107C189.781,229.806,196.007,241.876,196.007,241.876z"/>
		<path id="XMLID_717_" fill="#D84C31" d="M195.978,241.814c0,0-19.892-18.129-20.028-50.213c-0.003-1.539,0.037-3.159,0.146-4.764
			c3.381-49.512,70.09-129.662,70.09-129.662s-56.429,86.258-56.429,129.924C189.756,229.761,195.978,241.814,195.978,241.814z"/>
		<path id="XMLID_716_" fill="#D84D32" d="M195.948,241.753c0,0-19.836-18.095-19.976-50.144c-0.003-1.536,0.036-3.152,0.145-4.755
			c3.365-49.445,69.938-129.482,69.938-129.482s-56.323,86.112-56.323,129.742C189.732,229.716,195.948,241.753,195.948,241.753z"/>
		<path id="XMLID_715_" fill="#D84E32" d="M195.918,241.692c0,0-19.78-18.061-19.923-50.075c-0.003-1.533,0.036-3.146,0.144-4.746
			c3.348-49.378,69.785-129.303,69.785-129.303s-56.216,85.965-56.216,129.56C189.708,229.671,195.918,241.692,195.918,241.692z"/>
		<path id="XMLID_714_" fill="#D84F33" d="M195.888,241.63c0,0-19.724-18.027-19.871-50.006c-0.003-1.53,0.035-3.14,0.143-4.736
			c3.332-49.311,69.633-129.123,69.633-129.123s-56.11,85.818-56.11,129.377C189.683,229.627,195.888,241.63,195.888,241.63z"/>
		<path id="XMLID_713_" fill="#D85034" d="M195.858,241.569c0,0-19.668-17.993-19.819-49.936c-0.003-1.527,0.035-3.134,0.142-4.727
			c3.315-49.245,69.481-128.944,69.481-128.944s-56.004,85.672-56.004,129.195C189.659,229.582,195.858,241.569,195.858,241.569z"/>
		<path id="XMLID_712_" fill="#D85135" d="M195.828,241.507c0,0-19.613-17.959-19.766-49.867c-0.003-1.524,0.035-3.127,0.141-4.718
			c3.299-49.178,69.329-128.764,69.329-128.764s-55.898,85.525-55.898,129.013C189.635,229.537,195.828,241.507,195.828,241.507z"/>
		<path id="XMLID_711_" fill="#D95236" d="M195.798,241.446c0,0-19.557-17.925-19.714-49.798c-0.004-1.521,0.034-3.121,0.14-4.709
			c3.282-49.111,69.177-128.585,69.177-128.585s-55.792,85.379-55.792,128.83C189.61,229.492,195.798,241.446,195.798,241.446z"/>
		<path id="XMLID_710_" fill="#D95336" d="M195.769,241.385c0,0-19.501-17.891-19.661-49.729c-0.004-1.518,0.034-3.115,0.139-4.699
			c3.266-49.044,69.025-128.405,69.025-128.405s-55.686,85.232-55.686,128.648C189.586,229.447,195.769,241.385,195.769,241.385z"/>
		<path id="XMLID_709_" fill="#D95437" d="M195.739,241.323c0,0-19.445-17.858-19.609-49.66c-0.004-1.515,0.034-3.109,0.138-4.69
			c3.249-48.978,68.873-128.226,68.873-128.226s-55.58,85.085-55.58,128.466C189.561,229.403,195.739,241.323,195.739,241.323z"/>
		<path id="XMLID_708_" fill="#D95538" d="M195.709,241.262c0,0-19.389-17.824-19.556-49.591c-0.004-1.513,0.033-3.103,0.137-4.681
			c3.233-48.911,68.72-128.047,68.72-128.047s-55.473,84.939-55.473,128.283C189.537,229.358,195.709,241.262,195.709,241.262z"/>
		<path id="XMLID_707_" fill="#D95639" d="M195.679,241.2c0,0-19.333-17.79-19.504-49.522c-0.004-1.51,0.033-3.096,0.136-4.671
			C179.528,138.163,244.88,59.14,244.88,59.14s-55.367,84.792-55.367,128.101C189.513,229.313,195.679,241.2,195.679,241.2z"/>
		<path id="XMLID_706_" fill="#D9573A" d="M195.649,241.139c0,0-19.277-17.756-19.451-49.453c-0.004-1.507,0.032-3.09,0.135-4.662
			c3.2-48.777,68.416-127.688,68.416-127.688s-55.261,84.646-55.261,127.919C189.488,229.268,195.649,241.139,195.649,241.139z"/>
		<path id="XMLID_705_" fill="#DA583A" d="M195.619,241.077c0,0-19.221-17.722-19.399-49.383c-0.004-1.504,0.032-3.084,0.134-4.653
			c3.183-48.71,68.264-127.508,68.264-127.508s-55.155,84.499-55.155,127.736C189.464,229.224,195.619,241.077,195.619,241.077z"/>
		<path id="XMLID_704_" fill="#DA593B" d="M195.59,241.016c0,0-19.165-17.688-19.347-49.314c-0.005-1.501,0.032-3.078,0.133-4.643
			c3.167-48.644,68.112-127.329,68.112-127.329s-55.049,84.352-55.049,127.554C189.439,229.179,195.59,241.016,195.59,241.016z"/>
		<path id="XMLID_703_" fill="#DA5A3C" d="M195.56,240.955c0,0-19.109-17.654-19.294-49.245c-0.005-1.498,0.031-3.071,0.133-4.634
			c3.15-48.577,67.96-127.149,67.96-127.149s-54.943,84.206-54.943,127.372C189.415,229.134,195.56,240.955,195.56,240.955z"/>
		<path id="XMLID_702_" fill="#DA5B3D" d="M195.53,240.893c0,0-19.053-17.62-19.242-49.176c-0.005-1.495,0.031-3.065,0.132-4.625
			c3.134-48.51,67.807-126.97,67.807-126.97s-54.837,84.059-54.837,127.189C189.391,229.089,195.53,240.893,195.53,240.893z"/>
		<path id="XMLID_701_" fill="#DA5C3E" d="M195.5,240.832c0,0-18.998-17.587-19.189-49.107c-0.005-1.492,0.03-3.059,0.131-4.615
			c3.117-48.443,67.655-126.79,67.655-126.79s-54.731,83.912-54.731,127.007C189.366,229.045,195.5,240.832,195.5,240.832z"/>
		<path id="XMLID_700_" fill="#DB5D3E" d="M195.47,240.77c0,0-18.942-17.553-19.137-49.038c-0.005-1.489,0.03-3.053,0.13-4.606
			c3.101-48.377,67.503-126.611,67.503-126.611s-54.624,83.766-54.624,126.825C189.342,229,195.47,240.77,195.47,240.77z"/>
		<path id="XMLID_699_" fill="#DB5E3F" d="M195.44,240.709c0,0-18.886-17.519-19.084-48.969c-0.005-1.486,0.03-3.047,0.129-4.597
			c3.084-48.31,67.351-126.432,67.351-126.432s-54.518,83.619-54.518,126.642C189.317,228.955,195.44,240.709,195.44,240.709z"/>
		<path id="XMLID_698_" fill="#DB5F40" d="M195.411,240.647c0,0-18.83-17.485-19.032-48.9c-0.005-1.483,0.029-3.04,0.128-4.587
			c3.067-48.243,67.199-126.252,67.199-126.252s-54.412,83.473-54.412,126.46C189.293,228.91,195.411,240.647,195.411,240.647z"/>
		<path id="XMLID_697_" fill="#DB6041" d="M195.381,240.586c0,0-18.774-17.451-18.979-48.83c-0.006-1.48,0.029-3.034,0.127-4.578
			c3.051-48.176,67.047-126.073,67.047-126.073s-54.306,83.326-54.306,126.278C189.269,228.865,195.381,240.586,195.381,240.586z"/>
		<path id="XMLID_696_" fill="#DB6142" d="M195.351,240.525c0,0-18.718-17.417-18.927-48.761c-0.006-1.477,0.029-3.028,0.126-4.569
			c3.034-48.11,66.895-125.893,66.895-125.893s-54.2,83.179-54.2,126.095C189.244,228.821,195.351,240.525,195.351,240.525z"/>
		<path id="XMLID_695_" fill="#DC6242" d="M195.321,240.463c0,0-18.662-17.383-18.875-48.692c-0.006-1.474,0.028-3.022,0.125-4.559
			c3.018-48.043,66.743-125.714,66.743-125.714S189.22,144.53,189.22,187.411C189.22,228.776,195.321,240.463,195.321,240.463z"/>
		<path id="XMLID_694_" fill="#DC6343" d="M195.291,240.402c0,0-18.606-17.35-18.822-48.623c-0.006-1.471,0.028-3.015,0.124-4.55
			c3.001-47.976,66.59-125.534,66.59-125.534s-53.988,82.886-53.988,125.731C189.195,228.731,195.291,240.402,195.291,240.402z"/>
		<path id="XMLID_693_" fill="#DC6344" d="M195.261,240.34c0,0-18.55-17.316-18.77-48.554c-0.006-1.468,0.027-3.009,0.123-4.541
			c2.984-47.909,66.438-125.355,66.438-125.355s-53.882,82.739-53.882,125.548C189.171,228.686,195.261,240.34,195.261,240.34z"/>
		<path id="XMLID_692_" fill="#DC6445" d="M195.232,240.279c0,0-18.494-17.282-18.717-48.485c-0.006-1.465,0.027-3.003,0.122-4.531
			c2.968-47.843,66.286-125.175,66.286-125.175s-53.775,82.593-53.775,125.366C189.147,228.642,195.232,240.279,195.232,240.279z"/>
		<path id="XMLID_691_" fill="#DC6546" d="M195.202,240.217c0,0-18.439-17.248-18.665-48.416c-0.006-1.462,0.027-2.997,0.121-4.522
			c2.951-47.776,66.134-124.996,66.134-124.996s-53.669,82.446-53.669,125.184C189.122,228.597,195.202,240.217,195.202,240.217z"/>
		<path id="XMLID_690_" fill="#DC6646" d="M195.172,240.156c0,0-18.383-17.214-18.612-48.347c-0.006-1.459,0.026-2.991,0.12-4.513
			c2.935-47.709,65.982-124.817,65.982-124.817s-53.563,82.3-53.563,125.001C189.098,228.552,195.172,240.156,195.172,240.156z"/>
		<path id="XMLID_689_" fill="#DD6747" d="M195.142,240.095c0,0-18.327-17.18-18.56-48.277c-0.007-1.456,0.026-2.984,0.119-4.503
			c2.918-47.642,65.83-124.637,65.83-124.637s-53.457,82.153-53.457,124.819C189.074,228.507,195.142,240.095,195.142,240.095z"/>
		<path id="XMLID_688_" fill="#DD6848" d="M195.112,240.033c0,0-18.271-17.146-18.507-48.208c-0.007-1.453,0.025-2.978,0.118-4.494
			C179.624,139.755,242.4,62.873,242.4,62.873s-53.351,82.006-53.351,124.637C189.049,228.462,195.112,240.033,195.112,240.033z"/>
		<path id="XMLID_687_" fill="#DD6849" d="M195.082,239.972c0,0-18.215-17.112-18.455-48.139c-0.007-1.45,0.025-2.972,0.117-4.485
			c2.885-47.509,65.525-124.278,65.525-124.278s-53.245,81.86-53.245,124.454C189.025,228.418,195.082,239.972,195.082,239.972z"/>
		<path id="XMLID_686_" fill="#DD694A" d="M195.053,239.91c0,0-18.159-17.079-18.403-48.07c-0.007-1.447,0.025-2.966,0.116-4.475
			c2.868-47.442,65.373-124.099,65.373-124.099S189,144.979,189,187.538C189,228.373,195.053,239.91,195.053,239.91z"/>
		<path id="XMLID_685_" fill="#DD6A4A" d="M195.023,239.849c0,0-18.103-17.045-18.35-48.001c-0.007-1.444,0.024-2.96,0.115-4.466
			c2.851-47.375,65.221-123.919,65.221-123.919s-53.033,81.566-53.033,124.09C188.976,228.328,195.023,239.849,195.023,239.849z"/>
		<path id="XMLID_684_" fill="#DD6B4B" d="M194.993,239.787c0,0-18.047-17.011-18.298-47.932c-0.007-1.441,0.024-2.953,0.114-4.457
			c2.835-47.309,65.069-123.74,65.069-123.74s-52.926,81.42-52.926,123.907C188.952,228.283,194.993,239.787,194.993,239.787z"/>
		<path id="XMLID_683_" fill="#DE6C4C" d="M194.963,239.726c0,0-17.991-16.977-18.245-47.863c-0.007-1.438,0.023-2.947,0.113-4.448
			c2.818-47.242,64.917-123.56,64.917-123.56s-52.82,81.273-52.82,123.725C188.927,228.239,194.963,239.726,194.963,239.726z"/>
		<path id="XMLID_682_" fill="#DE6D4D" d="M194.933,239.665c0,0-17.935-16.943-18.193-47.794c-0.008-1.435,0.023-2.941,0.112-4.438
			c2.801-47.175,64.765-123.381,64.765-123.381s-52.714,81.127-52.714,123.543C188.903,228.194,194.933,239.665,194.933,239.665z"/>
		<path id="XMLID_681_" fill="#DE6D4E" d="M194.903,239.603c0,0-17.879-16.909-18.14-47.724c-0.008-1.432,0.023-2.935,0.111-4.429
			c2.785-47.109,64.613-123.202,64.613-123.202s-52.608,80.98-52.608,123.36C188.878,228.149,194.903,239.603,194.903,239.603z"/>
		<path id="XMLID_680_" fill="#DE6E4E" d="M194.874,239.542c0,0-17.824-16.875-18.088-47.655c-0.008-1.429,0.022-2.928,0.11-4.42
			c2.768-47.042,64.46-123.022,64.46-123.022s-52.502,80.833-52.502,123.178C188.854,228.104,194.874,239.542,194.874,239.542z"/>
		<path id="XMLID_679_" fill="#DE6F4F" d="M194.844,239.48c0,0-17.768-16.841-18.036-47.586c-0.008-1.426,0.022-2.922,0.109-4.41
			c2.751-46.975,64.308-122.843,64.308-122.843s-52.396,80.687-52.396,122.996C188.83,228.06,194.844,239.48,194.844,239.48z"/>
		<path id="XMLID_678_" fill="#DE7050" d="M194.814,239.419c0,0-17.712-16.808-17.983-47.517c-0.008-1.423,0.021-2.916,0.108-4.401
			c2.735-46.908,64.156-122.663,64.156-122.663s-52.29,80.54-52.29,122.813C188.805,228.015,194.814,239.419,194.814,239.419z"/>
		<path id="XMLID_677_" fill="#DF7151" d="M194.784,239.357c0,0-17.656-16.774-17.931-47.448c-0.008-1.421,0.021-2.91,0.107-4.392
			c2.718-46.842,64.004-122.484,64.004-122.484s-52.184,80.394-52.184,122.631C188.781,227.97,194.784,239.357,194.784,239.357z"/>
		<path id="XMLID_676_" fill="#DF7152" d="M194.754,239.296c0,0-17.6-16.74-17.878-47.379c-0.008-1.418,0.021-2.904,0.106-4.382
			c2.701-46.775,63.852-122.304,63.852-122.304s-52.077,80.247-52.077,122.449C188.756,227.925,194.754,239.296,194.754,239.296z"/>
		<path id="XMLID_675_" fill="#DF7252" d="M194.724,239.235c0,0-17.544-16.706-17.826-47.31c-0.008-1.415,0.02-2.897,0.105-4.373
			c2.684-46.708,63.7-122.125,63.7-122.125s-51.971,80.1-51.971,122.266C188.732,227.88,194.724,239.235,194.724,239.235z"/>
		<path id="XMLID_674_" fill="#DF7353" d="M194.695,239.173c0,0-17.488-16.672-17.773-47.241c-0.009-1.412,0.02-2.891,0.104-4.364
			c2.668-46.641,63.548-121.945,63.548-121.945s-51.865,79.954-51.865,122.084C188.708,227.836,194.695,239.173,194.695,239.173z"/>
		<path id="XMLID_673_" fill="#DF7454" d="M194.665,239.112c0,0-17.432-16.638-17.721-47.171c-0.009-1.409,0.02-2.885,0.103-4.354
			c2.651-46.575,63.395-121.766,63.395-121.766s-51.759,79.807-51.759,121.902C188.683,227.791,194.665,239.112,194.665,239.112z"/>
		<path id="XMLID_672_" fill="#DF7455" d="M194.635,239.05c0,0-17.376-16.604-17.668-47.102c-0.009-1.406,0.019-2.879,0.102-4.345
			c2.634-46.508,63.243-121.587,63.243-121.587s-51.653,79.66-51.653,121.719C188.659,227.746,194.635,239.05,194.635,239.05z"/>
		<path id="XMLID_671_" fill="#E07556" d="M194.605,238.989c0,0-17.32-16.57-17.616-47.033c-0.009-1.403,0.019-2.872,0.101-4.336
			c2.617-46.441,63.091-121.407,63.091-121.407s-51.547,79.514-51.547,121.537C188.635,227.701,194.605,238.989,194.605,238.989z"/>
		<path id="XMLID_670_" fill="#E07657" d="M194.575,238.927c0,0-17.264-16.537-17.564-46.964c-0.009-1.4,0.018-2.866,0.1-4.326
			c2.601-46.375,62.939-121.228,62.939-121.228s-51.441,79.367-51.441,121.355C188.61,227.657,194.575,238.927,194.575,238.927z"/>
		<path id="XMLID_669_" fill="#E07757" d="M194.545,238.866c0,0-17.209-16.503-17.511-46.895c-0.009-1.397,0.018-2.86,0.099-4.317
			c2.584-46.308,62.787-121.048,62.787-121.048s-51.334,79.221-51.334,121.172C188.586,227.612,194.545,238.866,194.545,238.866z"/>
		<path id="XMLID_668_" fill="#E07758" d="M194.515,238.805c0,0-17.153-16.469-17.459-46.826c-0.009-1.394,0.018-2.854,0.098-4.308
			c2.567-46.241,62.635-120.869,62.635-120.869s-51.228,79.074-51.228,120.99C188.561,227.567,194.515,238.805,194.515,238.805z"/>
		<path id="XMLID_667_" fill="#E07859" d="M194.486,238.743c0,0-17.097-16.435-17.406-46.757c-0.01-1.391,0.017-2.848,0.097-4.298
			c2.55-46.175,62.483-120.689,62.483-120.689s-51.122,78.927-51.122,120.808C188.537,227.522,194.486,238.743,194.486,238.743z"/>
		<path id="XMLID_666_" fill="#E1795A" d="M194.456,238.682c0,0-17.041-16.401-17.354-46.688c-0.01-1.388,0.017-2.841,0.096-4.289
			c2.534-46.108,62.33-120.51,62.33-120.51s-51.016,78.781-51.016,120.625C188.513,227.477,194.456,238.682,194.456,238.682z"/>
		<path id="XMLID_665_" fill="#E17A5A" d="M194.426,238.62c0,0-16.985-16.367-17.301-46.618c-0.01-1.385,0.016-2.835,0.095-4.28
			c2.517-46.041,62.178-120.33,62.178-120.33s-50.91,78.634-50.91,120.443C188.488,227.433,194.426,238.62,194.426,238.62z"/>
		<path id="XMLID_664_" fill="#E17A5B" d="M194.396,238.559c0,0-16.929-16.333-17.249-46.549c-0.01-1.382,0.016-2.829,0.094-4.27
			c2.5-45.974,62.026-120.151,62.026-120.151s-50.804,78.487-50.804,120.261C188.464,227.388,194.396,238.559,194.396,238.559z"/>
		<path id="XMLID_663_" fill="#E17B5C" d="M194.366,238.497c0,0-16.873-16.3-17.196-46.48c-0.01-1.379,0.016-2.823,0.093-4.261
			c2.483-45.908,61.874-119.972,61.874-119.972s-50.698,78.341-50.698,120.078C188.439,227.343,194.366,238.497,194.366,238.497z"/>
		<path id="XMLID_662_" fill="#E17C5D" d="M194.336,238.436c0,0-16.817-16.266-17.144-46.411c-0.01-1.376,0.015-2.816,0.092-4.252
			c2.466-45.841,61.722-119.792,61.722-119.792s-50.592,78.194-50.592,119.896C188.415,227.298,194.336,238.436,194.336,238.436z"/>
		<path id="XMLID_661_" fill="#E17D5E" d="M194.307,238.375c0,0-16.761-16.232-17.092-46.342c-0.01-1.373,0.015-2.81,0.091-4.242
			c2.45-45.774,61.57-119.613,61.57-119.613s-50.485,78.048-50.485,119.714C188.391,227.254,194.307,238.375,194.307,238.375z"/>
		<path id="XMLID_660_" fill="#E27D5E" d="M194.277,238.313c0,0-16.705-16.198-17.039-46.273c-0.011-1.37,0.014-2.804,0.09-4.233
			c2.433-45.708,61.418-119.433,61.418-119.433s-50.379,77.901-50.379,119.531C188.366,227.209,194.277,238.313,194.277,238.313z"/>
		<path id="XMLID_659_" fill="#E27E5F" d="M194.247,238.252c0,0-16.65-16.164-16.987-46.204c-0.011-1.367,0.014-2.798,0.089-4.224
			c2.416-45.641,61.265-119.254,61.265-119.254s-50.273,77.754-50.273,119.349C188.342,227.164,194.247,238.252,194.247,238.252z"/>
		<path id="XMLID_658_" fill="#E27F60" d="M194.217,238.19c0,0-16.594-16.13-16.934-46.135c-0.011-1.364,0.014-2.792,0.088-4.215
			c2.399-45.574,61.113-119.074,61.113-119.074s-50.167,77.608-50.167,119.167C188.317,227.119,194.217,238.19,194.217,238.19z"/>
		<path id="XMLID_657_" fill="#E28061" d="M194.187,238.129c0,0-16.538-16.096-16.882-46.065c-0.011-1.361,0.013-2.785,0.088-4.205
			c2.382-45.508,60.961-118.895,60.961-118.895s-50.061,77.461-50.061,118.984C188.293,227.074,194.187,238.129,194.187,238.129z"/>
		<path id="XMLID_656_" fill="#E28062" d="M194.157,238.067c0,0-16.482-16.062-16.829-45.996c-0.011-1.358,0.013-2.779,0.087-4.196
			c2.365-45.441,60.809-118.715,60.809-118.715s-49.955,77.314-49.955,118.802C188.269,227.03,194.157,238.067,194.157,238.067z"/>
		<path id="XMLID_655_" fill="#E38162" d="M194.128,238.006c0,0-16.426-16.029-16.777-45.927c-0.011-1.355,0.012-2.773,0.086-4.187
			c2.348-45.374,60.657-118.536,60.657-118.536s-49.849,77.168-49.849,118.62C188.244,226.985,194.128,238.006,194.128,238.006z"/>
		<path id="XMLID_654_" fill="#E38263" d="M194.098,237.945c0,0-16.37-15.995-16.725-45.858c-0.011-1.352,0.012-2.767,0.085-4.177
			c2.332-45.308,60.505-118.357,60.505-118.357S188.22,146.574,188.22,187.99C188.22,226.94,194.098,237.945,194.098,237.945z"/>
		<path id="XMLID_653_" fill="#E38364" d="M194.068,237.883c0,0-16.314-15.961-16.672-45.789c-0.011-1.349,0.012-2.761,0.084-4.168
			c2.315-45.241,60.353-118.177,60.353-118.177s-49.636,76.875-49.636,118.255C188.196,226.895,194.068,237.883,194.068,237.883z"/>
		<path id="XMLID_652_" fill="#E38365" d="M194.038,237.822c0,0-16.258-15.927-16.62-45.72c-0.012-1.346,0.011-2.754,0.083-4.159
			c2.298-45.174,60.2-117.998,60.2-117.998s-49.53,76.728-49.53,118.073C188.171,226.851,194.038,237.822,194.038,237.822z"/>
		<path id="XMLID_651_" fill="#E38466" d="M194.008,237.76c0,0-16.202-15.893-16.567-45.651c-0.012-1.343,0.011-2.748,0.082-4.149
			c2.281-45.108,60.048-117.818,60.048-117.818s-49.424,76.581-49.424,117.89C188.147,226.806,194.008,237.76,194.008,237.76z"/>
		<path id="XMLID_650_" fill="#E38566" d="M193.978,237.699c0,0-16.146-15.859-16.515-45.582c-0.012-1.34,0.01-2.742,0.081-4.14
			c2.264-45.041,59.896-117.639,59.896-117.639s-49.318,76.435-49.318,117.708C188.122,226.761,193.978,237.699,193.978,237.699z"/>
		<path id="XMLID_649_" fill="#E48667" d="M193.949,237.637c0,0-16.09-15.825-16.462-45.512c-0.012-1.337,0.01-2.736,0.08-4.131
			c2.247-44.974,59.744-117.459,59.744-117.459s-49.212,76.288-49.212,117.526C188.098,226.716,193.949,237.637,193.949,237.637z"/>
		<path id="XMLID_648_" fill="#E48668" d="M193.919,237.576c0,0-16.035-15.791-16.41-45.443c-0.012-1.334,0.01-2.729,0.079-4.121
			c2.23-44.908,59.592-117.28,59.592-117.28s-49.106,76.141-49.106,117.343C188.074,226.672,193.919,237.576,193.919,237.576z"/>
		<path id="XMLID_647_" fill="#E48769" d="M193.889,237.515c0,0-15.979-15.758-16.357-45.374c-0.012-1.331,0.009-2.723,0.078-4.112
			c2.213-44.841,59.44-117.1,59.44-117.1s-49,75.995-49,117.161C188.049,226.627,193.889,237.515,193.889,237.515z"/>
		<path id="XMLID_646_" fill="#E4886A" d="M193.859,237.453c0,0-15.923-15.724-16.305-45.305c-0.012-1.328,0.009-2.717,0.077-4.103
			c2.196-44.774,59.288-116.921,59.288-116.921s-48.894,75.848-48.894,116.979C188.025,226.582,193.859,237.453,193.859,237.453z"/>
		<path id="XMLID_645_" fill="#E4886A" d="M193.829,237.392c0,0-15.867-15.69-16.253-45.236c-0.013-1.326,0.008-2.711,0.076-4.093
			c2.179-44.708,59.135-116.742,59.135-116.742S188,147.022,188,188.117C188,226.537,193.829,237.392,193.829,237.392z"/>
		<path id="XMLID_644_" fill="#E4896B" d="M193.799,237.33c0,0-15.811-15.656-16.2-45.167c-0.013-1.323,0.008-2.705,0.075-4.084
			c2.162-44.641,58.983-116.562,58.983-116.562s-48.681,75.555-48.681,116.614C187.976,226.492,193.799,237.33,193.799,237.33z"/>
		<path id="XMLID_643_" fill="#E58A6C" d="M193.77,237.269c0,0-15.755-15.622-16.148-45.098c-0.013-1.32,0.008-2.698,0.074-4.075
			c2.145-44.574,58.831-116.383,58.831-116.383s-48.575,75.408-48.575,116.432C187.952,226.448,193.77,237.269,193.77,237.269z"/>
		<path id="XMLID_642_" fill="#E58B6D" d="M193.74,237.207c0,0-15.699-15.588-16.095-45.029c-0.013-1.317,0.007-2.692,0.073-4.065
			c2.128-44.508,58.679-116.203,58.679-116.203s-48.469,75.262-48.469,116.249C187.927,226.403,193.74,237.207,193.74,237.207z"/>
		<path id="XMLID_641_" fill="#E58B6E" d="M193.71,237.146c0,0-15.643-15.554-16.043-44.959c-0.013-1.314,0.007-2.686,0.072-4.056
			c2.111-44.441,58.527-116.024,58.527-116.024s-48.363,75.115-48.363,116.067C187.903,226.358,193.71,237.146,193.71,237.146z"/>
		<path id="XMLID_640_" fill="#E58C6F" d="M193.68,237.085c0,0-15.587-15.52-15.99-44.89c-0.013-1.311,0.006-2.68,0.071-4.047
			c2.094-44.374,58.375-115.844,58.375-115.844s-48.257,74.969-48.257,115.885C187.878,226.313,193.68,237.085,193.68,237.085z"/>
		<path id="XMLID_639_" fill="#E58D6F" d="M193.65,237.023c0,0-15.531-15.487-15.938-44.821c-0.013-1.308,0.006-2.673,0.07-4.037
			C179.86,143.857,236.005,72.5,236.005,72.5s-48.151,74.822-48.151,115.702C187.854,226.269,193.65,237.023,193.65,237.023z"/>
		<path id="XMLID_638_" fill="#E58E70" d="M193.62,236.962c0,0-15.475-15.453-15.885-44.752c-0.013-1.305,0.006-2.667,0.069-4.028
			c2.06-44.241,58.07-115.485,58.07-115.485s-48.045,74.675-48.045,115.52C187.83,226.224,193.62,236.962,193.62,236.962z"/>
		<path id="XMLID_637_" fill="#E58E71" d="M193.591,236.9c0,0-15.42-15.419-15.833-44.683c-0.014-1.302,0.005-2.661,0.068-4.019
			c2.043-44.174,57.918-115.306,57.918-115.306s-47.938,74.529-47.938,115.338C187.805,226.179,193.591,236.9,193.591,236.9z"/>
		<path id="XMLID_636_" fill="#E68F72" d="M193.561,236.839c0,0-15.364-15.385-15.781-44.614c-0.014-1.299,0.005-2.655,0.067-4.009
			c2.026-44.108,57.766-115.127,57.766-115.127s-47.832,74.382-47.832,115.155C187.781,226.134,193.561,236.839,193.561,236.839z"/>
		<path id="XMLID_635_" fill="#E69073" d="M193.531,236.777c0,0-15.308-15.351-15.728-44.545c-0.014-1.296,0.004-2.649,0.066-4
			c2.009-44.041,57.614-114.947,57.614-114.947s-47.726,74.235-47.726,114.973C187.756,226.089,193.531,236.777,193.531,236.777z"/>
		<path id="XMLID_634_" fill="#E69174" d="M193.501,236.716c0,0-15.252-15.317-15.676-44.476c-0.014-1.293,0.004-2.642,0.065-3.991
			c1.992-43.974,57.462-114.768,57.462-114.768s-47.62,74.089-47.62,114.791C187.732,226.045,193.501,236.716,193.501,236.716z"/>
		<path id="XMLID_633_" fill="#E69174" d="M193.471,236.655c0,0-15.196-15.283-15.623-44.406c-0.014-1.29,0.004-2.636,0.064-3.981
			c1.975-43.908,57.31-114.588,57.31-114.588s-47.514,73.942-47.514,114.608C187.708,226,193.471,236.655,193.471,236.655z"/>
		<path id="XMLID_632_" fill="#E69275" d="M193.441,236.593c0,0-15.14-15.25-15.571-44.337c-0.014-1.287,0.003-2.63,0.063-3.972
			c1.958-43.841,57.158-114.409,57.158-114.409s-47.408,73.796-47.408,114.426C187.683,225.955,193.441,236.593,193.441,236.593z"/>
		<path id="XMLID_631_" fill="#E79376" d="M193.411,236.532c0,0-15.084-15.216-15.518-44.268c-0.014-1.284,0.003-2.624,0.062-3.963
			c1.941-43.775,57.005-114.229,57.005-114.229s-47.302,73.649-47.302,114.244C187.659,225.91,193.411,236.532,193.411,236.532z"/>
		<path id="XMLID_630_" fill="#E79377" d="M193.382,236.47c0,0-15.028-15.182-15.466-44.199c-0.015-1.281,0.002-2.618,0.061-3.954
			c1.924-43.708,56.853-114.05,56.853-114.05s-47.195,73.502-47.195,114.061C187.635,225.866,193.382,236.47,193.382,236.47z"/>
		<path id="XMLID_629_" fill="#E79478" d="M193.352,236.409c0,0-14.972-15.148-15.413-44.13c-0.015-1.278,0.002-2.611,0.06-3.944
			C179.905,144.694,234.7,74.464,234.7,74.464S187.61,147.82,187.61,188.343C187.61,225.821,193.352,236.409,193.352,236.409z"/>
		<path id="XMLID_628_" fill="#E79578" d="M193.322,236.347c0,0-14.916-15.114-15.361-44.061c-0.015-1.275,0.001-2.605,0.059-3.935
			c1.89-43.575,56.549-113.691,56.549-113.691s-46.983,73.209-46.983,113.696C187.586,225.776,193.322,236.347,193.322,236.347z"/>
		<path id="XMLID_627_" fill="#E79679" d="M193.292,236.286c0,0-14.861-15.08-15.309-43.992c-0.015-1.272,0.001-2.599,0.058-3.926
			c1.873-43.508,56.397-113.512,56.397-113.512s-46.877,73.062-46.877,113.514C187.561,225.731,193.292,236.286,193.292,236.286z"/>
		<path id="XMLID_626_" fill="#E8967A" d="M193.262,236.225c0,0-14.805-15.046-15.256-43.923c-0.015-1.269,0.001-2.593,0.057-3.916
			c1.855-43.441,56.245-113.332,56.245-113.332s-46.771,72.916-46.771,113.332C187.537,225.687,193.262,236.225,193.262,236.225z"/>
		<path id="XMLID_625_" fill="#E8977B" d="M193.232,236.163c0,0-14.749-15.012-15.204-43.853c-0.015-1.266,0-2.586,0.056-3.907
			c1.838-43.375,56.093-113.153,56.093-113.153s-46.665,72.769-46.665,113.149C187.513,225.642,193.232,236.163,193.232,236.163z"/>
		<path id="XMLID_624_" fill="#E8987C" d="M193.203,236.102c0,0-14.693-14.979-15.151-43.784c-0.015-1.263,0-2.58,0.055-3.898
			c1.821-43.308,55.94-112.973,55.94-112.973s-46.559,72.623-46.559,112.967C187.488,225.597,193.203,236.102,193.203,236.102z"/>
		<path id="XMLID_623_" fill="#E8997D" d="M193.173,236.04c0,0-14.637-14.945-15.099-43.715c-0.015-1.26-0.001-2.574,0.054-3.888
			c1.804-43.242,55.788-112.794,55.788-112.794s-46.453,72.476-46.453,112.785C187.464,225.552,193.173,236.04,193.173,236.04z"/>
		<path id="XMLID_622_" fill="#E8997D" d="M193.143,235.979c0,0-14.581-14.911-15.046-43.646c-0.016-1.257-0.001-2.568,0.053-3.879
			c1.787-43.175,55.636-112.614,55.636-112.614s-46.346,72.329-46.346,112.602C187.439,225.507,193.143,235.979,193.143,235.979z"/>
		<path id="XMLID_621_" fill="#E99A7E" d="M193.113,235.917c0,0-14.525-14.877-14.994-43.577c-0.016-1.254-0.001-2.562,0.052-3.87
			c1.77-43.108,55.484-112.435,55.484-112.435s-46.24,72.183-46.24,112.42C187.415,225.463,193.113,235.917,193.113,235.917z"/>
		<path id="XMLID_620_" fill="#E99B7F" d="M193.083,235.856c0,0-14.469-14.843-14.942-43.508c-0.016-1.251-0.002-2.555,0.051-3.86
			c1.752-43.042,55.332-112.256,55.332-112.256s-46.134,72.036-46.134,112.238C187.391,225.418,193.083,235.856,193.083,235.856z"/>
		<path id="XMLID_619_" fill="#E99C80" d="M193.053,235.795c0,0-14.413-14.809-14.889-43.439c-0.016-1.248-0.002-2.549,0.05-3.851
			c1.735-42.975,55.18-112.076,55.18-112.076s-46.028,71.889-46.028,112.055C187.366,225.373,193.053,235.795,193.053,235.795z"/>
		<path id="XMLID_618_" fill="#E99D81" d="M193.024,235.733c0,0-14.357-14.775-14.837-43.37c-0.016-1.245-0.003-2.543,0.049-3.842
			c1.718-42.908,55.028-111.897,55.028-111.897s-45.922,71.743-45.922,111.873C187.342,225.328,193.024,235.733,193.024,235.733z"/>
		<path id="XMLID_617_" fill="#E99D82" d="M192.994,235.672c0,0-14.301-14.741-14.784-43.3c-0.016-1.242-0.003-2.537,0.048-3.832
			c1.701-42.842,54.875-111.717,54.875-111.717s-45.816,71.596-45.816,111.691C187.317,225.284,192.994,235.672,192.994,235.672z"/>
		<path id="XMLID_616_" fill="#E99E83" d="M192.964,235.61c0,0-14.246-14.708-14.732-43.231c-0.016-1.239-0.003-2.531,0.047-3.823
			c1.684-42.775,54.723-111.538,54.723-111.538s-45.71,71.45-45.71,111.508C187.293,225.239,192.964,235.61,192.964,235.61z"/>
		<path id="XMLID_615_" fill="#EA9F83" d="M192.934,235.549c0,0-14.19-14.674-14.679-43.162c-0.017-1.236-0.004-2.524,0.046-3.814
			c1.666-42.709,54.571-111.358,54.571-111.358s-45.604,71.303-45.604,111.326C187.269,225.194,192.934,235.549,192.934,235.549z"/>
		<path id="XMLID_614_" fill="#EAA084" d="M192.904,235.488c0,0-14.134-14.64-14.627-43.093c-0.017-1.233-0.004-2.518,0.045-3.804
			c1.649-42.642,54.419-111.179,54.419-111.179s-45.497,71.156-45.497,111.144C187.244,225.149,192.904,235.488,192.904,235.488z"/>
		<path id="XMLID_613_" fill="#EAA085" d="M192.874,235.426c0,0-14.078-14.606-14.574-43.024c-0.017-1.231-0.005-2.512,0.044-3.795
			c1.632-42.575,54.267-110.999,54.267-110.999s-45.391,71.01-45.391,110.961C187.22,225.104,192.874,235.426,192.874,235.426z"/>
		<path id="XMLID_612_" fill="#EAA186" d="M192.845,235.365c0,0-14.022-14.572-14.522-42.955c-0.017-1.228-0.005-2.506,0.043-3.786
			c1.615-42.509,54.115-110.82,54.115-110.82s-45.285,70.863-45.285,110.779C187.196,225.06,192.845,235.365,192.845,235.365z"/>
		<path id="XMLID_611_" fill="#EAA287" d="M192.815,235.303c0,0-13.966-14.538-14.47-42.886c-0.017-1.225-0.006-2.499,0.042-3.776
			c1.597-42.442,53.963-110.641,53.963-110.641s-45.179,70.717-45.179,110.597C187.171,225.015,192.815,235.303,192.815,235.303z"/>
		<path id="XMLID_610_" fill="#EBA388" d="M192.785,235.242c0,0-13.91-14.504-14.417-42.817c-0.017-1.222-0.006-2.493,0.042-3.767
			c1.58-42.376,53.81-110.461,53.81-110.461s-45.073,70.57-45.073,110.414C187.147,224.97,192.785,235.242,192.785,235.242z"/>
		<path id="XMLID_609_" fill="#EBA489" d="M192.755,235.18c0,0-13.854-14.47-14.365-42.747c-0.017-1.219-0.006-2.487,0.041-3.758
			c1.563-42.309,53.658-110.282,53.658-110.282s-44.967,70.423-44.967,110.232C187.122,224.925,192.755,235.18,192.755,235.18z"/>
		<path id="XMLID_608_" fill="#EBA48A" d="M192.725,235.119c0,0-13.798-14.437-14.312-42.678c-0.018-1.216-0.007-2.481,0.04-3.748
			c1.545-42.242,53.506-110.102,53.506-110.102s-44.861,70.277-44.861,110.05C187.098,224.881,192.725,235.119,192.725,235.119z"/>
		<path id="XMLID_607_" fill="#EBA58B" d="M192.695,235.058c0,0-13.742-14.403-14.26-42.609c-0.018-1.213-0.007-2.475,0.039-3.739
			c1.528-42.176,53.354-109.923,53.354-109.923s-44.755,70.13-44.755,109.867C187.074,224.836,192.695,235.058,192.695,235.058z"/>
		<path id="XMLID_606_" fill="#EBA68C" d="M192.666,234.996c0,0-13.686-14.369-14.207-42.54c-0.018-1.21-0.008-2.468,0.038-3.73
			c1.511-42.109,53.202-109.743,53.202-109.743s-44.648,69.983-44.648,109.685C187.049,224.791,192.666,234.996,192.666,234.996z"/>
		<path id="XMLID_605_" fill="#EBA78C" d="M192.636,234.935c0,0-13.631-14.335-14.155-42.471c-0.018-1.207-0.008-2.462,0.037-3.721
			c1.493-42.043,53.05-109.564,53.05-109.564s-44.542,69.837-44.542,109.503C187.025,224.746,192.636,234.935,192.636,234.935z"/>
		<path id="XMLID_604_" fill="#ECA88D" d="M192.606,234.873c0,0-13.575-14.301-14.102-42.402c-0.018-1.204-0.008-2.456,0.036-3.711
			c1.476-41.976,52.898-109.384,52.898-109.384S187,149.066,187,188.696C187,224.702,192.606,234.873,192.606,234.873z"/>
		<path id="XMLID_603_" fill="#ECA98E" d="M192.576,234.812c0,0-13.519-14.267-14.05-42.333c-0.018-1.201-0.009-2.45,0.035-3.702
			c1.459-41.91,52.745-109.205,52.745-109.205s-44.33,69.544-44.33,109.138C186.976,224.657,192.576,234.812,192.576,234.812z"/>
		<path id="XMLID_602_" fill="#ECA98F" d="M192.546,234.75c0,0-13.463-14.233-13.998-42.264c-0.018-1.198-0.009-2.444,0.034-3.693
			c1.441-41.843,52.593-109.026,52.593-109.026s-44.224,69.397-44.224,108.956C186.952,224.612,192.546,234.75,192.546,234.75z"/>
		<path id="XMLID_601_" fill="#ECAA90" d="M192.516,234.689c0,0-13.407-14.2-13.945-42.194c-0.018-1.195-0.01-2.437,0.033-3.683
			c1.424-41.776,52.441-108.846,52.441-108.846s-44.118,69.25-44.118,108.773C186.927,224.567,192.516,234.689,192.516,234.689z"/>
		<path id="XMLID_600_" fill="#ECAB91" d="M192.487,234.628c0,0-13.351-14.166-13.893-42.125c-0.019-1.192-0.01-2.431,0.032-3.674
			c1.406-41.71,52.289-108.667,52.289-108.667s-44.012,69.104-44.012,108.591C186.903,224.522,192.487,234.628,192.487,234.628z"/>
		<path id="XMLID_599_" fill="#EDAC92" d="M192.457,234.566c0,0-13.295-14.132-13.84-42.056c-0.019-1.189-0.011-2.425,0.031-3.665
			c1.389-41.643,52.137-108.487,52.137-108.487s-43.906,68.957-43.906,108.409C186.878,224.478,192.457,234.566,192.457,234.566z"/>
		<path id="XMLID_598_" fill="#EDAD93" d="M192.427,234.505c0,0-13.239-14.098-13.788-41.987c-0.019-1.186-0.011-2.419,0.03-3.655
			c1.372-41.577,51.985-108.308,51.985-108.308s-43.799,68.81-43.799,108.226C186.854,224.433,192.427,234.505,192.427,234.505z"/>
		<path id="XMLID_597_" fill="#EDAD94" d="M192.397,234.443c0,0-13.183-14.064-13.735-41.918c-0.019-1.183-0.011-2.412,0.029-3.646
			c1.354-41.51,51.833-108.128,51.833-108.128s-43.693,68.664-43.693,108.044C186.83,224.388,192.397,234.443,192.397,234.443z"/>
		<path id="XMLID_596_" fill="#EDAE95" d="M192.367,234.382c0,0-13.127-14.03-13.683-41.849c-0.019-1.18-0.012-2.406,0.028-3.637
			c1.337-41.444,51.68-107.949,51.68-107.949s-43.587,68.517-43.587,107.862C186.805,224.343,192.367,234.382,192.367,234.382z"/>
		<path id="XMLID_595_" fill="#EDAF96" d="M192.337,234.32c0,0-13.071-13.996-13.631-41.78c-0.019-1.177-0.012-2.4,0.027-3.627
			c1.319-41.377,51.528-107.769,51.528-107.769s-43.481,68.371-43.481,107.679C186.781,224.299,192.337,234.32,192.337,234.32z"/>
		<path id="XMLID_594_" fill="#EEB097" d="M192.307,234.259c0,0-13.016-13.962-13.578-41.711c-0.019-1.174-0.013-2.394,0.026-3.618
			c1.302-41.31,51.376-107.59,51.376-107.59s-43.375,68.224-43.375,107.497C186.756,224.254,192.307,234.259,192.307,234.259z"/>
		<path id="XMLID_593_" fill="#EEB198" d="M192.278,234.198c0,0-12.96-13.929-13.526-41.641c-0.02-1.171-0.013-2.388,0.025-3.609
			c1.284-41.244,51.224-107.411,51.224-107.411s-43.269,68.077-43.269,107.315C186.732,224.209,192.278,234.198,192.278,234.198z"/>
		<path id="XMLID_592_" fill="#EEB199" d="M192.248,234.136c0,0-12.904-13.895-13.473-41.572c-0.02-1.168-0.014-2.381,0.024-3.599
			c1.267-41.177,51.072-107.231,51.072-107.231s-43.163,67.931-43.163,107.132C186.708,224.164,192.248,234.136,192.248,234.136z"/>
		<path id="XMLID_591_" fill="#EEB29A" d="M192.218,234.075c0,0-12.848-13.861-13.421-41.503c-0.02-1.165-0.014-2.375,0.023-3.59
			c1.249-41.111,50.92-107.052,50.92-107.052s-43.056,67.784-43.056,106.95C186.683,224.119,192.218,234.075,192.218,234.075z"/>
		<path id="XMLID_590_" fill="#EEB39B" d="M192.188,234.013c0,0-12.792-13.827-13.368-41.434c-0.02-1.162-0.014-2.369,0.022-3.581
			c1.232-41.044,50.768-106.872,50.768-106.872s-42.95,67.637-42.95,106.768C186.659,224.075,192.188,234.013,192.188,234.013z"/>
		<path id="XMLID_589_" fill="#EFB49C" d="M192.158,233.952c0,0-12.736-13.793-13.316-41.365c-0.02-1.159-0.015-2.363,0.021-3.571
			c1.214-40.978,50.615-106.693,50.615-106.693s-42.844,67.491-42.844,106.585C186.635,224.03,192.158,233.952,192.158,233.952z"/>
		<path id="XMLID_588_" fill="#EFB59D" d="M192.128,233.89c0,0-12.68-13.759-13.263-41.296c-0.02-1.156-0.015-2.357,0.02-3.562
			c1.197-40.911,50.463-106.513,50.463-106.513s-42.738,67.344-42.738,106.403C186.61,223.985,192.128,233.89,192.128,233.89z"/>
		<path id="XMLID_587_" fill="#EFB69E" d="M192.099,233.829c0,0-12.624-13.725-13.211-41.227c-0.02-1.153-0.016-2.35,0.019-3.553
			c1.179-40.845,50.311-106.334,50.311-106.334s-42.632,67.198-42.632,106.221C186.586,223.94,192.099,233.829,192.099,233.829z"/>
		<path id="XMLID_586_" fill="#EFB69F" d="M192.069,233.768c0,0-12.568-13.691-13.159-41.158c-0.02-1.15-0.016-2.344,0.018-3.543
			c1.162-40.778,50.159-106.154,50.159-106.154s-42.526,67.051-42.526,106.038C186.561,223.896,192.069,233.768,192.069,233.768z"/>
		<path id="XMLID_585_" fill="#EFB7A0" d="M192.039,233.706c0,0-12.512-13.658-13.106-41.088c-0.021-1.147-0.017-2.338,0.017-3.534
			c1.144-40.711,50.007-105.975,50.007-105.975s-42.42,66.904-42.42,105.856C186.537,223.851,192.039,233.706,192.039,233.706z"/>
		<path id="XMLID_584_" fill="#EFB8A1" d="M192.009,233.645c0,0-12.457-13.624-13.054-41.019c-0.021-1.144-0.017-2.332,0.016-3.525
			c1.126-40.645,49.855-105.796,49.855-105.796s-42.314,66.758-42.314,105.674C186.513,223.806,192.009,233.645,192.009,233.645z"/>
		<path id="XMLID_583_" fill="#F0B9A2" d="M191.979,233.583c0,0-12.401-13.59-13.001-40.95c-0.021-1.141-0.017-2.325,0.015-3.515
			c1.109-40.578,49.703-105.616,49.703-105.616s-42.207,66.611-42.207,105.491C186.488,223.761,191.979,233.583,191.979,233.583z"/>
		<path id="XMLID_582_" fill="#F0BAA4" d="M191.949,233.522c0,0-12.345-13.556-12.949-40.881c-0.021-1.138-0.018-2.319,0.014-3.506
			c1.091-40.512,49.55-105.437,49.55-105.437s-42.101,66.464-42.101,105.309C186.464,223.716,191.949,233.522,191.949,233.522z"/>
		<path id="XMLID_581_" fill="#F0BBA5" d="M191.92,233.46c0,0-12.289-13.522-12.896-40.812c-0.021-1.136-0.018-2.313,0.013-3.497
			c1.073-40.445,49.398-105.257,49.398-105.257s-41.995,66.318-41.995,105.127C186.439,223.672,191.92,233.46,191.92,233.46z"/>
		<path id="XMLID_580_" fill="#F0BBA6" d="M191.89,233.399c0,0-12.233-13.488-12.844-40.743c-0.021-1.133-0.019-2.307,0.012-3.487
			c1.056-40.379,49.246-105.078,49.246-105.078s-41.889,66.171-41.889,104.944C186.415,223.627,191.89,233.399,191.89,233.399z"/>
		<path id="XMLID_579_" fill="#F0BCA7" d="M191.86,233.338c0,0-12.177-13.454-12.791-40.674c-0.021-1.13-0.019-2.301,0.011-3.478
			c1.038-40.312,49.094-104.898,49.094-104.898s-41.783,66.025-41.783,104.762C186.391,223.582,191.86,233.338,191.86,233.338z"/>
		<path id="XMLID_578_" fill="#F0BDA8" d="M191.83,233.276c0,0-12.121-13.421-12.739-40.605c-0.022-1.127-0.02-2.294,0.01-3.469
			c1.02-40.246,48.942-104.719,48.942-104.719s-41.677,65.878-41.677,104.58C186.366,223.537,191.83,233.276,191.83,233.276z"/>
		<path id="XMLID_577_" fill="#F1BEA9" d="M191.8,233.215c0,0-12.065-13.387-12.687-40.535c-0.022-1.124-0.02-2.288,0.009-3.46
			c1.003-40.179,48.79-104.539,48.79-104.539s-41.571,65.731-41.571,104.397C186.342,223.493,191.8,233.215,191.8,233.215z"/>
		<path id="XMLID_576_" fill="#F1BFAA" d="M191.77,233.153c0,0-12.009-13.353-12.634-40.466c-0.022-1.121-0.02-2.282,0.008-3.45
			c0.985-40.113,48.638-104.36,48.638-104.36s-41.465,65.585-41.465,104.215C186.317,223.448,191.77,233.153,191.77,233.153z"/>
		<path id="XMLID_575_" fill="#F1C0AB" d="M191.741,233.092c0,0-11.953-13.319-12.582-40.397c-0.022-1.118-0.021-2.276,0.007-3.441
			c0.967-40.046,48.485-104.181,48.485-104.181s-41.358,65.438-41.358,104.033C186.293,223.403,191.741,233.092,191.741,233.092z"/>
		<path id="XMLID_574_" fill="#F1C0AC" d="M191.711,233.03c0,0-11.897-13.285-12.529-40.328c-0.022-1.115-0.021-2.27,0.006-3.432
			c0.949-39.98,48.333-104.001,48.333-104.001s-41.252,65.292-41.252,103.85C186.269,223.358,191.711,233.03,191.711,233.03z"/>
		<path id="XMLID_573_" fill="#F1C1AD" d="M191.681,232.969c0,0-11.842-13.251-12.477-40.259c-0.022-1.112-0.022-2.263,0.005-3.422
			c0.932-39.913,48.181-103.822,48.181-103.822s-41.146,65.145-41.146,103.668C186.244,223.314,191.681,232.969,191.681,232.969z"/>
		<path id="XMLID_572_" fill="#F1C2AE" d="M191.651,232.908c0,0-11.786-13.217-12.424-40.19c-0.022-1.109-0.022-2.257,0.004-3.413
			c0.914-39.847,48.029-103.642,48.029-103.642s-41.04,64.998-41.04,103.486C186.22,223.269,191.651,232.908,191.651,232.908z"/>
		<path id="XMLID_571_" fill="#F1C3AF" d="M191.621,232.846c0,0-11.73-13.183-12.372-40.121c-0.022-1.106-0.023-2.251,0.003-3.404
			c0.896-39.78,47.877-103.463,47.877-103.463s-40.934,64.852-40.934,103.303C186.196,223.224,191.621,232.846,191.621,232.846z"/>
		<path id="XMLID_570_" fill="#F2C4B0" d="M191.591,232.785c0,0-11.674-13.15-12.319-40.051c-0.023-1.103-0.023-2.245,0.002-3.394
			c0.878-39.713,47.725-103.283,47.725-103.283s-40.828,64.705-40.828,103.121C186.171,223.179,191.591,232.785,191.591,232.785z"/>
		<path id="XMLID_569_" fill="#F2C5B1" d="M191.562,232.723c0,0-11.618-13.116-12.267-39.982c-0.023-1.1-0.023-2.238,0.001-3.385
			c0.861-39.647,47.573-103.104,47.573-103.104s-40.722,64.558-40.722,102.939C186.147,223.134,191.562,232.723,191.562,232.723z"/>
		<path id="XMLID_568_" fill="#F2C5B3" d="M191.532,232.662c0,0-11.562-13.082-12.215-39.913c-0.023-1.097-0.024-2.232,0-3.376
			c0.843-39.58,47.42-102.924,47.42-102.924s-40.616,64.412-40.616,102.756C186.122,223.09,191.532,232.662,191.532,232.662z"/>
		<path id="XMLID_567_" fill="#F2C6B4" d="M191.502,232.6c0,0-11.506-13.048-12.162-39.844c-0.023-1.094-0.024-2.226-0.001-3.366
			c0.825-39.514,47.268-102.745,47.268-102.745s-40.509,64.265-40.509,102.574C186.098,223.045,191.502,232.6,191.502,232.6z"/>
		<path id="XMLID_566_" fill="#F2C7B5" d="M191.472,232.539c0,0-11.45-13.014-12.11-39.775c-0.023-1.091-0.025-2.22-0.002-3.357
			c0.807-39.447,47.116-102.566,47.116-102.566s-40.403,64.119-40.403,102.392C186.074,223,191.472,232.539,191.472,232.539z"/>
		<path id="XMLID_565_" fill="#F3C8B6" d="M191.442,232.478c0,0-11.394-12.98-12.057-39.706c-0.023-1.088-0.025-2.214-0.003-3.348
			c0.789-39.381,46.964-102.386,46.964-102.386s-40.297,63.972-40.297,102.209C186.049,222.955,191.442,232.478,191.442,232.478z"/>
		<path id="XMLID_564_" fill="#F3C9B7" d="M191.412,232.416c0,0-11.338-12.946-12.005-39.637c-0.023-1.085-0.026-2.207-0.004-3.338
			c0.771-39.314,46.812-102.207,46.812-102.207s-40.191,63.825-40.191,102.027C186.025,222.911,191.412,232.416,191.412,232.416z"/>
		<path id="XMLID_563_" fill="#F3CAB8" d="M191.383,232.355c0,0-11.282-12.912-11.952-39.568c-0.024-1.082-0.026-2.201-0.004-3.329
			c0.753-39.248,46.66-102.027,46.66-102.027S186,151.11,186,189.275C186,222.866,191.383,232.355,191.383,232.355z"/>
		<path id="XMLID_562_" fill="#F3CAB9" d="M191.353,232.293c0,0-11.227-12.879-11.9-39.499c-0.024-1.079-0.027-2.195-0.005-3.32
			c0.735-39.181,46.508-101.848,46.508-101.848s-39.979,63.532-39.979,101.662C185.976,222.821,191.353,232.293,191.353,232.293z"/>
		<path id="XMLID_561_" fill="#F3CBBA" d="M191.323,232.232c0,0-11.171-12.845-11.848-39.429c-0.024-1.076-0.027-2.189-0.006-3.31
			c0.717-39.115,46.355-101.668,46.355-101.668s-39.873,63.385-39.873,101.48C185.952,222.776,191.323,232.232,191.323,232.232z"/>
		<path id="XMLID_560_" fill="#F4CCBB" d="M191.293,232.17c0,0-11.115-12.811-11.795-39.36c-0.024-1.073-0.027-2.183-0.007-3.301
			c0.699-39.048,46.203-101.489,46.203-101.489s-39.767,63.239-39.767,101.298C185.927,222.731,191.293,232.17,191.293,232.17z"/>
		<path id="XMLID_559_" fill="#F4CDBD" d="M191.263,232.109c0,0-11.059-12.777-11.743-39.291c-0.024-1.07-0.028-2.176-0.008-3.292
			c0.681-38.982,46.051-101.309,46.051-101.309s-39.66,63.092-39.66,101.115C185.903,222.687,191.263,232.109,191.263,232.109z"/>
		<path id="XMLID_558_" fill="#F4CEBE" d="M191.233,232.048c0,0-11.003-12.743-11.69-39.222c-0.024-1.067-0.028-2.17-0.009-3.282
			c0.663-38.915,45.899-101.13,45.899-101.13s-39.554,62.946-39.554,100.933C185.878,222.642,191.233,232.048,191.233,232.048z"/>
		<path id="XMLID_557_" fill="#F4CFBF" d="M191.204,231.986c0,0-10.947-12.709-11.638-39.153c-0.024-1.064-0.029-2.164-0.01-3.273
			c0.645-38.849,45.747-100.951,45.747-100.951s-39.448,62.799-39.448,100.751C185.854,222.597,191.204,231.986,191.204,231.986z"/>
		<path id="XMLID_556_" fill="#F4D0C0" d="M191.174,231.925c0,0-10.891-12.675-11.585-39.084c-0.025-1.061-0.029-2.158-0.011-3.264
			c0.627-38.782,45.595-100.771,45.595-100.771s-39.342,62.652-39.342,100.568C185.83,222.552,191.174,231.925,191.174,231.925z"/>
		<path id="XMLID_555_" fill="#F5D0C1" d="M191.144,231.863c0,0-10.835-12.641-11.533-39.015c-0.025-1.058-0.03-2.152-0.012-3.254
			c0.609-38.716,45.443-100.592,45.443-100.592s-39.236,62.506-39.236,100.386C185.805,222.508,191.144,231.863,191.144,231.863z"/>
		<path id="XMLID_554_" fill="#F5D1C2" d="M191.114,231.802c0,0-10.779-12.608-11.48-38.945c-0.025-1.055-0.03-2.145-0.013-3.245
			c0.591-38.649,45.29-100.412,45.29-100.412s-39.13,62.359-39.13,100.204C185.781,222.463,191.114,231.802,191.114,231.802z"/>
		<path id="XMLID_553_" fill="#F5D2C3" d="M191.084,231.74c0,0-10.723-12.574-11.428-38.876c-0.025-1.052-0.031-2.139-0.014-3.236
			c0.573-38.583,45.138-100.233,45.138-100.233s-39.024,62.212-39.024,100.021C185.756,222.418,191.084,231.74,191.084,231.74z"/>
		<path id="XMLID_552_" fill="#F5D3C4" d="M191.054,231.679c0,0-10.668-12.54-11.376-38.807c-0.025-1.049-0.031-2.133-0.015-3.227
			c0.555-38.516,44.986-100.053,44.986-100.053s-38.917,62.066-38.917,99.839C185.732,222.373,191.054,231.679,191.054,231.679z"/>
		<path id="XMLID_551_" fill="#F5D4C5" d="M191.024,231.618c0,0-10.612-12.506-11.323-38.738c-0.025-1.046-0.031-2.127-0.016-3.217
			c0.537-38.45,44.834-99.874,44.834-99.874s-38.811,61.919-38.811,99.657C185.708,222.329,191.024,231.618,191.024,231.618z"/>
		<path id="XMLID_550_" fill="#F5D5C7" d="M190.995,231.556c0,0-10.556-12.472-11.271-38.669c-0.025-1.044-0.032-2.12-0.017-3.208
			c0.519-38.383,44.682-99.694,44.682-99.694s-38.705,61.773-38.705,99.474C185.683,222.284,190.995,231.556,190.995,231.556z"/>
		<path id="XMLID_549_" fill="#F6D5C8" d="M190.965,231.495c0,0-10.5-12.438-11.218-38.6c-0.025-1.041-0.032-2.114-0.018-3.199
			c0.501-38.317,44.53-99.515,44.53-99.515s-38.599,61.626-38.599,99.292C185.659,222.239,190.965,231.495,190.965,231.495z"/>
		<path id="XMLID_548_" fill="#F6D6C9" d="M190.935,231.433c0,0-10.444-12.404-11.166-38.531c-0.026-1.038-0.033-2.108-0.019-3.189
			c0.483-38.25,44.378-99.336,44.378-99.336s-38.493,61.479-38.493,99.11C185.635,222.194,190.935,231.433,190.935,231.433z"/>
		<path id="XMLID_547_" fill="#F6D7CA" d="M190.905,231.372c0,0-10.388-12.37-11.113-38.462c-0.026-1.035-0.033-2.102-0.02-3.18
			c0.464-38.184,44.225-99.156,44.225-99.156s-38.387,61.333-38.387,98.927C185.61,222.149,190.905,231.372,190.905,231.372z"/>
		<path id="XMLID_546_" fill="#F6D8CB" d="M190.875,231.31c0,0-10.332-12.337-11.061-38.392c-0.026-1.032-0.034-2.096-0.021-3.171
			c0.446-38.118,44.073-98.977,44.073-98.977s-38.281,61.186-38.281,98.745C185.586,222.105,190.875,231.31,190.875,231.31z"/>
		<path id="XMLID_545_" fill="#F6D9CC" d="M190.845,231.249c0,0-10.276-12.303-11.008-38.323c-0.026-1.029-0.034-2.089-0.022-3.161
			c0.428-38.051,43.921-98.797,43.921-98.797s-38.175,61.04-38.175,98.563C185.561,222.06,190.845,231.249,190.845,231.249z"/>
		<path id="XMLID_544_" fill="#F6DACD" d="M190.816,231.188c0,0-10.22-12.269-10.956-38.254c-0.026-1.026-0.035-2.083-0.023-3.152
			c0.41-37.985,43.769-98.618,43.769-98.618s-38.068,60.893-38.068,98.38C185.537,222.015,190.816,231.188,190.816,231.188z"/>
		<path id="XMLID_543_" fill="#F7DBCE" d="M190.786,231.126c0,0-10.164-12.235-10.904-38.185c-0.026-1.023-0.035-2.077-0.024-3.143
			c0.391-37.918,43.617-98.438,43.617-98.438s-37.962,60.746-37.962,98.198C185.513,221.97,190.786,231.126,190.786,231.126z"/>
		<path id="XMLID_542_" fill="#F7DBD0" d="M190.756,231.065c0,0-10.108-12.201-10.851-38.116c-0.026-1.02-0.036-2.071-0.025-3.133
			c0.373-37.852,43.465-98.259,43.465-98.259s-37.856,60.6-37.856,98.016C185.488,221.926,190.756,231.065,190.756,231.065z"/>
		<path id="XMLID_541_" fill="#F7DCD1" d="M190.726,231.003c0,0-10.053-12.167-10.799-38.047c-0.027-1.017-0.036-2.065-0.026-3.124
			c0.355-37.785,43.313-98.079,43.313-98.079s-37.75,60.453-37.75,97.833C185.464,221.881,190.726,231.003,190.726,231.003z"/>
		<path id="XMLID_540_" fill="#F7DDD2" d="M190.696,230.942c0,0-9.997-12.133-10.746-37.978c-0.027-1.014-0.034-2.058-0.027-3.115
			c0.411-37.718,43.16-97.9,43.16-97.9s-37.644,60.306-37.644,97.651C185.439,221.836,190.696,230.942,190.696,230.942z"/>
		<path id="XMLID_539_" fill="#F7DED3" d="M190.666,230.88c0,0-9.941-12.1-10.694-37.909c-0.027-1.011-0.035-2.052-0.028-3.105
			c0.391-37.652,43.008-97.721,43.008-97.721s-37.538,60.16-37.538,97.468C185.415,221.791,190.666,230.88,190.666,230.88z"/>
		<path id="XMLID_538_" fill="#F7DFD4" d="M190.637,230.819c0,0-9.885-12.066-10.641-37.839c-0.027-1.008-0.035-2.046-0.029-3.096
			c0.372-37.585,42.856-97.541,42.856-97.541s-37.432,60.013-37.432,97.286C185.391,221.746,190.637,230.819,190.637,230.819z"/>
		<path id="XMLID_537_" fill="#F8E0D5" d="M190.607,230.758c0,0-9.829-12.032-10.589-37.77c-0.027-1.005-0.036-2.04-0.03-3.087
			c0.352-37.519,42.704-97.362,42.704-97.362s-37.326,59.867-37.326,97.104C185.366,221.702,190.607,230.758,190.607,230.758z"/>
		<path id="XMLID_536_" fill="#F8E0D6" d="M190.577,230.696c0,0-9.773-11.998-10.536-37.701c-0.027-1.002-0.036-2.033-0.031-3.077
			c0.332-37.452,42.552-97.182,42.552-97.182s-37.219,59.72-37.219,96.921C185.342,221.657,190.577,230.696,190.577,230.696z"/>
		<path id="XMLID_535_" fill="#F8E1D7" d="M190.547,230.635c0,0-9.717-11.964-10.484-37.632c-0.027-0.999-0.037-2.027-0.032-3.068
			c0.313-37.386,42.4-97.003,42.4-97.003s-37.113,59.573-37.113,96.739C185.317,221.612,190.547,230.635,190.547,230.635z"/>
		<path id="XMLID_534_" fill="#F8E2D8" d="M190.517,230.573c0,0-9.661-11.93-10.432-37.563c-0.027-0.996-0.037-2.021-0.033-3.059
			c0.293-37.319,42.248-96.823,42.248-96.823s-37.007,59.427-37.007,96.557C185.293,221.567,190.517,230.573,190.517,230.573z"/>
		<path id="XMLID_533_" fill="#F8E3D9" d="M190.487,230.512c0,0-9.605-11.896-10.379-37.494c-0.028-0.993-0.038-2.015-0.034-3.049
			c0.273-37.253,42.095-96.644,42.095-96.644s-36.901,59.28-36.901,96.374C185.269,221.523,190.487,230.512,190.487,230.512z"/>
		<path id="XMLID_532_" fill="#F9E4DA" d="M190.458,230.45c0,0-9.549-11.862-10.327-37.425c-0.028-0.99-0.038-2.009-0.035-3.04
			c0.254-37.187,41.943-96.465,41.943-96.465s-36.795,59.133-36.795,96.192C185.244,221.478,190.458,230.45,190.458,230.45z"/>
		<path id="XMLID_531_" fill="#F9E5DB" d="M190.428,230.389c0,0-9.493-11.829-10.274-37.356c-0.028-0.987-0.039-2.002-0.036-3.031
			c0.234-37.12,41.791-96.285,41.791-96.285s-36.689,58.987-36.689,96.01C185.22,221.433,190.428,230.389,190.428,230.389z"/>
		<path id="XMLID_530_" fill="#F9E5DD" d="M190.398,230.328c0,0-9.438-11.795-10.222-37.286c-0.028-0.984-0.039-1.996-0.037-3.021
			c0.215-37.054,41.639-96.106,41.639-96.106s-36.583,58.84-36.583,95.827C185.196,221.388,190.398,230.328,190.398,230.328z"/>
		<path id="XMLID_529_" fill="#F9E6DE" d="M190.368,230.266c0,0-9.382-11.761-10.169-37.217c-0.028-0.981-0.04-1.99-0.038-3.012
			c0.195-36.987,41.487-95.926,41.487-95.926s-36.477,58.694-36.477,95.645C185.171,221.343,190.368,230.266,190.368,230.266z"/>
		<path id="XMLID_528_" fill="#F9E7DF" d="M190.338,230.205c0,0-9.326-11.727-10.117-37.148c-0.028-0.978-0.04-1.984-0.039-3.003
			c0.175-36.921,41.335-95.747,41.335-95.747s-36.37,58.547-36.37,95.463C185.147,221.299,190.338,230.205,190.338,230.205z"/>
		<path id="XMLID_527_" fill="#FAE8E0" d="M190.308,230.143c0,0-9.27-11.693-10.065-37.079c-0.028-0.975-0.041-1.978-0.04-2.993
			c0.156-36.854,41.183-95.567,41.183-95.567s-36.264,58.4-36.264,95.28C185.122,221.254,190.308,230.143,190.308,230.143z"/>
		<path id="XMLID_526_" fill="#FAE9E1" d="M190.279,230.082c0,0-9.214-11.659-10.012-37.01c-0.029-0.972-0.041-1.971-0.041-2.984
			c0.136-36.788,41.03-95.388,41.03-95.388s-36.158,58.254-36.158,95.098C185.098,221.209,190.279,230.082,190.279,230.082z"/>
		<path id="XMLID_525_" fill="#FAEAE2" d="M190.249,230.02c0,0-9.158-11.625-9.96-36.941c-0.029-0.969-0.042-1.965-0.042-2.975
			c0.116-36.722,40.878-95.208,40.878-95.208s-36.052,58.107-36.052,94.916C185.074,221.164,190.249,230.02,190.249,230.02z"/>
		<path id="XMLID_524_" fill="#FAEAE3" d="M190.219,229.959c0,0-9.102-11.591-9.907-36.872c-0.029-0.966-0.042-1.959-0.043-2.966
			c0.097-36.655,40.726-95.029,40.726-95.029s-35.946,57.96-35.946,94.733C185.049,221.12,190.219,229.959,190.219,229.959z"/>
		<path id="XMLID_523_" fill="#FBEBE4" d="M190.189,229.898c0,0-9.046-11.558-9.855-36.803c-0.029-0.963-0.043-1.953-0.044-2.956
			c0.077-36.589,40.574-94.85,40.574-94.85s-35.84,57.814-35.84,94.551C185.025,221.075,190.189,229.898,190.189,229.898z"/>
		<path id="XMLID_522_" fill="#FBECE5" d="M190.159,229.836c0,0-8.99-11.524-9.802-36.733c-0.029-0.96-0.043-1.947-0.045-2.947
			c0.057-36.522,40.422-94.67,40.422-94.67S185,153.153,185,189.855C185,221.03,190.159,229.836,190.159,229.836z"/>
		<path id="XMLID_521_" fill="#FBEDE6" d="M190.129,229.775c0,0-8.934-11.49-9.75-36.664c-0.029-0.957-0.044-1.94-0.046-2.938
			c0.038-36.456,40.27-94.491,40.27-94.491s-35.628,57.521-35.628,94.186C184.976,220.985,190.129,229.775,190.129,229.775z"/>
		<path id="XMLID_520_" fill="#FBEEE7" d="M190.1,229.713c0,0-8.879-11.456-9.697-36.595c-0.029-0.954-0.044-1.934-0.047-2.928
			c0.018-36.39,40.118-94.311,40.118-94.311s-35.521,57.374-35.521,94.004C184.952,220.941,190.1,229.713,190.1,229.713z"/>
		<path id="XMLID_519_" fill="#FBEEE8" d="M190.07,229.652c0,0-8.823-11.422-9.645-36.526c-0.029-0.951-0.045-1.928-0.048-2.919
			c-0.002-36.323,39.965-94.132,39.965-94.132s-35.415,57.227-35.415,93.822C184.927,220.896,190.07,229.652,190.07,229.652z"/>
		<path id="XMLID_518_" fill="#FBEFE9" d="M190.04,229.59c0,0-8.767-11.388-9.593-36.457c-0.03-0.949-0.045-1.922-0.049-2.91
			c-0.021-36.257,39.813-93.952,39.813-93.952s-35.309,57.081-35.309,93.639C184.903,220.851,190.04,229.59,190.04,229.59z"/>
		<path id="XMLID_517_" fill="#FCF0EA" d="M190.01,229.529c0,0-8.711-11.354-9.54-36.388c-0.03-0.946-0.046-1.915-0.05-2.9
			c-0.041-36.19,39.661-93.773,39.661-93.773s-35.203,56.934-35.203,93.457C184.878,220.806,190.01,229.529,190.01,229.529z"/>
		<path id="XMLID_516_" fill="#FCF1EB" d="M189.98,229.468c0,0-8.655-11.32-9.488-36.319c-0.03-0.943-0.046-1.909-0.05-2.891
			c-0.061-36.124,39.509-93.593,39.509-93.593s-35.097,56.788-35.097,93.275C184.854,220.761,189.98,229.468,189.98,229.468z"/>
		<path id="XMLID_515_" fill="#FCF1EC" d="M189.95,229.406c0,0-8.599-11.287-9.435-36.25c-0.03-0.94-0.047-1.903-0.051-2.882
			c-0.08-36.057,39.357-93.414,39.357-93.414s-34.991,56.641-34.991,93.092C184.83,220.717,189.95,229.406,189.95,229.406z"/>
		<path id="XMLID_514_" fill="#FCF2ED" d="M189.92,229.345c0,0-8.543-11.253-9.383-36.18c-0.03-0.937-0.047-1.897-0.052-2.872
			c-0.1-35.991,39.205-93.235,39.205-93.235s-34.885,56.494-34.885,92.91C184.805,220.672,189.92,229.345,189.92,229.345z"/>
		<path id="XMLID_513_" fill="#FCF3EE" d="M189.891,229.283c0,0-8.487-11.219-9.33-36.111c-0.03-0.934-0.048-1.891-0.053-2.863
			c-0.12-35.925,39.053-93.055,39.053-93.055s-34.778,56.348-34.778,92.728C184.781,220.627,189.891,229.283,189.891,229.283z"/>
		<path id="XMLID_512_" fill="#FDF4EF" d="M189.861,229.222c0,0-8.431-11.185-9.278-36.042c-0.03-0.931-0.048-1.884-0.054-2.854
			c-0.139-35.858,38.9-92.876,38.9-92.876s-34.672,56.201-34.672,92.545C184.757,220.582,189.861,229.222,189.861,229.222z"/>
		<path id="XMLID_511_" fill="#FDF4F0" d="M189.831,229.161c0,0-8.375-11.151-9.226-35.973c-0.031-0.928-0.049-1.878-0.055-2.844
			c-0.159-35.792,38.748-92.696,38.748-92.696s-34.566,56.054-34.566,92.363C184.732,220.538,189.831,229.161,189.831,229.161z"/>
		<path id="XMLID_510_" fill="#FDF5F1" d="M189.801,229.099c0,0-8.319-11.117-9.173-35.904c-0.031-0.925-0.049-1.872-0.056-2.835
			c-0.179-35.725,38.596-92.517,38.596-92.517s-34.46,55.908-34.46,92.181C184.708,220.493,189.801,229.099,189.801,229.099z"/>
		<path id="XMLID_509_" fill="#FDF6F2" d="M189.771,229.038c0,0-8.264-11.083-9.121-35.835c-0.031-0.922-0.05-1.866-0.057-2.826
			c-0.198-35.659,38.444-92.337,38.444-92.337s-34.354,55.761-34.354,91.998C184.683,220.448,189.771,229.038,189.771,229.038z"/>
		<path id="XMLID_508_" fill="#FDF7F3" d="M189.741,228.976c0,0-8.208-11.05-9.068-35.766c-0.031-0.919-0.05-1.86-0.058-2.816
			c-0.218-35.592,38.292-92.158,38.292-92.158s-34.248,55.615-34.248,91.816C184.659,220.403,189.741,228.976,189.741,228.976z"/>
		<path id="XMLID_507_" fill="#FDF7F4" d="M189.712,228.915c0,0-8.152-11.016-9.016-35.697c-0.031-0.916-0.051-1.853-0.059-2.807
			c-0.237-35.526,38.14-91.978,38.14-91.978s-34.142,55.468-34.142,91.634C184.635,220.358,189.712,228.915,189.712,228.915z"/>
		<path id="XMLID_506_" fill="#FEF8F5" d="M189.682,228.853c0,0-8.096-10.982-8.963-35.627c-0.031-0.913-0.051-1.847-0.06-2.798
			c-0.257-35.46,37.988-91.799,37.988-91.799s-34.036,55.321-34.036,91.451C184.61,220.314,189.682,228.853,189.682,228.853z"/>
		<path id="XMLID_505_" fill="#FEF9F6" d="M189.652,228.792c0,0-8.04-10.948-8.911-35.558c-0.031-0.91-0.052-1.841-0.061-2.788
			c-0.277-35.393,37.835-91.62,37.835-91.62S184.586,154,184.586,190.095C184.586,220.269,189.652,228.792,189.652,228.792z"/>
		<path id="XMLID_504_" fill="#FEF9F7" d="M189.622,228.731c0,0-7.984-10.914-8.858-35.489c-0.032-0.907-0.052-1.835-0.062-2.779
			c-0.296-35.327,37.683-91.44,37.683-91.44s-33.823,55.028-33.823,91.087C184.561,220.224,189.622,228.731,189.622,228.731z"/>
		<path id="XMLID_503_" fill="#FEFAF8" d="M189.592,228.669c0,0-7.928-10.88-8.806-35.42c-0.032-0.904-0.053-1.829-0.063-2.77
			c-0.316-35.26,37.531-91.261,37.531-91.261s-33.717,54.881-33.717,90.904C184.537,220.179,189.592,228.669,189.592,228.669z"/>
		<path id="XMLID_502_" fill="#FEFBF9" d="M189.562,228.608c0,0-7.872-10.846-8.754-35.351c-0.032-0.901-0.053-1.822-0.064-2.76
			c-0.336-35.194,37.379-91.081,37.379-91.081s-33.611,54.735-33.611,90.722C184.513,220.135,189.562,228.608,189.562,228.608z"/>
		<path id="XMLID_501_" fill="#FEFCFA" d="M189.533,228.546c0,0-7.816-10.812-8.701-35.282c-0.032-0.898-0.054-1.816-0.065-2.751
			c-0.355-35.128,37.227-90.902,37.227-90.902s-33.505,54.588-33.505,90.54C184.488,220.09,189.533,228.546,189.533,228.546z"/>
		<path id="XMLID_500_" fill="#FEFCFA" d="M189.503,228.485c0,0-7.76-10.779-8.649-35.213c-0.032-0.895-0.054-1.81-0.066-2.742
			c-0.375-35.061,37.075-90.722,37.075-90.722s-33.399,54.442-33.399,90.357C184.464,220.045,189.503,228.485,189.503,228.485z"/>
		<path id="XMLID_499_" fill="#FFFDFB" d="M189.473,228.423c0,0-7.704-10.745-8.596-35.144c-0.032-0.892-0.055-1.804-0.067-2.732
			c-0.395-34.995,36.923-90.543,36.923-90.543s-33.293,54.295-33.293,90.175C184.439,220,189.473,228.423,189.473,228.423z"/>
		<path id="XMLID_498_" fill="#FFFDFC" d="M189.443,228.362c0,0-7.649-10.711-8.544-35.074c-0.032-0.889-0.055-1.798-0.068-2.723
			c-0.414-34.928,36.77-90.363,36.77-90.363s-33.187,54.148-33.187,89.993C184.415,219.956,189.443,228.362,189.443,228.362z"/>
		<path id="XMLID_497_" fill="#FFFEFD" d="M189.413,228.301c0,0-7.593-10.677-8.491-35.005c-0.032-0.886-0.056-1.791-0.069-2.714
			c-0.434-34.862,36.618-90.184,36.618-90.184s-33.08,54.002-33.08,89.81C184.391,219.911,189.413,228.301,189.413,228.301z"/>
		<path id="XMLID_496_" fill="#FFFEFE" d="M189.383,228.239c0,0-7.537-10.643-8.439-34.936c-0.033-0.883-0.056-1.785-0.07-2.705
			c-0.454-34.795,36.466-90.005,36.466-90.005s-32.974,53.855-32.974,89.628C184.366,219.866,189.383,228.239,189.383,228.239z"/>
		<path id="XMLID_495_" fill="#FFFFFE" d="M189.354,228.178c0,0-7.481-10.609-8.386-34.867c-0.033-0.88-0.057-1.779-0.071-2.695
			c-0.473-34.729,36.314-89.825,36.314-89.825s-32.868,53.708-32.868,89.446C184.342,219.821,189.354,228.178,189.354,228.178z"/>
		<path id="XMLID_494_" fill="#FFFFFF" d="M189.324,228.116c0,0-7.425-10.575-8.334-34.798c-0.033-0.877-0.057-1.773-0.072-2.686
			c-0.493-34.663,36.162-89.646,36.162-89.646s-32.762,53.562-32.762,89.263C184.317,219.776,189.324,228.116,189.324,228.116z"/>
		<path id="XMLID_492_" fill="#FFFFFF" d="M216.949,101.183c0,0-36.522,54.87-36.01,89.466c0.443,26.088,8.355,37.405,8.355,37.405
			s-5.001-8.323-5.001-37.791C184.293,154.598,216.949,101.183,216.949,101.183z"/>
	</g>
</g>
<g id="XMLID_803_">
	<g id="XMLID_830_">
		<g id="XMLID_835_">
			<path id="XMLID_846_" fill="#A72419" d="M241.75,218.561c0,8.978-6.757,16.1-16.79,16.1c-1.054,0-2.014-0.057-2.861-0.147v7.217
				v5.746c-2.54,0-6.87,0.226-8.093,0.226c-1.007,0-2.089-0.829-2.089-0.829v-39.118c0,0,5.731-1.149,12.357-1.149
				C235.265,206.607,241.75,209.725,241.75,218.561z M223.116,228.114c5.798-0.019,8.884-3.312,8.884-8.083
				c0-4.268-2.4-5.916-6.55-5.916c-1.045,0-2.447,0.113-3.736,0.212v13.744L223.116,228.114z"/>
			<path id="XMLID_843_" fill="#A72419" d="M266.99,206.607c11.896,0,19.801,7.993,19.801,19.876
				c0,12.769-9.11,21.568-21.626,21.568c-11.83,0-19.848-7.838-19.848-19.844c0-12.873,9.214-21.6,21.693-21.6H266.99z
				 M255.641,225.966c0,8.403,4.536,14.545,11.444,14.667c6.118,0.07,9.392-4.818,9.392-11.94c0-8.893-4.922-14.682-11.501-14.682
				C258.652,214.011,255.641,219.259,255.641,225.966z"/>
			<path id="XMLID_841_" fill="#A72419" d="M319.684,239.809c0,0,0.837,1.083,0.837,2.091c0,0.801-0.545,3.551-0.781,5.577h-23.519
				c-0.997,0-2.07-0.872-2.07-0.872v-33.658v-5.766c2.541,0,6.87-0.259,8.112-0.259c0.988,0,2.07,0.871,2.07,0.871v32.016H319.684z"
				/>
			<path id="XMLID_839_" fill="#A72419" d="M352.181,239.809c0,0,0.818,1.083,0.818,2.091c0,0.801-0.545,3.551-0.762,5.577H328.7
				c-0.979,0-2.061-0.872-2.061-0.872v-33.658v-5.766c2.541,0,6.861-0.259,8.093-0.259c1.007,0,2.099,0.871,2.099,0.871v32.016
				H352.181z"/>
			<path id="XMLID_836_" fill="#A72419" d="M397.485,226.484c0,12.769-9.1,21.568-21.626,21.568
				c-11.821,0-19.876-7.838-19.876-19.844c0-12.873,9.223-21.6,21.703-21.6C389.58,206.607,397.485,214.6,397.485,226.484z
				 M375.642,214.011c-6.305,0-9.326,5.248-9.326,11.955c0,8.403,4.574,14.545,11.462,14.667c6.108,0.07,9.392-4.818,9.392-11.94
				C387.171,219.8,382.239,214.011,375.642,214.011L375.642,214.011z"/>
		</g>
		<g id="XMLID_831_">
			<path id="XMLID_783_" fill="#A72419" d="M317.849,197.898c-8.659,0-9.092-2.454-9.609-5.279l-7.002-44.889l0,0l-16.506,50.145
				c-0.969-0.146-2.476-0.227-4.763-0.227c-6.681,0-8.263-2.477-8.997-5.157l-14.314-44.036l0,0l-8.752,49.363
				c-2.033-0.363-5.807-0.904-9.957-0.904c-1.713,0-2.965-0.476-3.69-1.428c-0.846-1.083-0.856-2.585-0.611-3.537l0.338-1.291
				c1.741-6.853,4.678-18.308,6.767-30.319c2.804-15.991,3.501-32.058,3.501-33.777c0-0.961-0.038-1.776-0.076-2.379
				c1.374-0.528,4.32-1.436,8.461-1.436c7.67,0,9.872,5.544,10.23,6.651l17.1,50.992l1.393-4.093
				c0.057-0.17,6.193-18.154,9.411-29.359c2.437-8.615,5.966-20.357,6.805-23.15c0.847-0.348,2.823-1.018,5.863-1.018
				c0.442,0,0.893,0.024,1.383,0.038c4.978,0.292,9.552,4.023,9.985,8.117c0.151,1.492,0.33,3.132,0.481,4.964
				c0.602,6.415,1.42,15.2,3.387,27.79c2.607,16.872,5.958,28.585,7.115,32.387C324.003,196.744,320.531,197.898,317.849,197.898z"
				/>
			<path id="XMLID_782_" fill="#A72419" d="M341.075,198.18c-4.291,0-6.371-1.865-6.371-5.699c0-7.362,0.066-20.254,0.103-27.163
				c0.029-2.524,0.038-4.23,0.038-4.602c0-1.789,0-6.235-2.145-11.629c1.817-1.55,3.717-2.906,7.445-2.906
				c2.964,0,6.597,0.951,8.272,8.346l0.621,2.714l1.882-2.044c0.245-0.283,0.537-0.678,0.922-1.235
				c1.789-2.534,5.515-7.823,12.093-7.823c6.889,0,7.087,5.586,7.087,6.217c0,4.423-3.416,7.702-5.177,9.115
				c-1.458-1.64-3.538-3.302-6.456-3.302c-4.536,0-8.808,4.343-10.004,5.68l-0.376,0.415l-0.029,32.674
				C347.757,197.407,345.056,198.18,341.075,198.18z"/>
			<path id="XMLID_781_" fill="#A72419" d="M366.071,197.987c-3.351,0-5.675-2.049-5.675-4.931c0-3.481,3.567-6.434,7.783-6.434
				c2.513,0,4.903,2.162,4.903,4.456C373.082,194.945,370.005,197.987,366.071,197.987z"/>
		</g>
	</g>
	<g id="XMLID_811_">
		<g id="XMLID_816_">
			<path id="XMLID_827_" fill="#FFFFFF" d="M220.708,203.04c10.992,0.036,17.425,3.179,17.307,12.001
				c-0.12,8.991-6.963,16.105-17.004,16.072c-1.054-0.003-2.031-0.077-2.859-0.178l-0.096,7.215l-0.077,5.741
				c-2.54-0.008-6.864,0.218-8.115,0.214c-0.988-0.003-2.059-0.845-2.059-0.845l0.522-39.093
				C208.326,204.168,214.083,203.019,220.708,203.04L220.708,203.04z M219.264,224.538c5.788,0.019,8.919-3.288,8.982-8.049
				c0.057-4.24-2.34-5.919-6.481-5.932c-1.035-0.003-2.439,0.095-3.72,0.223l-0.183,13.716L219.264,224.538z"/>
			<path id="XMLID_824_" fill="#FFFFFF" d="M263.424,203.178c11.896,0.038,19.704,8.062,19.545,19.959
				c-0.17,12.769-9.417,21.524-21.914,21.484c-11.848-0.038-19.752-7.911-19.592-19.922
				C241.634,211.854,250.945,203.138,263.424,203.178L263.424,203.178z M261.283,210.581c-6.315-0.02-9.406,5.216-9.495,11.914
				c-0.112,8.403,4.38,14.579,11.267,14.704c6.116,0.119,9.466-4.778,9.561-11.9C272.734,216.42,267.88,210.602,261.283,210.581
				L261.283,210.581z"/>
			<path id="XMLID_822_" fill="#FFFFFF" d="M315.663,236.578c0,0,0.814,1.063,0.8,2.061c-0.011,0.824-0.603,3.568-0.845,5.569
				l-23.519-0.076c-0.988-0.003-2.068-0.855-2.068-0.855l0.449-33.677l0.077-5.746c2.551,0.008,6.883-0.223,8.106-0.219
				c1.017,0.003,2.06,0.855,2.06,0.855l-0.427,32.038L315.663,236.578z"/>
			<path id="XMLID_820_" fill="#FFFFFF" d="M348.14,236.683c0,0,0.823,1.063,0.81,2.061c-0.011,0.824-0.603,3.568-0.845,5.569
				l-23.509-0.076c-1.007-0.003-2.068-0.855-2.068-0.855l0.449-33.677l0.077-5.746c2.541,0.008,6.864-0.223,8.116-0.219
				c0.997,0.003,2.059,0.855,2.059,0.855l-0.427,32.038L348.14,236.683z"/>
			<path id="XMLID_817_" fill="#FFFFFF" d="M374.106,203.536c11.895,0.038,19.694,8.062,19.535,19.959
				c-0.17,12.769-9.379,21.524-21.914,21.484c-11.839-0.038-19.752-7.911-19.592-19.922
				C352.307,212.212,361.646,203.496,374.106,203.536L374.106,203.536z M362.48,222.852c-0.112,8.403,4.379,14.579,11.258,14.704
				c6.115,0.119,9.474-4.778,9.57-11.9c0.118-8.878-4.745-14.697-11.333-14.718C365.66,210.918,362.569,216.155,362.48,222.852z"/>
		</g>
		<g id="XMLID_812_">
			<path id="XMLID_772_" fill="#FFFFFF" d="M314.368,194.647c-8.62-0.028-9.039-2.483-9.5-5.334l-6.423-44.872l0,0l-17.184,50.057
				c-0.978-0.116-2.463-0.215-4.74-0.223c-6.682-0.022-8.259-2.499-8.938-5.181l-13.736-44.086l0,0l-9.42,49.333
				c-2.009-0.355-5.766-0.932-9.925-0.946c-1.732-0.006-2.949-0.485-3.661-1.44c-0.833-1.076-0.84-2.593-0.573-3.553l0.347-1.275
				c1.832-6.848,4.931-18.308,7.198-30.297c2.999-15.982,3.901-32.05,3.924-33.755c0.013-0.961-0.004-1.776-0.025-2.389
				c1.363-0.527,4.31-1.422,8.461-1.409c7.67,0.025,9.798,5.585,10.15,6.693l16.41,51.037l1.448-4.079
				c0.058-0.179,6.444-18.138,9.793-29.338c2.58-8.611,6.257-20.324,7.132-23.113c0.842-0.36,2.836-1.009,5.885-0.999
				c0.442,0.001,0.904,0.003,1.383,0.037c4.965,0.332,9.489,4.058,9.877,8.139c0.15,1.494,0.269,3.133,0.413,4.98
				c0.508,6.412,1.219,15.19,2.99,27.796c2.41,16.87,5.585,28.609,6.701,32.4C320.539,193.504,317.07,194.656,314.368,194.647z"/>
			<path id="XMLID_771_" fill="#FFFFFF" d="M337.601,194.995c-4.283-0.014-6.347-1.885-6.296-5.733
				c0.098-7.349,0.355-20.22,0.475-27.149c0.053-2.511,0.086-4.243,0.09-4.583c0.024-1.786,0.083-6.241-2-11.655
				c1.857-1.544,3.785-2.894,7.493-2.882c2.974,0.01,6.575,0.972,8.189,8.382l0.566,2.696l1.909-2.019
				c0.249-0.291,0.556-0.686,0.948-1.227c1.822-2.542,5.61-7.81,12.17-7.789c6.898,0.022,7.039,5.599,7.031,6.245
				c-0.059,4.418-3.528,7.686-5.325,9.083c-1.418-1.653-3.466-3.323-6.393-3.332c-4.517-0.015-8.848,4.334-10.07,5.667l-0.381,0.418
				l-0.474,32.669C344.302,194.25,341.6,195.008,337.601,194.995z"/>
			<path id="XMLID_770_" fill="#FFFFFF" d="M362.589,194.874c-3.322-0.011-5.639-2.02-5.6-4.93c0.047-3.49,3.662-6.432,7.888-6.418
				c2.513,0.008,4.855,2.187,4.824,4.471C369.65,191.873,366.542,194.886,362.589,194.874z"/>
		</g>
	</g>
	<g id="XMLID_804_">
		<path id="XMLID_769_" fill="#FFFFFF" d="M326.629,104.509c-0.988-1.055-1.948-2.148-2.672-3.429
			c-1.478-2.567-1.921-5.506-2.269-7.668c-0.094-0.485-0.17-0.938-0.245-1.356c0.574-0.438,1.129-0.928,1.647-1.456
			c0.866-0.895,1.666-1.969,2.164-3.25c0.518-1.277,0.612-2.756,0.349-4.023c-0.245-1.258-0.744-2.332-1.234-3.26
			c-1.035-1.875-2.155-3.344-3.105-4.762c-0.96-1.399-1.789-2.722-2.401-3.966c-1.261-2.492-1.731-4.72-1.92-6.279
			c-0.188-1.592-0.207-2.52-0.451-2.567c-0.236-0.042-0.678,0.805-0.942,2.534c-0.245,1.709-0.15,4.366,0.988,7.305
			c0.537,1.47,1.309,2.987,2.212,4.545c0.875,1.526,1.892,3.099,2.664,4.682c0.405,0.814,0.705,1.62,0.819,2.364
			c0.122,0.758,0.056,1.436-0.245,2.124c-0.574,1.413-2.089,2.831-3.765,3.938c-1.685,1.098-3.519,1.809-5.261,1.954
			c-0.875,0.057-1.731-0.023-2.532-0.235c-0.818-0.203-1.223-0.466-1.525-0.894c-0.31-0.42-0.489-1.065-0.498-1.8
			c-0.01-0.711,0.113-1.493,0.301-2.26c0.386-1.493,1.026-2.906,1.666-4.14c1.317-2.488,2.757-4.352,3.764-5.606
			c1.026-1.258,1.647-1.969,1.497-2.171c-0.16-0.183-1.064,0.146-2.447,1.173c-1.384,1.018-3.238,2.713-4.988,5.294
			c-0.875,1.3-1.712,2.794-2.324,4.625c-0.302,0.914-0.565,1.898-0.612,3.029c-0.056,1.111,0.104,2.435,0.885,3.655
			c0.358,0.621,0.904,1.154,1.497,1.549c0.583,0.396,1.308,0.678,1.854,0.825c1.148,0.348,2.428,0.508,3.689,0.428
			c2.089-0.098,4.112-0.801,5.938-1.809c-0.122,1.145-0.179,2.534,0.018,4.083c0.226,1.616,0.716,3.449,1.694,5.158
			c0.989,1.719,2.334,3.052,3.501,4.037c1.186,1.008,2.249,1.761,3.106,2.43c1.712,1.315,2.692,2.284,3.143,2.035
			c0.424-0.203,0.132-1.786-1.308-3.764C328.578,106.601,327.617,105.56,326.629,104.509z"/>
		<path id="XMLID_768_" fill="#FFFFFF" d="M332.897,65.924c-1.139-0.83-9.175-6.189-11.265-5.341
			c-1.196,0.499-2.768,5.374-1.732,6.062c2.183,1.484,7.388,1.596,13.176,1.267C333.904,67.888,334.045,66.738,332.897,65.924z"/>
		<path id="XMLID_767_" fill="#FFFFFF" d="M320.051,68.095c-0.79-0.353-0.715,0.565-0.424,1.286
			c0.678,1.653,3.398,4.851,3.991,5.021c1.346,0.49,8.884-3.439,9.214-4.658C333.132,68.679,325.622,70.695,320.051,68.095z"/>
		<path id="XMLID_766_" fill="#FFFFFF" d="M316.164,49.693c1.769-1.866-2.071-3.858-3.144-4.32
			c-4.846-2.162-11.585-3.123-18.521-0.895c-3.454,1.131-6.851,3.156-9.637,5.982c-2.795,2.831-4.941,6.425-6.221,10.396
			c-1.233,3.99-1.58,7.805-1.845,11.422c-0.225,3.641-0.282,7.08-0.301,10.334l-0.076,4.752c0,1.56-0.018,2.906-0.169,4.254
			c-0.302,2.656-0.979,5.054-1.864,7.168c-1.807,4.206-4.367,7.217-5.995,9.477c-1.656,2.228-2.372,3.707-2.042,3.934
			c0.292,0.202,1.449-0.745,3.576-2.521c1.073-0.904,2.353-2.049,3.736-3.537c1.384-1.493,2.852-3.363,4.151-5.689
			c1.289-2.332,2.315-5.125,2.832-8.2c0.302-1.526,0.395-3.204,0.518-4.706l0.264-4.771c0.207-3.26,0.358-6.651,0.63-10.099
			c0.302-3.439,0.697-6.99,1.712-10.202c1.007-3.199,2.711-6.104,4.875-8.365c2.155-2.284,4.771-3.947,7.482-4.965
			c2.739-1.031,5.571-1.436,8.225-1.417c2.654,0,5.119,0.443,7.284,1.168C312.55,49.183,315.402,50.484,316.164,49.693z"/>
		<path id="XMLID_765_" fill="#FFFFFF" d="M288.466,41.845c0.546,1.018,1.205,1.686,1.704,2.059c0.48,0.363,0.819,0.451,0.894,0.348
			c0.16-0.203-0.697-1.041-1.337-2.972c-0.301-0.961-0.565-2.171-0.545-3.561c0.018-1.404,0.291-3.033,1.167-4.333
			c0.837-1.299,2.305-1.945,4.197-1.672c1.911,0.245,3.934,1.163,5.656,2.647c0.894,0.745,1.704,1.616,2.476,2.609l0.291,0.363
			l0.367,0.5c0.358,0.508,0.772,1.097,1.139,1.681c0.762,1.291,1.619,1.789,2.089,2.002c0.367,0.137,0.696,0.183,1.082,0.137
			c0.188-0.01,0.47-0.09,0.63-0.179c0.16-0.09,0.264-0.17,0.395-0.25c0.198-0.193,0.395-0.41,0.574-0.768
			c0.188-0.363,0.292-0.961,0.292-1.677c-0.151-3.707,0.198-4.003,0.48-4.418c0.33-0.452,1.525-0.038,1.817,0.268
			c0.715,0.702,1.233,1.72,1.685,2.601c0.611,1.177,1.129,2.374,1.675,3.584c0.545,1.235,1.054,2.445,1.741,3.689
			c0.913,1.662,2.023,2.307,2.72,2.307c1.76,0,2.38-1.131,2.635-1.413c0.499-0.579,0.829-1.087,1.167-1.62l0.452-0.688l0.056-0.146
			c0.066-0.08,0.114-0.207,0.226-0.274c0.113-0.056,0.216,0.057,0.263,0.127c0.047,0.09,0.094,0.227,0.15,0.34
			c0.104,0.358,0.199,0.89,0.302,1.323c0.743,3.65,0.565,6.66,0.226,8.704c-0.329,2.049-0.885,3.722-0.658,3.858
			c0.207,0.113,1.195-1.371,2.014-3.495c0.8-2.091,1.373-5.449,0.913-9.444c-0.047-0.518-0.113-0.97-0.226-1.582
			c-0.161-0.858-0.396-1.776-0.838-2.431c-0.216-0.348-0.451-0.622-0.762-0.824c-0.282-0.217-0.715-0.34-1.12-0.316
			c-0.753,0.042-1.43,0.452-2.098,1.23c-0.321,0.372-0.65,0.805-0.914,1.224l-0.527,0.735c-0.31,0.415-0.611,0.825-0.913,1.154
			c-0.047-0.103-0.103-0.216-0.141-0.329c-0.527-1.008-1.017-2.219-1.497-3.449c-0.518-1.243-1.045-2.548-1.704-3.871
			c-0.696-1.3-1.373-2.666-2.795-4.004c-0.969-0.923-1.76-1.243-3.002-1.131c-1.214,0.127-2.523,0.452-3.426,1.38
			c-0.904,0.961-1.177,1.959-1.355,2.84c-0.075,0.429-0.122,0.995-0.104,0.801c0,0,0.029,0.095,0,0.08l-0.018-0.033
			c-0.029-0.009,0,0.01-0.047-0.047l-0.593-0.711c-0.894-1.083-1.911-2.114-3.021-2.987c-2.23-1.775-4.838-2.85-7.491-3.061
			c-1.318-0.104-2.73,0.113-3.935,0.711c-1.233,0.608-2.136,1.606-2.691,2.624c-1.129,2.044-1.186,4.093-0.998,5.722
			C287.384,39.494,287.893,40.837,288.466,41.845z"/>
		<path id="XMLID_764_" fill="#FFFFFF" d="M306.103,60.502c0,1.846,1.487,3.348,3.332,3.348s3.332-1.502,3.332-3.348
			c0-1.842-1.487-3.335-3.332-3.335S306.103,58.66,306.103,60.502z"/>
	</g>
</g>
</svg>
