<?xml version="1.0" encoding="utf-8"?>
<!-- Generator: Adobe Illustrator 19.0.0, SVG Export Plug-In . SVG Version: 6.00 Build 0)  -->
<svg version="1.1" id="Capa_1" xmlns="http://www.w3.org/2000/svg" xmlns:xlink="http://www.w3.org/1999/xlink" x="0px" y="0px"
	 viewBox="0 0 600 300" enable-background="new 0 0 600 300" xml:space="preserve">
<g id="XMLID_1238_">
	<path id="XMLID_517_" fill="#FFFFFF" d="M365.801,35.352c-24.59-24.182-46.814-36.41-66.068-36.361
		c-37.812,0.081-78.959,47.729-100.109,76.138c-26.376,35.394-53.03,84.421-53.125,114.143
		c0.009,26.928,10.292,51.285,29.739,70.438c27.416,27.025,70.118,41.302,123.524,41.29c45.583-0.003,84.076-10.69,111.334-30.897
		C438.116,250.048,453,221.397,453,189.425C453,150.332,406.967,75.828,365.801,35.352z"/>
	<g id="XMLID_483_">
		<path id="XMLID_392_" fill="#B47E30" d="M360.578,44.418c-22.647-22.27-43.117-33.531-60.844-33.485
			c-34.818,0.073-72.714,43.954-92.191,70.116c-24.292,32.595-48.835,77.746-48.92,105.119c0.007,24.796,9.478,47.228,27.387,64.87
			c25.245,24.885,64.571,38.032,113.754,38.021c41.98-0.006,77.423-9.843,102.525-28.451c24.884-18.472,38.592-44.857,38.592-74.301
			C440.88,150.309,398.486,81.694,360.578,44.418z"/>
		<path id="XMLID_482_" fill="#B57F30" d="M360.523,44.514c-22.626-22.25-43.078-33.501-60.789-33.455
			c-34.787,0.073-72.648,43.914-92.108,70.053c-24.27,32.566-48.791,77.676-48.876,105.024c0.007,24.773,9.469,47.185,27.362,64.811
			c25.222,24.863,64.513,37.997,113.652,37.986c41.942-0.006,77.353-9.834,102.432-28.426
			c24.861-18.455,38.557-44.816,38.557-74.234C440.752,150.308,398.397,81.756,360.523,44.514z"/>
		<path id="XMLID_481_" fill="#B67F30" d="M360.468,44.609c-22.606-22.23-43.039-33.47-60.734-33.425
			c-34.756,0.073-72.583,43.874-92.024,69.989c-24.248,32.536-48.747,77.605-48.832,104.929
			c0.007,24.751,9.461,47.143,27.337,64.752c25.199,24.84,64.454,37.963,113.549,37.952c41.904-0.006,77.283-9.825,102.339-28.4
			c24.839-18.439,38.522-44.776,38.522-74.166C440.625,150.308,398.307,81.818,360.468,44.609z"/>
		<path id="XMLID_480_" fill="#B67F30" d="M360.413,44.705c-22.585-22.21-43-33.44-60.679-33.395
			c-34.724,0.072-72.517,43.834-91.941,69.926c-24.226,32.507-48.703,77.535-48.788,104.834c0.007,24.728,9.452,47.1,27.312,64.694
			c25.176,24.818,64.396,37.929,113.446,37.917c41.866-0.006,77.213-9.816,102.247-28.374
			c24.816-18.422,38.487-44.735,38.487-74.099C440.497,150.308,398.218,81.879,360.413,44.705z"/>
		<path id="XMLID_479_" fill="#B7802F" d="M360.358,44.8c-22.565-22.19-42.96-33.41-60.624-33.364
			c-34.693,0.072-72.451,43.794-91.858,69.863c-24.204,32.478-48.658,77.465-48.744,104.738
			c0.007,24.706,9.444,47.057,27.288,64.635c25.154,24.795,64.338,37.894,113.343,37.883c41.828-0.006,77.143-9.807,102.154-28.348
			c24.793-18.405,38.452-44.694,38.452-74.032C440.369,150.307,398.129,81.941,360.358,44.8z"/>
		<path id="XMLID_478_" fill="#B8802F" d="M360.303,44.896c-22.544-22.17-42.921-33.38-60.569-33.334
			c-34.661,0.072-72.385,43.755-91.774,69.799c-24.183,32.448-48.614,77.394-48.699,104.643
			c0.007,24.684,9.435,47.015,27.263,64.576c25.131,24.773,64.279,37.86,113.24,37.849c41.79-0.006,77.073-9.798,102.061-28.323
			c24.771-18.388,38.417-44.654,38.417-73.965C440.242,150.307,398.04,82.003,360.303,44.896z"/>
		<path id="XMLID_477_" fill="#B9802F" d="M360.248,44.991c-22.524-22.15-42.882-33.349-60.514-33.304
			c-34.63,0.072-72.32,43.715-91.691,69.736c-24.161,32.419-48.57,77.324-48.655,104.548c0.007,24.661,9.426,46.972,27.238,64.518
			c25.108,24.751,64.221,37.826,113.137,37.814c41.752-0.006,77.003-9.789,101.969-28.297
			c24.748-18.372,38.382-44.613,38.382-73.898C440.114,150.307,397.95,82.065,360.248,44.991z"/>
		<path id="XMLID_476_" fill="#BA812F" d="M360.193,45.087c-22.503-22.129-42.843-33.319-60.459-33.274
			c-34.598,0.072-72.254,43.675-91.607,69.672c-24.139,32.389-48.526,77.254-48.611,104.453
			c0.007,24.639,9.418,46.929,27.213,64.459c25.085,24.728,64.163,37.791,113.035,37.78c41.714-0.006,76.933-9.78,101.876-28.271
			c24.726-18.355,38.347-44.572,38.347-73.83C439.986,150.307,397.861,82.126,360.193,45.087z"/>
		<path id="XMLID_475_" fill="#BA812F" d="M360.137,45.182c-22.483-22.109-42.804-33.289-60.404-33.243
			c-34.567,0.072-72.188,43.635-91.524,69.609c-24.117,32.36-48.482,77.184-48.567,104.358c0.007,24.616,9.409,46.886,27.188,64.4
			c25.062,24.706,64.104,37.757,112.932,37.746c41.676-0.006,76.863-9.771,101.783-28.246
			c24.703-18.338,38.312-44.532,38.312-73.763C439.859,150.306,397.772,82.188,360.137,45.182z"/>
		<path id="XMLID_474_" fill="#BB812F" d="M360.082,45.278c-22.462-22.089-42.765-33.258-60.349-33.213
			c-34.535,0.072-72.123,43.596-91.44,69.545c-24.095,32.33-48.438,77.113-48.523,104.263c0.007,24.594,9.401,46.844,27.164,64.341
			c25.04,24.683,64.046,37.722,112.829,37.711c41.638-0.006,76.793-9.763,101.69-28.22c24.681-18.321,38.278-44.491,38.278-73.696
			C439.731,150.306,397.682,82.25,360.082,45.278z"/>
		<path id="XMLID_473_" fill="#BC822E" d="M360.027,45.373c-22.442-22.069-42.726-33.228-60.294-33.183
			c-34.504,0.072-72.057,43.556-91.357,69.482c-24.073,32.301-48.394,77.043-48.478,104.168
			c0.007,24.572,9.392,46.801,27.139,64.283c25.017,24.661,63.988,37.688,112.726,37.677c41.6-0.006,76.723-9.754,101.598-28.194
			c24.658-18.305,38.243-44.451,38.243-73.629C439.603,150.306,397.593,82.312,360.027,45.373z"/>
		<path id="XMLID_472_" fill="#BD822E" d="M359.972,45.469c-22.421-22.049-42.687-33.198-60.239-33.152
			c-34.472,0.072-71.991,43.516-91.274,69.418c-24.051,32.271-48.35,76.973-48.434,104.073c0.007,24.549,9.384,46.758,27.114,64.224
			c24.994,24.638,63.929,37.654,112.623,37.643c41.562-0.006,76.653-9.745,101.505-28.168c24.636-18.288,38.208-44.41,38.208-73.561
			C439.476,150.305,397.504,82.374,359.972,45.469z"/>
		<path id="XMLID_471_" fill="#BE822E" d="M359.917,45.564c-22.401-22.029-42.648-33.167-60.184-33.122
			c-34.441,0.072-71.925,43.476-91.19,69.355c-24.029,32.242-48.306,76.902-48.39,103.978c0.007,24.527,9.375,46.715,27.089,64.165
			c24.971,24.616,63.871,37.619,112.521,37.608c41.524-0.005,76.583-9.736,101.412-28.143
			c24.613-18.271,38.173-44.369,38.173-73.494C439.348,150.305,397.414,82.435,359.917,45.564z"/>
		<path id="XMLID_470_" fill="#BF832E" d="M359.862,45.66c-22.38-22.009-42.609-33.137-60.129-33.092
			c-34.409,0.072-71.86,43.437-91.107,69.292c-24.007,32.212-48.261,76.832-48.346,103.883c0.007,24.504,9.367,46.673,27.064,64.107
			c24.948,24.593,63.813,37.585,112.418,37.574c41.486-0.005,76.513-9.727,101.319-28.117
			c24.591-18.254,38.138-44.329,38.138-73.427C439.22,150.305,397.325,82.497,359.862,45.66z"/>
		<path id="XMLID_469_" fill="#BF832E" d="M359.807,45.755c-22.36-21.989-42.57-33.107-60.074-33.062
			c-34.378,0.072-71.794,43.397-91.023,69.228c-23.985,32.183-48.217,76.762-48.301,103.788c0.007,24.482,9.358,46.63,27.04,64.048
			c24.926,24.571,63.754,37.55,112.315,37.54c41.448-0.005,76.443-9.718,101.227-28.091c24.568-18.238,38.103-44.288,38.103-73.36
			C439.093,150.305,397.236,82.559,359.807,45.755z"/>
		<path id="XMLID_468_" fill="#C0832E" d="M359.752,45.851c-22.339-21.968-42.531-33.076-60.019-33.031
			c-34.346,0.072-71.728,43.357-90.94,69.165c-23.963,32.154-48.173,76.691-48.257,103.693c0.007,24.459,9.35,46.587,27.015,63.989
			c24.903,24.548,63.696,37.516,112.212,37.505c41.41-0.005,76.373-9.709,101.134-28.066c24.545-18.221,38.068-44.248,38.068-73.293
			C438.965,150.304,397.146,82.621,359.752,45.851z"/>
		<path id="XMLID_467_" fill="#C1842D" d="M359.697,45.946c-22.319-21.948-42.492-33.046-59.964-33.001
			c-34.315,0.072-71.662,43.317-90.856,69.101c-23.941,32.124-48.129,76.621-48.213,103.598c0.007,24.437,9.341,46.545,26.99,63.93
			c24.88,24.526,63.638,37.482,112.109,37.471c41.372-0.005,76.303-9.7,101.041-28.04c24.523-18.204,38.033-44.207,38.033-73.225
			C438.837,150.304,397.057,82.682,359.697,45.946z"/>
		<path id="XMLID_466_" fill="#C2842D" d="M359.642,46.042c-22.298-21.928-42.453-33.016-59.909-32.971
			c-34.284,0.072-71.597,43.278-90.773,69.038c-23.919,32.095-48.085,76.551-48.169,103.503
			c0.007,24.415,9.332,46.502,26.965,63.872c24.857,24.503,63.579,37.447,112.007,37.437c41.334-0.005,76.233-9.691,100.948-28.014
			c24.5-18.187,37.998-44.166,37.998-73.158C438.71,150.304,396.968,82.744,359.642,46.042z"/>
		<path id="XMLID_465_" fill="#C2842D" d="M359.587,46.137c-22.278-21.908-42.414-32.986-59.853-32.94
			c-34.252,0.072-71.531,43.238-90.69,68.974c-23.897,32.065-48.041,76.48-48.125,103.408c0.007,24.392,9.324,46.459,26.94,63.813
			c24.834,24.481,63.521,37.413,111.904,37.402c41.296-0.005,76.162-9.682,100.856-27.988
			c24.478-18.171,37.963-44.126,37.963-73.091C438.582,150.303,396.878,82.806,359.587,46.137z"/>
		<path id="XMLID_464_" fill="#C3852D" d="M359.532,46.233c-22.257-21.888-42.375-32.955-59.798-32.91
			c-34.221,0.072-71.465,43.198-90.606,68.911c-23.875,32.036-47.997,76.41-48.08,103.313c0.007,24.37,9.315,46.416,26.915,63.754
			c24.812,24.458,63.463,37.379,111.801,37.368c41.258-0.005,76.092-9.673,100.763-27.963
			c24.455-18.154,37.928-44.085,37.928-73.024C438.454,150.303,396.789,82.868,359.532,46.233z"/>
		<path id="XMLID_463_" fill="#C4852D" d="M359.477,46.328c-22.237-21.868-42.336-32.925-59.743-32.88
			c-34.189,0.072-71.399,43.158-90.523,68.848c-23.853,32.006-47.953,76.34-48.036,103.217c0.007,24.347,9.307,46.374,26.891,63.696
			c24.789,24.436,63.404,37.344,111.698,37.334c41.22-0.005,76.022-9.665,100.67-27.937c24.433-18.137,37.893-44.045,37.893-72.957
			C438.327,150.303,396.7,82.93,359.477,46.328z"/>
		<path id="XMLID_462_" fill="#C5852D" d="M359.422,46.424c-22.216-21.848-42.297-32.895-59.688-32.85
			c-34.158,0.072-71.334,43.119-90.439,68.784c-23.831,31.977-47.909,76.27-47.992,103.122c0.007,24.325,9.298,46.331,26.866,63.637
			c24.766,24.413,63.346,37.31,111.595,37.299c41.182-0.005,75.952-9.656,100.578-27.911c24.41-18.12,37.858-44.004,37.858-72.889
			C438.199,150.303,396.61,82.991,359.422,46.424z"/>
		<path id="XMLID_457_" fill="#C5862C" d="M359.367,46.519c-22.196-21.828-42.258-32.864-59.633-32.819
			c-34.126,0.072-71.268,43.079-90.356,68.721c-23.809,31.947-47.865,76.199-47.948,103.027c0.007,24.302,9.29,46.288,26.841,63.578
			c24.743,24.391,63.288,37.275,111.493,37.265c41.144-0.005,75.882-9.647,100.485-27.886
			c24.388-18.104,37.823-43.963,37.823-72.822C438.072,150.302,396.521,83.053,359.367,46.519z"/>
		<path id="XMLID_456_" fill="#C6862C" d="M359.312,46.615c-22.175-21.808-42.219-32.834-59.578-32.789
			c-34.095,0.071-71.202,43.039-90.272,68.657c-23.787,31.918-47.82,76.129-47.904,102.932c0.008,24.28,9.281,46.245,26.816,63.519
			c24.72,24.369,63.229,37.241,111.39,37.231c41.106-0.005,75.812-9.638,100.392-27.86c24.365-18.087,37.788-43.923,37.788-72.755
			C437.944,150.302,396.432,83.115,359.312,46.615z"/>
		<path id="XMLID_455_" fill="#C7872C" d="M359.257,46.71c-22.155-21.787-42.18-32.804-59.523-32.759
			c-34.063,0.071-71.136,42.999-90.189,68.594c-23.765,31.888-47.776,76.059-47.859,102.837
			c0.008,24.258,9.273,46.203,26.791,63.461c24.698,24.346,63.171,37.207,111.287,37.196c41.068-0.005,75.742-9.629,100.299-27.834
			c24.342-18.07,37.753-43.882,37.753-72.688C437.816,150.302,396.342,83.177,359.257,46.71z"/>
		<path id="XMLID_454_" fill="#C8872C" d="M359.202,46.806c-22.134-21.767-42.141-32.773-59.468-32.729
			c-34.032,0.071-71.071,42.96-90.106,68.53c-23.743,31.859-47.732,75.988-47.815,102.742c0.008,24.235,9.264,46.16,26.767,63.402
			c24.675,24.324,63.113,37.172,111.184,37.162c41.03-0.005,75.672-9.62,100.207-27.808c24.32-18.053,37.718-43.842,37.718-72.621
			C437.689,150.301,396.253,83.238,359.202,46.806z"/>
		<path id="XMLID_453_" fill="#C8872C" d="M359.147,46.901c-22.114-21.747-42.102-32.743-59.413-32.698
			c-34,0.071-71.005,42.92-90.022,68.467c-23.721,31.83-47.688,75.918-47.771,102.647c0.008,24.213,9.256,46.117,26.742,63.343
			c24.652,24.301,63.054,37.138,111.081,37.128c40.992-0.005,75.602-9.611,100.114-27.783
			c24.297-18.037,37.683-43.801,37.683-72.553C437.561,150.301,396.164,83.3,359.147,46.901z"/>
		<path id="XMLID_452_" fill="#C9882C" d="M359.092,46.997c-22.093-21.727-42.063-32.713-59.358-32.668
			c-33.969,0.071-70.939,42.88-89.939,68.403c-23.699,31.8-47.644,75.848-47.727,102.552c0.008,24.19,9.247,46.075,26.717,63.285
			c24.629,24.279,62.996,37.103,110.979,37.093c40.954-0.005,75.532-9.602,100.021-27.757c24.275-18.02,37.648-43.76,37.648-72.486
			C437.433,150.301,396.074,83.362,359.092,46.997z"/>
		<path id="XMLID_451_" fill="#CA882B" d="M359.037,47.092c-22.073-21.707-42.024-32.683-59.303-32.638
			c-33.937,0.071-70.873,42.84-89.855,68.34c-23.678,31.771-47.6,75.777-47.682,102.457c0.008,24.168,9.238,46.032,26.692,63.226
			c24.607,24.256,62.938,37.069,110.876,37.059c40.916-0.005,75.462-9.593,99.928-27.731c24.252-18.003,37.613-43.72,37.613-72.419
			C437.306,150.301,395.985,83.424,359.037,47.092z"/>
		<path id="XMLID_450_" fill="#CB882B" d="M358.982,47.188c-22.052-21.687-41.985-32.652-59.248-32.607
			c-33.906,0.071-70.808,42.801-89.772,68.277c-23.656,31.741-47.556,75.707-47.638,102.362c0.008,24.146,9.23,45.989,26.667,63.167
			c24.584,24.234,62.879,37.035,110.773,37.025c40.878-0.004,75.392-9.584,99.836-27.706c24.23-17.986,37.579-43.679,37.579-72.352
			C437.178,150.3,395.896,83.486,358.982,47.188z"/>
		<path id="XMLID_449_" fill="#CB892B" d="M358.926,47.283c-22.032-21.667-41.946-32.622-59.193-32.577
			c-33.874,0.071-70.742,42.761-89.688,68.213c-23.634,31.712-47.512,75.637-47.594,102.267
			c0.008,24.123,9.221,45.946,26.643,63.108c24.561,24.211,62.821,37,110.67,36.99c40.84-0.004,75.322-9.575,99.743-27.68
			c24.207-17.97,37.544-43.638,37.544-72.284C437.05,150.3,395.806,83.547,358.926,47.283z"/>
		<path id="XMLID_448_" fill="#CC892B" d="M358.871,47.379c-22.011-21.647-41.907-32.592-59.138-32.547
			c-33.843,0.071-70.676,42.721-89.605,68.15c-23.612,31.682-47.467,75.567-47.55,102.172c0.008,24.101,9.213,45.904,26.618,63.05
			c24.538,24.189,62.763,36.966,110.567,36.956c40.802-0.004,75.252-9.567,99.65-27.654c24.185-17.953,37.509-43.598,37.509-72.217
			C436.923,150.3,395.717,83.609,358.871,47.379z"/>
		<path id="XMLID_447_" fill="#CD892B" d="M358.816,47.474c-21.991-21.626-41.868-32.561-59.083-32.517
			c-33.812,0.071-70.61,42.681-89.521,68.086c-23.59,31.653-47.423,75.496-47.506,102.077c0.008,24.078,9.204,45.861,26.593,62.991
			c24.515,24.166,62.704,36.932,110.465,36.921c40.764-0.004,75.182-9.558,99.557-27.628c24.162-17.936,37.474-43.557,37.474-72.15
			C436.795,150.299,395.628,83.671,358.816,47.474z"/>
		<path id="XMLID_446_" fill="#CE8A2A" d="M358.761,47.57c-21.971-21.606-41.829-32.531-59.028-32.486
			c-33.78,0.071-70.545,42.641-89.438,68.023c-23.568,31.623-47.379,75.426-47.461,101.982c0.008,24.056,9.196,45.818,26.568,62.932
			c24.493,24.144,62.646,36.897,110.362,36.887c40.726-0.004,75.112-9.549,99.465-27.603c24.139-17.919,37.439-43.517,37.439-72.083
			C436.667,150.299,395.538,83.733,358.761,47.57z"/>
		<path id="XMLID_445_" fill="#CE8A2A" d="M358.706,47.666c-21.95-21.586-41.79-32.501-58.973-32.456
			c-33.749,0.071-70.479,42.602-89.355,67.959c-23.546,31.594-47.335,75.356-47.417,101.887
			c0.008,24.033,9.187,45.775,26.543,62.874c24.47,24.121,62.588,36.863,110.259,36.853c40.688-0.004,75.042-9.54,99.372-27.577
			c24.117-17.903,37.404-43.476,37.404-72.016C436.54,150.299,395.449,83.794,358.706,47.666z"/>
		<path id="XMLID_444_" fill="#CF8A2A" d="M358.651,47.761c-21.93-21.566-41.751-32.47-58.918-32.426
			c-33.717,0.071-70.413,42.562-89.271,67.896c-23.524,31.564-47.291,75.285-47.373,101.792
			c0.008,24.011,9.179,45.733,26.519,62.815c24.447,24.099,62.529,36.828,110.156,36.818c40.65-0.004,74.972-9.531,99.279-27.551
			c24.094-17.886,37.369-43.435,37.369-71.948C436.412,150.299,395.36,83.856,358.651,47.761z"/>
		<path id="XMLID_443_" fill="#D08B2A" d="M358.596,47.857c-21.909-21.546-41.712-32.44-58.863-32.395
			c-33.686,0.071-70.347,42.522-89.188,67.833c-23.502,31.535-47.247,75.215-47.329,101.697c0.008,23.989,9.17,45.69,26.494,62.756
			c24.424,24.076,62.471,36.794,110.053,36.784c40.612-0.004,74.902-9.522,99.187-27.526c24.072-17.869,37.334-43.395,37.334-71.881
			C436.284,150.298,395.27,83.918,358.596,47.857z"/>
		<path id="XMLID_442_" fill="#D18B2A" d="M358.541,47.952c-21.889-21.526-41.673-32.41-58.808-32.365
			c-33.654,0.071-70.282,42.482-89.104,67.769c-23.48,31.506-47.203,75.145-47.285,101.601c0.008,23.966,9.161,45.647,26.469,62.697
			c24.401,24.054,62.413,36.76,109.951,36.75c40.574-0.004,74.832-9.513,99.094-27.5c24.049-17.852,37.299-43.354,37.299-71.814
			C436.157,150.298,395.181,83.98,358.541,47.952z"/>
		<path id="XMLID_441_" fill="#D18C2A" d="M358.486,48.048c-21.868-21.506-41.634-32.379-58.753-32.335
			c-33.623,0.071-70.216,42.443-89.021,67.706c-23.458,31.476-47.159,75.074-47.24,101.506c0.008,23.944,9.153,45.605,26.444,62.639
			c24.379,24.032,62.355,36.725,109.848,36.715c40.536-0.004,74.762-9.504,99.001-27.474c24.027-17.836,37.264-43.314,37.264-71.747
			C436.029,150.298,395.092,84.042,358.486,48.048z"/>
		<path id="XMLID_440_" fill="#D28C29" d="M358.431,48.143c-21.848-21.486-41.595-32.349-58.698-32.305
			c-33.591,0.071-70.15,42.403-88.938,67.642c-23.436,31.447-47.115,75.004-47.196,101.411c0.008,23.921,9.144,45.562,26.419,62.58
			c24.356,24.009,62.296,36.691,109.745,36.681c40.498-0.004,74.692-9.495,98.908-27.448c24.004-17.819,37.229-43.273,37.229-71.68
			C435.901,150.297,395.003,84.103,358.431,48.143z"/>
		<path id="XMLID_439_" fill="#D38C29" d="M358.376,48.239c-21.827-21.466-41.556-32.319-58.643-32.274
			c-33.56,0.071-70.084,42.363-88.854,67.579c-23.414,31.417-47.071,74.934-47.152,101.316c0.008,23.899,9.136,45.519,26.394,62.521
			c24.333,23.987,62.238,36.656,109.642,36.647c40.46-0.004,74.622-9.486,98.816-27.423c23.982-17.802,37.194-43.232,37.194-71.612
			C435.774,150.297,394.913,84.165,358.376,48.239z"/>
		<path id="XMLID_438_" fill="#D48D29" d="M358.321,48.334c-21.807-21.445-41.517-32.289-58.588-32.244
			c-33.528,0.071-70.019,42.323-88.771,67.515c-23.392,31.388-47.026,74.863-47.108,101.221c0.008,23.877,9.127,45.476,26.37,62.463
			c24.31,23.964,62.18,36.622,109.539,36.612c40.422-0.004,74.552-9.477,98.723-27.397c23.959-17.786,37.159-43.192,37.159-71.545
			C435.646,150.297,394.824,84.227,358.321,48.334z"/>
		<path id="XMLID_437_" fill="#D48D29" d="M358.266,48.43c-21.786-21.425-41.478-32.258-58.533-32.214
			c-33.497,0.071-69.953,42.284-88.687,67.452c-23.37,31.358-46.982,74.793-47.064,101.126c0.008,23.854,9.119,45.434,26.345,62.404
			c24.287,23.942,62.121,36.588,109.437,36.578c40.384-0.004,74.482-9.469,98.63-27.371c23.936-17.769,37.124-43.151,37.124-71.478
			C435.518,150.297,394.735,84.289,358.266,48.43z"/>
		<path id="XMLID_436_" fill="#D58D28" d="M358.211,48.525c-21.766-21.405-41.439-32.228-58.478-32.184
			c-33.465,0.07-69.887,42.244-88.604,67.388c-23.348,31.329-46.938,74.723-47.019,101.031c0.008,23.832,9.11,45.391,26.32,62.345
			c24.265,23.919,62.063,36.553,109.334,36.544c40.346-0.004,74.412-9.46,98.537-27.346c23.914-17.752,37.089-43.111,37.089-71.411
			C435.391,150.296,394.645,84.35,358.211,48.525z"/>
		<path id="XMLID_435_" fill="#D68E28" d="M358.156,48.621c-21.745-21.385-41.399-32.198-58.423-32.153
			c-33.434,0.07-69.821,42.204-88.52,67.325c-23.326,31.299-46.894,74.653-46.975,100.936c0.008,23.809,9.102,45.348,26.295,62.286
			c24.242,23.897,62.005,36.519,109.231,36.509c40.308-0.004,74.342-9.451,98.445-27.32c23.891-17.735,37.054-43.07,37.054-71.343
			C435.263,150.296,394.556,84.412,358.156,48.621z"/>
		<path id="XMLID_434_" fill="#D78E28" d="M358.101,48.716c-21.725-21.365-41.36-32.167-58.368-32.123
			c-33.402,0.07-69.756,42.164-88.437,67.262c-23.304,31.27-46.85,74.582-46.931,100.841c0.008,23.787,9.093,45.305,26.27,62.228
			c24.219,23.874,61.946,36.484,109.128,36.475c40.27-0.004,74.272-9.442,98.352-27.294c23.869-17.719,37.019-43.029,37.019-71.276
			C435.135,150.296,394.467,84.474,358.101,48.716z"/>
		<path id="XMLID_433_" fill="#D78E28" d="M358.046,48.812c-21.704-21.345-41.321-32.137-58.313-32.093
			c-33.371,0.07-69.69,42.125-88.353,67.198c-23.282,31.24-46.806,74.512-46.887,100.746c0.008,23.764,9.085,45.263,26.246,62.169
			c24.196,23.852,61.888,36.45,109.025,36.441c40.232-0.003,74.202-9.433,98.259-27.268c23.846-17.702,36.984-42.989,36.984-71.209
			C435.008,150.295,394.377,84.536,358.046,48.812z"/>
		<path id="XMLID_432_" fill="#D88F28" d="M357.991,48.907c-21.684-21.325-41.282-32.107-58.258-32.062
			c-33.34,0.07-69.624,42.085-88.27,67.135c-23.26,31.211-46.762,74.442-46.842,100.651c0.008,23.742,9.076,45.22,26.221,62.11
			c24.173,23.829,61.83,36.416,108.922,36.406c40.194-0.003,74.132-9.424,98.167-27.243c23.824-17.685,36.949-42.948,36.949-71.142
			C434.88,150.295,394.288,84.597,357.991,48.907z"/>
		<path id="XMLID_431_" fill="#D98F27" d="M357.936,49.003c-21.663-21.305-41.243-32.076-58.202-32.032
			c-33.308,0.07-69.558,42.045-88.187,67.071c-23.238,31.182-46.718,74.371-46.798,100.556c0.008,23.72,9.067,45.177,26.196,62.052
			c24.151,23.807,61.771,36.381,108.82,36.372c40.156-0.003,74.062-9.415,98.074-27.217c23.801-17.668,36.915-42.908,36.915-71.075
			C434.752,150.295,394.199,84.659,357.936,49.003z"/>
		<path id="XMLID_430_" fill="#D99027" d="M357.881,49.098c-21.643-21.284-41.204-32.046-58.147-32.002
			c-33.277,0.07-69.493,42.005-88.103,67.008c-23.216,31.152-46.674,74.301-46.754,100.461c0.008,23.697,9.059,45.134,26.171,61.993
			c24.128,23.784,61.713,36.347,108.717,36.338c40.118-0.003,73.992-9.406,97.981-27.191c23.779-17.652,36.88-42.867,36.88-71.007
			C434.625,150.295,394.109,84.721,357.881,49.098z"/>
		<path id="XMLID_429_" fill="#DA9027" d="M357.826,49.194c-21.622-21.264-41.165-32.016-58.092-31.972
			c-33.245,0.07-69.427,41.966-88.02,66.944c-23.195,31.123-46.629,74.231-46.71,100.366c0.008,23.675,9.05,45.092,26.146,61.934
			c24.105,23.762,61.655,36.313,108.614,36.303c40.08-0.003,73.922-9.397,97.888-27.166c23.756-17.635,36.845-42.826,36.845-70.94
			C434.497,150.294,394.02,84.783,357.826,49.194z"/>
		<path id="XMLID_428_" fill="#DB9027" d="M357.771,49.289c-21.602-21.244-41.126-31.986-58.037-31.941
			c-33.214,0.07-69.361,41.926-87.936,66.881c-23.173,31.093-46.585,74.16-46.666,100.271c0.008,23.652,9.042,45.049,26.122,61.875
			c24.082,23.739,61.596,36.278,108.511,36.269c40.042-0.003,73.852-9.388,97.796-27.14c23.734-17.618,36.81-42.786,36.81-70.873
			C434.369,150.294,393.931,84.845,357.771,49.289z"/>
		<path id="XMLID_427_" fill="#DC9127" d="M357.715,49.385c-21.581-21.224-41.087-31.955-57.982-31.911
			c-33.182,0.07-69.295,41.886-87.853,66.818c-23.151,31.064-46.541,74.09-46.621,100.176c0.008,23.63,9.033,45.006,26.097,61.817
			c24.059,23.717,61.538,36.244,108.408,36.235c40.004-0.003,73.782-9.379,97.703-27.114c23.711-17.601,36.775-42.745,36.775-70.806
			C434.242,150.294,393.841,84.906,357.715,49.385z"/>
		<path id="XMLID_426_" fill="#DC9126" d="M357.66,49.48c-21.561-21.204-41.048-31.925-57.927-31.881
			c-33.151,0.07-69.23,41.846-87.769,66.754c-23.129,31.034-46.497,74.02-46.577,100.081c0.008,23.608,9.025,44.964,26.072,61.758
			c24.037,23.695,61.48,36.209,108.306,36.2c39.966-0.003,73.712-9.371,97.61-27.088c23.688-17.585,36.74-42.704,36.74-70.739
			C434.114,150.293,393.752,84.968,357.66,49.48z"/>
		<path id="XMLID_425_" fill="#DD9126" d="M357.605,49.576c-21.54-21.184-41.009-31.895-57.872-31.85
			c-33.119,0.07-69.164,41.807-87.686,66.691c-23.107,31.005-46.453,73.949-46.533,99.985c0.008,23.585,9.016,44.921,26.047,61.699
			c24.014,23.672,61.421,36.175,108.203,36.166c39.928-0.003,73.642-9.362,97.517-27.063c23.666-17.568,36.705-42.664,36.705-70.671
			C433.986,150.293,393.663,85.03,357.605,49.576z"/>
		<path id="XMLID_424_" fill="#DE9226" d="M357.55,49.671c-21.52-21.164-40.97-31.864-57.817-31.82
			c-33.088,0.07-69.098,41.767-87.603,66.627c-23.085,30.975-46.409,73.879-46.489,99.89c0.008,23.563,9.008,44.878,26.022,61.641
			c23.991,23.65,61.363,36.141,108.1,36.132c39.89-0.003,73.572-9.353,97.425-27.037c23.643-17.551,36.67-42.623,36.67-70.604
			C433.859,150.293,393.573,85.092,357.55,49.671z"/>
		<path id="XMLID_423_" fill="#DE9226" d="M357.495,49.767c-21.499-21.144-40.931-31.834-57.762-31.79
			c-33.056,0.07-69.032,41.727-87.519,66.564c-23.063,30.946-46.365,73.809-46.445,99.795c0.008,23.54,8.999,44.835,25.998,61.582
			c23.968,23.627,61.305,36.106,107.997,36.097c39.852-0.003,73.502-9.344,97.332-27.011c23.621-17.534,36.635-42.583,36.635-70.537
			C433.731,150.293,393.484,85.153,357.495,49.767z"/>
		<path id="XMLID_422_" fill="#DF9326" d="M357.44,49.862c-21.479-21.124-40.892-31.804-57.707-31.76
			c-33.025,0.07-68.967,41.687-87.436,66.5c-23.041,30.916-46.321,73.739-46.4,99.7c0.008,23.518,8.991,44.793,25.973,61.523
			c23.946,23.605,61.246,36.072,107.894,36.063c39.814-0.003,73.432-9.335,97.239-26.986c23.598-17.518,36.6-42.542,36.6-70.47
			C433.603,150.292,393.395,85.215,357.44,49.862z"/>
		<path id="XMLID_421_" fill="#E09325" d="M357.385,49.958c-21.458-21.103-40.853-31.773-57.652-31.729
			c-32.993,0.07-68.901,41.647-87.352,66.437c-23.019,30.887-46.277,73.668-46.356,99.605c0.008,23.495,8.982,44.75,25.948,61.464
			c23.923,23.582,61.188,36.037,107.792,36.029c39.776-0.003,73.362-9.326,97.146-26.96c23.576-17.501,36.565-42.501,36.565-70.402
			C433.476,150.292,393.305,85.277,357.385,49.958z"/>
		<path id="XMLID_420_" fill="#E09325" d="M357.33,50.053c-21.438-21.083-40.814-31.743-57.597-31.699
			c-32.962,0.07-68.835,41.608-87.269,66.373c-22.997,30.858-46.232,73.598-46.312,99.51c0.008,23.473,8.973,44.707,25.923,61.406
			c23.9,23.56,61.13,36.003,107.689,35.994c39.738-0.003,73.292-9.317,97.054-26.934c23.553-17.484,36.53-42.461,36.53-70.335
			C433.348,150.292,393.216,85.339,357.33,50.053z"/>
		<path id="XMLID_419_" fill="#E19425" d="M357.275,50.149C335.858,29.085,316.5,18.436,299.733,18.48
			c-32.93,0.07-68.769,41.568-87.185,66.31c-22.975,30.828-46.188,73.528-46.268,99.415c0.008,23.451,8.965,44.664,25.898,61.347
			c23.877,23.537,61.071,35.969,107.586,35.96c39.7-0.003,73.222-9.308,96.961-26.908c23.531-17.467,36.495-42.42,36.495-70.268
			C433.22,150.291,393.127,85.401,357.275,50.149z"/>
		<path id="XMLID_418_" fill="#E29425" d="M357.22,50.244c-21.397-21.043-40.736-31.682-57.487-31.639
			c-32.899,0.07-68.704,41.528-87.102,66.247c-22.953,30.799-46.144,73.457-46.223,99.32c0.008,23.428,8.956,44.622,25.874,61.288
			c23.854,23.515,61.013,35.934,107.483,35.925c39.662-0.003,73.152-9.299,96.868-26.883c23.508-17.451,36.46-42.38,36.46-70.201
			C433.093,150.291,393.037,85.462,357.22,50.244z"/>
		<path id="XMLID_417_" fill="#E39425" d="M357.165,50.34c-21.376-21.023-40.697-31.652-57.432-31.608
			c-32.868,0.07-68.638,41.488-87.019,66.183c-22.931,30.769-46.1,73.387-46.179,99.225c0.008,23.406,8.948,44.579,25.849,61.23
			c23.832,23.492,60.955,35.9,107.38,35.891c39.624-0.002,73.081-9.29,96.776-26.857c23.485-17.434,36.425-42.339,36.425-70.134
			C432.965,150.291,392.948,85.524,357.165,50.34z"/>
		<path id="XMLID_416_" fill="#E39524" d="M357.11,50.435c-21.356-21.003-40.658-31.622-57.377-31.578
			c-32.836,0.069-68.572,41.449-86.935,66.12c-22.909,30.74-46.056,73.317-46.135,99.13c0.008,23.383,8.939,44.536,25.824,61.171
			c23.809,23.47,60.896,35.866,107.278,35.857c39.586-0.002,73.011-9.281,96.683-26.831c23.463-17.417,36.39-42.298,36.39-70.066
			C432.837,150.291,392.859,85.586,357.11,50.435z"/>
		<path id="XMLID_415_" fill="#E49524" d="M357.055,50.531c-21.335-20.983-40.619-31.592-57.322-31.548
			c-32.805,0.069-68.506,41.409-86.852,66.056c-22.887,30.71-46.012,73.246-46.091,99.035c0.008,23.361,8.931,44.494,25.799,61.112
			c23.786,23.447,60.838,35.831,107.175,35.822c39.548-0.002,72.941-9.273,96.59-26.806c23.44-17.4,36.355-42.258,36.355-69.999
			C432.71,150.29,392.769,85.648,357.055,50.531z"/>
		<path id="XMLID_414_" fill="#E59624" d="M357,50.626c-21.315-20.963-40.58-31.561-57.267-31.517
			c-32.773,0.069-68.441,41.369-86.768,65.993c-22.865,30.681-45.968,73.176-46.047,98.94c0.008,23.339,8.922,44.451,25.774,61.053
			c23.763,23.425,60.78,35.797,107.072,35.788c39.51-0.002,72.871-9.264,96.497-26.78c23.418-17.384,36.32-42.217,36.32-69.932
			C432.582,150.29,392.68,85.709,357,50.626z"/>
		<path id="XMLID_413_" fill="#E59624" d="M356.945,50.722c-21.294-20.942-40.541-31.531-57.212-31.487
			c-32.742,0.069-68.375,41.329-86.685,65.929c-22.843,30.651-45.924,73.106-46.002,98.845c0.008,23.316,8.914,44.408,25.749,60.995
			c23.74,23.402,60.721,35.762,106.969,35.754c39.472-0.002,72.801-9.255,96.405-26.754c23.395-17.367,36.286-42.177,36.286-69.865
			C432.454,150.29,392.591,85.771,356.945,50.722z"/>
		<path id="XMLID_412_" fill="#E69624" d="M356.89,50.817c-21.274-20.922-40.502-31.501-57.157-31.457
			c-32.71,0.069-68.309,41.29-86.601,65.866c-22.821,30.622-45.88,73.035-45.958,98.75c0.008,23.294,8.905,44.365,25.725,60.936
			c23.718,23.38,60.663,35.728,106.866,35.719c39.434-0.002,72.731-9.246,96.312-26.729c23.373-17.35,36.251-42.136,36.251-69.798
			C432.327,150.289,392.501,85.833,356.89,50.817z"/>
		<path id="XMLID_411_" fill="#E79723" d="M356.835,50.913c-21.253-20.902-40.463-31.47-57.102-31.427
			c-32.679,0.069-68.243,41.25-86.518,65.802c-22.799,30.592-45.835,72.965-45.914,98.655c0.008,23.271,8.897,44.323,25.7,60.877
			c23.695,23.357,60.605,35.694,106.764,35.685c39.396-0.002,72.661-9.237,96.219-26.703c23.35-17.333,36.216-42.095,36.216-69.73
			C432.199,150.289,392.412,85.895,356.835,50.913z"/>
		<path id="XMLID_410_" fill="#E79723" d="M356.78,51.008c-21.233-20.882-40.424-31.44-57.047-31.396
			c-32.647,0.069-68.178,41.21-86.435,65.739c-22.777,30.563-45.791,72.895-45.87,98.56c0.008,23.249,8.888,44.28,25.675,60.819
			c23.672,23.335,60.546,35.659,106.661,35.651c39.358-0.002,72.591-9.228,96.126-26.677c23.328-17.317,36.181-42.055,36.181-69.663
			C432.071,150.289,392.323,85.957,356.78,51.008z"/>
		<path id="XMLID_409_" fill="#E89723" d="M356.725,51.104c-21.212-20.862-40.385-31.41-56.992-31.366
			c-32.616,0.069-68.112,41.17-86.351,65.676c-22.755,30.534-45.747,72.825-45.826,98.464c0.008,23.226,8.879,44.237,25.65,60.76
			c23.649,23.313,60.488,35.625,106.558,35.616c39.32-0.002,72.521-9.219,96.034-26.651c23.305-17.3,36.146-42.014,36.146-69.596
			C431.944,150.289,392.233,86.018,356.725,51.104z"/>
		<path id="XMLID_408_" fill="#E99823" d="M356.67,51.199c-21.192-20.842-40.346-31.379-56.937-31.336
			c-32.584,0.069-68.046,41.131-86.268,65.612c-22.733,30.504-45.703,72.754-45.781,98.369c0.008,23.204,8.871,44.194,25.625,60.701
			c23.626,23.29,60.43,35.59,106.455,35.582c39.282-0.002,72.451-9.21,95.941-26.626c23.282-17.283,36.111-41.974,36.111-69.529
			C431.816,150.288,392.144,86.08,356.67,51.199z"/>
		<path id="XMLID_407_" fill="#E99822" d="M356.615,51.295c-21.171-20.822-40.307-31.349-56.882-31.305
			c-32.553,0.069-67.98,41.091-86.184,65.549c-22.712,30.475-45.659,72.684-45.737,98.274c0.008,23.182,8.862,44.152,25.601,60.642
			c23.604,23.268,60.371,35.556,106.352,35.548c39.244-0.002,72.381-9.201,95.848-26.6c23.26-17.266,36.076-41.933,36.076-69.462
			C431.688,150.288,392.055,86.142,356.615,51.295z"/>
		<path id="XMLID_406_" fill="#EA9922" d="M356.559,51.39c-21.151-20.802-40.268-31.319-56.827-31.275
			c-32.521,0.069-67.915,41.051-86.101,65.485c-22.69,30.445-45.615,72.614-45.693,98.179c0.008,23.159,8.854,44.109,25.576,60.584
			c23.581,23.245,60.313,35.522,106.25,35.513c39.206-0.002,72.311-9.192,95.755-26.574c23.237-17.25,36.041-41.892,36.041-69.394
			C431.561,150.288,391.965,86.204,356.559,51.39z"/>
		<path id="XMLID_405_" fill="#EB9922" d="M356.504,51.486c-21.13-20.782-40.229-31.289-56.772-31.245
			c-32.49,0.069-67.849,41.011-86.017,65.422c-22.668,30.416-45.571,72.543-45.649,98.084c0.008,23.137,8.845,44.066,25.551,60.525
			c23.558,23.223,60.255,35.487,106.147,35.479c39.168-0.002,72.241-9.183,95.663-26.549c23.215-17.233,36.006-41.852,36.006-69.327
			C431.433,150.287,391.876,86.265,356.504,51.486z"/>
		<path id="XMLID_404_" fill="#EB9922" d="M356.449,51.581c-21.11-20.761-40.19-31.258-56.717-31.215
			c-32.458,0.069-67.783,40.972-85.934,65.358c-22.646,30.386-45.527,72.473-45.605,97.989c0.008,23.114,8.837,44.024,25.526,60.466
			c23.535,23.2,60.196,35.453,106.044,35.445c39.13-0.002,72.171-9.174,95.57-26.523c23.192-17.216,35.971-41.811,35.971-69.26
			C431.305,150.287,391.787,86.327,356.449,51.581z"/>
		<path id="XMLID_403_" fill="#EC9A21" d="M356.394,51.677c-21.089-20.741-40.151-31.228-56.662-31.184
			c-32.427,0.069-67.718,40.932-85.851,65.295c-22.624,30.357-45.483,72.403-45.56,97.894c0.008,23.092,8.828,43.981,25.501,60.408
			c23.512,23.178,60.138,35.419,105.941,35.41c39.092-0.002,72.101-9.166,95.477-26.497c23.17-17.199,35.936-41.77,35.936-69.193
			C431.178,150.287,391.698,86.389,356.394,51.677z"/>
		<path id="XMLID_402_" fill="#EC9A21" d="M356.339,51.772c-21.069-20.721-40.112-31.198-56.607-31.154
			c-32.396,0.069-67.652,40.892-85.767,65.232c-22.602,30.327-45.438,72.332-45.516,97.799c0.008,23.07,8.82,43.938,25.477,60.349
			c23.49,23.155,60.08,35.384,105.838,35.376c39.053-0.002,72.031-9.157,95.385-26.471c23.147-17.183,35.901-41.73,35.901-69.125
			C431.05,150.287,391.608,86.451,356.339,51.772z"/>
		<path id="XMLID_401_" fill="#ED9A21" d="M356.284,51.868c-21.048-20.701-40.073-31.167-56.551-31.124
			c-32.364,0.069-67.586,40.852-85.684,65.168c-22.58,30.298-45.394,72.262-45.472,97.704c0.008,23.047,8.811,43.895,25.452,60.29
			c23.467,23.133,60.021,35.35,105.736,35.342c39.016-0.002,71.961-9.148,95.292-26.446c23.125-17.166,35.866-41.689,35.866-69.058
			C430.922,150.286,391.519,86.513,356.284,51.868z"/>
		<path id="XMLID_400_" fill="#EE9B21" d="M356.229,51.963c-21.028-20.681-40.034-31.137-56.496-31.094
			c-32.333,0.069-67.52,40.813-85.6,65.105c-22.558,30.268-45.35,72.192-45.428,97.609c0.008,23.025,8.803,43.853,25.427,60.231
			c23.444,23.11,59.963,35.315,105.633,35.307c38.977-0.001,71.891-9.139,95.199-26.42c23.102-17.149,35.831-41.649,35.831-68.991
			C430.795,150.286,391.43,86.574,356.229,51.963z"/>
		<path id="XMLID_399_" fill="#EE9B20" d="M356.174,52.059c-21.007-20.661-39.995-31.107-56.441-31.063
			c-32.301,0.069-67.455,40.773-85.517,65.041c-22.536,30.239-45.306,72.121-45.383,97.514c0.008,23.002,8.794,43.81,25.402,60.173
			c23.421,23.088,59.905,35.281,105.53,35.273c38.939-0.001,71.821-9.13,95.106-26.394c23.08-17.133,35.796-41.608,35.796-68.924
			C430.667,150.286,391.34,86.636,356.174,52.059z"/>
		<path id="XMLID_398_" fill="#EF9B20" d="M356.119,52.154c-20.987-20.641-39.956-31.076-56.386-31.033
			c-32.27,0.069-67.389,40.733-85.433,64.978c-22.514,30.21-45.262,72.051-45.339,97.419c0.008,22.98,8.785,43.767,25.377,60.114
			c23.398,23.065,59.846,35.247,105.427,35.239c38.901-0.001,71.751-9.121,95.014-26.369c23.057-17.116,35.761-41.567,35.761-68.857
			C430.539,150.285,391.251,86.698,356.119,52.154z"/>
		<path id="XMLID_397_" fill="#EF9C20" d="M356.064,52.25c-20.967-20.621-39.917-31.046-56.331-31.003
			c-32.238,0.069-67.323,40.693-85.35,64.914c-22.492,30.18-45.218,71.981-45.295,97.324c0.008,22.957,8.777,43.724,25.353,60.055
			c23.376,23.043,59.788,35.212,105.324,35.204c38.863-0.001,71.681-9.112,94.921-26.343c23.034-17.099,35.726-41.527,35.726-68.789
			C430.412,150.285,391.162,86.76,356.064,52.25z"/>
		<path id="XMLID_396_" fill="#F09C20" d="M356.009,52.345c-20.946-20.6-39.878-31.016-56.276-30.972
			c-32.207,0.068-67.257,40.654-85.266,64.851c-22.47,30.151-45.174,71.911-45.251,97.229c0.008,22.935,8.768,43.682,25.328,59.997
			c23.353,23.02,59.73,35.178,105.221,35.17c38.825-0.001,71.611-9.103,94.828-26.317c23.012-17.082,35.691-41.486,35.691-68.722
			C430.284,150.285,391.072,86.821,356.009,52.345z"/>
		<path id="XMLID_395_" fill="#F19C1F" d="M355.954,52.441c-20.926-20.58-39.838-30.985-56.221-30.942
			c-32.175,0.068-67.192,40.614-85.183,64.787c-22.448,30.121-45.13,71.84-45.207,97.134c0.008,22.913,8.76,43.639,25.303,59.938
			c23.33,22.998,59.671,35.143,105.119,35.136c38.787-0.001,71.541-9.094,94.735-26.291c22.989-17.066,35.656-41.446,35.656-68.655
			C430.156,150.285,390.983,86.883,355.954,52.441z"/>
		<path id="XMLID_394_" fill="#F19D1F" d="M355.899,52.536c-20.905-20.56-39.799-30.955-56.166-30.912
			c-32.144,0.068-67.126,40.574-85.1,64.724c-22.426,30.092-45.086,71.77-45.162,97.039c0.008,22.89,8.751,43.596,25.278,59.879
			c23.307,22.976,59.613,35.109,105.016,35.101c38.749-0.001,71.471-9.085,94.643-26.266c22.967-17.049,35.622-41.405,35.622-68.588
			C430.029,150.284,390.894,86.945,355.899,52.536z"/>
		<path id="XMLID_393_" fill="#F19D1F" d="M355.844,52.632c-20.885-20.54-39.76-30.925-56.111-30.882
			c-32.112,0.068-67.06,40.534-85.016,64.661c-22.404,30.062-45.041,71.7-45.118,96.944c0.008,22.868,8.743,43.554,25.253,59.82
			c23.284,22.953,59.555,35.075,104.913,35.067c38.711-0.001,71.401-9.076,94.55-26.24c22.944-17.032,35.587-41.364,35.587-68.521
			C429.901,150.284,390.804,87.007,355.844,52.632z"/>
		<path id="XMLID_391_" fill="#F29D1F" d="M355.789,52.727c-20.864-20.52-39.721-30.895-56.056-30.851
			c-32.081,0.068-66.994,40.494-84.933,64.597c-22.382,30.033-44.997,71.629-45.074,96.848c0.008,22.845,8.734,43.511,25.228,59.762
			c23.262,22.931,59.496,35.04,104.81,35.033c38.673-0.001,71.331-9.068,94.457-26.214c22.922-17.015,35.552-41.324,35.552-68.453
			C429.773,150.284,390.715,87.068,355.789,52.727z"/>
	</g>
	<g id="XMLID_390_">
		<path id="XMLID_6_" fill="#F29D1F" d="M187.923,185.772c0,44.14,6.528,56.612,6.528,56.612s-21.706-18.944-21.771-51.95
			c0-1.61,0.066-3.306,0.172-4.988c4.433-51.15,75.51-134.166,75.51-134.166S187.923,141.111,187.923,185.772z"/>
		<path id="XMLID_389_" fill="#F29E21" d="M194.403,242.289c0,0-21.617-18.891-21.688-51.843c0-1.606,0.046-3.298,0.171-4.973
			c3.813-51.094,75.269-133.888,75.269-133.888s-60.27,89.603-60.27,134.209C187.884,229.843,194.403,242.289,194.403,242.289z"/>
		<path id="XMLID_388_" fill="#F29E23" d="M194.356,242.193c0,0-21.528-18.839-21.605-51.736c0-1.601,0.045-3.288,0.169-4.958
			c3.787-50.991,75.027-133.61,75.027-133.61s-60.102,89.376-60.102,133.927C187.845,229.773,194.356,242.193,194.356,242.193z"/>
		<path id="XMLID_387_" fill="#F29E25" d="M194.309,242.098c0,0-21.439-18.786-21.522-51.629c-0.001-1.596,0.044-3.278,0.167-4.944
			c3.761-50.887,74.786-133.332,74.786-133.332s-59.933,89.149-59.933,133.644C187.806,229.704,194.309,242.098,194.309,242.098z"/>
		<path id="XMLID_386_" fill="#F29F27" d="M194.261,242.003c0,0-21.351-18.734-21.438-51.522c-0.001-1.592,0.044-3.269,0.166-4.929
			c3.735-50.784,74.544-133.054,74.544-133.054s-59.765,88.922-59.765,133.362C187.768,229.635,194.261,242.003,194.261,242.003z"/>
		<path id="XMLID_385_" fill="#F29F28" d="M194.214,241.908c0,0-21.262-18.682-21.355-51.415c-0.001-1.587,0.043-3.259,0.164-4.915
			c3.709-50.68,74.302-132.776,74.302-132.776s-59.596,88.695-59.596,133.079C187.729,229.565,194.214,241.908,194.214,241.908z"/>
		<path id="XMLID_384_" fill="#F2A02A" d="M194.166,241.813c0,0-21.173-18.629-21.272-51.308c-0.001-1.583,0.043-3.249,0.163-4.9
			c3.683-50.577,74.061-132.498,74.061-132.498s-59.428,88.467-59.428,132.797C187.69,229.496,194.166,241.813,194.166,241.813z"/>
		<path id="XMLID_383_" fill="#F2A02C" d="M194.119,241.718c0,0-21.085-18.577-21.189-51.201c-0.001-1.578,0.042-3.239,0.161-4.886
			c3.657-50.473,73.819-132.22,73.819-132.22s-59.259,88.24-59.259,132.514C187.652,229.426,194.119,241.718,194.119,241.718z"/>
		<path id="XMLID_382_" fill="#F2A02D" d="M194.072,241.622c0,0-20.996-18.524-21.105-51.094c-0.002-1.573,0.041-3.23,0.16-4.871
			c3.631-50.37,73.578-131.942,73.578-131.942s-59.091,88.013-59.091,132.232C187.613,229.357,194.072,241.622,194.072,241.622z"/>
		<path id="XMLID_381_" fill="#F2A12F" d="M194.024,241.527c0,0-20.907-18.472-21.022-50.987c-0.002-1.569,0.041-3.22,0.158-4.857
			c3.605-50.266,73.336-131.664,73.336-131.664s-58.922,87.786-58.922,131.949C187.574,229.288,194.024,241.527,194.024,241.527z"/>
		<path id="XMLID_262_" fill="#F2A130" d="M193.977,241.432c0,0-20.818-18.419-20.939-50.88c-0.002-1.564,0.04-3.21,0.157-4.842
			c3.579-50.163,73.095-131.386,73.095-131.386s-58.754,87.559-58.754,131.667C187.535,229.218,193.977,241.432,193.977,241.432z"/>
		<path id="XMLID_261_" fill="#F2A232" d="M193.93,241.337c0,0-20.73-18.367-20.856-50.773c-0.002-1.559,0.04-3.201,0.155-4.828
			c3.553-50.059,72.853-131.108,72.853-131.108s-58.585,87.332-58.585,131.384C187.497,229.149,193.93,241.337,193.93,241.337z"/>
		<path id="XMLID_260_" fill="#F2A233" d="M193.882,241.242c0,0-20.641-18.314-20.772-50.666c-0.003-1.555,0.039-3.191,0.153-4.813
			c3.527-49.955,72.612-130.83,72.612-130.83s-58.417,87.104-58.417,131.102C187.458,229.08,193.882,241.242,193.882,241.242z"/>
		<path id="XMLID_259_" fill="#F2A234" d="M193.835,241.147c0,0-20.552-18.262-20.689-50.559c-0.003-1.55,0.038-3.181,0.152-4.798
			c3.501-49.852,72.37-130.552,72.37-130.552s-58.248,86.877-58.248,130.819C187.419,229.01,193.835,241.147,193.835,241.147z"/>
		<path id="XMLID_258_" fill="#F2A336" d="M193.787,241.051c0,0-20.463-18.21-20.606-50.452c-0.003-1.546,0.038-3.171,0.15-4.784
			c3.475-49.748,72.128-130.274,72.128-130.274s-58.08,86.65-58.08,130.537C187.381,228.941,193.787,241.051,193.787,241.051z"/>
		<path id="XMLID_257_" fill="#F3A337" d="M193.74,240.956c0,0-20.375-18.157-20.522-50.345c-0.003-1.541,0.037-3.162,0.149-4.769
			c3.449-49.645,71.887-129.996,71.887-129.996s-57.911,86.423-57.911,130.254C187.342,228.871,193.74,240.956,193.74,240.956z"/>
		<path id="XMLID_256_" fill="#F3A338" d="M193.693,240.861c0,0-20.286-18.105-20.439-50.238c-0.003-1.536,0.037-3.152,0.147-4.755
			c3.423-49.541,71.645-129.718,71.645-129.718s-57.743,86.196-57.743,129.972C187.303,228.802,193.693,240.861,193.693,240.861z"/>
		<path id="XMLID_255_" fill="#F3A43A" d="M193.645,240.766c0,0-20.197-18.052-20.356-50.131c-0.004-1.532,0.036-3.142,0.146-4.74
			c3.397-49.438,71.404-129.44,71.404-129.44s-57.574,85.968-57.574,129.689C187.264,228.733,193.645,240.766,193.645,240.766z"/>
		<path id="XMLID_254_" fill="#F3A43B" d="M193.598,240.671c0,0-20.108-18-20.273-50.024c-0.004-1.527,0.035-3.133,0.144-4.726
			c3.37-49.334,71.162-129.162,71.162-129.162s-57.406,85.741-57.406,129.407C187.226,228.663,193.598,240.671,193.598,240.671z"/>
		<path id="XMLID_253_" fill="#F3A53C" d="M193.551,240.575c0,0-20.02-17.947-20.189-49.917c-0.004-1.522,0.035-3.123,0.143-4.711
			c3.344-49.231,70.921-128.884,70.921-128.884s-57.237,85.514-57.237,129.124C187.187,228.594,193.551,240.575,193.551,240.575z"/>
		<path id="XMLID_252_" fill="#F3A53D" d="M193.503,240.48c0,0-19.931-17.895-20.106-49.81c-0.004-1.518,0.034-3.113,0.141-4.697
			c3.318-49.127,70.679-128.606,70.679-128.606s-57.069,85.287-57.069,128.842C187.148,228.525,193.503,240.48,193.503,240.48z"/>
		<path id="XMLID_251_" fill="#F3A53E" d="M193.456,240.385c0,0-19.842-17.842-20.023-49.703c-0.004-1.513,0.034-3.104,0.14-4.682
			c3.292-49.024,70.438-128.328,70.438-128.328s-56.9,85.06-56.9,128.559C187.109,228.455,193.456,240.385,193.456,240.385z"/>
		<path id="XMLID_250_" fill="#F3A640" d="M193.408,240.29c0,0-19.753-17.79-19.94-49.596c-0.005-1.509,0.033-3.094,0.138-4.668
			c3.266-48.92,70.196-128.05,70.196-128.05s-56.732,84.833-56.732,128.276C187.071,228.386,193.408,240.29,193.408,240.29z"/>
		<path id="XMLID_249_" fill="#F3A641" d="M193.361,240.195c0,0-19.665-17.737-19.856-49.489c-0.005-1.504,0.032-3.084,0.136-4.653
			c3.239-48.817,69.954-127.772,69.954-127.772s-56.563,84.605-56.563,127.994C187.032,228.316,193.361,240.195,193.361,240.195z"/>
		<path id="XMLID_248_" fill="#F3A742" d="M193.314,240.1c0,0-19.576-17.685-19.773-49.382c-0.005-1.499,0.032-3.074,0.135-4.639
			c3.213-48.714,69.713-127.494,69.713-127.494s-56.395,84.378-56.395,127.711C186.993,228.247,193.314,240.1,193.314,240.1z"/>
		<path id="XMLID_247_" fill="#F3A743" d="M193.266,240.004c0,0-19.487-17.633-19.69-49.275c-0.005-1.495,0.031-3.065,0.133-4.624
			c3.187-48.61,69.471-127.216,69.471-127.216s-56.226,84.151-56.226,127.429C186.955,228.178,193.266,240.004,193.266,240.004z"/>
		<path id="XMLID_246_" fill="#F3A744" d="M193.219,239.909c0,0-19.398-17.58-19.607-49.168c-0.006-1.49,0.03-3.055,0.132-4.609
			c3.161-48.507,69.23-126.938,69.23-126.938s-56.058,83.924-56.058,127.146C186.916,228.108,193.219,239.909,193.219,239.909z"/>
		<path id="XMLID_245_" fill="#F3A845" d="M193.172,239.814c0,0-19.31-17.528-19.523-49.061c-0.006-1.485,0.03-3.045,0.13-4.595
			c3.134-48.403,68.988-126.659,68.988-126.659s-55.889,83.697-55.889,126.864C186.877,228.039,193.172,239.814,193.172,239.814z"/>
		<path id="XMLID_244_" fill="#F3A846" d="M193.124,239.719c0,0-19.221-17.475-19.44-48.954c-0.006-1.481,0.029-3.036,0.129-4.58
			c3.108-48.3,68.747-126.381,68.747-126.381s-55.721,83.47-55.721,126.581C186.838,227.97,193.124,239.719,193.124,239.719z"/>
		<path id="XMLID_243_" fill="#F3A947" d="M193.077,239.624c0,0-19.132-17.423-19.357-48.847c-0.006-1.476,0.029-3.026,0.127-4.566
			c3.082-48.196,68.505-126.103,68.505-126.103S186.8,143.35,186.8,186.407C186.8,227.9,193.077,239.624,193.077,239.624z"/>
		<path id="XMLID_242_" fill="#F3A948" d="M193.029,239.529c0,0-19.044-17.37-19.274-48.74c-0.006-1.471,0.028-3.016,0.126-4.551
			c3.055-48.093,68.264-125.825,68.264-125.825s-55.384,83.015-55.384,126.016C186.761,227.831,193.029,239.529,193.029,239.529z"/>
		<path id="XMLID_241_" fill="#F3A949" d="M192.982,239.433c0,0-18.955-17.318-19.19-48.633c-0.007-1.467,0.027-3.007,0.124-4.537
			c3.029-47.989,68.022-125.547,68.022-125.547s-55.215,82.788-55.215,125.734C186.722,227.762,192.982,239.433,192.982,239.433z"/>
		<path id="XMLID_240_" fill="#F3AA4A" d="M192.935,239.338c0,0-18.866-17.265-19.107-48.526c-0.007-1.462,0.027-2.997,0.122-4.522
			c3.003-47.886,67.78-125.269,67.78-125.269s-55.047,82.561-55.047,125.451C186.684,227.692,192.935,239.338,192.935,239.338z"/>
		<path id="XMLID_239_" fill="#F4AA4B" d="M192.887,239.243c0,0-18.777-17.213-19.024-48.419c-0.007-1.458,0.026-2.987,0.121-4.508
			c2.976-47.783,67.539-124.991,67.539-124.991s-54.878,82.334-54.878,125.169C186.645,227.623,192.887,239.243,192.887,239.243z"/>
		<path id="XMLID_238_" fill="#F4AB4C" d="M192.84,239.148c0,0-18.689-17.161-18.941-48.312c-0.007-1.453,0.026-2.977,0.119-4.493
			c2.95-47.679,67.297-124.713,67.297-124.713s-54.71,82.107-54.71,124.886C186.606,227.553,192.84,239.148,192.84,239.148z"/>
		<path id="XMLID_237_" fill="#F4AB4D" d="M192.793,239.053c0,0-18.6-17.108-18.857-48.205c-0.007-1.448,0.025-2.968,0.118-4.479
			c2.923-47.576,67.056-124.435,67.056-124.435s-54.541,81.879-54.541,124.604C186.567,227.484,192.793,239.053,192.793,239.053z"/>
		<path id="XMLID_236_" fill="#F4AB4E" d="M192.745,238.958c0,0-18.511-17.056-18.774-48.098c-0.008-1.444,0.024-2.958,0.116-4.464
			c2.897-47.472,66.814-124.157,66.814-124.157s-54.373,81.652-54.373,124.321C186.529,227.415,192.745,238.958,192.745,238.958z"/>
		<path id="XMLID_235_" fill="#F4AC4F" d="M192.698,238.862c0,0-18.422-17.003-18.691-47.991c-0.008-1.439,0.024-2.948,0.115-4.449
			c2.87-47.369,66.573-123.879,66.573-123.879s-54.204,81.425-54.204,124.039C186.49,227.345,192.698,238.862,192.698,238.862z"/>
		<path id="XMLID_234_" fill="#F4AC50" d="M192.65,238.767c0,0-18.334-16.951-18.608-47.884c-0.008-1.434,0.023-2.939,0.113-4.435
			C177,139.183,240.487,62.847,240.487,62.847s-54.036,81.198-54.036,123.756C186.451,227.276,192.65,238.767,192.65,238.767z"/>
		<path id="XMLID_233_" fill="#F4AD51" d="M192.603,238.672c0,0-18.245-16.898-18.524-47.777c-0.008-1.43,0.023-2.929,0.112-4.42
			c2.818-47.162,66.09-123.323,66.09-123.323s-53.867,80.971-53.867,123.474C186.413,227.207,192.603,238.672,192.603,238.672z"/>
		<path id="XMLID_232_" fill="#F4AD52" d="M192.556,238.577c0,0-18.156-16.846-18.441-47.67c-0.008-1.425,0.022-2.919,0.11-4.406
			c2.791-47.059,65.848-123.045,65.848-123.045s-53.699,80.744-53.699,123.191C186.374,227.137,192.556,238.577,192.556,238.577z"/>
		<path id="XMLID_231_" fill="#F4AD53" d="M192.508,238.482c0,0-18.067-16.793-18.358-47.563c-0.009-1.421,0.021-2.91,0.109-4.391
			c2.765-46.955,65.607-122.767,65.607-122.767s-53.53,80.516-53.53,122.909C186.335,227.068,192.508,238.482,192.508,238.482z"/>
		<path id="XMLID_230_" fill="#F4AE54" d="M192.461,238.386c0,0-17.979-16.741-18.275-47.456c-0.009-1.416,0.021-2.9,0.107-4.377
			c2.738-46.852,65.365-122.489,65.365-122.489s-53.362,80.289-53.362,122.626C186.296,226.998,192.461,238.386,192.461,238.386z"/>
		<path id="XMLID_229_" fill="#F4AE54" d="M192.414,238.291c0,0-17.89-16.688-18.191-47.349c-0.009-1.411,0.02-2.89,0.105-4.362
			c2.711-46.748,65.123-122.211,65.123-122.211s-53.193,80.062-53.193,122.344C186.258,226.929,192.414,238.291,192.414,238.291z"/>
		<path id="XMLID_228_" fill="#F4AF55" d="M192.366,238.196c0,0-17.801-16.636-18.108-47.242c-0.009-1.407,0.019-2.88,0.104-4.348
			c2.685-46.645,64.882-121.933,64.882-121.933s-53.025,79.835-53.025,122.061C186.219,226.86,192.366,238.196,192.366,238.196z"/>
		<path id="XMLID_227_" fill="#F4AF56" d="M192.319,238.101c0,0-17.712-16.584-18.025-47.135c-0.01-1.402,0.019-2.871,0.102-4.333
			c2.658-46.542,64.64-121.655,64.64-121.655s-52.856,79.608-52.856,121.779C186.18,226.79,192.319,238.101,192.319,238.101z"/>
		<path id="XMLID_226_" fill="#F4AF57" d="M192.271,238.006c0,0-17.624-16.531-17.942-47.028c-0.01-1.397,0.018-2.861,0.101-4.319
			c2.632-46.438,64.399-121.377,64.399-121.377s-52.688,79.38-52.688,121.496C186.141,226.721,192.271,238.006,192.271,238.006z"/>
		<path id="XMLID_225_" fill="#F5B058" d="M192.224,237.911c0,0-17.535-16.479-17.858-46.921c-0.01-1.393,0.018-2.851,0.099-4.304
			c2.605-46.335,64.157-121.099,64.157-121.099s-52.519,79.153-52.519,121.214C186.103,226.652,192.224,237.911,192.224,237.911z"/>
		<path id="XMLID_224_" fill="#F5B059" d="M192.177,237.815c0,0-17.446-16.426-17.775-46.814c-0.01-1.388,0.017-2.842,0.098-4.289
			c2.578-46.232,63.916-120.821,63.916-120.821s-52.351,78.926-52.351,120.931C186.064,226.582,192.177,237.815,192.177,237.815z"/>
		<path id="XMLID_223_" fill="#F5B15A" d="M192.129,237.72c0,0-17.357-16.374-17.692-46.707c-0.01-1.383,0.016-2.832,0.096-4.275
			c2.552-46.128,63.674-120.543,63.674-120.543s-52.182,78.699-52.182,120.649C186.025,226.513,192.129,237.72,192.129,237.72z"/>
		<path id="XMLID_222_" fill="#F5B15B" d="M192.082,237.625c0,0-17.269-16.321-17.609-46.6c-0.011-1.379,0.016-2.822,0.095-4.26
			C177.093,140.74,238.001,66.5,238.001,66.5s-52.014,78.472-52.014,120.366C185.987,226.443,192.082,237.625,192.082,237.625z"/>
		<path id="XMLID_221_" fill="#F5B15B" d="M192.035,237.53c0,0-17.18-16.269-17.525-46.493c-0.011-1.374,0.015-2.812,0.093-4.246
			c2.498-45.922,63.191-119.987,63.191-119.987s-51.845,78.245-51.845,120.084C185.948,226.374,192.035,237.53,192.035,237.53z"/>
		<path id="XMLID_220_" fill="#F5B25C" d="M191.987,237.435c0,0-17.091-16.216-17.442-46.386c-0.011-1.37,0.014-2.803,0.091-4.231
			C177.108,141,237.586,67.109,237.586,67.109s-51.677,78.017-51.677,119.801C185.909,226.305,191.987,237.435,191.987,237.435z"/>
		<path id="XMLID_219_" fill="#F5B25D" d="M191.94,237.34c0,0-17.003-16.164-17.359-46.279c-0.011-1.365,0.014-2.793,0.09-4.217
			c2.445-45.715,62.708-119.431,62.708-119.431s-51.508,77.79-51.508,119.519C185.87,226.235,191.94,237.34,191.94,237.34z"/>
		<path id="XMLID_218_" fill="#F5B35E" d="M191.892,237.244c0,0-16.914-16.112-17.276-46.172c-0.011-1.36,0.013-2.783,0.088-4.202
			c2.418-45.612,62.466-119.153,62.466-119.153s-51.34,77.563-51.34,119.236C185.832,226.166,191.892,237.244,191.892,237.244z"/>
		<path id="XMLID_217_" fill="#F5B35F" d="M191.845,237.149c0,0-16.825-16.059-17.192-46.065c-0.012-1.356,0.012-2.774,0.087-4.188
			c2.391-45.508,62.225-118.875,62.225-118.875s-51.171,77.336-51.171,118.954C185.793,226.097,191.845,237.149,191.845,237.149z"/>
		<path id="XMLID_216_" fill="#F5B360" d="M191.798,237.054c0,0-16.736-16.007-17.109-45.958c-0.012-1.351,0.012-2.764,0.085-4.173
			c2.365-45.405,61.983-118.597,61.983-118.597s-51.003,77.109-51.003,118.671C185.754,226.027,191.798,237.054,191.798,237.054z"/>
		<path id="XMLID_215_" fill="#F5B461" d="M191.75,236.959c0,0-16.648-15.954-17.026-45.851c-0.012-1.346,0.011-2.754,0.084-4.159
			c2.338-45.302,61.742-118.319,61.742-118.319s-50.834,76.882-50.834,118.389C185.716,225.958,191.75,236.959,191.75,236.959z"/>
		<path id="XMLID_214_" fill="#F5B462" d="M191.703,236.864c0,0-16.559-15.902-16.942-45.744c-0.012-1.342,0.011-2.745,0.082-4.144
			c2.311-45.198,61.5-118.041,61.5-118.041s-50.666,76.654-50.666,118.106C185.677,225.888,191.703,236.864,191.703,236.864z"/>
		<path id="XMLID_213_" fill="#F5B562" d="M191.656,236.769c0,0-16.47-15.849-16.859-45.637c-0.012-1.337,0.01-2.735,0.081-4.13
			c2.284-45.095,61.259-117.763,61.259-117.763s-50.497,76.427-50.497,117.824C185.638,225.819,191.656,236.769,191.656,236.769z"/>
		<path id="XMLID_212_" fill="#F5B563" d="M191.608,236.673c0,0-16.381-15.797-16.776-45.53c-0.013-1.333,0.009-2.725,0.079-4.115
			c2.257-44.992,61.017-117.485,61.017-117.485s-50.329,76.2-50.329,117.541C185.599,225.75,191.608,236.673,191.608,236.673z"/>
		<path id="XMLID_211_" fill="#F5B564" d="M191.561,236.578c0,0-16.293-15.744-16.693-45.423c-0.013-1.328,0.009-2.715,0.077-4.1
			c2.23-44.888,60.775-117.207,60.775-117.207s-50.16,75.973-50.16,117.259C185.561,225.68,191.561,236.578,191.561,236.578z"/>
		<path id="XMLID_210_" fill="#F5B665" d="M191.513,236.483c0,0-16.204-15.692-16.609-45.316c-0.013-1.323,0.008-2.706,0.076-4.086
			c2.203-44.785,60.534-116.929,60.534-116.929s-49.992,75.746-49.992,116.976C185.522,225.611,191.513,236.483,191.513,236.483z"/>
		<path id="XMLID_209_" fill="#F6B666" d="M191.466,236.388c0,0-16.115-15.639-16.526-45.209c-0.013-1.319,0.007-2.696,0.074-4.071
			c2.176-44.682,60.292-116.651,60.292-116.651s-49.823,75.519-49.823,116.694C185.483,225.542,191.466,236.388,191.466,236.388z"/>
		<path id="XMLID_208_" fill="#F6B667" d="M191.419,236.293c0,0-16.026-15.587-16.443-45.102c-0.014-1.314,0.007-2.686,0.073-4.057
			c2.149-44.578,60.051-116.372,60.051-116.372s-49.655,75.291-49.655,116.411C185.445,225.472,191.419,236.293,191.419,236.293z"/>
		<path id="XMLID_207_" fill="#F6B768" d="M191.371,236.197c0,0-15.938-15.535-16.36-44.995c-0.014-1.309,0.006-2.677,0.071-4.042
			c2.122-44.475,59.809-116.094,59.809-116.094s-49.486,75.064-49.486,116.129C185.406,225.403,191.371,236.197,191.371,236.197z"/>
		<path id="XMLID_206_" fill="#F6B769" d="M191.324,236.102c0,0-15.849-15.482-16.276-44.888c-0.014-1.305,0.005-2.667,0.07-4.028
			c2.095-44.372,59.568-115.816,59.568-115.816s-49.318,74.837-49.318,115.846C185.367,225.334,191.324,236.102,191.324,236.102z"/>
		<path id="XMLID_205_" fill="#F6B869" d="M191.277,236.007c0,0-15.76-15.43-16.193-44.781c-0.014-1.3,0.005-2.657,0.068-4.013
			c2.068-44.269,59.326-115.538,59.326-115.538s-49.149,74.61-49.149,115.564C185.328,225.264,191.277,236.007,191.277,236.007z"/>
		<path id="XMLID_204_" fill="#F6B86A" d="M191.229,235.912c0,0-15.671-15.377-16.11-44.674c-0.014-1.295,0.004-2.648,0.067-3.999
			c2.041-44.165,59.085-115.26,59.085-115.26S185.29,146.362,185.29,187.26C185.29,225.195,191.229,235.912,191.229,235.912z"/>
		<path id="XMLID_203_" fill="#F6B86B" d="M191.182,235.817c0,0-15.583-15.325-16.027-44.567c-0.015-1.291,0.004-2.638,0.065-3.984
			c2.014-44.062,58.843-114.982,58.843-114.982s-48.812,74.156-48.812,114.999C185.251,225.125,191.182,235.817,191.182,235.817z"/>
		<path id="XMLID_202_" fill="#F6B96C" d="M191.134,235.722c0,0-15.494-15.272-15.943-44.46c-0.015-1.286,0.003-2.628,0.064-3.97
			c1.987-43.959,58.602-114.704,58.602-114.704s-48.644,73.928-48.644,114.716C185.212,225.056,191.134,235.722,191.134,235.722z"/>
		<path id="XMLID_201_" fill="#F6B96D" d="M191.087,235.626c0,0-15.405-15.22-15.86-44.353c-0.015-1.282,0.002-2.619,0.062-3.955
			c1.96-43.856,58.36-114.426,58.36-114.426s-48.475,73.701-48.475,114.433C185.173,224.987,191.087,235.626,191.087,235.626z"/>
		<path id="XMLID_200_" fill="#F6BA6D" d="M191.04,235.531c0,0-15.317-15.167-15.777-44.246c-0.015-1.277,0.002-2.609,0.06-3.94
			c1.933-43.752,58.118-114.148,58.118-114.148s-48.307,73.474-48.307,114.151C185.135,224.917,191.04,235.531,191.04,235.531z"/>
		<path id="XMLID_199_" fill="#F6BA6E" d="M190.992,235.436c0,0-15.228-15.115-15.694-44.139c-0.015-1.272,0.001-2.599,0.059-3.926
			c1.906-43.649,57.877-113.87,57.877-113.87s-48.138,73.247-48.138,113.868C185.096,224.848,190.992,235.436,190.992,235.436z"/>
		<path id="XMLID_198_" fill="#F6BA6F" d="M190.945,235.341c0,0-15.139-15.063-15.61-44.032c-0.016-1.268,0-2.589,0.057-3.911
			c1.878-43.546,57.635-113.592,57.635-113.592s-47.97,73.02-47.97,113.586C185.057,224.779,190.945,235.341,190.945,235.341z"/>
		<path id="XMLID_197_" fill="#F6BB70" d="M190.898,235.246c0,0-15.05-15.01-15.527-43.925c-0.016-1.263,0-2.58,0.056-3.897
			C177.277,143.982,232.82,74.11,232.82,74.11s-47.801,72.792-47.801,113.303C185.019,224.709,190.898,235.246,190.898,235.246z"/>
		<path id="XMLID_196_" fill="#F6BB71" d="M190.85,235.151c0,0-14.962-14.958-15.444-43.818c-0.016-1.258-0.001-2.57,0.054-3.882
			c1.824-43.339,57.152-113.036,57.152-113.036S184.98,146.98,184.98,187.435C184.98,224.64,190.85,235.151,190.85,235.151z"/>
		<path id="XMLID_195_" fill="#F6BC72" d="M190.803,235.055c0,0-14.873-14.905-15.361-43.711c-0.016-1.254-0.002-2.56,0.053-3.868
			c1.797-43.236,56.911-112.758,56.911-112.758s-47.464,72.338-47.464,112.738C184.941,224.57,190.803,235.055,190.803,235.055z"/>
		<path id="XMLID_194_" fill="#F6BC72" d="M190.756,234.96c0,0-14.784-14.853-15.277-43.604c-0.017-1.249-0.002-2.551,0.051-3.853
			c1.769-43.133,56.669-112.48,56.669-112.48s-47.296,72.111-47.296,112.456C184.902,224.501,190.756,234.96,190.756,234.96z"/>
		<path id="XMLID_193_" fill="#F7BC73" d="M190.708,234.865c0,0-14.695-14.8-15.194-43.497c-0.017-1.244-0.003-2.541,0.05-3.839
			c1.742-43.03,56.428-112.202,56.428-112.202s-47.127,71.884-47.127,112.173C184.864,224.432,190.708,234.865,190.708,234.865z"/>
		<path id="XMLID_192_" fill="#F7BD74" d="M190.661,234.77c0,0-14.607-14.748-15.111-43.39c-0.017-1.24-0.004-2.531,0.048-3.824
			c1.715-42.927,56.186-111.924,56.186-111.924s-46.959,71.657-46.959,111.891C184.825,224.362,190.661,234.77,190.661,234.77z"/>
		<path id="XMLID_191_" fill="#F7BD75" d="M190.613,234.675c0,0-14.518-14.695-15.028-43.283c-0.017-1.235-0.004-2.522,0.046-3.81
			c1.687-42.823,55.944-111.646,55.944-111.646s-46.79,71.429-46.79,111.608C184.786,224.293,190.613,234.675,190.613,234.675z"/>
		<path id="XMLID_190_" fill="#F7BE76" d="M190.566,234.58c0,0-14.429-14.643-14.944-43.176c-0.017-1.231-0.005-2.512,0.045-3.795
			c1.66-42.72,55.703-111.368,55.703-111.368s-46.622,71.202-46.622,111.326C184.748,224.224,190.566,234.58,190.566,234.58z"/>
		<path id="XMLID_189_" fill="#F7BE77" d="M190.519,234.484c0,0-14.34-14.59-14.861-43.069c-0.018-1.226-0.006-2.502,0.043-3.78
			c1.632-42.617,55.461-111.09,55.461-111.09s-46.453,70.975-46.453,111.043C184.709,224.154,190.519,234.484,190.519,234.484z"/>
		<path id="XMLID_188_" fill="#F7BE77" d="M190.471,234.389c0,0-14.252-14.538-14.778-42.962c-0.018-1.221-0.006-2.492,0.042-3.766
			c1.605-42.514,55.22-110.812,55.22-110.812S184.67,147.598,184.67,187.61C184.67,224.085,190.471,234.389,190.471,234.389z"/>
		<path id="XMLID_187_" fill="#F7BF78" d="M190.424,234.294c0,0-14.163-14.486-14.695-42.855c-0.018-1.217-0.007-2.483,0.04-3.751
			c1.578-42.411,54.978-110.534,54.978-110.534s-46.116,70.521-46.116,110.478C184.631,224.015,190.424,234.294,190.424,234.294z"/>
		<path id="XMLID_186_" fill="#F7BF79" d="M190.377,234.199c0,0-14.074-14.433-14.611-42.748c-0.018-1.212-0.008-2.473,0.039-3.737
			c1.55-42.307,54.737-110.256,54.737-110.256s-45.948,70.294-45.948,110.196C184.593,223.946,190.377,234.199,190.377,234.199z"/>
		<path id="XMLID_185_" fill="#F7C07A" d="M190.329,234.104c0,0-13.985-14.381-14.528-42.641c-0.018-1.207-0.008-2.463,0.037-3.722
			c1.522-42.204,54.495-109.978,54.495-109.978s-45.779,70.066-45.779,109.913C184.554,223.877,190.329,234.104,190.329,234.104z"/>
		<path id="XMLID_184_" fill="#F7C07B" d="M190.282,234.008c0,0-13.897-14.328-14.445-42.534c-0.019-1.203-0.009-2.454,0.036-3.708
			c1.495-42.101,54.254-109.7,54.254-109.7s-45.611,69.839-45.611,109.631C184.515,223.807,190.282,234.008,190.282,234.008z"/>
		<path id="XMLID_111_" fill="#F7C07C" d="M190.234,233.913c0,0-13.808-14.276-14.362-42.427c-0.019-1.198-0.01-2.444,0.034-3.693
			c1.467-41.998,54.012-109.422,54.012-109.422s-45.442,69.612-45.442,109.348C184.477,223.738,190.234,233.913,190.234,233.913z"/>
		<path id="XMLID_110_" fill="#F7C17D" d="M190.187,233.818c0,0-13.719-14.223-14.278-42.32c-0.019-1.194-0.01-2.434,0.032-3.679
			c1.44-41.895,53.77-109.144,53.77-109.144s-45.274,69.385-45.274,109.066C184.438,223.669,190.187,233.818,190.187,233.818z"/>
		<path id="XMLID_109_" fill="#F7C17D" d="M190.14,233.723c0,0-13.63-14.171-14.195-42.213c-0.019-1.189-0.011-2.425,0.031-3.664
			c1.412-41.792,53.529-108.866,53.529-108.866s-45.105,69.158-45.105,108.783C184.399,223.599,190.14,233.723,190.14,233.723z"/>
		<path id="XMLID_108_" fill="#F7C27E" d="M190.092,233.628c0,0-13.542-14.118-14.112-42.106c-0.019-1.184-0.012-2.415,0.029-3.65
			c1.384-41.688,53.287-108.588,53.287-108.588s-44.937,68.931-44.937,108.501C184.36,223.53,190.092,233.628,190.092,233.628z"/>
		<path id="XMLID_107_" fill="#F7C27F" d="M190.045,233.533c0,0-13.453-14.066-14.029-41.999c-0.02-1.18-0.012-2.405,0.028-3.635
			c1.357-41.585,53.046-108.31,53.046-108.31s-44.768,68.703-44.768,108.218C184.322,223.46,190.045,233.533,190.045,233.533z"/>
		<path id="XMLID_106_" fill="#F7C280" d="M189.998,233.437c0,0-13.364-14.014-13.945-41.892c-0.02-1.175-0.013-2.396,0.026-3.62
			c1.329-41.482,52.804-108.032,52.804-108.032s-44.6,68.476-44.6,107.936C184.283,223.391,189.998,233.437,189.998,233.437z"/>
		<path id="XMLID_105_" fill="#F7C381" d="M189.95,233.342c0,0-13.276-13.961-13.862-41.785c-0.02-1.17-0.014-2.386,0.025-3.606
			c1.301-41.379,52.563-107.754,52.563-107.754s-44.431,68.249-44.431,107.653C184.244,223.322,189.95,233.342,189.95,233.342z"/>
		<path id="XMLID_104_" fill="#F7C382" d="M189.903,233.247c0,0-13.187-13.909-13.779-41.678c-0.02-1.166-0.014-2.376,0.023-3.591
			c1.273-41.276,52.321-107.476,52.321-107.476s-44.263,68.022-44.263,107.371C184.205,223.252,189.903,233.247,189.903,233.247z"/>
		<path id="XMLID_103_" fill="#F7C383" d="M189.855,233.152c0,0-13.098-13.856-13.696-41.571c-0.021-1.161-0.015-2.366,0.022-3.577
			c1.245-41.173,52.08-107.198,52.08-107.198s-44.094,67.795-44.094,107.088C184.167,223.183,189.855,233.152,189.855,233.152z"/>
		<path id="XMLID_102_" fill="#F8C483" d="M189.808,233.057c0,0-13.009-13.804-13.612-41.464c-0.021-1.156-0.016-2.357,0.02-3.562
			c1.217-41.07,51.838-106.92,51.838-106.92s-43.926,67.568-43.926,106.806C184.128,223.114,189.808,233.057,189.808,233.057z"/>
		<path id="XMLID_84_" fill="#F8C484" d="M189.761,232.962c0,0-12.921-13.751-13.529-41.357c-0.021-1.152-0.016-2.347,0.019-3.548
			c1.189-40.967,51.596-106.642,51.596-106.642s-43.757,67.34-43.757,106.523C184.089,223.044,189.761,232.962,189.761,232.962z"/>
		<path id="XMLID_83_" fill="#F8C585" d="M189.713,232.866c0,0-12.832-13.699-13.446-41.25c-0.021-1.147-0.017-2.337,0.017-3.533
			c1.162-40.863,51.355-106.364,51.355-106.364s-43.589,67.113-43.589,106.241C184.051,222.975,189.713,232.866,189.713,232.866z"/>
		<path id="XMLID_82_" fill="#F8C586" d="M189.666,232.771c0,0-12.743-13.646-13.362-41.143c-0.021-1.143-0.018-2.328,0.015-3.519
			c1.134-40.76,51.113-106.085,51.113-106.085s-43.42,66.886-43.42,105.958C184.012,222.906,189.666,232.771,189.666,232.771z"/>
		<path id="XMLID_81_" fill="#F8C587" d="M189.619,232.676c0,0-12.654-13.594-13.279-41.036c-0.022-1.138-0.018-2.318,0.014-3.504
			c1.106-40.657,50.872-105.807,50.872-105.807s-43.252,66.659-43.252,105.676C183.973,222.836,189.619,232.676,189.619,232.676z"/>
		<path id="XMLID_80_" fill="#F8C688" d="M189.571,232.581c0,0-12.566-13.542-13.196-40.929c-0.022-1.133-0.019-2.308,0.012-3.49
			c1.077-40.554,50.63-105.529,50.63-105.529s-43.083,66.432-43.083,105.393C183.934,222.767,189.571,232.581,189.571,232.581z"/>
		<path id="XMLID_79_" fill="#F8C689" d="M189.524,232.486c0,0-12.477-13.489-13.113-40.822c-0.022-1.129-0.02-2.299,0.011-3.475
			c1.049-40.451,50.389-105.251,50.389-105.251s-42.915,66.204-42.915,105.111C183.896,222.697,189.524,232.486,189.524,232.486z"/>
		<path id="XMLID_78_" fill="#F8C789" d="M189.476,232.391c0,0-12.388-13.437-13.029-40.715c-0.022-1.124-0.02-2.289,0.009-3.461
			c1.021-40.348,50.147-104.973,50.147-104.973s-42.746,65.977-42.746,104.828C183.857,222.628,189.476,232.391,189.476,232.391z"/>
		<path id="XMLID_77_" fill="#F8C78A" d="M189.429,232.295c0,0-12.299-13.384-12.946-40.608c-0.022-1.119-0.021-2.279,0.008-3.446
			c0.993-40.245,49.906-104.695,49.906-104.695s-42.578,65.75-42.578,104.546C183.818,222.559,189.429,232.295,189.429,232.295z"/>
		<path id="XMLID_76_" fill="#F8C78B" d="M189.382,232.2c0,0-12.211-13.332-12.863-40.501c-0.023-1.115-0.022-2.27,0.006-3.431
			c0.965-40.142,49.664-104.417,49.664-104.417s-42.409,65.523-42.409,104.263C183.78,222.489,189.382,232.2,189.382,232.2z"/>
		<path id="XMLID_75_" fill="#F8C88C" d="M189.334,232.105c0,0-12.122-13.279-12.78-40.394c-0.023-1.11-0.023-2.26,0.005-3.417
			c0.937-40.039,49.423-104.139,49.423-104.139s-42.241,65.296-42.241,103.981C183.741,222.42,189.334,232.105,189.334,232.105z"/>
		<path id="XMLID_74_" fill="#F8C88D" d="M189.287,232.01c0,0-12.033-13.227-12.696-40.287c-0.023-1.106-0.023-2.25,0.003-3.402
			c0.908-39.936,49.181-103.861,49.181-103.861s-42.072,65.069-42.072,103.698C183.702,222.351,189.287,232.01,189.287,232.01z"/>
		<path id="XMLID_73_" fill="#F8C88E" d="M189.24,231.915c0,0-11.944-13.174-12.613-40.18c-0.023-1.101-0.024-2.24,0.001-3.388
			c0.88-39.833,48.939-103.583,48.939-103.583s-41.904,64.841-41.904,103.416C183.663,222.281,189.24,231.915,189.24,231.915z"/>
		<path id="XMLID_72_" fill="#F8C98F" d="M189.192,231.819c0,0-11.856-13.122-12.53-40.073c-0.024-1.096-0.025-2.231,0-3.373
			c0.852-39.73,48.698-103.305,48.698-103.305s-41.735,64.614-41.735,103.133C183.625,222.212,189.192,231.819,189.192,231.819z"/>
		<path id="XMLID_71_" fill="#F8C98F" d="M189.145,231.724c0,0-11.767-13.069-12.447-39.966c-0.024-1.092-0.025-2.221-0.002-3.359
			c0.823-39.626,48.456-103.027,48.456-103.027s-41.567,64.387-41.567,102.851C183.586,222.142,189.145,231.724,189.145,231.724z"/>
		<path id="XMLID_70_" fill="#F8CA90" d="M189.097,231.629c0,0-11.678-13.017-12.363-39.859c-0.024-1.087-0.026-2.211-0.003-3.344
			c0.795-39.523,48.215-102.749,48.215-102.749s-41.398,64.16-41.398,102.568C183.547,222.073,189.097,231.629,189.097,231.629z"/>
		<path id="XMLID_69_" fill="#F8CA91" d="M189.05,231.534c0,0-11.589-12.965-12.28-39.752c-0.024-1.082-0.027-2.202-0.005-3.33
			c0.766-39.42,47.973-102.471,47.973-102.471s-41.23,63.933-41.23,102.286C183.509,222.004,189.05,231.534,189.05,231.534z"/>
		<path id="XMLID_68_" fill="#F9CA92" d="M189.003,231.439c0,0-11.501-12.912-12.197-39.645c-0.024-1.078-0.027-2.192-0.006-3.315
			c0.738-39.317,47.732-102.193,47.732-102.193s-41.061,63.706-41.061,102.003C183.47,221.934,189.003,231.439,189.003,231.439z"/>
		<path id="XMLID_67_" fill="#F9CB93" d="M188.955,231.344c0,0-11.412-12.86-12.114-39.538c-0.025-1.073-0.028-2.182-0.008-3.301
			c0.709-39.214,47.49-101.915,47.49-101.915s-40.893,63.478-40.893,101.721C183.431,221.865,188.955,231.344,188.955,231.344z"/>
		<path id="XMLID_66_" fill="#F9CB94" d="M188.908,231.248c0,0-11.323-12.807-12.03-39.431c-0.025-1.068-0.029-2.173-0.009-3.286
			c0.681-39.111,47.249-101.637,47.249-101.637s-40.724,63.251-40.724,101.438C183.392,221.796,188.908,231.248,188.908,231.248z"/>
		<path id="XMLID_65_" fill="#F9CC95" d="M188.861,231.153c0,0-11.235-12.755-11.947-39.324c-0.025-1.064-0.03-2.163-0.011-3.271
			c0.652-39.008,47.007-101.359,47.007-101.359s-40.556,63.024-40.556,101.156C183.354,221.726,188.861,231.153,188.861,231.153z"/>
		<path id="XMLID_64_" fill="#F9CC95" d="M188.813,231.058c0,0-11.146-12.702-11.864-39.217c-0.025-1.059-0.03-2.153-0.013-3.257
			c0.623-38.905,46.765-101.081,46.765-101.081s-40.387,62.797-40.387,100.873C183.315,221.657,188.813,231.058,188.813,231.058z"/>
		<path id="XMLID_63_" fill="#F9CC96" d="M188.766,230.963c0,0-11.057-12.65-11.781-39.11c-0.025-1.055-0.031-2.144-0.014-3.242
			c0.595-38.802,46.524-100.803,46.524-100.803s-40.219,62.57-40.219,100.59C183.276,221.587,188.766,230.963,188.766,230.963z"/>
		<path id="XMLID_62_" fill="#F9CD97" d="M188.718,230.868c0,0-10.968-12.597-11.697-39.003c-0.026-1.05-0.032-2.134-0.016-3.228
			c0.566-38.699,46.282-100.525,46.282-100.525s-40.05,62.343-40.05,100.308C183.237,221.518,188.718,230.868,188.718,230.868z"/>
		<path id="XMLID_61_" fill="#F9CD98" d="M188.671,230.773c0,0-10.88-12.545-11.614-38.896c-0.026-1.045-0.032-2.124-0.017-3.213
			c0.537-38.596,46.041-100.247,46.041-100.247s-39.882,62.115-39.882,100.025C183.199,221.449,188.671,230.773,188.671,230.773z"/>
		<path id="XMLID_60_" fill="#F9CE99" d="M188.624,230.677c0,0-10.791-12.493-11.531-38.789c-0.026-1.041-0.033-2.114-0.019-3.199
			c0.508-38.493,45.799-99.969,45.799-99.969s-39.713,61.888-39.713,99.743C183.16,221.379,188.624,230.677,188.624,230.677z"/>
		<path id="XMLID_59_" fill="#F9CE9A" d="M188.576,230.582c0,0-10.702-12.44-11.448-38.682c-0.026-1.036-0.034-2.105-0.02-3.184
			c0.479-38.39,45.558-99.691,45.558-99.691s-39.545,61.661-39.545,99.46C183.121,221.31,188.576,230.582,188.576,230.582z"/>
		<path id="XMLID_58_" fill="#F9CE9B" d="M188.529,230.487c0,0-10.613-12.388-11.364-38.575c-0.026-1.031-0.034-2.095-0.022-3.17
			c0.45-38.287,45.316-99.413,45.316-99.413s-39.376,61.434-39.376,99.178C183.083,221.241,188.529,230.487,188.529,230.487z"/>
		<path id="XMLID_57_" fill="#F9CF9C" d="M188.482,230.392c0,0-10.525-12.335-11.281-38.468c-0.027-1.027-0.035-2.085-0.023-3.155
			c0.421-38.184,45.075-99.135,45.075-99.135s-39.208,61.207-39.208,98.895C183.044,221.171,188.482,230.392,188.482,230.392z"/>
		<path id="XMLID_56_" fill="#F9CF9D" d="M188.434,230.297c0,0-10.436-12.283-11.198-38.361c-0.027-1.022-0.036-2.076-0.025-3.141
			c0.392-38.081,44.833-98.857,44.833-98.857s-39.039,60.98-39.039,98.613C183.005,221.102,188.434,230.297,188.434,230.297z"/>
		<path id="XMLID_55_" fill="#F9D09D" d="M188.387,230.202c0,0-10.347-12.23-11.115-38.254c-0.027-1.018-0.035-2.066-0.026-3.126
			c0.439-37.977,44.591-98.579,44.591-98.579s-38.871,60.752-38.871,98.33C182.966,221.033,188.387,230.202,188.387,230.202z"/>
		<path id="XMLID_54_" fill="#F9D09E" d="M188.339,230.106c0,0-10.258-12.178-11.031-38.147c-0.027-1.013-0.035-2.056-0.028-3.111
			c0.408-37.874,44.35-98.301,44.35-98.301s-38.702,60.525-38.702,98.048C182.928,220.963,188.339,230.106,188.339,230.106z"/>
		<path id="XMLID_53_" fill="#F9D09F" d="M188.292,230.011c0,0-10.17-12.125-10.948-38.04c-0.028-1.008-0.036-2.047-0.03-3.097
			c0.377-37.772,44.108-98.023,44.108-98.023s-38.534,60.298-38.534,97.765C182.889,220.894,188.292,230.011,188.292,230.011z"/>
		<path id="XMLID_52_" fill="#F9D1A0" d="M188.245,229.916c0,0-10.081-12.073-10.865-37.933c-0.028-1.004-0.037-2.037-0.031-3.082
			c0.346-37.669,43.867-97.745,43.867-97.745s-38.365,60.071-38.365,97.483C182.85,220.824,188.245,229.916,188.245,229.916z"/>
		<path id="XMLID_51_" fill="#F9D1A1" d="M188.197,229.821c0,0-9.992-12.02-10.782-37.826c-0.028-0.999-0.038-2.027-0.033-3.068
			c0.314-37.566,43.625-97.467,43.625-97.467s-38.197,59.844-38.197,97.2C182.812,220.755,188.197,229.821,188.197,229.821z"/>
		<path id="XMLID_50_" fill="#F9D2A2" d="M188.15,229.726c0,0-9.903-11.968-10.698-37.719c-0.028-0.994-0.038-2.018-0.034-3.053
			c0.283-37.463,43.384-97.189,43.384-97.189s-38.028,59.616-38.028,96.918C182.773,220.686,188.15,229.726,188.15,229.726z"/>
		<path id="XMLID_49_" fill="#F9D2A3" d="M188.103,229.63c0,0-9.815-11.916-10.615-37.612c-0.028-0.99-0.039-2.008-0.036-3.039
			c0.252-37.36,43.142-96.911,43.142-96.911s-37.86,59.389-37.86,96.635C182.734,220.616,188.103,229.63,188.103,229.63z"/>
		<path id="XMLID_48_" fill="#F9D2A4" d="M188.055,229.535c0,0-9.726-11.863-10.532-37.505c-0.029-0.985-0.04-1.998-0.037-3.024
			c0.221-37.257,42.901-96.633,42.901-96.633s-37.691,59.162-37.691,96.353C182.695,220.547,188.055,229.535,188.055,229.535z"/>
		<path id="XMLID_47_" fill="#F9D3A5" d="M188.008,229.44c0,0-9.637-11.811-10.449-37.398c-0.029-0.98-0.041-1.988-0.039-3.01
			c0.19-37.154,42.659-96.355,42.659-96.355s-37.523,58.935-37.523,96.07C182.657,220.478,188.008,229.44,188.008,229.44z"/>
		<path id="XMLID_46_" fill="#F9D3A6" d="M187.96,229.345c0,0-9.548-11.758-10.365-37.291c-0.029-0.976-0.042-1.979-0.04-2.995
			c0.158-37.051,42.417-96.077,42.417-96.077s-37.354,58.708-37.354,95.788C182.618,220.408,187.96,229.345,187.96,229.345z"/>
		<path id="XMLID_45_" fill="#FAD4A7" d="M187.913,229.25c0,0-9.46-11.706-10.282-37.184c-0.029-0.971-0.042-1.969-0.042-2.981
			c0.127-36.948,42.176-95.799,42.176-95.799s-37.186,58.481-37.186,95.505C182.579,220.339,187.913,229.25,187.913,229.25z"/>
		<path id="XMLID_44_" fill="#FAD4A8" d="M187.866,229.155c0,0-9.371-11.653-10.199-37.077c-0.029-0.967-0.043-1.959-0.044-2.966
			c0.096-36.845,41.934-95.52,41.934-95.52s-37.017,58.253-37.017,95.223C182.541,220.269,187.866,229.155,187.866,229.155z"/>
		<path id="XMLID_43_" fill="#FAD4A8" d="M187.818,229.059c0,0-9.282-11.601-10.116-36.97c-0.03-0.962-0.044-1.95-0.045-2.951
			c0.065-36.742,41.693-95.242,41.693-95.242s-36.849,58.026-36.849,94.94C182.502,220.2,187.818,229.059,187.818,229.059z"/>
		<path id="XMLID_42_" fill="#FAD5A9" d="M187.771,228.964c0,0-9.194-11.548-10.032-36.863c-0.03-0.957-0.045-1.94-0.047-2.937
			c0.034-36.639,41.451-94.964,41.451-94.964s-36.68,57.799-36.68,94.658C182.463,220.131,187.771,228.964,187.771,228.964z"/>
		<path id="XMLID_41_" fill="#FAD5AA" d="M187.724,228.869c0,0-9.105-11.496-9.949-36.756c-0.03-0.953-0.045-1.93-0.048-2.922
			c0.002-36.537,41.21-94.686,41.21-94.686s-36.512,57.572-36.512,94.375C182.424,220.061,187.724,228.869,187.724,228.869z"/>
		<path id="XMLID_39_" fill="#FAD5AB" d="M187.676,228.774c0,0-9.016-11.444-9.866-36.649c-0.03-0.948-0.046-1.921-0.05-2.908
			c-0.029-36.434,40.968-94.408,40.968-94.408s-36.343,57.345-36.343,94.093C182.386,219.992,187.676,228.774,187.676,228.774z"/>
		<path id="XMLID_34_" fill="#FAD6AC" d="M187.629,228.679c0,0-8.927-11.391-9.782-36.542c-0.031-0.943-0.047-1.911-0.051-2.893
			c-0.06-36.331,40.727-94.13,40.727-94.13s-36.175,57.118-36.175,93.81C182.347,219.923,187.629,228.679,187.629,228.679z"/>
		<path id="XMLID_20_" fill="#FAD6AD" d="M187.581,228.584c0,0-8.839-11.339-9.699-36.435c-0.031-0.939-0.048-1.901-0.053-2.879
			c-0.091-36.228,40.485-93.852,40.485-93.852s-36.006,56.89-36.006,93.528C182.308,219.853,187.581,228.584,187.581,228.584z"/>
		<path id="XMLID_19_" fill="#FAD7AE" d="M187.534,228.488c0,0-8.75-11.286-9.616-36.328c-0.031-0.934-0.049-1.892-0.054-2.864
			c-0.122-36.125,40.244-93.574,40.244-93.574s-35.838,56.663-35.838,93.245C182.269,219.784,187.534,228.488,187.534,228.488z"/>
		<path id="XMLID_18_" fill="#FAD7AF" d="M187.487,228.393c0,0-8.661-11.234-9.533-36.221c-0.031-0.93-0.049-1.882-0.056-2.85
			c-0.154-36.022,40.002-93.296,40.002-93.296s-35.669,56.436-35.669,92.963C182.231,219.714,187.487,228.393,187.487,228.393z"/>
		<path id="XMLID_17_" fill="#FAD8B0" d="M187.439,228.298c0,0-8.572-11.181-9.449-36.114c-0.031-0.925-0.05-1.872-0.058-2.835
			c-0.185-35.919,39.76-93.018,39.76-93.018s-35.501,56.209-35.501,92.68C182.192,219.645,187.439,228.298,187.439,228.298z"/>
		<path id="XMLID_16_" fill="#FAD8B1" d="M187.392,228.203c0,0-8.484-11.129-9.366-36.007c-0.032-0.92-0.051-1.863-0.059-2.821
			c-0.216-35.816,39.519-92.74,39.519-92.74s-35.332,55.982-35.332,92.398C182.153,219.576,187.392,228.203,187.392,228.203z"/>
		<path id="XMLID_15_" fill="#FAD8B2" d="M187.345,228.108c0,0-8.395-11.076-9.283-35.9c-0.032-0.916-0.052-1.853-0.061-2.806
			c-0.247-35.713,39.277-92.462,39.277-92.462s-35.164,55.755-35.164,92.115C182.115,219.506,187.345,228.108,187.345,228.108z"/>
		<path id="XMLID_14_" fill="#FAD9B3" d="M187.297,228.012c0,0-8.306-11.024-9.2-35.793c-0.032-0.911-0.052-1.843-0.062-2.792
			c-0.278-35.61,39.036-92.184,39.036-92.184s-34.995,55.527-34.995,91.833C182.076,219.437,187.297,228.012,187.297,228.012z"/>
		<path id="XMLID_13_" fill="#FAD9B4" d="M187.25,227.917c0,0-8.217-10.971-9.116-35.686c-0.032-0.906-0.053-1.833-0.064-2.777
			c-0.31-35.507,38.794-91.906,38.794-91.906s-34.827,55.3-34.827,91.55C182.037,219.368,187.25,227.917,187.25,227.917z"/>
		<path id="XMLID_12_" fill="#FADAB5" d="M187.202,227.822c0,0-8.129-10.919-9.033-35.579c-0.032-0.902-0.054-1.824-0.065-2.762
			c-0.341-35.405,38.553-91.628,38.553-91.628s-34.658,55.073-34.658,91.268C181.998,219.298,187.202,227.822,187.202,227.822z"/>
		<path id="XMLID_11_" fill="#FADAB6" d="M187.155,227.727c0,0-8.04-10.867-8.95-35.472c-0.033-0.897-0.055-1.814-0.067-2.748
			c-0.372-35.302,38.311-91.35,38.311-91.35s-34.49,54.846-34.49,90.985C181.96,219.229,187.155,227.727,187.155,227.727z"/>
		<path id="XMLID_10_" fill="#FADAB6" d="M187.108,227.632c0,0-7.951-10.814-8.867-35.365c-0.033-0.892-0.056-1.804-0.068-2.733
			c-0.403-35.199,38.07-91.072,38.07-91.072s-34.321,54.619-34.321,90.703C181.921,219.159,187.108,227.632,187.108,227.632z"/>
		<path id="XMLID_9_" fill="#FADBB7" d="M187.06,227.537c0,0-7.862-10.762-8.783-35.258c-0.033-0.888-0.056-1.795-0.07-2.719
			c-0.434-35.096,37.828-90.794,37.828-90.794s-34.153,54.392-34.153,90.42C181.882,219.09,187.06,227.537,187.06,227.537z"/>
		<path id="XMLID_8_" fill="#FADBB8" d="M187.013,227.441c0,0-7.774-10.709-8.7-35.151c-0.033-0.883-0.057-1.785-0.071-2.704
			c-0.465-34.993,37.586-90.516,37.586-90.516s-33.984,54.164-33.984,90.138C181.844,219.021,187.013,227.441,187.013,227.441z"/>
		<path id="XMLID_7_" fill="#FADCB9" d="M186.966,227.346c0,0-7.685-10.657-8.617-35.044c-0.033-0.879-0.058-1.775-0.073-2.69
			c-0.497-34.89,37.345-90.238,37.345-90.238s-33.816,53.937-33.816,89.855C181.805,218.951,186.966,227.346,186.966,227.346z"/>
		<path id="XMLID_5_" fill="#FFE3BA" d="M215.413,99.679c0,0-37.631,55.173-37.103,89.96c0.457,26.232,8.608,37.612,8.608,37.612
			s-5.152-8.369-5.152-37.999C181.766,153.389,215.413,99.679,215.413,99.679z"/>
	</g>
</g>
<g id="XMLID_1193_">
	<path id="XMLID_492_" fill="#E2231A" d="M320.555,42.661c0.36,0.826,0.858,1.659,1.432,2.51
		C321.562,44.317,321.089,43.476,320.555,42.661z"/>
	<path id="XMLID_485_" fill="#E2231A" d="M285.235,37.511c0.035,0.002,0.069,0.005,0.104,0.008c0.004-0.033,0.011-0.063,0.015-0.095
		L285.235,37.511z"/>
	<path id="XMLID_484_" fill="#E2231A" d="M285.178,37.247c0.019,0.088,0.037,0.176,0.056,0.264l0.119-0.088
		C285.296,37.364,285.237,37.306,285.178,37.247z"/>
</g>
<g id="XMLID_609_">
	<g id="XMLID_667_">
		<path id="XMLID_940_" fill="#E2231A" d="M299.86,294.502c-50.227,0-90.476-13.683-116.391-39.561
			c-18.603-18.502-28.436-42.059-28.455-68.114c0.096-28.559,25.084-75.198,49.801-108.754
			c19.907-27.072,58.757-72.502,95.161-72.584c18.758,0,40.027,11.764,63.344,34.965c38.54,38.304,81.658,109.095,81.658,146.506
			c0,30.934-14.218,58.629-40.017,77.985c-25.78,19.336-62.069,29.557-104.946,29.557H299.86z M300.091,11.493
			c-33.844,0.072-71.168,43.963-90.398,70.119c-24.147,32.774-48.546,78.017-48.633,105.219c0.01,24.425,9.234,46.519,26.679,63.88
			c24.766,24.722,63.537,37.79,112.122,37.79v3.003l0.154-3.003c41.553,0,76.587-9.797,101.304-28.338
			c24.254-18.201,37.612-44.198,37.612-73.203c0-35.987-42.171-104.797-79.879-142.271
			C336.912,22.657,317.072,11.493,300.091,11.493z"/>
	</g>
	<g id="XMLID_610_">
		<g id="XMLID_611_">
			<g id="XMLID_636_">
				<g id="XMLID_665_">
					<path id="XMLID_666_" fill="#E2231A" stroke="#E2231A" stroke-width="0.2052" stroke-miterlimit="10" d="M286.24,67.378
						c0.783,0.383,1.739,0.359,2.502-0.336c0.772-0.662,1.198-1.956,0.956-3.204c-0.232-1.238-1.044-2.134-1.903-2.474
						c-0.869-0.36-1.767-0.168-2.483,0.364c-0.705,0.536-1.178,1.246-1.506,1.837c-0.328,0.599-0.522,1.103-0.454,1.482
						c0.067,0.383,0.424,0.614,0.937,0.992C284.811,66.404,285.429,66.985,286.24,67.378z"/>
				</g>
				<g id="XMLID_663_">
					<path id="XMLID_664_" fill="#E2231A" stroke="#E2231A" stroke-width="0.2052" stroke-miterlimit="10" d="M311.374,61.691
						c-0.725-0.489-1.681-0.585-2.531,0c-0.86,0.571-1.459,1.802-1.362,3.059c0.077,1.276,0.754,2.254,1.575,2.71
						c0.811,0.465,1.719,0.393,2.483-0.048c0.782-0.446,1.342-1.094,1.748-1.635c0.415-0.552,0.657-1.017,0.638-1.41
						c-0.03-0.393-0.338-0.657-0.792-1.113C312.649,62.832,312.118,62.189,311.374,61.691z"/>
				</g>
				<g id="XMLID_661_">
					<path id="XMLID_662_" fill="#E2231A" stroke="#E2231A" stroke-width="0.2052" stroke-miterlimit="10" d="M301.492,79.664
						c-0.27,0.442-0.299,0.998,0.058,1.477c0.348,0.484,1.101,0.806,1.835,0.725c0.744-0.068,1.323-0.49,1.556-0.969
						c0.251-0.494,0.193-1.031-0.077-1.462c-0.271-0.441-0.677-0.744-1.005-0.968c-0.338-0.226-0.608-0.36-0.85-0.346
						c-0.213,0.02-0.377,0.211-0.638,0.489C302.14,78.893,301.763,79.223,301.492,79.664z"/>
				</g>
				<g id="XMLID_659_">
					<path id="XMLID_660_" fill="#E2231A" stroke="#E2231A" stroke-width="0.2052" stroke-miterlimit="10" d="M293.929,79.664
						c-0.251,0.442-0.3,0.998,0.058,1.477c0.367,0.484,1.101,0.806,1.845,0.725c0.753-0.068,1.313-0.49,1.575-0.969
						c0.231-0.494,0.173-1.031-0.107-1.462c-0.28-0.441-0.657-0.744-0.995-0.968c-0.328-0.226-0.618-0.36-0.85-0.346
						c-0.223,0.02-0.387,0.211-0.628,0.489C294.586,78.893,294.209,79.223,293.929,79.664z"/>
				</g>
				<g id="XMLID_657_">
					<path id="XMLID_658_" fill="#E2231A" stroke="#E2231A" stroke-width="0.2052" stroke-miterlimit="10" d="M286.067,40.55
						c0.173-0.1-0.048-0.94-0.928-2.216c-0.888-1.276-2.396-2.978-4.849-4.474c-1.208-0.72-2.675-1.387-4.395-1.741
						c-1.7-0.359-3.7-0.359-5.642,0.307c-1.942,0.647-3.718,1.956-5.09,3.539c-1.295,1.462-2.58,3.041-3.758,4.776
						c-1.188,1.736-2.231,3.535-3.024,5.415c-0.772,1.875-1.314,3.856-1.294,5.894c0,1.017,0.174,2.053,0.58,3.012
						c0.396,0.964,1.062,1.837,1.855,2.436c0.28,0.24,0-0.038,0.328,0.288c0.26,0.254,0.637,0.499,1.072,0.609
						c0.434,0.11,0.831,0.067,1.139-0.005c0.318-0.082,0.57-0.192,0.782-0.302c0.851-0.475,1.372-0.974,1.874-1.43
						c1.004-0.915,1.816-1.707,2.569-2.143c0.782-0.441,1.285-0.441,1.807-0.135c0.501,0.307,0.859,0.772,1.111,1.036
						c0.27,0.293,0.434,0.446,0.54,0.408c0.087-0.038,0.117-0.278,0.02-0.686c-0.116-0.394-0.27-1.013-0.888-1.683
						c-0.319-0.321-0.812-0.662-1.449-0.772c-0.618-0.096-1.295,0.033-1.855,0.258c-1.179,0.451-2.213,1.257-3.265,2.024
						c-0.503,0.374-1.062,0.777-1.526,0.968c-0.097,0.038-0.685,0.068-0.685,0.068l-0.571-0.01c0,0,0-0.02,0,0.072
						c0,0.062,0.493,0.091,0.493,0.139l0.242,0.072c-0.01,0.015,0.106,0,0.154-0.072c0.019-0.038,0.096-0.053,0.136-0.106
						c0.029-0.033,0.077-0.048,0.096-0.072l0.02-0.01c0.029,0.048-0.087-0.153-0.203-0.268l-0.194-0.154
						c-0.087-0.057-0.057-0.057-0.106-0.085c-0.831-0.739-1.256-1.966-1.198-3.439c0.039-1.477,0.521-3.113,1.246-4.714
						c0.724-1.63,1.671-3.257,2.791-4.863c1.092-1.602,2.28-3.117,3.478-4.537c1.111-1.324,2.396-2.297,3.766-2.835
						c1.372-0.542,2.84-0.652,4.212-0.466c1.391,0.192,2.657,0.624,3.786,1.146c2.251,1.06,3.893,2.389,4.974,3.329
						C285.314,40.076,285.873,40.675,286.067,40.55z"/>
				</g>
				<g id="XMLID_655_">
					<path id="XMLID_656_" fill="#E2231A" stroke="#E2231A" stroke-width="0.2052" stroke-miterlimit="10" d="M329.561,51.676
						c-0.193,0.053-0.126,0.993,0.744,2.269c0.444,0.624,1.062,1.333,1.903,2.023c0.869,0.69,1.913,1.391,3.352,1.837
						c0.357,0.111,0.734,0.202,1.159,0.249c0.377,0.048,0.878,0.091,1.409-0.047c0.551-0.13,1.072-0.413,1.488-0.801
						c0.425-0.379,0.715-0.825,0.928-1.271c0.425-0.902,0.598-1.808,0.685-2.71c0.077-0.897,0.048-1.798-0.029-2.709
						c-0.377-3.602-1.593-7.357-3.719-10.93c-1.072-1.775-2.357-3.41-3.95-4.739c-1.593-1.309-3.593-2.296-5.669-2.397
						c-3.816-0.062-6.964,1.026-9.321,2.369c-2.357,1.357-3.932,2.858-4.907,3.971c-0.966,1.113-1.352,1.846-1.208,1.976
						c0.154,0.163,0.86-0.288,2.019-1.084c1.179-0.786,2.85-1.932,5.061-2.896c1.14-0.489,2.396-0.907,3.767-1.175
						c0.685-0.13,1.401-0.24,2.154-0.283c0.357-0.033,0.734-0.048,1.13-0.053c0.367,0,0.792,0,1.082,0.028
						c1.323,0.13,2.685,0.811,3.902,1.871c1.227,1.06,2.318,2.464,3.265,4.014c1.874,3.136,3.052,6.575,3.516,9.663
						c0.221,1.515,0.231,3.051-0.155,4.034c-0.193,0.494-0.386,0.695-0.657,0.8c-0.135,0.058-0.328,0.077-0.618,0.077
						c-0.27,0-0.521-0.033-0.791-0.082c-1.063-0.206-2.048-0.666-2.879-1.127c-0.811-0.479-1.478-0.983-1.999-1.419
						C330.189,52.262,329.774,51.615,329.561,51.676z"/>
				</g>
				<g id="XMLID_653_">
					<path id="XMLID_654_" fill="#E2231A" stroke="#E2231A" stroke-width="0.2052" stroke-miterlimit="10" d="M272.187,66.467
						c0.414,0.12,1.409-1.913,2.81-5.204c0.705-1.64,1.526-3.602,2.521-5.703c0.995-2.095,2.173-4.359,3.652-6.445
						c1.497-2.096,3.245-3.77,5.11-4.786c1.845-1.041,3.795-1.467,5.485-1.622c1.69-0.143,3.111-0.077,4.134-0.062
						c1.005,0.024,1.585-0.02,1.642-0.23c0.058-0.202-0.424-0.552-1.41-0.95c-0.965-0.384-2.453-0.825-4.385-0.955
						c-1.922-0.115-4.366,0.125-6.79,1.271c-2.425,1.127-4.637,3.151-6.317,5.52c-1.719,2.394-2.878,4.868-3.776,7.132
						c-0.889,2.268-1.526,4.364-1.961,6.119C272.013,64.088,271.781,66.347,272.187,66.467z"/>
				</g>
				<g id="XMLID_651_">
					<path id="XMLID_652_" fill="#E2231A" stroke="#E2231A" stroke-width="0.2052" stroke-miterlimit="10" d="M323.438,66.597
						c0.415-0.139,0.077-2.46-0.638-6.197c-0.376-1.865-0.859-4.091-1.574-6.551c-0.725-2.46-1.662-5.184-3.333-7.851
						c-0.83-1.319-1.845-2.557-3.033-3.549c-1.188-1.013-2.54-1.76-3.893-2.226c-2.733-0.911-5.274-0.734-7.244-0.369
						c-1.98,0.384-3.487,0.978-4.472,1.458c-1.005,0.485-1.478,0.888-1.41,1.079c0.087,0.211,0.705,0.192,1.767,0.082
						c1.053-0.11,2.55-0.355,4.366-0.426c1.806-0.068,3.96,0.028,5.999,0.862c2.038,0.816,3.853,2.47,5.264,4.748
						c1.429,2.269,2.396,4.767,3.235,7.079l2.183,6.245C321.93,64.582,323.022,66.73,323.438,66.597z"/>
				</g>
				<g id="XMLID_649_">
					<path id="XMLID_650_" fill="#E2231A" stroke="#E2231A" stroke-width="0.2052" stroke-miterlimit="10" d="M312.745,97.529
						c-0.135,0.273,0.435,0.882,1.71,1.539c1.275,0.642,3.312,1.329,5.959,1.396c2.628,0.067,5.892-0.518,9.021-2.345
						c1.536-0.915,3.062-2.143,4.308-3.717c1.255-1.577,2.26-3.534,2.685-5.711c0.116-0.537,0.183-1.084,0.213-1.635
						c0.039-0.278,0.039-0.537,0.039-0.815l-0.02-0.734c-0.039-0.974-0.116-1.928-0.28-2.878c-0.3-1.87-0.86-3.64-1.575-5.237
						c-1.488-3.204-3.603-5.553-5.458-7.223c-1.883-1.674-3.505-2.757-4.665-3.447c-1.159-0.705-1.855-1.026-2.106-0.82
						c-0.241,0.211,0.077,0.988,0.869,2.115c0.791,1.127,2.115,2.575,3.525,4.369c1.42,1.793,2.908,3.981,3.902,6.628
						c0.474,1.319,1.169,3.592,1.169,5.927c0,3.003-0.724,6.714-5.09,9.616c-2.27,1.569-4.675,2.355-6.81,2.676
						c-2.164,0.331-3.941,0.211-5.245,0.12C313.614,97.265,312.87,97.227,312.745,97.529z"/>
				</g>
				<g id="XMLID_647_">
					<path id="XMLID_648_" fill="#E2231A" stroke="#E2231A" stroke-width="0.2052" stroke-miterlimit="10" d="M284.598,98.243
						c-0.173-0.288-1.004-0.138-2.386,0.168c-1.371,0.278-3.351,0.725-5.679,0.682c-2.309-0.038-4.984-0.682-7.36-2.394
						c-2.377-1.674-4.463-4.422-5.399-7.644c-0.966-3.156-0.415-6.451,0.773-9.236c1.198-2.806,2.955-5.127,4.578-6.988
						c1.603-1.86,3.091-3.271,4.095-4.306c1.005-1.026,1.536-1.683,1.362-1.943c-0.154-0.278-1.024-0.135-2.395,0.494
						c-1.362,0.609-3.256,1.702-5.352,3.439c-2.086,1.745-4.414,4.134-6.152,7.515c-0.851,1.683-1.526,3.621-1.836,5.726
						c-0.116,1.051-0.193,2.111-0.106,3.262c0.077,1.127,0.29,2.244,0.598,3.319c1.285,4.344,4.144,7.841,7.495,9.893
						c1.672,1.026,3.449,1.679,5.168,1.99c1.709,0.321,3.332,0.307,4.761,0.115c2.841-0.426,4.898-1.453,6.153-2.283
						C284.193,99.198,284.744,98.512,284.598,98.243z"/>
				</g>
				<g id="XMLID_645_">
					<path id="XMLID_646_" fill="#E2231A" stroke="#E2231A" stroke-width="0.2052" stroke-miterlimit="10" d="M315.053,98.483
						c-0.183-0.134-0.666,0.183-1.391,0.84c-0.754,0.642-1.729,1.621-3.014,2.685c-1.285,1.06-2.85,2.177-4.781,2.964
						c-1.95,0.8-4.23,1.228-6.732,1.295c-4.965,0.226-9.205-1.674-12.065-3.386c-2.85-1.727-4.5-3.156-4.858-2.83
						c-0.318,0.259,0.754,2.274,3.526,4.671c1.401,1.175,3.235,2.417,5.554,3.352c2.28,0.93,5.071,1.52,7.921,1.401
						c2.83-0.067,5.612-0.686,7.872-1.813c2.299-1.118,3.999-2.667,5.167-4.048c1.218-1.396,1.951-2.647,2.405-3.544
						C315.102,99.17,315.227,98.608,315.053,98.483z"/>
				</g>
				<g id="XMLID_643_">
					<path id="XMLID_644_" fill="#E2231A" stroke="#E2231A" stroke-width="0.2052" stroke-miterlimit="10" d="M300.294,69.134
						c-0.077,0.215,0.889,0.647,2.502,1.477c1.593,0.844,3.912,2.124,5.979,4.417c1.014,1.141,1.942,2.556,2.434,4.177
						c0.501,1.611,0.463,3.376-0.541,4.713c-0.976,1.362-2.869,2.336-4.975,2.906c-2.105,0.585-4.472,0.84-6.867,0.84
						c-2.424-0.015-4.791-0.249-6.857-0.878c-2.058-0.609-3.777-1.707-4.434-3.169c-0.695-1.444-0.464-3.39,0.107-4.964
						c0.608-1.612,1.583-2.993,2.637-4.11c2.143-2.244,4.472-3.524,6.075-4.359c1.603-0.835,2.57-1.233,2.511-1.453
						c-0.039-0.193-1.121-0.193-2.965,0.326c-1.816,0.527-4.491,1.568-7.167,3.918c-1.313,1.18-2.608,2.71-3.496,4.71
						c-0.425,0.983-0.754,2.096-0.869,3.294c-0.135,1.156-0.01,2.527,0.531,3.794c0.531,1.275,1.478,2.369,2.579,3.165
						c1.092,0.797,2.328,1.357,3.565,1.75c2.501,0.811,5.129,1.079,7.785,1.079c2.637,0,5.245-0.278,7.728-1.012
						c1.245-0.379,2.443-0.863,3.574-1.54c1.121-0.666,2.154-1.554,2.917-2.68c0.764-1.118,1.159-2.46,1.218-3.703
						c0.047-1.256-0.204-2.421-0.59-3.447c-0.764-2.072-2.009-3.66-3.304-4.877c-2.617-2.451-5.312-3.472-7.118-4.014
						C301.406,68.966,300.343,68.941,300.294,69.134z"/>
				</g>
				<g id="XMLID_641_">
					<path id="XMLID_642_" fill="#E2231A" stroke="#E2231A" stroke-width="0.2052" stroke-miterlimit="10" d="M308.36,93.544
						c-0.522-0.729-4.404,1.449-9.485,1.544c-2.521,0.086-4.762-0.383-6.375-0.887c-1.623-0.484-2.675-0.935-2.975-0.589
						c-0.271,0.288,0.328,1.414,1.99,2.565c1.612,1.141,4.356,2.129,7.437,2.023c3.072-0.062,5.699-1.131,7.321-2.201
						C307.896,94.921,308.592,93.88,308.36,93.544z"/>
				</g>
				<g id="XMLID_639_">
					<path id="XMLID_640_" fill="#E2231A" stroke="#E2231A" stroke-width="0.2052" stroke-miterlimit="10" d="M271.211,55.925
						c0.406-0.138,0.618-0.786,0.474-1.736c-0.126-0.94-0.609-2.182-1.536-3.324c-0.918-1.141-2.067-1.908-3.014-2.206
						c-0.947-0.311-1.623-0.178-1.835,0.196c-0.174,0.394,0.116,0.945,0.58,1.617c0.463,0.661,1.101,1.443,1.825,2.331
						C269.135,54.559,270.371,56.19,271.211,55.925z"/>
				</g>
				<g id="XMLID_637_">
					<path id="XMLID_638_" fill="#E2231A" stroke="#E2231A" stroke-width="0.2052" stroke-miterlimit="10" d="M333.222,47.85
						c0.048-0.201-0.077-0.456-0.414-0.695c-0.328-0.249-0.899-0.489-1.672-0.547c-0.744-0.062-1.7,0.101-2.608,0.537
						c-0.908,0.427-1.748,1.118-2.434,1.938c-1.371,1.635-1.989,3.333-2.24,4.585c-0.271,1.256-0.174,2.095,0.222,2.258
						c0.397,0.163,1.034-0.398,1.777-1.348c0.744-0.945,1.613-2.287,2.628-3.496c1.033-1.228,1.999-1.913,2.907-2.287
						C332.295,48.421,333.116,48.281,333.222,47.85z"/>
				</g>
			</g>
			<g id="XMLID_612_">
				<g id="XMLID_632_">
					<path id="XMLID_635_" fill="#E2231A" d="M314.098,194.418c-8.694,0-9.118-2.431-9.631-5.261l-7.051-44.663l0,0l-16.565,49.895
						c-0.965-0.135-2.463-0.226-4.761-0.226c-6.713,0-8.307-2.464-9.031-5.131l-14.372-43.829l0,0l-8.77,49.137
						c-2.038-0.35-5.835-0.907-9.998-0.907c-1.719,0-2.965-0.474-3.699-1.409c-0.841-1.089-0.869-2.58-0.618-3.535l0.328-1.281
						c1.767-6.829,4.694-18.228,6.819-30.179c2.801-15.927,3.497-31.911,3.497-33.619c0-0.959-0.03-1.774-0.068-2.374
						c1.362-0.527,4.327-1.424,8.49-1.424c7.689,0,9.901,5.52,10.258,6.628l17.155,50.749l1.391-4.062
						c0.058-0.182,6.24-18.085,9.447-29.239c2.463-8.575,5.989-20.257,6.839-23.039c0.841-0.355,2.84-1.012,5.873-1.012
						c0.444,0,0.908,0.009,1.391,0.047c4.994,0.298,9.591,4,10.035,8.072c0.155,1.477,0.3,3.122,0.474,4.939
						c0.598,6.383,1.419,15.126,3.391,27.653c2.617,16.789,5.979,28.467,7.147,32.237
						C320.26,193.267,316.782,194.418,314.098,194.418z"/>
					<path id="XMLID_634_" fill="#E2231A" d="M337.385,194.696c-4.298,0-6.385-1.85-6.385-5.668c0-7.338,0.078-20.156,0.117-27.043
						c0.009-2.508,0.019-4.215,0.019-4.575c0-1.785,0-6.211-2.154-11.587c1.846-1.54,3.729-2.888,7.476-2.888
						c2.985,0,6.616,0.95,8.306,8.316l0.609,2.685l1.893-2.023c0.26-0.283,0.55-0.677,0.927-1.228
						c1.816-2.527,5.545-7.779,12.132-7.779c6.926,0,7.109,5.539,7.109,6.182c0,4.407-3.419,7.673-5.197,9.064
						c-1.429-1.635-3.535-3.284-6.462-3.284c-4.54,0-8.829,4.335-10.045,5.654l-0.377,0.416l-0.019,32.53
						C344.108,193.919,341.394,194.696,337.385,194.696z"/>
					<path id="XMLID_633_" fill="#E2231A" d="M362.47,194.504c-3.342,0-5.679-2.019-5.679-4.901c0-3.482,3.574-6.417,7.804-6.417
						c2.531,0,4.927,2.158,4.927,4.431C369.521,191.483,366.411,194.504,362.47,194.504z"/>
				</g>
				<g id="XMLID_613_">
					<g id="XMLID_614_">
						<path id="XMLID_630_" fill="#E2231A" d="M211.355,209.52c5.08,0,9.311,1.9,9.311,5.107c0,2.729-3.159,4.988-3.159,4.988
							s-1.642-4.436-6.51-4.436c-4.626,0-7.998,3.928-7.998,9.783c0,5.913,3.352,9.539,8.742,9.539c4.801,0,7.128-3.041,7.128-3.041
							s1.913,0.921,1.913,2.681c0,2.777-4.684,6.172-11.291,6.172c-8.867,0-14.363-5.611-14.363-14.34
							C195.127,216.32,201.811,209.52,211.355,209.52L211.355,209.52z"/>
						<path id="XMLID_628_" fill="#E2231A" d="M250.386,235.609v4.282c-1.912,0-5.148,0.188-6.065,0.188
							c-0.744,0-1.556-0.643-1.556-0.643v-3.827v-7.98h-11.291v7.98v4.282c-1.902,0-5.138,0.188-6.075,0.188
							c-0.744,0-1.546-0.643-1.546-0.643v-25.211v-4.277c1.903,0,5.139-0.192,6.066-0.192c0.744,0,1.555,0.647,1.555,0.647v3.822
							v7.717h11.291v-7.717v-4.277c1.903,0,5.148-0.192,6.056-0.192c0.764,0,1.565,0.647,1.565,0.647v3.822V235.609z"/>
						<path id="XMLID_625_" fill="#E2231A" d="M282.744,239.892c-2.55,0-5.776,0.188-6.761,0.188c-0.744,0-1.535-0.643-1.535-0.643
							l-2.637-7.323h-8.925l-2.791,7.779c-2.134,0-4.743,0.188-5.592,0.188c-0.754,0-1.556-0.643-1.556-0.643l9.978-26.526
							c0.522-1.361,0.31-2.963,0.31-2.963c2.366,0,6.162-0.188,6.761-0.188c0.753,0,1.545,0.643,1.545,0.643L282.744,239.892z
							 M265.919,220.401l-1.971,6.585h6.414l-1.98-6.244c-0.764-2.667-1.265-4.6-1.429-5.232
							C266.807,216.292,266.334,218.843,265.919,220.401z"/>
						<path id="XMLID_622_" fill="#E2231A" d="M310.272,209.759c0.744,0.005,1.536,0.643,1.536,0.643v29.489
							c-1.709,0-4.82,0.188-5.582,0.188c-0.754,0-1.536-0.638-1.536-0.638l-10.239-14.867c-0.811-1.165-1.873-3.587-2.694-5.51
							c0.213,1.865,0.454,4.177,0.454,5.328v15.5c-0.715,0-4.511,0.188-5.322,0.188c-0.744,0-1.546-0.643-1.546-0.643v-27.273
							c0-1.128-0.28-2.216-0.28-2.216c2.28,0,5.177-0.188,6.105-0.188c0.754,0,1.555,0.643,1.555,0.643l9.756,13.006
							c1.111,1.491,2.23,3.933,3.177,6.33c-0.483-2.705-0.888-5.578-0.888-7.534v-12.258
							C306.757,209.947,310.562,209.764,310.272,209.759L310.272,209.759z M310.272,209.759h-0.009H310.272z"/>
						<path id="XMLID_620_" fill="#E2231A" d="M331.387,209.52c5.091,0,9.331,1.9,9.331,5.107c0,2.729-3.178,4.988-3.178,4.988
							s-1.633-4.436-6.51-4.436c-4.608,0-7.998,3.928-7.998,9.783c0,5.913,3.351,9.539,8.732,9.539c4.81,0,7.138-3.041,7.138-3.041
							s1.922,0.921,1.922,2.681c0,2.777-4.684,6.172-11.311,6.172c-8.847,0-14.353-5.611-14.353-14.34
							C315.16,216.32,321.844,209.52,331.387,209.52L331.387,209.52z"/>
						<path id="XMLID_618_" fill="#E2231A" d="M370.419,235.609v4.282c-1.903,0-5.148,0.188-6.056,0.188
							c-0.754,0-1.555-0.643-1.555-0.643v-3.827v-7.98h-11.301v7.98v4.282c-1.903,0-5.148,0.188-6.076,0.188
							c-0.734,0-1.545-0.643-1.545-0.643v-25.211v-4.277c1.912,0,5.128-0.192,6.066-0.192c0.753,0,1.555,0.647,1.555,0.647v3.822
							v7.717h11.301v-7.717v-4.277c1.902,0,5.138-0.192,6.056-0.192c0.753,0,1.555,0.647,1.555,0.647v3.822V235.609z"/>
						<path id="XMLID_615_" fill="#E2231A" d="M390.037,209.52c8.906,0,14.836,5.937,14.836,14.776
							c0,9.491-6.839,16.018-16.208,16.018c-8.867,0-14.875-5.832-14.875-14.757C373.79,216.004,380.697,209.52,390.037,209.52
							L390.037,209.52z M381.518,223.898c0,6.249,3.428,10.81,8.586,10.896c4.578,0.067,7.032-3.563,7.032-8.863
							c0-6.608-3.69-10.905-8.636-10.905C383.778,215.026,381.518,218.924,381.518,223.898z"/>
					</g>
				</g>
			</g>
		</g>
	</g>
</g>
</svg>
