<?xml version="1.0" encoding="utf-8"?>
<!-- Generator: Adobe Illustrator 19.0.0, SVG Export Plug-In . SVG Version: 6.00 Build 0)  -->
<svg version="1.1" id="Capa_1" xmlns="http://www.w3.org/2000/svg" xmlns:xlink="http://www.w3.org/1999/xlink" x="0px" y="0px"
	 viewBox="-5 247 600 300" enable-background="new -5 247 600 300" xml:space="preserve">
<g>
</g>
<g>
	<path fill="#FFFFFF" d="M359.248,283.99c-23.918-23.964-45.536-36.082-64.264-36.034c-36.78,0.081-76.803,47.299-97.375,75.451
		c-25.655,35.074-51.582,83.658-51.674,113.112c0.009,26.684,10.011,50.822,28.927,69.802
		c26.667,26.781,68.203,40.929,120.151,40.917c44.338-0.003,81.781-10.594,108.294-30.618c26.281-19.874,40.759-48.267,40.759-79.95
		C444.065,397.931,399.29,324.101,359.248,283.99z"/>
	<path fill="#770F29" d="M356.786,289.225c-22.924-22.975-43.661-34.593-61.614-34.547c-35.261,0.077-73.633,45.345-93.351,72.338
		c-24.593,33.625-49.453,80.206-49.545,108.445c0.01,25.585,9.602,48.723,27.735,66.928c25.565,25.667,65.39,39.232,115.191,39.223
		c42.51-0.004,78.405-10.153,103.824-29.354c25.2-19.054,39.089-46.277,39.089-76.653
		C438.116,398.465,395.177,327.678,356.786,289.225z"/>
	<g>
		<path fill="#7E1031" d="M354.167,292.974c-22.028-22.069-41.939-33.228-59.183-33.183c-33.868,0.072-70.729,43.556-89.674,69.483
			c-23.629,32.301-47.501,77.044-47.585,104.169c0.007,24.571,9.219,46.802,26.639,64.284
			c24.555,24.66,62.808,37.688,110.648,37.677c40.834-0.006,75.309-9.754,99.725-28.194c24.204-18.305,37.538-44.452,37.538-73.63
			C432.276,397.908,391.04,329.913,354.167,292.974z"/>
		<path fill="#7E1131" d="M354.037,293.203c-21.98-22.021-41.848-33.156-59.053-33.111c-33.794,0.072-70.574,43.461-89.478,69.331
			c-23.577,32.23-47.398,76.875-47.481,103.942c0.007,24.518,9.199,46.699,26.581,64.143
			c24.502,24.606,62.671,37.606,110.406,37.595c40.745-0.006,75.144-9.733,99.507-28.133c24.151-18.265,37.456-44.354,37.456-73.469
			C431.976,397.908,390.83,330.061,354.037,293.203z"/>
		<path fill="#7F1131" d="M353.908,293.432c-21.932-21.973-41.756-33.083-58.924-33.038c-33.72,0.072-70.42,43.366-89.282,69.179
			c-23.526,32.16-47.294,76.707-47.377,103.714c0.007,24.464,9.179,46.597,26.522,64.003
			c24.448,24.552,62.534,37.524,110.165,37.513c40.655-0.006,74.98-9.712,99.289-28.071c24.098-18.225,37.374-44.257,37.374-73.308
			C431.676,397.907,390.62,330.209,353.908,293.432z"/>
		<path fill="#801231" d="M353.779,293.66c-21.884-21.925-41.664-33.01-58.795-32.966c-33.646,0.072-70.265,43.271-89.086,69.027
			c-23.474,32.089-47.19,76.539-47.273,103.486c0.007,24.41,9.159,46.495,26.464,63.862c24.395,24.499,62.396,37.441,109.923,37.43
			c40.566-0.006,74.815-9.69,99.071-28.01c24.045-18.185,37.292-44.16,37.292-73.147C431.376,397.906,390.41,330.357,353.779,293.66
			z"/>
		<path fill="#811331" d="M353.649,293.889c-21.836-21.876-41.572-32.938-58.665-32.893c-33.572,0.072-70.111,43.175-88.889,68.876
			c-23.423,32.019-47.087,76.37-47.169,103.259c0.007,24.357,9.139,46.392,26.406,63.721
			c24.341,24.445,62.259,37.359,109.682,37.348c40.477-0.006,74.65-9.669,98.853-27.948c23.992-18.145,37.21-44.063,37.21-72.986
			C431.076,397.905,390.2,330.505,353.649,293.889z"/>
		<path fill="#821332" d="M353.52,294.118c-21.787-21.828-41.481-32.865-58.536-32.821c-33.498,0.071-69.956,43.08-88.693,68.724
			c-23.371,31.948-46.983,76.202-47.065,103.031c0.007,24.303,9.118,46.29,26.347,63.581c24.288,24.391,62.122,37.277,109.44,37.266
			c40.387-0.005,74.486-9.648,98.635-27.886c23.939-18.105,37.128-43.965,37.128-72.825
			C430.776,397.905,389.99,330.653,353.52,294.118z"/>
		<path fill="#821432" d="M353.39,294.347c-21.739-21.78-41.389-32.793-58.406-32.748c-33.424,0.071-69.801,42.985-88.497,68.572
			c-23.319,31.878-46.879,76.033-46.961,102.803c0.007,24.249,9.098,46.188,26.289,63.44
			c24.234,24.337,61.985,37.194,109.198,37.184c40.298-0.005,74.321-9.626,98.417-27.825c23.886-18.065,37.045-43.868,37.045-72.664
			C430.476,397.904,389.78,330.801,353.39,294.347z"/>
		<path fill="#831432" d="M353.261,294.575c-21.691-21.732-41.297-32.72-58.277-32.676c-33.35,0.071-69.647,42.89-88.301,68.42
			c-23.268,31.807-46.776,75.865-46.857,102.576c0.007,24.195,9.078,46.085,26.231,63.3c24.18,24.283,61.848,37.112,108.956,37.101
			c40.209-0.005,74.157-9.605,98.2-27.763c23.833-18.024,36.963-43.771,36.963-72.503
			C430.176,397.903,389.57,330.949,353.261,294.575z"/>
		<path fill="#841532" d="M353.132,294.804c-21.643-21.684-41.205-32.648-58.148-32.603c-33.276,0.071-69.492,42.795-88.105,68.268
			c-23.216,31.736-46.672,75.697-46.753,102.348c0.007,24.142,9.058,45.983,26.172,63.159c24.127,24.23,61.711,37.03,108.715,37.019
			c40.119-0.005,73.992-9.584,97.982-27.702c23.78-17.984,36.881-43.673,36.881-72.342
			C429.876,397.903,389.36,331.097,353.132,294.804z"/>
		<path fill="#851632" d="M353.002,295.033c-21.595-21.635-41.114-32.575-58.018-32.531c-33.202,0.071-69.338,42.699-87.909,68.116
			c-23.164,31.666-46.568,75.528-46.649,102.12c0.007,24.088,9.038,45.881,26.114,63.018
			c24.073,24.176,61.574,36.947,108.473,36.937c40.03-0.005,73.827-9.562,97.764-27.64c23.727-17.944,36.799-43.576,36.799-72.181
			C429.576,397.902,389.15,331.245,353.002,295.033z"/>
		<path fill="#861632" d="M352.873,295.261c-21.547-21.587-41.022-32.502-57.889-32.458c-33.128,0.071-69.183,42.604-87.713,67.964
			c-23.113,31.595-46.465,75.36-46.545,101.893c0.007,24.034,9.018,45.778,26.056,62.878c24.02,24.122,61.437,36.865,108.232,36.855
			c39.941-0.005,73.663-9.541,97.546-27.579c23.674-17.904,36.717-43.479,36.717-72.02
			C429.276,397.901,388.94,331.393,352.873,295.261z"/>
		<path fill="#871732" d="M352.743,295.49c-21.498-21.539-40.93-32.43-57.76-32.385c-33.054,0.071-69.029,42.509-87.517,67.812
			c-23.061,31.525-46.361,75.192-46.441,101.665c0.007,23.981,8.998,45.676,25.997,62.737c23.966,24.068,61.3,36.783,107.99,36.773
			c39.851-0.005,73.498-9.519,97.328-27.517c23.621-17.864,36.635-43.382,36.635-71.859
			C428.975,397.901,388.73,331.541,352.743,295.49z"/>
		<path fill="#871732" d="M352.614,295.719c-21.45-21.491-40.838-32.357-57.63-32.313c-32.98,0.071-68.874,42.414-87.32,67.66
			c-23.01,31.454-46.257,75.023-46.337,101.437c0.007,23.927,8.978,45.574,25.939,62.596c23.912,24.015,61.162,36.7,107.748,36.69
			c39.762-0.004,73.334-9.498,97.11-27.456c23.568-17.824,36.552-43.284,36.552-71.698
			C428.675,397.9,388.52,331.689,352.614,295.719z"/>
		<path fill="#881833" d="M352.485,295.947c-21.402-21.443-40.747-32.285-57.501-32.24c-32.906,0.071-68.72,42.319-87.124,67.508
			c-22.958,31.384-46.153,74.855-46.234,101.21c0.007,23.873,8.958,45.471,25.881,62.456
			c23.859,23.961,61.025,36.618,107.507,36.608c39.673-0.004,73.169-9.477,96.892-27.394c23.515-17.784,36.47-43.187,36.47-71.537
			C428.375,397.899,388.31,331.837,352.485,295.947z"/>
		<path fill="#891833" d="M352.355,296.176c-21.354-21.395-40.655-32.212-57.372-32.168c-32.832,0.07-68.565,42.223-86.928,67.356
			c-22.906,31.313-46.05,74.686-46.13,100.982c0.007,23.82,8.938,45.369,25.823,62.315c23.805,23.907,60.888,36.535,107.265,36.526
			c39.583-0.004,73.004-9.455,96.674-27.332c23.462-17.744,36.388-43.09,36.388-71.376
			C428.075,397.898,388.1,331.985,352.355,296.176z"/>
		<path fill="#8A1933" d="M352.226,296.405c-21.306-21.346-40.563-32.139-57.242-32.095c-32.758,0.07-68.41,42.128-86.732,67.204
			c-22.855,31.243-45.946,74.518-46.026,100.754c0.007,23.766,8.918,45.267,25.764,62.175
			c23.752,23.853,60.751,36.453,107.023,36.444c39.494-0.004,72.84-9.434,96.456-27.271c23.409-17.704,36.306-42.993,36.306-71.215
			C427.775,397.898,387.89,332.133,352.226,296.405z"/>
		<path fill="#8B1A33" d="M352.097,296.634c-21.258-21.298-40.471-32.067-57.113-32.023c-32.684,0.07-68.256,42.033-86.536,67.052
			c-22.803,31.172-45.842,74.35-45.922,100.527c0.007,23.712,8.897,45.164,25.706,62.034
			c23.698,23.799,60.614,36.371,106.782,36.361c39.404-0.004,72.675-9.413,96.238-27.209c23.356-17.664,36.224-42.895,36.224-71.054
			C427.475,397.897,387.68,332.28,352.097,296.634z"/>
		<path fill="#8C1A33" d="M351.967,296.862c-21.209-21.25-40.38-31.994-56.983-31.95c-32.61,0.07-68.101,41.938-86.34,66.901
			c-22.752,31.102-45.739,74.181-45.818,100.299c0.007,23.659,8.877,45.062,25.648,61.893
			c23.645,23.746,60.477,36.288,106.54,36.279c39.315-0.004,72.511-9.391,96.02-27.148c23.303-17.624,36.142-42.798,36.142-70.893
			C427.175,397.896,387.471,332.428,351.967,296.862z"/>
		<path fill="#8D1B33" d="M351.838,297.091c-21.161-21.202-40.288-31.922-56.854-31.878c-32.536,0.07-67.947,41.842-86.144,66.749
			c-22.7,31.031-45.635,74.013-45.714,100.071c0.007,23.605,8.857,44.959,25.589,61.753c23.591,23.692,60.34,36.206,106.298,36.197
			c39.226-0.004,72.346-9.37,95.802-27.086c23.25-17.583,36.06-42.701,36.06-70.732
			C426.875,397.896,387.261,332.576,351.838,297.091z"/>
		<path fill="#8E1B33" d="M351.708,297.32c-21.113-21.154-40.196-31.849-56.725-31.805c-32.462,0.07-67.792,41.747-85.948,66.597
			c-22.648,30.96-45.531,73.844-45.61,99.844c0.007,23.551,8.837,44.857,25.531,61.612c23.537,23.638,60.203,36.124,106.057,36.115
			c39.136-0.003,72.181-9.349,95.584-27.025c23.197-17.543,35.977-42.604,35.977-70.571
			C426.575,397.895,387.051,332.724,351.708,297.32z"/>
		<path fill="#8E1C33" d="M351.579,297.548c-21.065-21.105-40.105-31.777-56.595-31.733c-32.388,0.07-67.638,41.652-85.752,66.445
			c-22.597,30.89-45.428,73.676-45.506,99.616c0.007,23.498,8.817,44.755,25.473,61.471c23.484,23.584,60.066,36.041,105.815,36.032
			c39.047-0.003,72.017-9.327,95.366-26.963c23.144-17.503,35.895-42.506,35.895-70.41
			C426.275,397.894,386.841,332.872,351.579,297.548z"/>
		<path fill="#8F1C33" d="M351.45,297.777c-21.017-21.057-40.013-31.704-56.466-31.66c-32.314,0.07-67.483,41.557-85.555,66.293
			c-22.545,30.819-45.324,73.508-45.402,99.388c0.007,23.444,8.797,44.652,25.414,61.331c23.43,23.53,59.929,35.959,105.573,35.95
			c38.958-0.003,71.852-9.306,95.148-26.901c23.091-17.463,35.813-42.409,35.813-70.249
			C425.974,397.894,386.631,333.02,351.45,297.777z"/>
		<path fill="#901D34" d="M351.32,298.006c-20.969-21.009-39.921-31.631-56.337-31.588c-32.24,0.069-67.329,41.462-85.359,66.141
			c-22.494,30.749-45.22,73.339-45.298,99.161c0.007,23.39,8.777,44.55,25.356,61.19c23.377,23.477,59.791,35.877,105.332,35.868
			c38.868-0.003,71.688-9.285,94.93-26.84c23.038-17.423,35.731-42.312,35.731-70.088
			C425.674,397.893,386.421,333.168,351.32,298.006z"/>
		<path fill="#911D34" d="M351.191,298.235c-20.92-20.961-39.829-31.559-56.207-31.515c-32.166,0.069-67.174,41.366-85.163,65.989
			c-22.442,30.678-45.117,73.171-45.194,98.933c0.007,23.337,8.757,44.448,25.298,61.05c23.323,23.423,59.654,35.794,105.09,35.786
			c38.779-0.003,71.523-9.263,94.712-26.778c22.985-17.383,35.649-42.214,35.649-69.927
			C425.374,397.892,386.211,333.316,351.191,298.235z"/>
		<path fill="#921E34" d="M351.061,298.463c-20.872-20.913-39.738-31.486-56.078-31.443c-32.092,0.069-67.02,41.271-84.967,65.837
			c-22.39,30.608-45.013,73.003-45.09,98.706c0.007,23.283,8.737,44.345,25.239,60.909c23.269,23.369,59.517,35.712,104.848,35.703
			c38.69-0.003,71.358-9.242,94.494-26.717c22.932-17.343,35.567-42.117,35.567-69.766
			C425.074,397.892,386.001,333.464,351.061,298.463z"/>
		<path fill="#931E34" d="M350.932,298.692c-20.824-20.865-39.646-31.414-55.949-31.37c-32.018,0.069-66.865,41.176-84.771,65.685
			c-22.339,30.537-44.909,72.834-44.986,98.478c0.007,23.229,8.717,44.243,25.181,60.768c23.216,23.315,59.38,35.63,104.607,35.621
			c38.6-0.003,71.194-9.221,94.276-26.655c22.879-17.303,35.484-42.02,35.484-69.605
			C424.774,397.891,385.791,333.612,350.932,298.692z"/>
		<path fill="#941E34" d="M350.803,298.921c-20.776-20.816-39.554-31.341-55.819-31.298c-31.945,0.069-66.71,41.081-84.575,65.533
			c-22.287,30.467-44.806,72.666-44.882,98.25c0.008,23.176,8.697,44.141,25.123,60.628c23.162,23.261,59.243,35.547,104.365,35.539
			c38.511-0.002,71.029-9.199,94.058-26.594c22.826-17.263,35.402-41.923,35.402-69.444
			C424.474,397.89,385.581,333.76,350.803,298.921z"/>
		<path fill="#951F34" d="M350.673,299.149c-20.728-20.768-39.462-31.268-55.69-31.225c-31.871,0.069-66.556,40.986-84.379,65.381
			c-22.235,30.396-44.702,72.497-44.779,98.023c0.008,23.122,8.676,44.038,25.064,60.487
			c23.109,23.208,59.106,35.465,104.123,35.457c38.422-0.002,70.865-9.178,93.84-26.532c22.773-17.222,35.32-41.825,35.32-69.283
			C424.174,397.889,385.371,333.908,350.673,299.149z"/>
		<path fill="#961F34" d="M350.544,299.378c-20.68-20.72-39.371-31.196-55.56-31.153c-31.797,0.069-66.401,40.89-84.183,65.229
			c-22.184,30.326-44.598,72.329-44.675,97.795c0.008,23.068,8.656,43.936,25.006,60.346
			c23.055,23.154,58.969,35.383,103.882,35.375c38.332-0.002,70.7-9.156,93.622-26.471c22.72-17.182,35.238-41.728,35.238-69.122
			C423.874,397.889,385.161,334.056,350.544,299.378z"/>
		<path fill="#972034" d="M350.414,299.607c-20.631-20.672-39.279-31.123-55.431-31.08c-31.723,0.069-66.247,40.795-83.986,65.077
			c-22.132,30.255-44.494,72.161-44.571,97.567c0.008,23.014,8.636,43.834,24.948,60.206c23.002,23.1,58.832,35.3,103.64,35.292
			c38.243-0.002,70.535-9.135,93.404-26.409c22.667-17.142,35.156-41.631,35.156-68.961
			C423.574,397.888,384.951,334.204,350.414,299.607z"/>
		<path fill="#972034" d="M350.285,299.835c-20.583-20.624-39.187-31.051-55.302-31.008c-31.649,0.069-66.092,40.7-83.79,64.925
			c-22.081,30.185-44.391,71.992-44.467,97.34c0.008,22.961,8.616,43.731,24.889,60.065c22.948,23.046,58.695,35.218,103.398,35.21
			c38.154-0.002,70.371-9.114,93.186-26.347c22.614-17.102,35.074-41.534,35.074-68.8
			C423.274,397.887,384.741,334.352,350.285,299.835z"/>
		<path fill="#982134" d="M350.156,300.064c-20.535-20.576-39.095-30.978-55.172-30.935c-31.575,0.068-65.938,40.605-83.594,64.774
			c-22.029,30.114-44.287,71.824-44.363,97.112c0.008,22.907,8.596,43.629,24.831,59.925
			c22.894,22.992,58.557,35.135,103.157,35.128c38.064-0.002,70.206-9.092,92.968-26.286c22.561-17.062,34.992-41.436,34.992-68.639
			C422.974,397.887,384.531,334.5,350.156,300.064z"/>
		<path fill="#992134" d="M350.026,300.293c-20.487-20.527-39.004-30.906-55.043-30.862c-31.501,0.068-65.783,40.51-83.398,64.622
			c-21.977,30.043-44.183,71.655-44.259,96.884c0.008,22.853,8.576,43.527,24.773,59.784c22.841,22.939,58.42,35.053,102.915,35.046
			c37.975-0.002,70.042-9.071,92.75-26.224c22.508-17.022,34.909-41.339,34.909-68.478
			C422.673,397.886,384.321,334.648,350.026,300.293z"/>
		<path fill="#9A2234" d="M349.897,300.522c-20.439-20.479-38.912-30.833-54.914-30.79c-31.427,0.068-65.629,40.414-83.202,64.47
			c-21.926,29.973-44.08,71.487-44.155,96.657c0.008,22.8,8.556,43.424,24.715,59.643c22.787,22.885,58.283,34.971,102.673,34.963
			c37.885-0.001,69.877-9.05,92.532-26.163c22.455-16.982,34.827-41.242,34.827-68.317
			C422.373,397.885,384.111,334.795,349.897,300.522z"/>
		<path fill="#9B2234" d="M349.767,300.75c-20.391-20.431-38.82-30.76-54.784-30.717c-31.353,0.068-65.474,40.319-83.006,64.318
			c-21.874,29.902-43.976,71.319-44.051,96.429c0.008,22.746,8.536,43.322,24.656,59.503
			c22.734,22.831,58.146,34.888,102.432,34.881c37.796-0.001,69.712-9.028,92.314-26.101c22.402-16.942,34.745-41.145,34.745-68.156
			C422.073,397.885,383.901,334.943,349.767,300.75z"/>
		<path fill="#9C2334" d="M349.638,300.979c-20.342-20.383-38.728-30.688-54.655-30.645c-31.279,0.068-65.32,40.224-82.81,64.166
			c-21.823,29.832-43.872,71.15-43.947,96.201c0.008,22.692,8.516,43.22,24.598,59.362c22.68,22.777,58.009,34.806,102.19,34.799
			c37.707-0.001,69.548-9.007,92.096-26.04c22.349-16.902,34.663-41.047,34.663-67.995
			C421.773,397.884,383.691,335.091,349.638,300.979z"/>
		<path fill="#9D2334" d="M349.509,301.208c-20.294-20.335-38.637-30.615-54.525-30.572c-31.205,0.068-65.165,40.129-82.614,64.014
			c-21.771,29.761-43.769,70.982-43.843,95.974c0.008,22.639,8.496,43.117,24.54,59.222c22.626,22.723,57.872,34.724,101.948,34.717
			c37.617-0.001,69.383-8.986,91.878-25.978c22.296-16.862,34.581-40.95,34.581-67.835
			C421.473,397.883,383.481,335.239,349.509,301.208z"/>
	</g>
	<g>
		<path fill="#9D2334" d="M186.226,433.051c0,43.742,6.35,56.1,6.35,56.1s-21.113-18.773-21.177-51.48
			c0-1.596,0.064-3.276,0.167-4.943c4.312-50.688,73.448-132.954,73.448-132.954S186.226,388.793,186.226,433.051z"/>
		<path fill="#9D2535" d="M192.547,489.091c0,0-21.058-18.74-21.125-51.412c0-1.593,0.045-3.271,0.167-4.933
			c3.719-50.668,73.298-132.778,73.298-132.778s-58.684,88.875-58.684,133.098C186.202,476.749,192.547,489.091,192.547,489.091z"/>
		<path fill="#9E2736" d="M192.517,489.031c0,0-21.003-18.706-21.073-51.345c0-1.59,0.044-3.265,0.166-4.924
			c3.703-50.603,73.148-132.602,73.148-132.602s-58.579,88.731-58.579,132.919C186.178,476.705,192.517,489.031,192.517,489.031z"/>
		<path fill="#9E2936" d="M192.488,488.971c0,0-20.948-18.673-21.022-51.277c0-1.587,0.044-3.259,0.165-4.915
			c3.687-50.537,72.998-132.426,72.998-132.426s-58.475,88.587-58.475,132.74C186.154,476.661,192.488,488.971,192.488,488.971z"/>
		<path fill="#9E2A37" d="M192.458,488.91c0,0-20.893-18.64-20.97-51.209c-0.001-1.584,0.043-3.253,0.164-4.906
			c3.67-50.472,72.848-132.25,72.848-132.25s-58.37,88.444-58.37,132.562C186.13,476.617,192.458,488.91,192.458,488.91z"/>
		<path fill="#9F2C37" d="M192.429,488.85c0,0-20.837-18.607-20.918-51.141c-0.001-1.581,0.043-3.247,0.163-4.897
			c3.654-50.406,72.698-132.074,72.698-132.074s-58.265,88.3-58.265,132.383C186.106,476.573,192.429,488.85,192.429,488.85z"/>
		<path fill="#9F2D38" d="M192.399,488.79c0,0-20.782-18.574-20.867-51.074c-0.001-1.578,0.043-3.241,0.162-4.888
			c3.638-50.341,72.548-131.899,72.548-131.899s-58.161,88.156-58.161,132.204C186.082,476.529,192.399,488.79,192.399,488.79z"/>
		<path fill="#9F2F38" d="M192.37,488.73c0,0-20.727-18.54-20.815-51.006c-0.001-1.575,0.042-3.234,0.161-4.878
			c3.622-50.275,72.398-131.723,72.398-131.723s-58.056,88.012-58.056,132.025C186.058,476.485,192.37,488.73,192.37,488.73z"/>
		<path fill="#A03039" d="M192.341,488.669c0,0-20.672-18.507-20.763-50.938c-0.001-1.572,0.042-3.228,0.16-4.869
			c3.606-50.21,72.248-131.547,72.248-131.547s-57.951,87.869-57.951,131.846C186.034,476.441,192.341,488.669,192.341,488.669z"/>
		<path fill="#A03239" d="M192.311,488.609c0,0-20.617-18.474-20.711-50.87c-0.001-1.569,0.042-3.222,0.159-4.86
			c3.59-50.144,72.098-131.371,72.098-131.371s-57.847,87.725-57.847,131.668C186.01,476.398,192.311,488.609,192.311,488.609z"/>
		<path fill="#A1333A" d="M192.282,488.549c0,0-20.562-18.441-20.66-50.803c-0.001-1.566,0.041-3.216,0.158-4.851
			c3.573-50.079,71.948-131.195,71.948-131.195s-57.742,87.581-57.742,131.489C185.986,476.354,192.282,488.549,192.282,488.549z"/>
		<path fill="#A1343B" d="M192.252,488.489c0,0-20.507-18.408-20.608-50.735c-0.001-1.564,0.041-3.21,0.157-4.842
			c3.557-50.013,71.798-131.019,71.798-131.019s-57.637,87.437-57.637,131.31C185.962,476.31,192.252,488.489,192.252,488.489z"/>
		<path fill="#A1353B" d="M192.223,488.429c0,0-20.452-18.374-20.556-50.667c-0.002-1.561,0.04-3.204,0.156-4.833
			c3.541-49.948,71.648-130.843,71.648-130.843s-57.533,87.294-57.533,131.131C185.938,476.266,192.223,488.429,192.223,488.429z"/>
		<path fill="#A2373C" d="M192.193,488.368c0,0-20.396-18.341-20.505-50.599c-0.002-1.558,0.04-3.198,0.155-4.824
			c3.525-49.882,71.498-130.667,71.498-130.667s-57.428,87.15-57.428,130.953C185.913,476.222,192.193,488.368,192.193,488.368z"/>
		<path fill="#A2383C" d="M192.164,488.308c0,0-20.341-18.308-20.453-50.532c-0.002-1.555,0.04-3.192,0.154-4.814
			c3.509-49.817,71.348-130.491,71.348-130.491s-57.323,87.006-57.323,130.774C185.889,476.178,192.164,488.308,192.164,488.308z"/>
		<path fill="#A2393D" d="M192.135,488.248c0,0-20.286-18.275-20.401-50.464c-0.002-1.552,0.039-3.186,0.153-4.805
			c3.492-49.751,71.198-130.315,71.198-130.315s-57.219,86.862-57.219,130.595C185.865,476.134,192.135,488.248,192.135,488.248z"/>
		<path fill="#A33A3E" d="M192.105,488.188c0,0-20.231-18.241-20.349-50.396c-0.002-1.549,0.039-3.18,0.152-4.796
			c3.476-49.686,71.048-130.139,71.048-130.139s-57.114,86.719-57.114,130.416C185.841,476.09,192.105,488.188,192.105,488.188z"/>
		<path fill="#A33B3E" d="M192.076,488.127c0,0-20.176-18.208-20.298-50.328c-0.002-1.546,0.039-3.173,0.151-4.787
			c3.46-49.62,70.898-129.963,70.898-129.963s-57.009,86.575-57.009,130.238C185.817,476.046,192.076,488.127,192.076,488.127z"/>
		<path fill="#A43D3F" d="M192.046,488.067c0,0-20.121-18.175-20.246-50.261c-0.002-1.543,0.038-3.167,0.15-4.778
			c3.444-49.555,70.748-129.787,70.748-129.787s-56.905,86.431-56.905,130.059C185.793,476.002,192.046,488.067,192.046,488.067z"/>
		<path fill="#A43E3F" d="M192.017,488.007c0,0-20.066-18.142-20.194-50.193c-0.003-1.54,0.038-3.161,0.149-4.769
			c3.428-49.489,70.598-129.611,70.598-129.611s-56.8,86.287-56.8,129.88C185.769,475.959,192.017,488.007,192.017,488.007z"/>
		<path fill="#A43F40" d="M191.987,487.947c0,0-20.011-18.109-20.143-50.125c-0.003-1.537,0.037-3.155,0.148-4.759
			c3.411-49.424,70.448-129.436,70.448-129.436s-56.695,86.144-56.695,129.701C185.745,475.915,191.987,487.947,191.987,487.947z"/>
		<path fill="#A54041" d="M191.958,487.887c0,0-19.955-18.075-20.091-50.057c-0.003-1.534,0.037-3.149,0.147-4.75
			c3.395-49.358,70.298-129.26,70.298-129.26s-56.591,86-56.591,129.523C185.721,475.871,191.958,487.887,191.958,487.887z"/>
		<path fill="#A54141" d="M191.929,487.826c0,0-19.9-18.042-20.039-49.99c-0.003-1.531,0.037-3.143,0.146-4.741
			c3.379-49.293,70.148-129.084,70.148-129.084s-56.486,85.856-56.486,129.344C185.697,475.827,191.929,487.826,191.929,487.826z"/>
		<path fill="#A64242" d="M191.899,487.766c0,0-19.845-18.009-19.987-49.922c-0.003-1.529,0.036-3.137,0.145-4.732
			c3.363-49.227,69.997-128.908,69.997-128.908s-56.381,85.712-56.381,129.165C185.673,475.783,191.899,487.766,191.899,487.766z"/>
		<path fill="#A64342" d="M191.87,487.706c0,0-19.79-17.976-19.936-49.854c-0.003-1.526,0.036-3.131,0.144-4.723
			c3.346-49.162,69.847-128.732,69.847-128.732s-56.277,85.569-56.277,128.986C185.649,475.739,191.87,487.706,191.87,487.706z"/>
		<path fill="#A64443" d="M191.84,487.646c0,0-19.735-17.943-19.884-49.786c-0.003-1.523,0.036-3.125,0.143-4.714
			c3.33-49.096,69.697-128.556,69.697-128.556s-56.172,85.425-56.172,128.807C185.625,475.695,191.84,487.646,191.84,487.646z"/>
		<path fill="#A74544" d="M191.811,487.585c0,0-19.68-17.909-19.832-49.719c-0.003-1.52,0.035-3.118,0.142-4.705
			c3.314-49.031,69.547-128.38,69.547-128.38s-56.067,85.281-56.067,128.629C185.601,475.651,191.811,487.585,191.811,487.585z"/>
		<path fill="#A74644" d="M191.781,487.525c0,0-19.625-17.876-19.781-49.651c-0.004-1.517,0.035-3.112,0.141-4.695
			c3.298-48.965,69.397-128.204,69.397-128.204s-55.963,85.137-55.963,128.45C185.577,475.607,191.781,487.525,191.781,487.525z"/>
		<path fill="#A84745" d="M191.752,487.465c0,0-19.569-17.843-19.729-49.583c-0.004-1.514,0.034-3.106,0.14-4.686
			c3.281-48.9,69.247-128.028,69.247-128.028s-55.858,84.994-55.858,128.271C185.553,475.564,191.752,487.465,191.752,487.465z"/>
		<path fill="#A84846" d="M191.723,487.405c0,0-19.514-17.81-19.677-49.515c-0.004-1.511,0.034-3.1,0.139-4.677
			c3.265-48.834,69.097-127.852,69.097-127.852s-55.753,84.85-55.753,128.092C185.529,475.52,191.723,487.405,191.723,487.405z"/>
		<path fill="#A84946" d="M191.693,487.345c0,0-19.459-17.777-19.625-49.448c-0.004-1.508,0.034-3.094,0.138-4.668
			c3.249-48.769,68.947-127.676,68.947-127.676s-55.649,84.706-55.649,127.914C185.505,475.476,191.693,487.345,191.693,487.345z"/>
		<path fill="#A94A47" d="M191.664,487.284c0,0-19.404-17.743-19.574-49.38c-0.004-1.505,0.033-3.088,0.138-4.659
			c3.232-48.703,68.797-127.5,68.797-127.5s-55.544,84.562-55.544,127.735C185.481,475.432,191.664,487.284,191.664,487.284z"/>
		<path fill="#A94B47" d="M191.634,487.224c0,0-19.349-17.71-19.522-49.312c-0.004-1.502,0.033-3.082,0.137-4.65
			c3.216-48.638,68.647-127.324,68.647-127.324s-55.44,84.419-55.44,127.556C185.457,475.388,191.634,487.224,191.634,487.224z"/>
		<path fill="#A94C48" d="M191.605,487.164c0,0-19.294-17.677-19.47-49.244c-0.004-1.499,0.033-3.076,0.136-4.64
			c3.2-48.573,68.497-127.148,68.497-127.148s-55.335,84.275-55.335,127.377C185.432,475.344,191.605,487.164,191.605,487.164z"/>
		<path fill="#AA4D49" d="M191.576,487.104c0,0-19.239-17.644-19.419-49.177c-0.005-1.497,0.032-3.07,0.135-4.631
			c3.184-48.507,68.347-126.972,68.347-126.972s-55.23,84.131-55.23,127.199C185.408,475.3,191.576,487.104,191.576,487.104z"/>
		<path fill="#AA4D49" d="M191.546,487.043c0,0-19.184-17.611-19.367-49.109c-0.005-1.494,0.032-3.064,0.134-4.622
			c3.167-48.442,68.197-126.797,68.197-126.797s-55.126,83.987-55.126,127.02C185.384,475.256,191.546,487.043,191.546,487.043z"/>
		<path fill="#AB4E4A" d="M191.517,486.983c0,0-19.128-17.577-19.315-49.041c-0.005-1.491,0.031-3.057,0.133-4.613
			c3.151-48.376,68.047-126.621,68.047-126.621S185.36,390.552,185.36,433.55C185.36,475.212,191.517,486.983,191.517,486.983z"/>
		<path fill="#AB4F4B" d="M191.487,486.923c0,0-19.073-17.544-19.263-48.973c-0.005-1.488,0.031-3.051,0.132-4.604
			c3.135-48.311,67.897-126.445,67.897-126.445s-54.916,83.7-54.916,126.662C185.336,475.168,191.487,486.923,191.487,486.923z"/>
		<path fill="#AB504B" d="M191.458,486.863c0,0-19.018-17.511-19.212-48.906c-0.005-1.485,0.031-3.045,0.131-4.595
			c3.118-48.245,67.747-126.269,67.747-126.269s-54.812,83.556-54.812,126.484C185.312,475.125,191.458,486.863,191.458,486.863z"/>
		<path fill="#AC514C" d="M191.428,486.803c0,0-18.963-17.478-19.16-48.838c-0.005-1.482,0.03-3.039,0.13-4.586
			c3.102-48.18,67.597-126.093,67.597-126.093s-54.707,83.412-54.707,126.305C185.288,475.081,191.428,486.803,191.428,486.803z"/>
		<path fill="#AC524D" d="M191.399,486.742c0,0-18.908-17.445-19.108-48.77c-0.005-1.479,0.03-3.033,0.129-4.576
			c3.086-48.114,67.447-125.917,67.447-125.917s-54.602,83.269-54.602,126.126C185.264,475.037,191.399,486.742,191.399,486.742z"/>
		<path fill="#AC534D" d="M191.37,486.682c0,0-18.853-17.411-19.057-48.702c-0.005-1.476,0.029-3.027,0.128-4.567
			c3.069-48.049,67.297-125.741,67.297-125.741s-54.498,83.125-54.498,125.947C185.24,474.993,191.37,486.682,191.37,486.682z"/>
		<path fill="#AD544E" d="M191.34,486.622c0,0-18.798-17.378-19.005-48.634c-0.006-1.473,0.029-3.021,0.127-4.558
			c3.053-47.983,67.147-125.565,67.147-125.565s-54.393,82.981-54.393,125.768C185.216,474.949,191.34,486.622,191.34,486.622z"/>
		<path fill="#AD544F" d="M191.311,486.562c0,0-18.743-17.345-18.953-48.567c-0.006-1.47,0.029-3.015,0.126-4.549
			c3.037-47.918,66.997-125.389,66.997-125.389s-54.288,82.837-54.288,125.59C185.192,474.905,191.311,486.562,191.311,486.562z"/>
		<path fill="#AE554F" d="M191.281,486.501c0,0-18.687-17.312-18.901-48.499c-0.006-1.467,0.028-3.009,0.125-4.54
			c3.02-47.853,66.847-125.213,66.847-125.213s-54.184,82.694-54.184,125.411C185.168,474.861,191.281,486.501,191.281,486.501z"/>
		<path fill="#AE5650" d="M191.252,486.441c0,0-18.632-17.279-18.85-48.431c-0.006-1.464,0.028-3.002,0.124-4.531
			c3.004-47.787,66.697-125.037,66.697-125.037s-54.079,82.55-54.079,125.232C185.144,474.817,191.252,486.441,191.252,486.441z"/>
		<path fill="#AF5751" d="M191.222,486.381c0,0-18.577-17.245-18.798-48.363c-0.006-1.462,0.028-2.996,0.123-4.521
			c2.988-47.722,66.547-124.861,66.547-124.861s-53.974,82.406-53.974,125.053C185.12,474.773,191.222,486.381,191.222,486.381z"/>
		<path fill="#AF5851" d="M191.193,486.321c0,0-18.522-17.212-18.746-48.296c-0.006-1.459,0.027-2.99,0.122-4.512
			c2.971-47.656,66.397-124.685,66.397-124.685s-53.87,82.262-53.87,124.875C185.096,474.729,191.193,486.321,191.193,486.321z"/>
		<path fill="#AF5952" d="M191.164,486.26c0,0-18.467-17.179-18.695-48.228c-0.006-1.456,0.027-2.984,0.121-4.503
			c2.955-47.591,66.247-124.509,66.247-124.509s-53.765,82.119-53.765,124.696C185.072,474.686,191.164,486.26,191.164,486.26z"/>
		<path fill="#B05953" d="M191.134,486.2c0,0-18.412-17.146-18.643-48.16c-0.006-1.453,0.026-2.978,0.12-4.494
			c2.938-47.525,66.097-124.334,66.097-124.334s-53.66,81.975-53.66,124.517C185.048,474.642,191.134,486.2,191.134,486.2z"/>
		<path fill="#B05A53" d="M191.105,486.14c0,0-18.357-17.113-18.591-48.092c-0.007-1.45,0.026-2.972,0.119-4.485
			c2.922-47.46,65.947-124.158,65.947-124.158s-53.556,81.831-53.556,124.338C185.024,474.598,191.105,486.14,191.105,486.14z"/>
		<path fill="#B15B54" d="M191.075,486.08c0,0-18.302-17.079-18.539-48.025c-0.007-1.447,0.026-2.966,0.118-4.476
			c2.906-47.394,65.797-123.982,65.797-123.982S185,391.285,185,433.757C185,474.554,191.075,486.08,191.075,486.08z"/>
		<path fill="#B15C55" d="M191.046,486.02c0,0-18.246-17.046-18.488-47.957c-0.007-1.444,0.025-2.96,0.117-4.467
			c2.889-47.329,65.647-123.806,65.647-123.806s-53.346,81.544-53.346,123.981C184.976,474.51,191.046,486.02,191.046,486.02z"/>
		<path fill="#B15D55" d="M191.016,485.959c0,0-18.191-17.013-18.436-47.889c-0.007-1.441,0.025-2.954,0.116-4.457
			c2.873-47.264,65.497-123.63,65.497-123.63s-53.242,81.4-53.242,123.802C184.952,474.466,191.016,485.959,191.016,485.959z"/>
		<path fill="#B25D56" d="M190.987,485.899c0,0-18.136-16.98-18.384-47.821c-0.007-1.438,0.024-2.947,0.115-4.448
			c2.856-47.198,65.346-123.454,65.346-123.454s-53.137,81.256-53.137,123.623C184.927,474.422,190.987,485.899,190.987,485.899z"/>
		<path fill="#B25E57" d="M190.958,485.839c0,0-18.081-16.947-18.333-47.754c-0.007-1.435,0.024-2.941,0.114-4.439
			c2.84-47.133,65.196-123.278,65.196-123.278s-53.032,81.112-53.032,123.444C184.903,474.378,190.958,485.839,190.958,485.839z"/>
		<path fill="#B35F57" d="M190.928,485.779c0,0-18.026-16.913-18.281-47.686c-0.007-1.432,0.024-2.935,0.113-4.43
			c2.823-47.067,65.046-123.102,65.046-123.102s-52.928,80.969-52.928,123.266C184.879,474.334,190.928,485.779,190.928,485.779z"/>
		<path fill="#B36058" d="M190.899,485.719c0,0-17.971-16.88-18.229-47.618c-0.008-1.43,0.023-2.929,0.112-4.421
			c2.807-47.002,64.896-122.926,64.896-122.926s-52.823,80.825-52.823,123.087C184.855,474.29,190.899,485.719,190.899,485.719z"/>
		<path fill="#B36059" d="M190.869,485.658c0,0-17.916-16.847-18.177-47.55c-0.008-1.427,0.023-2.923,0.111-4.412
			c2.791-46.936,64.746-122.75,64.746-122.75s-52.718,80.681-52.718,122.908C184.831,474.247,190.869,485.658,190.869,485.658z"/>
		<path fill="#B46159" d="M190.84,485.598c0,0-17.861-16.814-18.126-47.483c-0.008-1.424,0.023-2.917,0.11-4.402
			c2.774-46.871,64.596-122.574,64.596-122.574s-52.614,80.537-52.614,122.729C184.807,474.203,190.84,485.598,190.84,485.598z"/>
		<path fill="#B4625A" d="M190.81,485.538c0,0-17.805-16.781-18.074-47.415c-0.008-1.421,0.022-2.911,0.11-4.393
			c2.758-46.806,64.446-122.398,64.446-122.398s-52.509,80.394-52.509,122.551C184.783,474.159,190.81,485.538,190.81,485.538z"/>
		<path fill="#B4635B" d="M190.781,485.478c0,0-17.75-16.747-18.022-47.347c-0.008-1.418,0.022-2.905,0.109-4.384
			c2.741-46.74,64.296-122.222,64.296-122.222s-52.404,80.25-52.404,122.372C184.759,474.115,190.781,485.478,190.781,485.478z"/>
		<path fill="#B5635B" d="M190.752,485.417c0,0-17.695-16.714-17.971-47.279c-0.008-1.415,0.021-2.899,0.108-4.375
			c2.725-46.675,64.146-122.046,64.146-122.046s-52.3,80.106-52.3,122.193C184.735,474.071,190.752,485.417,190.752,485.417z"/>
		<path fill="#B5645C" d="M190.722,485.357c0,0-17.64-16.681-17.919-47.212c-0.008-1.412,0.021-2.893,0.107-4.366
			c2.708-46.609,63.996-121.871,63.996-121.871s-52.195,79.962-52.195,122.014C184.711,474.027,190.722,485.357,190.722,485.357z"/>
		<path fill="#B6655D" d="M190.693,485.297c0,0-17.585-16.648-17.867-47.144c-0.008-1.409,0.021-2.886,0.106-4.357
			c2.692-46.544,63.846-121.695,63.846-121.695s-52.09,79.819-52.09,121.836C184.687,473.983,190.693,485.297,190.693,485.297z"/>
		<path fill="#B6665E" d="M190.663,485.237c0,0-17.53-16.615-17.815-47.076c-0.009-1.406,0.02-2.88,0.105-4.348
			c2.675-46.478,63.696-121.519,63.696-121.519s-51.986,79.675-51.986,121.657C184.663,473.939,190.663,485.237,190.663,485.237z"/>
		<path fill="#B6665E" d="M190.634,485.176c0,0-17.475-16.581-17.764-47.008c-0.009-1.403,0.02-2.874,0.104-4.338
			c2.659-46.413,63.546-121.343,63.546-121.343s-51.881,79.531-51.881,121.478C184.639,473.895,190.634,485.176,190.634,485.176z"/>
		<path fill="#B7675F" d="M190.604,485.116c0,0-17.419-16.548-17.712-46.941c-0.009-1.4,0.019-2.868,0.103-4.329
			c2.642-46.348,63.396-121.167,63.396-121.167s-51.776,79.387-51.776,121.299C184.615,473.852,190.604,485.116,190.604,485.116z"/>
		<path fill="#B76860" d="M190.575,485.056c0,0-17.364-16.515-17.66-46.873c-0.009-1.397,0.019-2.862,0.102-4.32
			c2.626-46.282,63.246-120.991,63.246-120.991s-51.672,79.244-51.672,121.121C184.591,473.808,190.575,485.056,190.575,485.056z"/>
		<path fill="#B76960" d="M190.546,484.996c0,0-17.309-16.482-17.609-46.805c-0.009-1.395,0.019-2.856,0.101-4.311
			c2.609-46.217,63.096-120.815,63.096-120.815s-51.567,79.1-51.567,120.942C184.567,473.764,190.546,484.996,190.546,484.996z"/>
		<path fill="#B86961" d="M190.516,484.936c0,0-17.254-16.449-17.557-46.737c-0.009-1.392,0.018-2.85,0.1-4.302
			c2.593-46.151,62.946-120.639,62.946-120.639s-51.462,78.956-51.462,120.763C184.543,473.72,190.516,484.936,190.516,484.936z"/>
		<path fill="#B86A62" d="M190.487,484.875c0,0-17.199-16.415-17.505-46.67c-0.009-1.389,0.018-2.844,0.099-4.293
			c2.576-46.086,62.796-120.463,62.796-120.463s-51.358,78.812-51.358,120.584C184.519,473.676,190.487,484.875,190.487,484.875z"/>
		<path fill="#B96B62" d="M190.457,484.815c0,0-17.144-16.382-17.453-46.602c-0.01-1.386,0.018-2.838,0.098-4.283
			c2.56-46.021,62.646-120.287,62.646-120.287s-51.253,78.669-51.253,120.405C184.495,473.632,190.457,484.815,190.457,484.815z"/>
		<path fill="#B96C63" d="M190.428,484.755c0,0-17.089-16.349-17.402-46.534c-0.01-1.383,0.017-2.831,0.097-4.274
			c2.543-45.955,62.496-120.111,62.496-120.111s-51.148,78.525-51.148,120.227C184.471,473.588,190.428,484.755,190.428,484.755z"/>
		<path fill="#B96C64" d="M190.399,484.695c0,0-17.034-16.316-17.35-46.466c-0.01-1.38,0.017-2.825,0.096-4.265
			c2.526-45.89,62.346-119.935,62.346-119.935s-51.044,78.381-51.044,120.048C184.446,473.544,190.399,484.695,190.399,484.695z"/>
		<path fill="#BA6D65" d="M190.369,484.634c0,0-16.978-16.283-17.298-46.399c-0.01-1.377,0.016-2.819,0.095-4.256
			c2.51-45.824,62.196-119.759,62.196-119.759s-50.939,78.237-50.939,119.869C184.422,473.5,190.369,484.634,190.369,484.634z"/>
		<path fill="#BA6E65" d="M190.34,484.574c0,0-16.923-16.249-17.247-46.331c-0.01-1.374,0.016-2.813,0.094-4.247
			c2.493-45.759,62.046-119.583,62.046-119.583s-50.835,78.094-50.835,119.69C184.398,473.456,190.34,484.574,190.34,484.574z"/>
		<path fill="#BB6F66" d="M190.31,484.514c0,0-16.868-16.216-17.195-46.263c-0.01-1.371,0.016-2.807,0.093-4.238
			c2.477-45.694,61.896-119.408,61.896-119.408s-50.73,77.95-50.73,119.512C184.374,473.413,190.31,484.514,190.31,484.514z"/>
		<path fill="#BB6F67" d="M190.281,484.454c0,0-16.813-16.183-17.143-46.195c-0.01-1.368,0.015-2.801,0.092-4.229
			c2.46-45.628,61.746-119.232,61.746-119.232s-50.625,77.806-50.625,119.333C184.35,473.369,190.281,484.454,190.281,484.454z"/>
		<path fill="#BB7067" d="M190.251,484.394c0,0-16.758-16.15-17.091-46.128c-0.01-1.365,0.015-2.795,0.091-4.219
			c2.444-45.563,61.596-119.056,61.596-119.056s-50.521,77.662-50.521,119.154C184.326,473.325,190.251,484.394,190.251,484.394z"/>
		<path fill="#BC7168" d="M190.222,484.333c0,0-16.703-16.117-17.04-46.06c-0.011-1.362,0.014-2.789,0.09-4.21
			c2.427-45.498,61.446-118.88,61.446-118.88s-50.416,77.519-50.416,118.975C184.302,473.281,190.222,484.333,190.222,484.333z"/>
		<path fill="#BC7269" d="M190.193,484.273c0,0-16.648-16.083-16.988-45.992c-0.011-1.36,0.014-2.783,0.089-4.201
			c2.41-45.432,61.296-118.704,61.296-118.704s-50.311,77.375-50.311,118.797C184.278,473.237,190.193,484.273,190.193,484.273z"/>
		<path fill="#BD726A" d="M190.163,484.213c0,0-16.593-16.05-16.936-45.924c-0.011-1.357,0.014-2.777,0.088-4.192
			c2.394-45.367,61.146-118.528,61.146-118.528s-50.207,77.231-50.207,118.618C184.254,473.193,190.163,484.213,190.163,484.213z"/>
		<path fill="#BD736A" d="M190.134,484.153c0,0-16.537-16.017-16.885-45.856c-0.011-1.354,0.013-2.77,0.087-4.183
			c2.377-45.301,60.996-118.352,60.996-118.352s-50.102,77.087-50.102,118.439C184.23,473.149,190.134,484.153,190.134,484.153z"/>
		<path fill="#BD746B" d="M190.104,484.092c0,0-16.482-15.984-16.833-45.789c-0.011-1.351,0.013-2.764,0.086-4.174
			c2.36-45.236,60.846-118.176,60.846-118.176s-49.997,76.944-49.997,118.26C184.206,473.105,190.104,484.092,190.104,484.092z"/>
		<path fill="#BE756C" d="M190.075,484.032c0,0-16.427-15.951-16.781-45.721c-0.011-1.348,0.012-2.758,0.085-4.165
			c2.344-45.171,60.695-118,60.695-118s-49.893,76.8-49.893,118.082C184.182,473.061,190.075,484.032,190.075,484.032z"/>
		<path fill="#BE756C" d="M190.045,483.972c0,0-16.372-15.917-16.729-45.653c-0.011-1.345,0.012-2.752,0.084-4.155
			c2.327-45.105,60.545-117.824,60.545-117.824s-49.788,76.656-49.788,117.903C184.158,473.017,190.045,483.972,190.045,483.972z"/>
		<path fill="#BF766D" d="M190.016,483.912c0,0-16.317-15.884-16.678-45.585c-0.012-1.342,0.012-2.746,0.083-4.146
			c2.311-45.04,60.395-117.648,60.395-117.648s-49.683,76.512-49.683,117.724C184.134,472.974,190.016,483.912,190.016,483.912z"/>
		<path fill="#BF776E" d="M189.987,483.852c0,0-16.262-15.851-16.626-45.518c-0.012-1.339,0.011-2.74,0.082-4.137
			c2.294-44.975,60.245-117.472,60.245-117.472S184.11,393.093,184.11,434.27C184.11,472.93,189.987,483.852,189.987,483.852z"/>
		<path fill="#BF776E" d="M189.957,483.791c0,0-16.207-15.818-16.574-45.45c-0.012-1.336,0.011-2.734,0.082-4.128
			c2.277-44.909,60.095-117.296,60.095-117.296s-49.474,76.225-49.474,117.366C184.086,472.886,189.957,483.791,189.957,483.791z"/>
		<path fill="#C0786F" d="M189.928,483.731c0,0-16.152-15.785-16.523-45.382c-0.012-1.333,0.01-2.728,0.081-4.119
			c2.261-44.844,59.945-117.12,59.945-117.12s-49.369,76.081-49.369,117.188C184.062,472.842,189.928,483.731,189.928,483.731z"/>
		<path fill="#C07970" d="M189.898,483.671c0,0-16.096-15.751-16.471-45.314c-0.012-1.33,0.01-2.722,0.08-4.11
			c2.244-44.778,59.795-116.945,59.795-116.945s-49.265,75.937-49.265,117.009C184.038,472.798,189.898,483.671,189.898,483.671z"/>
		<path fill="#C17A70" d="M189.869,483.611c0,0-16.041-15.718-16.419-45.247c-0.012-1.328,0.01-2.715,0.079-4.1
			c2.227-44.713,59.645-116.769,59.645-116.769s-49.16,75.794-49.16,116.83C184.014,472.754,189.869,483.611,189.869,483.611z"/>
		<path fill="#C17A71" d="M189.839,483.55c0,0-15.986-15.685-16.367-45.179c-0.012-1.325,0.009-2.709,0.078-4.091
			c2.21-44.648,59.495-116.593,59.495-116.593s-49.055,75.65-49.055,116.651C183.99,472.71,189.839,483.55,189.839,483.55z"/>
		<path fill="#C17B72" d="M189.81,483.49c0,0-15.931-15.652-16.316-45.111c-0.012-1.322,0.009-2.703,0.077-4.082
			c2.194-44.582,59.345-116.417,59.345-116.417s-48.951,75.506-48.951,116.473C183.965,472.666,189.81,483.49,189.81,483.49z"/>
		<path fill="#C27C72" d="M189.781,483.43c0,0-15.876-15.618-16.264-45.043c-0.013-1.319,0.008-2.697,0.076-4.073
			c2.177-44.517,59.195-116.241,59.195-116.241s-48.846,75.362-48.846,116.294C183.941,472.622,189.781,483.43,189.781,483.43z"/>
		<path fill="#C27D73" d="M189.751,483.37c0,0-15.821-15.585-16.212-44.976c-0.013-1.316,0.008-2.691,0.075-4.064
			c2.16-44.452,59.045-116.065,59.045-116.065s-48.741,75.219-48.741,116.115C183.917,472.578,189.751,483.37,189.751,483.37z"/>
		<path fill="#C27D74" d="M189.722,483.31c0,0-15.766-15.552-16.161-44.908c-0.013-1.313,0.008-2.685,0.074-4.055
			c2.144-44.386,58.895-115.889,58.895-115.889s-48.637,75.075-48.637,115.936C183.893,472.535,189.722,483.31,189.722,483.31z"/>
		<path fill="#C37E75" d="M189.692,483.249c0,0-15.711-15.519-16.109-44.84c-0.013-1.31,0.007-2.679,0.073-4.046
			c2.127-44.321,58.745-115.713,58.745-115.713s-48.532,74.931-48.532,115.758C183.869,472.491,189.692,483.249,189.692,483.249z"/>
		<path fill="#C37F75" d="M189.663,483.189c0,0-15.655-15.486-16.057-44.772c-0.013-1.307,0.007-2.673,0.072-4.036
			c2.11-44.256,58.595-115.537,58.595-115.537s-48.427,74.787-48.427,115.579C183.845,472.447,189.663,483.189,189.663,483.189z"/>
		<path fill="#C47F76" d="M189.633,483.129c0,0-15.6-15.452-16.005-44.705c-0.013-1.304,0.006-2.667,0.071-4.027
			c2.093-44.19,58.445-115.361,58.445-115.361s-48.323,74.644-48.323,115.4C183.821,472.403,189.633,483.129,189.633,483.129z"/>
		<path fill="#C48077" d="M189.604,483.069c0,0-15.545-15.419-15.954-44.637c-0.013-1.301,0.006-2.661,0.07-4.018
			c2.077-44.125,58.295-115.185,58.295-115.185s-48.218,74.5-48.218,115.221C183.797,472.359,189.604,483.069,189.604,483.069z"/>
		<path fill="#C48177" d="M189.575,483.008c0,0-15.49-15.386-15.902-44.569c-0.014-1.298,0.006-2.654,0.069-4.009
			c2.06-44.06,58.145-115.009,58.145-115.009s-48.113,74.356-48.113,115.042C183.773,472.315,189.575,483.008,189.575,483.008z"/>
		<path fill="#C58278" d="M189.545,482.948c0,0-15.435-15.353-15.85-44.501c-0.014-1.295,0.005-2.648,0.068-4
			c2.043-43.994,57.995-114.833,57.995-114.833s-48.009,74.212-48.009,114.864C183.749,472.271,189.545,482.948,189.545,482.948z"/>
		<path fill="#C58279" d="M189.516,482.888c0,0-15.38-15.32-15.799-44.434c-0.014-1.293,0.005-2.642,0.067-3.991
			c2.026-43.929,57.845-114.657,57.845-114.657s-47.904,74.069-47.904,114.685C183.725,472.227,189.516,482.888,189.516,482.888z"/>
		<path fill="#C6837A" d="M189.486,482.828c0,0-15.325-15.286-15.747-44.366c-0.014-1.29,0.004-2.636,0.066-3.981
			c2.009-43.864,57.695-114.482,57.695-114.482s-47.799,73.925-47.799,114.506C183.701,472.183,189.486,482.828,189.486,482.828z"/>
		<path fill="#C6847A" d="M189.457,482.768c0,0-15.27-15.253-15.695-44.298c-0.014-1.287,0.004-2.63,0.065-3.972
			c1.992-43.798,57.545-114.306,57.545-114.306s-47.695,73.781-47.695,114.327C183.677,472.139,189.457,482.768,189.457,482.768z"/>
		<path fill="#C6857B" d="M189.428,482.707c0,0-15.214-15.22-15.644-44.23c-0.014-1.284,0.004-2.624,0.064-3.963
			c1.976-43.733,57.395-114.13,57.395-114.13s-47.59,73.637-47.59,114.149C183.653,472.096,189.428,482.707,189.428,482.707z"/>
		<path fill="#C7857C" d="M189.398,482.647c0,0-15.159-15.187-15.592-44.163c-0.014-1.281,0.003-2.618,0.063-3.954
			c1.959-43.668,57.245-113.954,57.245-113.954s-47.485,73.494-47.485,113.97C183.629,472.052,189.398,482.647,189.398,482.647z"/>
		<path fill="#C7867D" d="M189.369,482.587c0,0-15.104-15.154-15.54-44.095c-0.014-1.278,0.003-2.612,0.062-3.945
			c1.942-43.602,57.095-113.778,57.095-113.778s-47.381,73.35-47.381,113.791C183.605,472.008,189.369,482.587,189.369,482.587z"/>
		<path fill="#C8877D" d="M189.339,482.527c0,0-15.049-15.12-15.488-44.027c-0.015-1.275,0.002-2.606,0.061-3.936
			c1.925-43.537,56.945-113.602,56.945-113.602s-47.276,73.206-47.276,113.612C183.581,471.964,189.339,482.527,189.339,482.527z"/>
		<path fill="#C8887E" d="M189.31,482.466c0,0-14.994-15.087-15.437-43.959c-0.015-1.272,0.002-2.6,0.06-3.927
			c1.908-43.472,56.795-113.426,56.795-113.426s-47.171,73.062-47.171,113.434C183.557,471.92,189.31,482.466,189.31,482.466z"/>
		<path fill="#C8897F" d="M189.28,482.406c0,0-14.939-15.054-15.385-43.892c-0.015-1.269,0.002-2.593,0.059-3.917
			c1.891-43.406,56.645-113.25,56.645-113.25s-47.067,72.919-47.067,113.255C183.533,471.876,189.28,482.406,189.28,482.406z"/>
		<path fill="#C98980" d="M189.251,482.346c0,0-14.884-15.021-15.333-43.824c-0.015-1.266,0.001-2.587,0.058-3.908
			c1.875-43.341,56.495-113.074,56.495-113.074s-46.962,72.775-46.962,113.076C183.509,471.832,189.251,482.346,189.251,482.346z"/>
		<path fill="#C98A80" d="M189.222,482.286c0,0-14.828-14.988-15.282-43.756c-0.015-1.263,0.001-2.581,0.057-3.899
			c1.858-43.276,56.345-112.898,56.345-112.898s-46.857,72.631-46.857,112.897C183.484,471.788,189.222,482.286,189.222,482.286z"/>
		<path fill="#CA8B81" d="M189.192,482.226c0,0-14.773-14.954-15.23-43.688c-0.015-1.26,0-2.575,0.056-3.89
			c1.841-43.21,56.195-112.722,56.195-112.722s-46.753,72.487-46.753,112.719C183.46,471.744,189.192,482.226,189.192,482.226z"/>
		<path fill="#CA8C82" d="M189.163,482.165c0,0-14.718-14.921-15.178-43.621c-0.015-1.258,0-2.569,0.055-3.881
			c1.824-43.145,56.044-112.546,56.044-112.546s-46.648,72.344-46.648,112.54C183.436,471.701,189.163,482.165,189.163,482.165z"/>
		<path fill="#CA8C83" d="M189.133,482.105c0,0-14.663-14.888-15.126-43.553c-0.016-1.255,0-2.563,0.054-3.872
			c1.807-43.08,55.894-112.37,55.894-112.37s-46.543,72.2-46.543,112.361C183.412,471.657,189.133,482.105,189.133,482.105z"/>
		<path fill="#CB8D83" d="M189.104,482.045c0,0-14.608-14.855-15.075-43.485c-0.016-1.252-0.001-2.557,0.054-3.862
			c1.79-43.014,55.744-112.194,55.744-112.194s-46.439,72.056-46.439,112.182C183.388,471.613,189.104,482.045,189.104,482.045z"/>
		<path fill="#CB8E84" d="M189.074,481.985c0,0-14.553-14.822-15.023-43.417c-0.016-1.249-0.001-2.551,0.053-3.853
			c1.773-42.949,55.594-112.018,55.594-112.018s-46.334,71.912-46.334,112.003C183.364,471.569,189.074,481.985,189.074,481.985z"/>
		<path fill="#CC8F85" d="M189.045,481.924c0,0-14.498-14.788-14.971-43.349c-0.016-1.246-0.002-2.545,0.052-3.844
			c1.756-42.884,55.444-111.843,55.444-111.843s-46.23,71.769-46.23,111.825C183.34,471.525,189.045,481.924,189.045,481.924z"/>
		<path fill="#CC9086" d="M189.016,481.864c0,0-14.443-14.755-14.919-43.282c-0.016-1.243-0.002-2.538,0.051-3.835
			c1.739-42.818,55.294-111.667,55.294-111.667s-46.125,71.625-46.125,111.646C183.316,471.481,189.016,481.864,189.016,481.864z"/>
		<path fill="#CC9187" d="M188.986,481.804c0,0-14.387-14.722-14.868-43.214c-0.016-1.24-0.002-2.532,0.05-3.826
			c1.722-42.753,55.144-111.491,55.144-111.491s-46.02,71.481-46.02,111.467C183.292,471.437,188.986,481.804,188.986,481.804z"/>
		<path fill="#CD9187" d="M188.957,481.744c0,0-14.332-14.689-14.816-43.146c-0.016-1.237-0.003-2.526,0.049-3.817
			c1.705-42.688,54.994-111.315,54.994-111.315s-45.916,71.337-45.916,111.288C183.268,471.393,188.957,481.744,188.957,481.744z"/>
		<path fill="#CD9288" d="M188.927,481.684c0,0-14.277-14.656-14.764-43.078c-0.016-1.234-0.003-2.52,0.048-3.808
			c1.688-42.622,54.844-111.139,54.844-111.139s-45.811,71.194-45.811,111.11C183.244,471.349,188.927,481.684,188.927,481.684z"/>
		<path fill="#CE9389" d="M188.898,481.623c0,0-14.222-14.622-14.713-43.011c-0.017-1.231-0.004-2.514,0.047-3.798
			c1.671-42.557,54.694-110.963,54.694-110.963s-45.706,71.05-45.706,110.931C183.22,471.305,188.898,481.623,188.898,481.623z"/>
		<path fill="#CE948A" d="M188.868,481.563c0,0-14.167-14.589-14.661-42.943c-0.017-1.228-0.004-2.508,0.046-3.789
			c1.654-42.492,54.544-110.787,54.544-110.787s-45.602,70.906-45.602,110.752C183.196,471.262,188.868,481.563,188.868,481.563z"/>
		<path fill="#CE958B" d="M188.839,481.503c0,0-14.112-14.556-14.609-42.875c-0.017-1.226-0.005-2.502,0.045-3.78
			c1.637-42.427,54.394-110.611,54.394-110.611s-45.497,70.762-45.497,110.573C183.172,471.218,188.839,481.503,188.839,481.503z"/>
		<path fill="#CF968C" d="M188.81,481.443c0,0-14.057-14.523-14.558-42.807c-0.017-1.223-0.005-2.496,0.044-3.771
			c1.62-42.361,54.244-110.435,54.244-110.435s-45.392,70.619-45.392,110.395C183.148,471.174,188.81,481.443,188.81,481.443z"/>
		<path fill="#CF968C" d="M188.78,481.382c0,0-14.002-14.49-14.506-42.74c-0.017-1.22-0.005-2.49,0.043-3.762
			c1.603-42.296,54.094-110.259,54.094-110.259s-45.288,70.475-45.288,110.216C183.124,471.13,188.78,481.382,188.78,481.382z"/>
		<path fill="#D0978D" d="M188.751,481.322c0,0-13.946-14.456-14.454-42.672c-0.017-1.217-0.006-2.484,0.042-3.753
			c1.586-42.231,53.944-110.083,53.944-110.083S183.1,395.145,183.1,434.851C183.1,471.086,188.751,481.322,188.751,481.322z"/>
		<path fill="#D0988E" d="M188.721,481.262c0,0-13.891-14.423-14.402-42.604c-0.017-1.214-0.006-2.477,0.041-3.743
			c1.569-42.165,53.794-109.907,53.794-109.907s-45.078,70.187-45.078,109.858C183.076,471.042,188.721,481.262,188.721,481.262z"/>
		<path fill="#D0998F" d="M188.692,481.202c0,0-13.836-14.39-14.351-42.536c-0.017-1.211-0.007-2.471,0.04-3.734
			c1.552-42.1,53.644-109.731,53.644-109.731s-44.974,70.044-44.974,109.679C183.052,470.998,188.692,481.202,188.692,481.202z"/>
		<path fill="#D19A90" d="M188.662,481.142c0,0-13.781-14.357-14.299-42.469c-0.018-1.208-0.007-2.465,0.039-3.725
			c1.535-42.035,53.494-109.555,53.494-109.555s-44.869,69.9-44.869,109.501C183.028,470.954,188.662,481.142,188.662,481.142z"/>
		<path fill="#D19B91" d="M188.633,481.081c0,0-13.726-14.324-14.247-42.401c-0.018-1.205-0.007-2.459,0.038-3.716
			c1.518-41.97,53.344-109.38,53.344-109.38s-44.764,69.756-44.764,109.322C183.003,470.91,188.633,481.081,188.633,481.081z"/>
		<path fill="#D29B92" d="M188.604,481.021c0,0-13.671-14.29-14.196-42.333c-0.018-1.202-0.008-2.453,0.037-3.707
			c1.501-41.904,53.194-109.204,53.194-109.204s-44.66,69.612-44.66,109.143C182.979,470.866,188.604,481.021,188.604,481.021z"/>
		<path fill="#D29C92" d="M188.574,480.961c0,0-13.616-14.257-14.144-42.265c-0.018-1.199-0.008-2.447,0.036-3.698
			c1.484-41.839,53.044-109.028,53.044-109.028s-44.555,69.469-44.555,108.964C182.955,470.823,188.574,480.961,188.574,480.961z"/>
		<path fill="#D29D93" d="M188.545,480.901c0,0-13.561-14.224-14.092-42.198c-0.018-1.196-0.009-2.441,0.035-3.689
			c1.466-41.774,52.894-108.852,52.894-108.852s-44.45,69.325-44.45,108.786C182.931,470.779,188.545,480.901,188.545,480.901z"/>
		<path fill="#D39E94" d="M188.515,480.84c0,0-13.505-14.191-14.04-42.13c-0.018-1.193-0.009-2.435,0.034-3.679
			c1.449-41.708,52.744-108.676,52.744-108.676s-44.346,69.181-44.346,108.607C182.907,470.735,188.515,480.84,188.515,480.84z"/>
		<path fill="#D39F95" d="M188.486,480.78c0,0-13.45-14.158-13.989-42.062c-0.018-1.191-0.009-2.429,0.033-3.67
			c1.432-41.643,52.594-108.5,52.594-108.5s-44.241,69.037-44.241,108.428C182.883,470.691,188.486,480.78,188.486,480.78z"/>
		<path fill="#D4A096" d="M188.456,480.72c0,0-13.395-14.124-13.937-41.994c-0.019-1.188-0.01-2.423,0.032-3.661
			c1.415-41.578,52.444-108.324,52.444-108.324s-44.136,68.894-44.136,108.249C182.859,470.647,188.456,480.72,188.456,480.72z"/>
		<path fill="#D4A197" d="M188.427,480.66c0,0-13.34-14.091-13.885-41.927c-0.019-1.185-0.01-2.416,0.031-3.652
			c1.398-41.513,52.294-108.148,52.294-108.148s-44.032,68.75-44.032,108.071C182.835,470.603,188.427,480.66,188.427,480.66z"/>
		<path fill="#D4A198" d="M188.398,480.6c0,0-13.285-14.058-13.834-41.859c-0.019-1.182-0.011-2.41,0.03-3.643
			c1.381-41.447,52.144-107.972,52.144-107.972s-43.927,68.606-43.927,107.892C182.811,470.559,188.398,480.6,188.398,480.6z"/>
		<path fill="#D5A299" d="M188.368,480.539c0,0-13.23-14.025-13.782-41.791c-0.019-1.179-0.011-2.404,0.029-3.634
			c1.363-41.382,51.994-107.796,51.994-107.796s-43.822,68.462-43.822,107.713C182.787,470.515,188.368,480.539,188.368,480.539z"/>
		<path fill="#D5A39A" d="M188.339,480.479c0,0-13.175-13.992-13.73-41.723c-0.019-1.176-0.012-2.398,0.028-3.624
			c1.346-41.317,51.844-107.62,51.844-107.62s-43.718,68.319-43.718,107.534C182.763,470.471,188.339,480.479,188.339,480.479z"/>
		<path fill="#D6A49B" d="M188.309,480.419c0,0-13.12-13.958-13.678-41.656c-0.019-1.173-0.012-2.392,0.027-3.615
			c1.329-41.252,51.694-107.444,51.694-107.444s-43.613,68.175-43.613,107.356C182.739,470.428,188.309,480.419,188.309,480.419z"/>
		<path fill="#D6A59C" d="M188.28,480.359c0,0-13.064-13.925-13.627-41.588c-0.019-1.17-0.012-2.386,0.026-3.606
			c1.312-41.186,51.544-107.268,51.544-107.268s-43.508,68.031-43.508,107.177C182.715,470.384,188.28,480.359,188.28,480.359z"/>
		<path fill="#D6A69C" d="M188.251,480.298c0,0-13.009-13.892-13.575-41.52c-0.019-1.167-0.013-2.38,0.025-3.597
			c1.294-41.121,51.393-107.092,51.393-107.092s-43.404,67.887-43.404,106.998C182.691,470.34,188.251,480.298,188.251,480.298z"/>
		<path fill="#D7A79D" d="M188.221,480.238c0,0-12.954-13.859-13.523-41.452c-0.02-1.164-0.013-2.374,0.025-3.588
			c1.277-41.056,51.243-106.917,51.243-106.917s-43.299,67.744-43.299,106.819C182.667,470.296,188.221,480.238,188.221,480.238z"/>
		<path fill="#D7A89E" d="M188.192,480.178c0,0-12.899-13.826-13.472-41.385c-0.02-1.161-0.014-2.368,0.024-3.579
			c1.26-40.991,51.093-106.741,51.093-106.741s-43.194,67.6-43.194,106.64C182.643,470.252,188.192,480.178,188.192,480.178z"/>
		<path fill="#D8A99F" d="M188.162,480.118c0,0-12.844-13.792-13.42-41.317c-0.02-1.159-0.014-2.362,0.023-3.57
			c1.243-40.925,50.943-106.565,50.943-106.565s-43.09,67.456-43.09,106.462C182.619,470.208,188.162,480.118,188.162,480.118z"/>
		<path fill="#D8A9A0" d="M188.133,480.058c0,0-12.789-13.759-13.368-41.249c-0.02-1.156-0.014-2.355,0.022-3.56
			c1.225-40.86,50.793-106.389,50.793-106.389s-42.985,67.312-42.985,106.283C182.595,470.164,188.133,480.058,188.133,480.058z"/>
		<path fill="#D8AAA1" d="M188.103,479.997c0,0-12.734-13.726-13.316-41.181c-0.02-1.153-0.015-2.349,0.021-3.551
			c1.208-40.795,50.643-106.213,50.643-106.213s-42.88,67.169-42.88,106.104C182.571,470.12,188.103,479.997,188.103,479.997z"/>
		<path fill="#D9ABA2" d="M188.074,479.937c0,0-12.678-13.693-13.265-41.114c-0.02-1.15-0.015-2.343,0.02-3.542
			c1.191-40.73,50.493-106.037,50.493-106.037s-42.776,67.025-42.776,105.925C182.547,470.076,188.074,479.937,188.074,479.937z"/>
		<path fill="#D9ACA3" d="M188.045,479.877c0,0-12.623-13.66-13.213-41.046c-0.02-1.147-0.016-2.337,0.019-3.533
			c1.173-40.664,50.343-105.861,50.343-105.861s-42.671,66.881-42.671,105.747C182.522,470.032,188.045,479.877,188.045,479.877z"/>
		<path fill="#DAADA4" d="M188.015,479.817c0,0-12.568-13.626-13.161-40.978c-0.021-1.144-0.016-2.331,0.018-3.524
			c1.156-40.599,50.193-105.685,50.193-105.685s-42.566,66.737-42.566,105.568C182.498,469.989,188.015,479.817,188.015,479.817z"/>
		<path fill="#DAAEA5" d="M187.986,479.756c0,0-12.513-13.593-13.11-40.91c-0.021-1.141-0.017-2.325,0.017-3.515
			c1.139-40.534,50.043-105.509,50.043-105.509s-42.462,66.594-42.462,105.389C182.474,469.945,187.986,479.756,187.986,479.756z"/>
		<path fill="#DAAFA6" d="M187.956,479.696c0,0-12.458-13.56-13.058-40.842c-0.021-1.138-0.017-2.319,0.016-3.505
			c1.121-40.469,49.893-105.333,49.893-105.333s-42.357,66.45-42.357,105.21C182.45,469.901,187.956,479.696,187.956,479.696z"/>
		<path fill="#DBB0A7" d="M187.927,479.636c0,0-12.403-13.527-13.006-40.775c-0.021-1.135-0.017-2.313,0.015-3.496
			c1.104-40.403,49.743-105.157,49.743-105.157s-42.252,66.306-42.252,105.032C182.426,469.857,187.927,479.636,187.927,479.636z"/>
		<path fill="#DBB1A8" d="M187.897,479.576c0,0-12.348-13.494-12.954-40.707c-0.021-1.132-0.018-2.307,0.014-3.487
			C176.043,395.043,224.55,330.4,224.55,330.4s-42.148,66.162-42.148,104.853C182.402,469.813,187.897,479.576,187.897,479.576z"/>
		<path fill="#DCB2A9" d="M187.868,479.516c0,0-12.293-13.46-12.903-40.639c-0.021-1.129-0.018-2.301,0.013-3.478
			c1.069-40.273,49.443-104.805,49.443-104.805s-42.043,66.019-42.043,104.674C182.378,469.769,187.868,479.516,187.868,479.516z"/>
		<path fill="#DCB2AA" d="M187.839,479.455c0,0-12.237-13.427-12.851-40.571c-0.021-1.126-0.019-2.294,0.012-3.469
			c1.052-40.208,49.293-104.629,49.293-104.629s-41.938,65.875-41.938,104.495C182.354,469.725,187.839,479.455,187.839,479.455z"/>
		<path fill="#DCB3AB" d="M187.809,479.395c0,0-12.182-13.394-12.799-40.504c-0.021-1.124-0.019-2.288,0.011-3.46
			c1.034-40.142,49.143-104.454,49.143-104.454s-41.834,65.731-41.834,104.316C182.33,469.681,187.809,479.395,187.809,479.395z"/>
		<path fill="#DDB4AC" d="M187.78,479.335c0,0-12.127-13.361-12.748-40.436c-0.022-1.121-0.02-2.282,0.01-3.451
			c1.017-40.077,48.993-104.278,48.993-104.278s-41.729,65.587-41.729,104.138C182.306,469.637,187.78,479.335,187.78,479.335z"/>
		<path fill="#DDB5AD" d="M187.75,479.275c0,0-12.072-13.328-12.696-40.368c-0.022-1.118-0.02-2.276,0.009-3.441
			c0.999-40.012,48.843-104.102,48.843-104.102s-41.624,65.444-41.624,103.959C182.282,469.593,187.75,479.275,187.75,479.275z"/>
		<path fill="#DEB6AE" d="M187.721,479.214c0,0-12.017-13.294-12.644-40.3c-0.022-1.115-0.02-2.27,0.008-3.432
			c0.982-39.947,48.693-103.926,48.693-103.926s-41.52,65.3-41.52,103.78C182.258,469.55,187.721,479.214,187.721,479.214z"/>
		<path fill="#DEB7AF" d="M187.691,479.154c0,0-11.962-13.261-12.592-40.233c-0.022-1.112-0.021-2.264,0.007-3.423
			c0.964-39.881,48.543-103.75,48.543-103.75s-41.415,65.156-41.415,103.601C182.234,469.506,187.691,479.154,187.691,479.154z"/>
		<path fill="#DEB8B0" d="M187.662,479.094c0,0-11.907-13.228-12.541-40.165c-0.022-1.109-0.021-2.258,0.006-3.414
			c0.947-39.816,48.393-103.574,48.393-103.574s-41.311,65.012-41.311,103.423C182.21,469.462,187.662,479.094,187.662,479.094z"/>
		<path fill="#DFB9B1" d="M187.633,479.034c0,0-11.852-13.195-12.489-40.097c-0.022-1.106-0.022-2.252,0.005-3.405
			c0.929-39.751,48.243-103.398,48.243-103.398s-41.206,64.869-41.206,103.244C182.186,469.418,187.633,479.034,187.633,479.034z"/>
		<path fill="#DFBAB2" d="M187.603,478.974c0,0-11.796-13.162-12.437-40.029c-0.022-1.103-0.022-2.246,0.004-3.396
			c0.912-39.686,48.093-103.222,48.093-103.222s-41.101,64.725-41.101,103.065C182.162,469.374,187.603,478.974,187.603,478.974z"/>
		<path fill="#DFBBB3" d="M187.574,478.913c0,0-11.741-13.128-12.386-39.962c-0.023-1.1-0.023-2.24,0.003-3.386
			c0.894-39.621,47.943-103.046,47.943-103.046s-40.997,64.581-40.997,102.886C182.138,469.33,187.574,478.913,187.574,478.913z"/>
		<path fill="#E0BCB4" d="M187.544,478.853c0,0-11.686-13.095-12.334-39.894c-0.023-1.097-0.023-2.233,0.002-3.377
			c0.877-39.555,47.793-102.87,47.793-102.87s-40.892,64.437-40.892,102.708C182.114,469.286,187.544,478.853,187.544,478.853z"/>
		<path fill="#E0BDB5" d="M187.515,478.793c0,0-11.631-13.062-12.282-39.826c-0.023-1.094-0.023-2.227,0.001-3.368
			c0.859-39.49,47.643-102.694,47.643-102.694s-40.787,64.294-40.787,102.529C182.09,469.242,187.515,478.793,187.515,478.793z"/>
		<path fill="#E1BEB7" d="M187.485,478.733c0,0-11.576-13.029-12.23-39.758c-0.023-1.091-0.024-2.221,0-3.359
			c0.841-39.425,47.493-102.518,47.493-102.518s-40.683,64.15-40.683,102.35C182.066,469.198,187.485,478.733,187.485,478.733z"/>
		<path fill="#E1BFB8" d="M187.456,478.672c0,0-11.521-12.996-12.179-39.691c-0.023-1.089-0.024-2.215-0.001-3.35
			c0.824-39.36,47.343-102.342,47.343-102.342s-40.578,64.006-40.578,102.171C182.041,469.155,187.456,478.672,187.456,478.672z"/>
		<path fill="#E1BFB9" d="M187.427,478.612c0,0-11.466-12.962-12.127-39.623c-0.023-1.086-0.025-2.209-0.002-3.341
			c0.806-39.295,47.193-102.166,47.193-102.166s-40.473,63.862-40.473,101.993C182.017,469.111,187.427,478.612,187.427,478.612z"/>
		<path fill="#E2C0BA" d="M187.397,478.552c0,0-11.411-12.929-12.075-39.555c-0.023-1.083-0.025-2.203-0.003-3.332
			c0.789-39.229,47.043-101.991,47.043-101.991s-40.369,63.719-40.369,101.814C181.993,469.067,187.397,478.552,187.397,478.552z"/>
		<path fill="#E2C1BB" d="M187.368,478.492c0,0-11.355-12.896-12.024-39.487c-0.023-1.08-0.026-2.197-0.003-3.322
			c0.771-39.164,46.893-101.815,46.893-101.815s-40.264,63.575-40.264,101.635C181.969,469.023,187.368,478.492,187.368,478.492z"/>
		<path fill="#E3C2BC" d="M187.338,478.432c0,0-11.3-12.863-11.972-39.42c-0.024-1.077-0.026-2.191-0.004-3.313
			c0.753-39.099,46.742-101.639,46.742-101.639s-40.159,63.431-40.159,101.456C181.945,468.979,187.338,478.432,187.338,478.432z"/>
		<path fill="#E3C3BD" d="M187.309,478.371c0,0-11.245-12.83-11.92-39.352c-0.024-1.074-0.027-2.185-0.005-3.304
			c0.736-39.034,46.592-101.463,46.592-101.463s-40.055,63.287-40.055,101.277C181.921,468.935,187.309,478.371,187.309,478.371z"/>
		<path fill="#E4C4BE" d="M187.279,478.311c0,0-11.19-12.796-11.868-39.284c-0.024-1.071-0.027-2.179-0.006-3.295
			c0.718-38.969,46.442-101.287,46.442-101.287s-39.95,63.144-39.95,101.099C181.897,468.891,187.279,478.311,187.279,478.311z"/>
		<path fill="#E4C5BF" d="M187.25,478.251c0,0-11.135-12.763-11.817-39.216c-0.024-1.068-0.027-2.172-0.007-3.286
			c0.7-38.903,46.292-101.111,46.292-101.111s-39.845,63-39.845,100.92C181.873,468.847,187.25,478.251,187.25,478.251z"/>
		<path fill="#E4C6C0" d="M187.221,478.191c0,0-11.08-12.73-11.765-39.149c-0.024-1.065-0.028-2.166-0.008-3.277
			c0.682-38.838,46.142-100.935,46.142-100.935s-39.741,62.856-39.741,100.741C181.849,468.803,187.221,478.191,187.221,478.191z"/>
		<path fill="#E5C7C1" d="M187.191,478.13c0,0-11.025-12.697-11.713-39.081c-0.024-1.062-0.028-2.16-0.009-3.268
			c0.665-38.773,45.992-100.759,45.992-100.759s-39.636,62.712-39.636,100.562C181.825,468.759,187.191,478.13,187.191,478.13z"/>
		<path fill="#E5C8C2" d="M187.162,478.07c0,0-10.97-12.664-11.662-39.013c-0.024-1.059-0.029-2.154-0.01-3.258
			c0.647-38.708,45.842-100.583,45.842-100.583s-39.531,62.569-39.531,100.384C181.801,468.716,187.162,478.07,187.162,478.07z"/>
		<path fill="#E6C9C3" d="M187.132,478.01c0,0-10.914-12.63-11.61-38.945c-0.025-1.057-0.029-2.148-0.011-3.249
			c0.629-38.643,45.692-100.407,45.692-100.407s-39.427,62.425-39.427,100.205C181.777,468.672,187.132,478.01,187.132,478.01z"/>
		<path fill="#E6CAC4" d="M187.103,477.95c0,0-10.859-12.597-11.558-38.878c-0.025-1.054-0.03-2.142-0.012-3.24
			c0.611-38.577,45.542-100.231,45.542-100.231s-39.322,62.281-39.322,100.026C181.753,468.628,187.103,477.95,187.103,477.95z"/>
		<path fill="#E7CBC5" d="M187.074,477.889c0,0-10.804-12.564-11.506-38.81c-0.025-1.051-0.03-2.136-0.013-3.231
			c0.593-38.512,45.392-100.055,45.392-100.055s-39.217,62.137-39.217,99.847C181.729,468.584,187.074,477.889,187.074,477.889z"/>
		<path fill="#E7CCC6" d="M187.044,477.829c0,0-10.749-12.531-11.455-38.742c-0.025-1.048-0.03-2.13-0.014-3.222
			c0.576-38.447,45.242-99.879,45.242-99.879s-39.113,61.994-39.113,99.669C181.705,468.54,187.044,477.829,187.044,477.829z"/>
		<path fill="#E7CCC7" d="M187.015,477.769c0,0-10.694-12.498-11.403-38.674c-0.025-1.045-0.031-2.124-0.015-3.213
			c0.558-38.382,45.092-99.703,45.092-99.703s-39.008,61.85-39.008,99.49C181.681,468.496,187.015,477.769,187.015,477.769z"/>
		<path fill="#E8CDC8" d="M186.985,477.709c0,0-10.639-12.464-11.351-38.607c-0.025-1.042-0.031-2.118-0.016-3.203
			c0.54-38.317,44.942-99.527,44.942-99.527s-38.903,61.706-38.903,99.311C181.657,468.452,186.985,477.709,186.985,477.709z"/>
		<path fill="#E8CEC9" d="M186.956,477.649c0,0-10.584-12.431-11.3-38.539c-0.025-1.039-0.032-2.111-0.017-3.194
			c0.522-38.251,44.792-99.352,44.792-99.352s-38.799,61.562-38.799,99.132C181.633,468.408,186.956,477.649,186.956,477.649z"/>
		<path fill="#E9CFCA" d="M186.926,477.588c0,0-10.528-12.398-11.248-38.471c-0.025-1.036-0.032-2.105-0.018-3.185
			c0.504-38.186,44.642-99.176,44.642-99.176s-38.694,61.419-38.694,98.953C181.609,468.364,186.926,477.588,186.926,477.588z"/>
		<path fill="#E9D0CB" d="M186.897,477.528c0,0-10.473-12.365-11.196-38.403c-0.026-1.033-0.033-2.099-0.019-3.176
			c0.486-38.121,44.492-99,44.492-99s-38.589,61.275-38.589,98.775C181.585,468.32,186.897,477.528,186.897,477.528z"/>
		<path fill="#E9D1CC" d="M186.868,477.468c0,0-10.418-12.332-11.144-38.336c-0.026-1.03-0.033-2.093-0.02-3.167
			c0.468-38.056,44.342-98.824,44.342-98.824s-38.485,61.131-38.485,98.596C181.56,468.277,186.868,477.468,186.868,477.468z"/>
		<path fill="#EAD2CE" d="M186.838,477.408c0,0-10.363-12.298-11.093-38.268c-0.026-1.027-0.034-2.087-0.021-3.158
			c0.45-37.991,44.192-98.648,44.192-98.648s-38.38,60.987-38.38,98.417C181.536,468.233,186.838,477.408,186.838,477.408z"/>
		<path fill="#EAD3CF" d="M186.809,477.348c0,0-10.308-12.265-11.041-38.2c-0.026-1.024-0.034-2.081-0.022-3.149
			c0.432-37.926,44.042-98.472,44.042-98.472s-38.275,60.844-38.275,98.238C181.512,468.189,186.809,477.348,186.809,477.348z"/>
		<path fill="#EBD4D0" d="M186.779,477.287c0,0-10.253-12.232-10.989-38.132c-0.026-1.022-0.034-2.075-0.023-3.139
			c0.414-37.86,43.892-98.296,43.892-98.296s-38.171,60.7-38.171,98.06C181.488,468.145,186.779,477.287,186.779,477.287z"/>
		<path fill="#EBD5D1" d="M186.75,477.227c0,0-10.198-12.199-10.938-38.064c-0.026-1.019-0.035-2.069-0.024-3.13
			c0.396-37.795,43.742-98.12,43.742-98.12s-38.066,60.556-38.066,97.881C181.464,468.101,186.75,477.227,186.75,477.227z"/>
		<path fill="#EBD6D2" d="M186.72,477.167c0,0-10.143-12.165-10.886-37.997c-0.026-1.016-0.035-2.063-0.025-3.121
			c0.378-37.73,43.592-97.944,43.592-97.944s-37.961,60.412-37.961,97.702C181.44,468.057,186.72,477.167,186.72,477.167z"/>
		<path fill="#ECD7D3" d="M186.691,477.107c0,0-10.087-12.132-10.834-37.929c-0.027-1.013-0.036-2.057-0.026-3.112
			c0.36-37.665,43.442-97.768,43.442-97.768s-37.857,60.269-37.857,97.523C181.416,468.013,186.691,477.107,186.691,477.107z"/>
		<path fill="#ECD8D4" d="M186.662,477.046c0,0-10.032-12.099-10.782-37.861c-0.027-1.01-0.034-2.05-0.027-3.103
			c0.417-37.599,43.292-97.592,43.292-97.592s-37.752,60.125-37.752,97.345C181.392,467.969,186.662,477.046,186.662,477.046z"/>
		<path fill="#EDD9D5" d="M186.632,476.986c0,0-9.977-12.066-10.731-37.793c-0.027-1.007-0.035-2.044-0.028-3.094
			c0.397-37.534,43.142-97.416,43.142-97.416s-37.647,59.981-37.647,97.166C181.368,467.925,186.632,476.986,186.632,476.986z"/>
		<path fill="#EDDAD6" d="M186.603,476.926c0,0-9.922-12.033-10.679-37.726c-0.027-1.004-0.035-2.038-0.029-3.084
			c0.378-37.469,42.992-97.24,42.992-97.24s-37.543,59.837-37.543,96.987C181.344,467.881,186.603,476.926,186.603,476.926z"/>
		<path fill="#EEDBD7" d="M186.573,476.866c0,0-9.867-11.999-10.627-37.658c-0.027-1.001-0.036-2.032-0.03-3.075
			c0.358-37.404,42.842-97.064,42.842-97.064s-37.438,59.694-37.438,96.808C181.32,467.838,186.573,476.866,186.573,476.866z"/>
		<path fill="#EEDCD8" d="M186.544,476.805c0,0-9.812-11.966-10.576-37.59c-0.027-0.998-0.036-2.026-0.031-3.066
			c0.339-37.338,42.692-96.889,42.692-96.889s-37.333,59.55-37.333,96.63C181.296,467.794,186.544,476.805,186.544,476.805z"/>
		<path fill="#EEDDD9" d="M186.514,476.745c0,0-9.757-11.933-10.524-37.522c-0.027-0.995-0.037-2.02-0.031-3.057
			c0.32-37.273,42.542-96.713,42.542-96.713s-37.229,59.406-37.229,96.451C181.272,467.75,186.514,476.745,186.514,476.745z"/>
		<path fill="#EFDEDA" d="M186.485,476.685c0,0-9.702-11.9-10.472-37.455c-0.027-0.992-0.037-2.014-0.032-3.048
			c0.3-37.208,42.392-96.537,42.392-96.537s-37.124,59.262-37.124,96.272C181.248,467.706,186.485,476.685,186.485,476.685z"/>
		<path fill="#EFDFDB" d="M186.456,476.625c0,0-9.646-11.867-10.42-37.387c-0.028-0.99-0.038-2.008-0.033-3.039
			c0.281-37.143,42.241-96.361,42.241-96.361s-37.019,59.119-37.019,96.093C181.224,467.662,186.456,476.625,186.456,476.625z"/>
		<path fill="#F0DFDC" d="M186.426,476.565c0,0-9.591-11.833-10.369-37.319c-0.028-0.987-0.038-2.002-0.034-3.03
			c0.262-37.078,42.091-96.185,42.091-96.185S181.2,399.006,181.2,435.946C181.2,467.618,186.426,476.565,186.426,476.565z"/>
		<path fill="#F0E0DD" d="M186.397,476.504c0,0-9.536-11.8-10.317-37.251c-0.028-0.984-0.039-1.996-0.035-3.02
			c0.242-37.013,41.941-96.009,41.941-96.009s-36.81,58.831-36.81,95.736C181.176,467.574,186.397,476.504,186.397,476.504z"/>
		<path fill="#F1E1DE" d="M186.367,476.444c0,0-9.481-11.767-10.265-37.184c-0.028-0.981-0.039-1.99-0.036-3.011
			c0.223-36.948,41.791-95.833,41.791-95.833s-36.706,58.687-36.706,95.557C181.152,467.53,186.367,476.444,186.367,476.444z"/>
		<path fill="#F1E2DF" d="M186.338,476.384c0,0-9.426-11.734-10.214-37.116c-0.028-0.978-0.04-1.983-0.037-3.002
			c0.203-36.883,41.641-95.657,41.641-95.657s-36.601,58.544-36.601,95.378C181.128,467.486,186.338,476.384,186.338,476.384z"/>
		<path fill="#F2E3E0" d="M186.308,476.324c0,0-9.371-11.701-10.162-37.048c-0.028-0.975-0.04-1.977-0.038-2.993
			c0.184-36.817,41.491-95.481,41.491-95.481s-36.496,58.4-36.496,95.199C181.104,467.443,186.308,476.324,186.308,476.324z"/>
		<path fill="#F2E4E1" d="M186.279,476.263c0,0-9.316-11.667-10.11-36.98c-0.028-0.972-0.04-1.971-0.039-2.984
			c0.165-36.752,41.341-95.305,41.341-95.305s-36.392,58.256-36.392,95.021C181.079,467.399,186.279,476.263,186.279,476.263z"/>
		<path fill="#F3E5E2" d="M186.25,476.203c0,0-9.261-11.634-10.058-36.913c-0.028-0.969-0.041-1.965-0.04-2.975
			c0.145-36.687,41.191-95.129,41.191-95.129s-36.287,58.112-36.287,94.842C181.055,467.355,186.25,476.203,186.25,476.203z"/>
		<path fill="#F3E6E3" d="M186.22,476.143c0,0-9.205-11.601-10.007-36.845c-0.029-0.966-0.041-1.959-0.041-2.965
			c0.126-36.622,41.041-94.953,41.041-94.953s-36.182,57.969-36.182,94.663C181.031,467.311,186.22,476.143,186.22,476.143z"/>
		<path fill="#F3E7E4" d="M186.191,476.083c0,0-9.15-11.568-9.955-36.777c-0.029-0.963-0.042-1.953-0.042-2.956
			c0.107-36.557,40.891-94.777,40.891-94.777s-36.078,57.825-36.078,94.484C181.007,467.267,186.191,476.083,186.191,476.083z"/>
		<path fill="#F4E8E5" d="M186.161,476.023c0,0-9.095-11.535-9.903-36.709c-0.029-0.96-0.042-1.947-0.043-2.947
			c0.087-36.492,40.741-94.601,40.741-94.601s-35.973,57.681-35.973,94.306C180.983,467.223,186.161,476.023,186.161,476.023z"/>
		<path fill="#F4E9E6" d="M186.132,475.962c0,0-9.04-11.501-9.852-36.642c-0.029-0.957-0.043-1.941-0.044-2.938
			c0.068-36.427,40.591-94.426,40.591-94.426s-35.868,57.537-35.868,94.127C180.959,467.179,186.132,475.962,186.132,475.962z"/>
		<path fill="#F5EAE7" d="M186.102,475.902c0,0-8.985-11.468-9.8-36.574c-0.029-0.955-0.043-1.935-0.045-2.929
			c0.048-36.362,40.441-94.25,40.441-94.25s-35.764,57.394-35.764,93.948C180.935,467.135,186.102,475.902,186.102,475.902z"/>
		<path fill="#F5EAE8" d="M186.073,475.842c0,0-8.93-11.435-9.748-36.506c-0.029-0.952-0.044-1.928-0.046-2.92
			c0.029-36.297,40.291-94.074,40.291-94.074s-35.659,57.25-35.659,93.769C180.911,467.091,186.073,475.842,186.073,475.842z"/>
		<path fill="#F6EBE8" d="M186.044,475.782c0,0-8.875-11.402-9.696-36.438c-0.029-0.949-0.044-1.922-0.047-2.911
			c0.01-36.231,40.141-93.898,40.141-93.898s-35.554,57.106-35.554,93.591C180.887,467.047,186.044,475.782,186.044,475.782z"/>
		<path fill="#F6ECE9" d="M186.014,475.721c0,0-8.82-11.369-9.645-36.371c-0.03-0.946-0.045-1.916-0.048-2.901
			c-0.01-36.166,39.991-93.722,39.991-93.722s-35.45,56.962-35.45,93.412C180.863,467.004,186.014,475.721,186.014,475.721z"/>
		<path fill="#F7EDEA" d="M185.985,475.661c0,0-8.764-11.335-9.593-36.303c-0.03-0.943-0.045-1.91-0.049-2.892
			c-0.029-36.101,39.841-93.546,39.841-93.546s-35.345,56.819-35.345,93.233C180.839,466.96,185.985,475.661,185.985,475.661z"/>
		<path fill="#F7EEEB" d="M185.955,475.601c0,0-8.709-11.302-9.541-36.235c-0.03-0.94-0.046-1.904-0.05-2.883
			c-0.048-36.036,39.691-93.37,39.691-93.37s-35.24,56.675-35.24,93.054C180.815,466.916,185.955,475.601,185.955,475.601z"/>
		<path fill="#F7EFEC" d="M185.926,475.541c0,0-8.654-11.269-9.49-36.167c-0.03-0.937-0.046-1.898-0.051-2.874
			c-0.068-35.971,39.541-93.194,39.541-93.194s-35.136,56.531-35.136,92.875C180.791,466.872,185.926,475.541,185.926,475.541z"/>
		<path fill="#F8F0ED" d="M185.897,475.481c0,0-8.599-11.236-9.438-36.1c-0.03-0.934-0.047-1.892-0.052-2.865
			c-0.087-35.906,39.391-93.018,39.391-93.018s-35.031,56.387-35.031,92.697C180.767,466.828,185.897,475.481,185.897,475.481z"/>
		<path fill="#F8F0EE" d="M185.867,475.42c0,0-8.544-11.203-9.386-36.032c-0.03-0.931-0.047-1.886-0.053-2.856
			c-0.107-35.841,39.241-92.842,39.241-92.842s-34.926,56.244-34.926,92.518C180.743,466.784,185.867,475.42,185.867,475.42z"/>
		<path fill="#F9F1EF" d="M185.838,475.36c0,0-8.489-11.169-9.334-35.964c-0.03-0.928-0.048-1.88-0.054-2.846
			c-0.126-35.776,39.091-92.666,39.091-92.666s-34.822,56.1-34.822,92.339C180.719,466.74,185.838,475.36,185.838,475.36z"/>
		<path fill="#F9F2F0" d="M185.808,475.3c0,0-8.434-11.136-9.283-35.896c-0.03-0.925-0.048-1.874-0.055-2.837
			c-0.145-35.71,38.941-92.49,38.941-92.49s-34.717,55.956-34.717,92.16C180.695,466.696,185.808,475.3,185.808,475.3z"/>
		<path fill="#F9F3F1" d="M185.779,475.24c0,0-8.378-11.103-9.231-35.828c-0.031-0.922-0.049-1.868-0.056-2.828
			c-0.165-35.645,38.791-92.314,38.791-92.314s-34.612,55.812-34.612,91.982C180.671,466.652,185.779,475.24,185.779,475.24z"/>
		<path fill="#FAF4F2" d="M185.749,475.179c0,0-8.323-11.07-9.179-35.761c-0.031-0.92-0.049-1.861-0.057-2.819
			c-0.184-35.58,38.641-92.138,38.641-92.138s-34.508,55.669-34.508,91.803C180.647,466.608,185.749,475.179,185.749,475.179z"/>
		<path fill="#FAF5F3" d="M185.72,475.119c0,0-8.268-11.037-9.128-35.693c-0.031-0.917-0.05-1.855-0.058-2.81
			c-0.203-35.515,38.491-91.963,38.491-91.963s-34.403,55.525-34.403,91.624C180.623,466.565,185.72,475.119,185.72,475.119z"/>
		<path fill="#FBF5F4" d="M185.691,475.059c0,0-8.213-11.003-9.076-35.625c-0.031-0.914-0.05-1.849-0.059-2.801
			c-0.223-35.45,38.341-91.787,38.341-91.787s-34.298,55.381-34.298,91.445C180.598,466.521,185.691,475.059,185.691,475.059z"/>
		<path fill="#FBF6F5" d="M185.661,474.999c0,0-8.158-10.97-9.024-35.557c-0.031-0.911-0.051-1.843-0.059-2.792
			c-0.242-35.385,38.191-91.611,38.191-91.611s-34.194,55.237-34.194,91.267C180.574,466.477,185.661,474.999,185.661,474.999z"/>
		<path fill="#FBF7F6" d="M185.632,474.939c0,0-8.103-10.937-8.972-35.49c-0.031-0.908-0.051-1.837-0.06-2.782
			c-0.262-35.32,38.041-91.435,38.041-91.435s-34.089,55.094-34.089,91.088C180.55,466.433,185.632,474.939,185.632,474.939z"/>
		<path fill="#FCF8F6" d="M185.602,474.878c0,0-8.048-10.904-8.921-35.422c-0.031-0.905-0.052-1.831-0.061-2.773
			c-0.281-35.255,37.891-91.259,37.891-91.259s-33.984,54.95-33.984,90.909C180.526,466.389,185.602,474.878,185.602,474.878z"/>
		<path fill="#FCF9F7" d="M185.573,474.818c0,0-7.993-10.871-8.869-35.354c-0.032-0.902-0.052-1.825-0.062-2.764
			c-0.3-35.189,37.741-91.083,37.741-91.083s-33.88,54.806-33.88,90.73C180.502,466.345,185.573,474.818,185.573,474.818z"/>
		<path fill="#FCFAF8" d="M185.543,474.758c0,0-7.937-10.837-8.817-35.286c-0.032-0.899-0.053-1.819-0.063-2.755
			c-0.32-35.124,37.59-90.907,37.59-90.907s-33.775,54.662-33.775,90.551C180.478,466.301,185.543,474.758,185.543,474.758z"/>
		<path fill="#FDFAF9" d="M185.514,474.698c0,0-7.882-10.804-8.766-35.219c-0.032-0.896-0.053-1.813-0.064-2.746
			c-0.339-35.059,37.44-90.731,37.44-90.731s-33.67,54.519-33.67,90.373C180.454,466.257,185.514,474.698,185.514,474.698z"/>
		<path fill="#FDFBFA" d="M185.485,474.637c0,0-7.827-10.771-8.714-35.151c-0.032-0.893-0.054-1.807-0.065-2.737
			c-0.359-34.994,37.29-90.555,37.29-90.555s-33.566,54.375-33.566,90.194C180.43,466.213,185.485,474.637,185.485,474.637z"/>
		<path fill="#FDFCFB" d="M185.455,474.577c0,0-7.772-10.738-8.662-35.083c-0.032-0.89-0.054-1.8-0.066-2.727
			c-0.378-34.929,37.14-90.379,37.14-90.379s-33.461,54.231-33.461,90.015C180.406,466.169,185.455,474.577,185.455,474.577z"/>
		<path fill="#FEFCFC" d="M185.426,474.517c0,0-7.717-10.705-8.61-35.015c-0.032-0.888-0.055-1.794-0.067-2.718
			c-0.397-34.864,36.99-90.203,36.99-90.203s-33.356,54.087-33.356,89.836C180.382,466.126,185.426,474.517,185.426,474.517z"/>
		<path fill="#FEFDFC" d="M185.396,474.457c0,0-7.662-10.671-8.559-34.948c-0.032-0.885-0.055-1.788-0.068-2.709
			c-0.417-34.799,36.84-90.027,36.84-90.027s-33.252,53.944-33.252,89.658C180.358,466.082,185.396,474.457,185.396,474.457z"/>
		<path fill="#FEFEFD" d="M185.367,474.397c0,0-7.607-10.638-8.507-34.88c-0.032-0.882-0.056-1.782-0.069-2.7
			c-0.436-34.734,36.69-89.851,36.69-89.851s-33.147,53.8-33.147,89.479C180.334,466.038,185.367,474.397,185.367,474.397z"/>
		<path fill="#FFFEFE" d="M185.337,474.336c0,0-7.552-10.605-8.455-34.812c-0.033-0.879-0.056-1.776-0.07-2.691
			c-0.455-34.668,36.54-89.675,36.54-89.675s-33.042,53.656-33.042,89.3C180.31,465.994,185.337,474.336,185.337,474.336z"/>
		<path fill="#FFFFFE" d="M185.308,474.276c0,0-7.496-10.572-8.404-34.744c-0.033-0.876-0.057-1.77-0.071-2.682
			c-0.475-34.603,36.39-89.5,36.39-89.5s-32.938,53.512-32.938,89.121C180.286,465.95,185.308,474.276,185.308,474.276z"/>
		<path fill="#FFFFFF" d="M185.279,474.216c0,0-7.441-10.539-8.352-34.677c-0.033-0.873-0.057-1.764-0.072-2.673
			c-0.494-34.538,36.24-89.324,36.24-89.324s-32.833,53.369-32.833,88.943C180.262,465.906,185.279,474.216,185.279,474.216z"/>
		<path fill="#FFFFFF" d="M212.966,347.736c0,0-36.604,54.675-36.09,89.148c0.444,25.995,8.373,37.272,8.373,37.272
			s-5.011-8.293-5.011-37.656C180.238,400.961,212.966,347.736,212.966,347.736z"/>
	</g>
</g>
<g>
	<path fill-rule="evenodd" clip-rule="evenodd" fill="#770F29" d="M274.718,418.783c5.498-14.152,9.286-28.846,13.712-43.338
		c2.633-8.624,9.793-10.461,16.62-4.188c0.684,0.63,1.246,1.391,1.867,2.091c0.306,2.417,0.694,4.827,0.91,7.254
		c1.529,17.237,3.99,34.324,8.155,51.139c2.044,8.254,0.757,9.772-8.01,9.224c-1.119-0.07-2.229-0.276-3.344-0.419
		c-4.082-1.423-3.852-5.177-4.406-8.402c-1.682-9.799-3.241-19.62-4.848-29.433c-0.364-2.777-0.729-5.555-1.095-8.331
		c-4.991,12.487-9.232,25.07-13.391,37.683c-3.027,9.183-2.98,9.199-12.565,8.201c-2.738-1.422-3.686-4-4.572-6.731
		c-3.463-10.661-7.026-21.291-10.553-31.932c-0.766-2.143-0.756-4.645-2.899-6.677c-2.042,11.546-3.984,22.624-5.97,33.693
		c-0.406,2.266-0.476,4.585-0.868,6.854c-0.255,1.473-0.677,3.212-1.855,4.231c-1.784,1.542-4.533,1.203-6.62,0.956
		c-2.29-0.271-5.141-0.212-6.402-2.669c-0.711-1.383-0.486-3.004-0.095-4.452c5.478-20.266,9.209-40.827,9.973-61.852
		c0.076-2.113,0.953-2.861,2.854-3.421c6.222-1.834,10.912-0.372,15.424,5.093c5.344,16.296,10.688,32.592,16.033,48.887"/>
	<path fill-rule="evenodd" clip-rule="evenodd" fill="#770F29" d="M330.59,441.313c-3.222-1.393-4.139-3.944-4.064-7.296
		c0.197-8.657,0.266-17.321,0.242-25.981c-0.008-3.189-0.193-6.413-0.703-9.555c-0.496-3.063-2.464-6.223,2.524-7.5
		c4.632-1.184,8.103-0.273,10.365,4.239c0.822,1.641,0.415,3.818,2.202,5.021c10.783-11.552,16.347-13.446,21.034-5.448
		c1.09,1.859,0.508,2.963,0.003,4.084c-1.582,3.507-2.586,7.912-8.763,4.236c-4.964-2.955-12.678,2.552-12.758,8.408
		c-0.086,6.381-0.018,12.764-0.018,19.147C340.655,440.95,340.655,440.95,330.59,441.313z"/>
	<circle fill-rule="evenodd" clip-rule="evenodd" fill="#770F29" cx="358.231" cy="435.498" r="6.261"/>
</g>
<g>
	<path fill="#770F29" d="M278.58,495.467c0,0.18,0,0.427,0,0.741c0,0.314-0.124,0.886-0.37,1.716
		c-0.247,0.83-0.606,1.548-1.077,2.154c-0.471,0.605-1.257,1.166-2.355,1.682c-1.1,0.515-2.412,0.774-3.937,0.774
		c-5.429,0-9.377-2.871-11.845-8.614l-5.787-13.594c-0.852-1.974-0.336-3.274,1.548-3.903c2.378-0.852,4.072-1.839,5.081-2.961
		c1.01-1.121,1.514-2.534,1.514-4.24c0-3.948-2.468-5.923-7.403-5.923c-0.852,0-2.042,0.067-3.567,0.202v37.686
		c-1.256,0-3.264,0.056-6.023,0.168c-2.759,0.111-4.33,0.168-4.71,0.168c-0.382,0-0.807-0.09-1.279-0.269
		c-0.471-0.179-0.819-0.381-1.043-0.606l-0.404-0.269v-45.628c4.755-0.897,9.915-1.346,15.478-1.346
		c7.178,0,12.607,1.055,16.286,3.163c3.678,2.11,5.518,5.496,5.518,10.162c0,2.064-0.36,3.96-1.077,5.687
		c-0.719,1.728-1.672,3.129-2.86,4.206c-1.189,1.077-2.3,1.941-3.331,2.591c-1.033,0.651-2.109,1.178-3.23,1.582
		c1.077,1.122,2.063,2.244,2.961,3.365l3.432,4.509c1.256,1.66,2.591,3.051,4.005,4.172c1.413,1.122,2.524,1.841,3.331,2.154
		L278.58,495.467z"/>
	<path fill="#770F29" d="M284.3,454.079h29.274c0.718,0.942,1.077,1.84,1.077,2.692c0,0.404-0.146,1.526-0.437,3.365
		c-0.292,1.84-0.482,3.186-0.572,4.038H297.76v8.681h13.19l-0.606,5.989c-0.09,0.853-0.382,1.526-0.875,2.019
		c-0.494,0.495-1.122,0.741-1.885,0.741h-9.825v9.489h15.68c0.762,0.942,1.144,1.84,1.144,2.692c0,0.404-0.157,1.526-0.471,3.365
		c-0.314,1.841-0.517,3.186-0.606,4.038h-26.515c-0.359,0-0.774-0.089-1.244-0.269c-0.472-0.179-0.819-0.381-1.043-0.606
		l-0.404-0.269V454.079z"/>
	<path fill="#770F29" d="M338.339,453.406c3.634,0,6.662,0.595,9.085,1.783c2.423,1.189,3.634,2.838,3.634,4.947
		c0,0.763-0.168,1.526-0.505,2.288c-0.336,0.764-0.741,1.403-1.211,1.918c-0.471,0.516-0.954,0.987-1.447,1.413
		c-0.494,0.427-0.898,0.752-1.211,0.975l-0.538,0.27c-0.045-0.089-0.134-0.236-0.269-0.437c-0.135-0.202-0.437-0.539-0.909-1.01
		c-0.471-0.471-0.976-0.885-1.514-1.245c-0.539-0.358-1.245-0.683-2.12-0.976c-0.875-0.291-1.806-0.437-2.793-0.437
		c-1.391,0-2.502,0.293-3.332,0.875c-0.83,0.584-1.244,1.436-1.244,2.557c0,0.807,0.358,1.537,1.077,2.187
		c0.717,0.651,2.221,1.537,4.509,2.658l5.72,2.826c5.204,2.513,7.807,6.595,7.807,12.248c0,4.936-1.615,8.772-4.846,11.508
		c-3.23,2.737-7.582,4.105-13.055,4.105c-4.173,0-7.807-0.841-10.902-2.524c-3.095-1.682-4.643-3.735-4.643-6.157
		c0-1.211,0.404-2.467,1.211-3.769c0.807-1.301,1.615-2.31,2.423-3.028l1.212-1.077c0.089,0.18,0.224,0.415,0.404,0.706
		c0.179,0.292,0.572,0.808,1.178,1.548c0.605,0.74,1.256,1.391,1.952,1.951c0.695,0.561,1.615,1.077,2.759,1.548
		c1.144,0.471,2.344,0.706,3.6,0.706c1.57,0,2.837-0.325,3.803-0.976c0.964-0.65,1.447-1.536,1.447-2.658
		c0-0.807-0.292-1.457-0.875-1.951c-0.583-0.493-1.773-1.166-3.566-2.019c-0.404-0.179-0.696-0.337-0.875-0.471l-5.72-2.759
		c-5.025-2.512-7.537-6.595-7.537-12.248c0-4.755,1.514-8.49,4.542-11.205C328.614,454.764,332.865,453.406,338.339,453.406z"/>
</g>
<g>
	<path fill="#FFFFFF" d="M278.58,492.853c0,0.18,0,0.427,0,0.741c0,0.314-0.124,0.886-0.37,1.716
		c-0.247,0.831-0.606,1.548-1.077,2.154c-0.471,0.605-1.257,1.166-2.355,1.682c-1.1,0.515-2.412,0.774-3.937,0.774
		c-5.429,0-9.377-2.871-11.845-8.614l-5.787-13.594c-0.852-1.974-0.336-3.274,1.548-3.903c2.378-0.852,4.072-1.839,5.081-2.961
		c1.01-1.121,1.514-2.534,1.514-4.24c0-3.948-2.468-5.923-7.403-5.923c-0.852,0-2.042,0.067-3.567,0.202v37.686
		c-1.256,0-3.264,0.056-6.023,0.168c-2.759,0.111-4.33,0.168-4.71,0.168c-0.382,0-0.807-0.09-1.279-0.269
		c-0.471-0.179-0.819-0.381-1.043-0.606l-0.404-0.269v-45.628c4.755-0.897,9.915-1.346,15.478-1.346
		c7.178,0,12.607,1.055,16.286,3.163c3.678,2.11,5.518,5.496,5.518,10.162c0,2.064-0.36,3.96-1.077,5.687
		c-0.719,1.728-1.672,3.129-2.86,4.206c-1.189,1.077-2.3,1.941-3.331,2.591c-1.033,0.651-2.109,1.178-3.23,1.582
		c1.077,1.122,2.063,2.244,2.961,3.365l3.432,4.509c1.256,1.66,2.591,3.051,4.005,4.172c1.413,1.122,2.524,1.841,3.331,2.154
		L278.58,492.853z"/>
	<path fill="#FFFFFF" d="M284.3,451.466h29.274c0.718,0.942,1.077,1.84,1.077,2.692c0,0.404-0.146,1.526-0.437,3.365
		c-0.292,1.84-0.482,3.186-0.572,4.038H297.76v8.681h13.19l-0.606,5.989c-0.09,0.853-0.382,1.526-0.875,2.019
		c-0.494,0.495-1.122,0.741-1.885,0.741h-9.825v9.489h15.68c0.762,0.942,1.144,1.84,1.144,2.692c0,0.404-0.157,1.526-0.471,3.365
		c-0.314,1.841-0.517,3.186-0.606,4.038h-26.515c-0.359,0-0.774-0.089-1.244-0.269c-0.472-0.179-0.819-0.381-1.043-0.606
		l-0.404-0.269V451.466z"/>
	<path fill="#FFFFFF" d="M338.339,450.793c3.634,0,6.662,0.595,9.085,1.783c2.423,1.189,3.634,2.838,3.634,4.947
		c0,0.763-0.168,1.526-0.505,2.288c-0.336,0.764-0.741,1.403-1.211,1.918c-0.471,0.516-0.954,0.987-1.447,1.413
		c-0.494,0.427-0.898,0.752-1.211,0.975l-0.538,0.269c-0.045-0.089-0.134-0.236-0.269-0.437c-0.135-0.202-0.437-0.539-0.909-1.01
		c-0.471-0.471-0.976-0.885-1.514-1.245c-0.539-0.358-1.245-0.683-2.12-0.976c-0.875-0.291-1.806-0.437-2.793-0.437
		c-1.391,0-2.502,0.292-3.332,0.875c-0.83,0.584-1.244,1.436-1.244,2.557c0,0.807,0.358,1.537,1.077,2.187
		c0.717,0.651,2.221,1.537,4.509,2.658l5.72,2.826c5.204,2.513,7.807,6.595,7.807,12.248c0,4.936-1.615,8.772-4.846,11.508
		c-3.23,2.737-7.582,4.105-13.055,4.105c-4.173,0-7.807-0.841-10.902-2.524c-3.095-1.682-4.643-3.735-4.643-6.157
		c0-1.211,0.404-2.467,1.211-3.769c0.807-1.301,1.615-2.31,2.423-3.028l1.212-1.077c0.089,0.18,0.224,0.415,0.404,0.706
		c0.179,0.292,0.572,0.808,1.178,1.548c0.605,0.74,1.256,1.391,1.952,1.951c0.695,0.561,1.615,1.077,2.759,1.548
		c1.144,0.471,2.344,0.706,3.6,0.706c1.57,0,2.837-0.325,3.803-0.976c0.964-0.65,1.447-1.536,1.447-2.658
		c0-0.808-0.292-1.457-0.875-1.951c-0.583-0.493-1.773-1.166-3.566-2.019c-0.404-0.179-0.696-0.337-0.875-0.471l-5.72-2.759
		c-5.025-2.512-7.537-6.595-7.537-12.248c0-4.755,1.514-8.49,4.542-11.205C328.614,452.15,332.865,450.793,338.339,450.793z"/>
</g>
<g>
	<path fill="#770F29" d="M279.465,310.483c-0.286,0.083-0.582,0.142-0.879,0.193C278.873,310.642,279.165,310.584,279.465,310.483z"
		/>
	<path fill="#770F29" d="M328.449,296.63c-0.044-0.017-0.087-0.033-0.139-0.05c0,0.003,0,0.01,0,0.013
		C328.357,296.606,328.402,296.616,328.449,296.63z"/>
	<path fill="#770F29" d="M265.064,297.797c0.384-0.426,0.874-0.844,1.42-1.187c-0.947,0.198-1.198,0.641-1.52,1.084
		C264.999,297.726,265.032,297.76,265.064,297.797z"/>
	<path fill="#770F29" d="M263.362,301.047c0.124,0.934,0.587,1.807,1.278,2.621C264.07,302.816,263.632,301.935,263.362,301.047z"/>
	<path fill="#770F29" d="M267.357,294.91c0,0,0,0-0.001,0C267.274,294.953,267.227,294.974,267.357,294.91z"/>
	<path fill="#770F29" d="M267.219,303.072c0.05,0.042,0.101,0.084,0.15,0.126c-0.681-0.915-1.237-1.947-1.622-3.136
		C265.57,301.156,266.143,302.16,267.219,303.072z"/>
	<path fill="#770F29" d="M328.31,296.58c-0.149-0.048-0.326-0.094-0.573-0.141c0.185,0.042,0.379,0.099,0.573,0.154
		C328.31,296.59,328.31,296.583,328.31,296.58z"/>
	<path fill="#770F29" d="M267.357,294.91c0.001,0,0.001,0,0.001,0c0.008-0.004,0.015-0.007,0.022-0.011
		c-0.01,0.005-0.016,0.007-0.025,0.011C267.357,294.91,267.357,294.91,267.357,294.91z"/>
	<path fill="#770F29" d="M267.38,294.899c0.088-0.044,0.192-0.097,0.193-0.1C267.509,294.833,267.445,294.862,267.38,294.899z"/>
	<g>
		<path fill="#770F29" d="M296.009,306.389c1.158,0.19,2.511,0.359,3.256-0.809c0.601-0.943-0.387-1.742-0.869-2.378
			c-1.746-2.298-3.909-3.392-7.876-1.118c2.131,0.439,4.462-0.249,3.567,2.512C293.628,306.01,295.047,306.232,296.009,306.389z"/>
		<path fill="#770F29" d="M318.878,333.591c1.038-0.108,2.105-0.083,2.669-1.589c-1.317-0.797-2.625-1.771-4.082-2.397
			c-0.81-0.347-1.511,0.284-1.26,1.314C316.549,332.324,316.861,333.801,318.878,333.591z"/>
		<path fill="#770F29" d="M266.644,298.308c0.05-0.055,0.163-0.143,0.31-0.25c1.634-0.661,3.189-1.405,5.165-0.587
			c1.481,0.614,1.948-0.145,0.793-1.404c-0.01-0.01-0.015-0.018-0.025-0.029c-1.284,0.029-2.738-0.286-4.101-0.189
			c-0.734-0.036-1.559,0.29-2.302,0.759c-0.546,0.344-1.036,0.762-1.42,1.187c-0.376,0.417-0.652,0.836-0.735,1.179
			c-0.395,3.728,5.995,10.012,11.052,10.871c-0.807-0.669-1.617-1.335-2.426-2.002c-1.87-1.539-3.737-3.082-5.587-4.647
			c-0.049-0.042-0.1-0.084-0.15-0.126c-1.075-0.912-1.648-1.916-1.472-3.01C265.838,299.501,266.112,298.917,266.644,298.308z"/>
		<g>
			<path fill="#770F29" d="M327.737,296.439c0.185,0.042,0.379,0.099,0.573,0.154c0.047,0.013,0.092,0.023,0.139,0.037
				c-0.044-0.017-0.087-0.033-0.139-0.05C328.161,296.533,327.984,296.486,327.737,296.439z"/>
			<path fill="#770F29" d="M333.493,295.212c-7.709-2.699-15.428-5.169-21.602-11.11c-3.506-3.374-8.264-4.471-13.31-4.18
				c-7.733,0.445-13.834,5.096-19.875,8.779c-3.317,2.023-5.697,3.6-9.309,2.735c-6.083-1.455-11.726,0.189-15.945,4.395
				c4.886-1.646,7.061-2.504,8.617-2.311c1.5,0.186,3.294-0.605,4.576,0.48c-3.368,1.009-7.082,6.527-6.73,8.086
				c0.14,0.623,0.875,1.176,1.333,1.591c4.331,3.94,4.165,4.101,10.57,8.085c3.968,2.469,8.13,1.599,12.08-0.714
				c3.826-2.238,2.209-3.469,2.049-6.456l-1.042-1.753c-0.92-0.345-1.549-1.919-0.913,0.64c0.99,3.976-1.026,5.957-4.527,7.003
				c-0.301,0.102-0.592,0.159-0.879,0.193c-4.828,0.797-11.064-2.704-13.946-7.008c-0.691-0.814-1.155-1.687-1.278-2.621
				c-0.265-0.87-0.375-1.744-0.279-2.597c0.252-0.316,0.504-0.634,0.756-0.952c0,0,0,0,0.001,0c0.494-1.081,2.459-2.107,3.51-2.597
				c0.048-0.021,0.103-0.049,0.146-0.069c0.062-0.029,0.078-0.034,0.078-0.033c2.705-1.432,5.529,0.173,8.275-0.217
				c0.001,0,0.002,0,0.003,0c2.855-1.612,4.285-5.269,8.006-5.624c2.217-0.211,3.984-1.343,5.752-2.559
				c9.281-6.381,14.334-5.63,23.294,1.129c7.254,5.474,9.357,11.924,7.472,20.383c-0.788,3.542-0.745,7.14,1.183,10.449
				c0.803,3.117,3.264,5.051,5.252,7.31c1.358,1.544,2.713,3.235,1.922,5.301c-0.664,1.737,0.046,3.3-0.145,4.925l0.001,0.001
				h-0.001c-1.685,2.937-3.955,4.709-7.598,4.084c-0.989-0.171-2.098-0.172-2.964,0.613c-2.39,0.352-4.387,2.16-6.949,1.87
				c-1.268-0.366-2.538-0.733-3.807-1.098c-3.803-3.079-6.633-7.105-10.124-10.507c1.999,4.68,4.741,8.734,9.124,11.471
				c0,0.001,0,0.001,0,0.001c-2.117,2.747-5.256,4.315-7.701,6.675c-1.541,1.49-2.918,1.575-4.411-0.006
				c-0.197-0.207-0.696-0.128-1.344-0.225c0.487,1.098,0.883,1.99,1.252,2.82c-2.378,1.453-3.582-1.419-6.11-1.295
				c2.323,2.005-0.477,3.165-0.563,4.783c2.159,0.571,2.87-1.941,4.94-1.499c3.742,0.802,6.747-1.134,9.202-3.684
				c2.541-2.643,5.519-4.527,8.773-6.069c4.83-0.529,9.848,0.058,14.354-2.405c2.882-0.708,3.872-3.011,4.642-5.501
				c1.724-5.265,0.696-9.823-3.416-13.643c-1.67-1.55-2.396-3.732-3.534-5.636c-0.704-3.97-0.612-7.344,4.638-8.041
				c1.451-0.194,2.756-1.484,4.127-2.27c3.095-1.536,4.161-4.434,5.138-7.457C337.116,296.21,336.038,295.21,333.493,295.212z
				 M332.64,302.821c-0.572,0.732-1.201,1.254-1.6,1.6c-0.401,0.347-0.694,0.989-0.995,1.006c-7.039,2.225-6.635,2.207-6.975-5.031
				c-0.231-4.902,1.827-4.146,4.755-2.995h0.001c3.795-0.243,4.501,0.615,3.437,4.176c-0.287,1.168-1.879,1.972-1.461,3.329
				c0.393-0.971,2.267-2.983,2.251-3.264c1.224-1.726,2.013-3.36-0.889-4.202c-0.473-0.033-2.07-0.682-1.479-0.317
				c-0.927-0.017-0.591-0.245-1.237-0.493c-0.047-0.014-0.092-0.025-0.139-0.037c-0.193-0.055-0.388-0.112-0.573-0.154
				c-2.094-0.957-3.401-0.603-4.729-2.584c3.157-0.385,5.327,1.72,7.914,2.229c1.233,0.171,3.085,0.254,3.409,2.13
				C334.646,300.035,333.749,301.401,332.64,302.821z"/>
		</g>
		<path fill="#770F29" d="M281.999,299.431c0,0,4.299,3.835,4.243,4.269c-0.057,0.433,1.696,1.156,1.131,0
			C286.807,302.545,283.413,298.147,281.999,299.431z"/>
		<path fill="#770F29" d="M288.675,301.196c-0.34-0.818-3.709-3.446-4.865-2.31c0,0,2.149,1.395,2.998,2.31
			C287.655,302.111,289.014,302.014,288.675,301.196z"/>
	</g>
</g>
<g>
	<path fill="#9C2333" d="M279.465,309.96c-0.286,0.083-0.582,0.142-0.879,0.193C278.873,310.119,279.165,310.062,279.465,309.96z"/>
	<path fill="#9C2333" d="M328.449,296.107c-0.044-0.017-0.087-0.033-0.139-0.05c0,0.003,0,0.01,0,0.013
		C328.357,296.083,328.402,296.093,328.449,296.107z"/>
	<path fill="#9C2333" d="M265.064,297.274c0.384-0.426,0.874-0.844,1.42-1.187c-0.947,0.198-1.198,0.641-1.52,1.084
		C264.999,297.204,265.032,297.238,265.064,297.274z"/>
	<path fill="#9C2333" d="M263.362,300.524c0.124,0.934,0.587,1.807,1.278,2.621C264.07,302.293,263.632,301.412,263.362,300.524z"/>
	<path fill="#F9ECEC" d="M267.357,294.388c0,0,0,0-0.001,0C267.274,294.43,267.227,294.452,267.357,294.388z"/>
	<path fill="#9C2333" d="M267.219,302.549c0.05,0.042,0.101,0.084,0.15,0.126c-0.681-0.915-1.237-1.947-1.622-3.136
		C265.57,300.633,266.143,301.637,267.219,302.549z"/>
	<path fill="#FBF3F3" d="M328.31,296.057c-0.149-0.048-0.326-0.094-0.573-0.141c0.185,0.042,0.379,0.099,0.573,0.154
		C328.31,296.068,328.31,296.06,328.31,296.057z"/>
	<path fill="#FBF3F3" d="M267.357,294.388c0.001,0,0.001,0,0.001,0c0.008-0.004,0.015-0.007,0.022-0.011
		c-0.01,0.005-0.016,0.007-0.025,0.011C267.357,294.388,267.357,294.388,267.357,294.388z"/>
	<path fill="#FBF3F3" d="M267.38,294.376c0.088-0.044,0.192-0.097,0.193-0.1C267.509,294.311,267.445,294.339,267.38,294.376z"/>
	<g>
		<path fill="#FFFFFF" d="M296.009,305.866c1.158,0.19,2.511,0.359,3.256-0.809c0.601-0.943-0.387-1.742-0.869-2.378
			c-1.746-2.298-3.909-3.392-7.876-1.118c2.131,0.439,4.462-0.249,3.567,2.512C293.628,305.488,295.047,305.709,296.009,305.866z"/>
		<path fill="#FFFFFF" d="M318.878,333.068c1.038-0.108,2.105-0.083,2.669-1.588c-1.317-0.797-2.625-1.771-4.082-2.397
			c-0.81-0.347-1.511,0.284-1.26,1.314C316.549,331.801,316.861,333.278,318.878,333.068z"/>
		<path fill="#FFFFFF" d="M266.644,297.786c0.05-0.055,0.163-0.143,0.31-0.25c1.634-0.661,3.189-1.405,5.165-0.587
			c1.481,0.614,1.948-0.145,0.793-1.404c-0.01-0.01-0.015-0.018-0.025-0.029c-1.284,0.029-2.738-0.286-4.101-0.189
			c-0.734-0.036-1.559,0.29-2.302,0.76c-0.546,0.344-1.036,0.762-1.42,1.187c-0.376,0.417-0.652,0.836-0.735,1.179
			c-0.395,3.728,5.995,10.012,11.052,10.871c-0.807-0.669-1.617-1.335-2.426-2.002c-1.87-1.539-3.737-3.082-5.587-4.647
			c-0.049-0.042-0.1-0.084-0.15-0.126c-1.075-0.912-1.648-1.916-1.472-3.01C265.838,298.978,266.112,298.395,266.644,297.786z"/>
		<g>
			<path fill="none" d="M327.737,295.916c0.185,0.042,0.379,0.099,0.573,0.154c0.047,0.013,0.092,0.023,0.139,0.037
				c-0.044-0.017-0.087-0.033-0.139-0.05C328.161,296.01,327.984,295.963,327.737,295.916z"/>
			<path fill="#FFFFFF" d="M333.493,294.689c-7.709-2.699-15.428-5.169-21.602-11.11c-3.506-3.374-8.264-4.471-13.31-4.18
				c-7.733,0.445-13.834,5.096-19.875,8.779c-3.317,2.023-5.697,3.6-9.309,2.735c-6.083-1.455-11.726,0.189-15.945,4.395
				c4.886-1.646,7.061-2.504,8.617-2.311c1.5,0.186,3.294-0.605,4.576,0.48c-3.368,1.009-7.082,6.527-6.73,8.086
				c0.14,0.623,0.875,1.176,1.333,1.591c4.331,3.94,4.165,4.101,10.57,8.085c3.968,2.469,8.13,1.599,12.08-0.714
				c3.826-2.238,2.209-3.469,2.049-6.456l-1.042-1.753c-0.92-0.345-1.549-1.919-0.913,0.64c0.99,3.976-1.026,5.957-4.527,7.003
				c-0.301,0.102-0.592,0.159-0.879,0.193c-4.828,0.797-11.064-2.704-13.946-7.008c-0.691-0.814-1.155-1.687-1.278-2.621
				c-0.265-0.87-0.375-1.744-0.279-2.597c0.252-0.316,0.504-0.634,0.756-0.952c0,0,0,0,0.001,0c0.494-1.081,2.459-2.107,3.51-2.597
				c0.048-0.021,0.103-0.049,0.146-0.069c0.062-0.029,0.078-0.034,0.078-0.033c2.705-1.432,5.529,0.173,8.275-0.217
				c0.001,0,0.002,0,0.003,0c2.855-1.612,4.285-5.269,8.006-5.624c2.217-0.211,3.984-1.343,5.752-2.559
				c9.281-6.381,14.334-5.63,23.294,1.129c7.254,5.474,9.357,11.924,7.472,20.383c-0.788,3.542-0.745,7.14,1.183,10.449
				c0.803,3.117,3.264,5.051,5.252,7.31c1.358,1.544,2.713,3.235,1.922,5.301c-0.664,1.737,0.046,3.3-0.145,4.925l0.001,0.001
				h-0.001c-1.685,2.937-3.955,4.709-7.598,4.084c-0.989-0.171-2.098-0.171-2.964,0.613c-2.39,0.352-4.387,2.16-6.949,1.87
				c-1.268-0.366-2.538-0.733-3.807-1.098c-3.803-3.079-6.633-7.105-10.124-10.507c1.999,4.68,4.741,8.734,9.124,11.471
				c0,0.001,0,0.001,0,0.001c-2.117,2.747-5.256,4.315-7.701,6.675c-1.541,1.489-2.918,1.575-4.411-0.006
				c-0.197-0.207-0.696-0.128-1.344-0.225c0.487,1.098,0.883,1.99,1.252,2.82c-2.378,1.453-3.582-1.42-6.11-1.295
				c2.323,2.005-0.477,3.165-0.563,4.783c2.159,0.571,2.87-1.941,4.94-1.499c3.742,0.802,6.747-1.134,9.202-3.684
				c2.541-2.643,5.519-4.526,8.773-6.069c4.83-0.529,9.848,0.058,14.354-2.405c2.882-0.708,3.872-3.011,4.642-5.501
				c1.724-5.265,0.696-9.823-3.416-13.643c-1.67-1.55-2.396-3.732-3.534-5.636c-0.704-3.97-0.612-7.344,4.638-8.041
				c1.451-0.194,2.756-1.484,4.127-2.27c3.095-1.536,4.161-4.434,5.138-7.457C337.116,295.688,336.038,294.687,333.493,294.689z
				 M332.64,302.298c-0.572,0.732-1.201,1.254-1.6,1.6c-0.401,0.347-0.694,0.989-0.995,1.006c-7.039,2.225-6.635,2.207-6.975-5.031
				c-0.231-4.902,1.827-4.146,4.755-2.995h0.001c3.795-0.243,4.501,0.615,3.437,4.176c-0.287,1.168-1.879,1.972-1.461,3.329
				c0.393-0.971,2.267-2.983,2.251-3.264c1.224-1.726,2.013-3.36-0.889-4.202c-0.473-0.033-2.07-0.682-1.479-0.317
				c-0.927-0.017-0.591-0.245-1.237-0.493c-0.047-0.014-0.092-0.025-0.139-0.037c-0.193-0.055-0.388-0.112-0.573-0.154
				c-2.094-0.957-3.401-0.603-4.729-2.584c3.157-0.385,5.327,1.72,7.914,2.229c1.233,0.171,3.085,0.254,3.409,2.13
				C334.646,299.512,333.749,300.878,332.64,302.298z"/>
		</g>
		<path fill="#FFFFFF" d="M281.999,298.908c0,0,4.299,3.835,4.243,4.269c-0.057,0.433,1.696,1.156,1.131,0
			C286.807,302.022,283.413,297.624,281.999,298.908z"/>
		<path fill="#FFFFFF" d="M288.675,300.674c-0.34-0.818-3.709-3.446-4.865-2.31c0,0,2.149,1.395,2.998,2.31
			C287.655,301.588,289.014,301.491,288.675,300.674z"/>
	</g>
</g>
<g id="XMLID_4678_">
	<g id="XMLID_4696_">
		<g id="XMLID_4697_">
			<path id="XMLID_4700_" fill="#FFFFFF" d="M307.769,439.259c-8.423,0-8.863-2.424-9.348-5.24l-6.837-44.481l0,0l-16.085,49.698
				c-0.944-0.121-2.383-0.224-4.619-0.224c-6.508,0-8.065-2.467-8.771-5.102l-13.949-43.663l0,0l-8.524,48.951
				c-1.971-0.364-5.637-0.911-9.687-0.911c-1.686,0-2.878-0.476-3.584-1.411c-0.825-1.074-0.852-2.573-0.604-3.513l0.321-1.275
				c1.714-6.805,4.564-18.165,6.616-30.062c2.713-15.858,3.41-31.795,3.41-33.499c0-0.939-0.054-1.761-0.083-2.359
				c1.32-0.518,4.179-1.42,8.24-1.42c7.46,0,9.605,5.502,9.953,6.6l16.643,50.567l1.357-4.049
				c0.054-0.191,6.049-18.025,9.164-29.137c2.392-8.539,5.821-20.179,6.636-22.948c0.815-0.36,2.749-1.009,5.718-1.009
				c0.431,0,0.89,0.01,1.348,0.037c4.848,0.322,9.302,3.994,9.724,8.048c0.165,1.486,0.312,3.106,0.467,4.928
				c0.587,6.352,1.384,15.068,3.29,27.53c2.548,16.745,5.792,28.371,6.929,32.127C313.735,438.124,310.398,439.259,307.769,439.259z
				"/>
			<path id="XMLID_4699_" fill="#FFFFFF" d="M330.37,439.544c-4.171,0-6.187-1.849-6.187-5.656c0-7.296,0.073-20.057,0.092-26.932
				c0.027-2.495,0.027-4.204,0.027-4.55c0-1.771,0-6.189-2.099-11.551c1.796-1.523,3.647-2.868,7.258-2.868
				c2.896,0,6.425,0.929,8.083,8.281l0.587,2.662l1.833-1.999c0.248-0.294,0.532-0.687,0.917-1.228
				c1.741-2.513,5.352-7.745,11.749-7.745c6.709,0,6.92,5.517,6.92,6.152c0,4.391-3.326,7.641-5.049,9.033
				c-1.412-1.639-3.438-3.288-6.288-3.288c-4.399,0-8.56,4.33-9.733,5.652l-0.366,0.411l-0.028,32.412
				C336.886,438.774,334.264,439.544,330.37,439.544z"/>
			<path id="XMLID_4698_" fill="#FFFFFF" d="M354.702,439.343c-3.235,0-5.499-1.999-5.499-4.872c0-3.461,3.464-6.389,7.589-6.389
				c2.438,0,4.756,2.149,4.756,4.409C361.549,436.344,358.552,439.343,354.702,439.343z"/>
		</g>
	</g>
</g>
</svg>
