<?xml version="1.0" encoding="utf-8"?>
<!-- Generator: Adobe Illustrator 19.0.0, SVG Export Plug-In . SVG Version: 6.00 Build 0)  -->
<svg version="1.1" id="Capa_1" xmlns="http://www.w3.org/2000/svg" xmlns:xlink="http://www.w3.org/1999/xlink" x="0px" y="0px"
	 viewBox="0 0 600 300" style="enable-background:new 0 0 600 300;" xml:space="preserve">
<style type="text/css">
	.st0{fill:#FFFFFF;}
	.st1{fill:#007934;}
	.st2{fill:#FDEC00;}
	.st3{fill:#E2231A;}
	.st4{fill:none;}
</style>
<g id="XMLID_393_">
	<g id="XMLID_444_">
		<path id="XMLID_448_" class="st0" d="M586.4,113.4c-8.8-11.7-22.3-18.4-36.9-18.6h-0.1h-0.1h-132c-11.1-20.2-26-37.3-43.4-49.8
			c-21.9-15.6-47.5-23.9-73.9-23.9c-26.5,0-52.1,8.3-74,23.9c-17.5,12.5-32.3,29.6-43.5,49.8h-132h-0.1h-0.1
			c-14.6,0.2-28,6.9-36.9,18.6c-8.6,11.4-12.3,26.7-9.9,41.9l3.4,22.2l3.4,22.3l0,0.1l0,0c4.3,27.5,25.9,51.8,50.2,56.6l0.1,0H61
			c78.7,14.8,159.1,22.3,239,22.3c79.8,0,160.3-7.5,239-22.3h0.1l0.1,0c24.3-4.8,45.9-29.1,50.2-56.6l0,0v-0.1l3.5-22.3l3.4-22.2
			C598.7,140.1,595.1,124.9,586.4,113.4z"/>
		<path id="XMLID_445_" class="st0" d="M300,282.2c-80,0-160.6-7.5-239.5-22.3c-25.7-5.1-48.3-30.6-52.9-59.3l-6.9-44.7
			c-2.5-16.1,1.3-32.4,10.5-44.5c9.4-12.4,23.7-19.6,39.1-19.8h130.6c11.2-19.9,26.2-36.9,43.5-49.3c22.4-16,48.5-24.5,75.6-24.5
			c27.1,0,53.2,8.5,75.5,24.5c17.3,12.4,32.3,29.4,43.5,49.3h130.3c15.7,0.2,30,7.4,39.4,19.8c9.2,12.1,13,28.4,10.5,44.5l-6.8,44.5
			c-4.6,28.9-27.2,54.4-52.7,59.4C460.6,274.7,380,282.2,300,282.2L300,282.2z M50.6,98.1c-13.9,0.2-26.5,6.5-34.8,17.4
			c-8.1,10.7-11.5,25-9.2,39.2l6.9,44.5c4.1,26.3,24.7,49.5,47.8,54.1c78.8,14.8,159,22.3,238.7,22.3c79.7,0,159.9-7.5,238.5-22.2
			c23.3-4.6,43.9-27.8,48-54l6.9-44.7c2.2-14.3-1.1-28.6-9.2-39.2c-8.2-10.9-20.9-17.2-34.6-17.4H415.7l-0.9-1.6
			c-10.8-19.8-25.6-36.6-42.5-48.8C350.9,32.5,326,24.4,300,24.4c-25.9,0-50.9,8.1-72.3,23.4c-17,12.1-31.7,29-42.5,48.8l-0.9,1.6
			H50.6L50.6,98.1z"/>
	</g>
	<path id="XMLID_443_" class="st1" d="M581.9,117.5c-7.7-10.2-19.6-16.1-32.4-16.3h-0.1h-0.1H414c-10.8-20.8-25.6-38.2-43.3-50.9
		c-20.9-14.9-45.4-22.9-70.7-22.9c-25.4,0-49.8,7.9-70.7,22.9c-17.7,12.6-32.5,30.1-43.3,50.9H50.6h-0.1h-0.1
		c-12.8,0.1-24.6,6.1-32.4,16.3c-7.6,10-10.7,23.4-8.6,36.7l3.4,22.2l3.4,22.3c4,25,23.5,47.1,45.5,51.5l0.1,0l0.1,0
		c78.4,14.7,158.5,22.2,238,22.2c79.5,0,159.6-7.5,238-22.2l0.1,0l0.1,0c22-4.4,41.5-26.5,45.5-51.4l3.5-22.4l3.4-22.3
		C592.6,140.9,589.5,127.5,581.9,117.5z"/>
	<path id="XMLID_442_" class="st2" d="M574.4,124.4c-5.9-7.8-15-12.3-25-12.4H408.3c-10.2-21.7-25-39.8-42.8-52.6
		c-19.3-13.8-41.9-21.1-65.4-21.1c-23.5,0-46.1,7.3-65.4,21.1C216.7,72.2,202,90.3,191.8,112H50.6c-10,0.1-19.2,4.6-25.1,12.4
		c-5.8,7.7-8.1,17.6-6.5,28l3.4,22.2L26,197c3.2,20.4,19.7,39.2,37.6,42.7c78,14.6,157.5,22,236.5,22c79,0,158.5-7.4,236.4-22
		c17.9-3.6,34.5-22.3,37.7-42.7l3.5-22.6l3.4-22C582.5,142,580.2,132.1,574.4,124.4z"/>
	<path id="XMLID_441_" class="st3" d="M569.6,128.8c-4.8-6.3-12-9.8-20.2-9.9h-145C384.1,72.7,345.2,45.2,300,45.2
		s-84.1,27.5-104.4,73.7h-145c-8.2,0.1-15.4,3.6-20.2,9.9c-4.6,6.1-6.5,14.1-5.1,22.5l6.8,44.6c2.8,17.4,17.4,34,32.6,37.1
		c77.5,14.6,156.7,21.9,235.3,21.9c78.6,0,157.8-7.3,235.3-21.9c15.2-3,29.8-19.6,32.5-37.1l6.8-44.6
		C576.1,142.9,574.3,134.9,569.6,128.8z"/>
	<g id="XMLID_410_">
		<g id="XMLID_439_">
			<path id="XMLID_440_" class="st4" d="M336.8,103.8c0,0,8.7,0.8,8.7-5.6c0-4.9-5.7-6.7-8.5-6.7c-4.3-0.2-10.8,5.7-11.6,6.3
				C325.3,97.7,330.4,103.7,336.8,103.8z"/>
		</g>
		<path id="XMLID_438_" class="st4" d="M336.8,103.8c0,0,8.7,0.8,8.7-5.6c0-4.9-5.7-6.7-8.5-6.7c-4.3-0.2-10.8,5.7-11.6,6.3
			C325.3,97.7,330.4,103.7,336.8,103.8z"/>
		<g id="XMLID_436_">
			<path id="XMLID_437_" class="st4" d="M263.2,103.8c0,0-8.7,0.8-8.7-5.6c0-4.9,5.7-6.7,8.5-6.7c4.4-0.2,10.8,5.7,11.6,6.3
				C274.7,97.7,269.6,103.7,263.2,103.8z"/>
		</g>
		<g id="XMLID_411_">
			<path id="XMLID_423_" class="st4" d="M263.2,103.8c0,0-8.7,0.8-8.7-5.6c0-4.9,5.7-6.7,8.5-6.7c4.4-0.2,10.8,5.7,11.6,6.3
				C274.7,97.7,269.6,103.7,263.2,103.8z"/>
			<g id="XMLID_412_">
				<path id="XMLID_422_" class="st4" d="M336.8,103.8c0,0,8.7,0.8,8.7-5.6c0-4.9-5.7-6.7-8.5-6.7c-4.4-0.2-10.8,5.7-11.7,6.3
					C325.4,97.7,330.5,103.7,336.8,103.8z"/>
				<path id="XMLID_421_" class="st4" d="M254.5,98.2c0,6.4,8.7,5.6,8.7,5.6c6.4-0.1,11.5-6.1,11.5-6.1c-0.8-0.6-7.3-6.5-11.7-6.3
					C260.2,91.5,254.5,93.3,254.5,98.2z"/>
				<polygon id="XMLID_420_" class="st4" points="300,83.2 284.5,96.5 300,106.6 315.5,96.5 				"/>
				<polygon id="XMLID_419_" class="st4" points="305,72 300,67.9 295,72 300,76.3 				"/>
				<path id="XMLID_413_" class="st0" d="M346,116.1c-6.5,1.4-13.9,1-13.9,1c-4.6,0-16.6-2.7-23.1-7.5l12.2-8.8
					c0,0,6.9,5.8,15.4,6.8c0,0,12.7,0.9,13.1-9c0.3-7.8-8.2-10.7-12.7-10.9c-7-0.2-14.8,4.8-16,5.7l-16.4-14l7.9-7.2L300,62
					l-12.6,10.3l7.9,7.2l-16.4,14c-1.3-0.9-9-6-16-5.7c-4.5,0.2-13,3-12.7,10.9c0.4,9.9,13.1,9,13.1,9c8.5-1.1,15.5-6.8,15.5-6.8
					l12.1,8.8c-6.5,4.8-18.5,7.5-23.1,7.5c0,0-7.3,0.4-13.8-1c-7.8-1.7-16.8-6.4-16.7-6.3c7.3,7.3,15.6,14.5,30.5,14.2
					c16.8-0.3,30.3-8.4,32.2-9.5c1.8,1.1,15.4,9.2,32.1,9.5c14.9,0.3,23.3-6.9,30.5-14.2C362.8,109.7,353.8,114.4,346,116.1z
					 M337,91.4c2.8,0.1,8.5,1.8,8.5,6.7c0,6.4-8.7,5.6-8.7,5.6c-6.4-0.1-11.5-6.1-11.5-6.1C326.2,97.2,332.6,91.3,337,91.4z
					 M263.2,103.8c0,0-8.7,0.8-8.7-5.6c0-4.9,5.7-6.7,8.5-6.7c4.4-0.2,10.8,5.7,11.7,6.3C274.6,97.7,269.5,103.7,263.2,103.8z
					 M295,72l5-4.1l5,4.1l-5,4.4L295,72z M284.5,96.5L300,83.2l15.5,13.3L300,106.6L284.5,96.5z"/>
			</g>
		</g>
	</g>
	<g id="XMLID_394_">
		<path id="XMLID_409_" class="st0" d="M117.1,182.1l0.5-1.3h-16.9l0.9,1.2c2.1,3,3.8,5.4,3.8,14.6c0,0,0,5.4,0,6.3
			c-2.6,1.1-4.8,1.9-9.7,1.9c-14,0-23.3-9.5-23.3-23.5c0-15.4,10.4-23.4,20.6-23.4c8.3,0,14.7,3.5,18.5,5.5l1,0.5v-12.1l-0.6-0.1
			c-3.7-0.9-8.3-2-15.5-2c-12.9,0-20.5,3.1-27,11.2c-4.8,6-7.6,14.1-7.6,22.3c0,14.8,8.8,30.6,33.5,30.6c11,0,17-2.4,21.1-4.1
			l0.6-0.3l-0.2-0.7c-1.1-4.1-1.1-5.2-1.1-9.3v-7.3C115.6,186.6,116.6,183.9,117.1,182.1z"/>
		<path id="XMLID_408_" class="st0" d="M172.6,196.3v-33.1c0-8.1,0.6-9.9,1.6-12.4l0.3-1h-1h-13.9l0.5,1.1
			c2.1,4.5,2.1,11.1,2.1,13.9v24.5c0,3.9-0.2,4.9-0.5,6c-1.7,5.8-7.3,10.3-13,10.3c-3.5,0-10.2-2-13.1-9.3c-0.8-2.2-1.1-4.4-1.1-8.2
			v-22.6c0-8.7,0.6-10.7,1.9-14.6l0.3-1h-14.8l0.4,1.1c1,2.5,1.8,4.7,1.8,13.9v24.5c0,15,7.9,24.6,20.2,24.6c8,0,14.5-3.7,18.3-6.2
			c0,1-0.1,2.1-0.4,4.7l-0.1,0.8h14.1l-0.2-0.9c-0.2-1-2.2-1.9-2.4-2.8C172.6,203.3,172.6,200,172.6,196.3z"/>
		<path id="XMLID_407_" class="st0" d="M204.2,178.2c-7.2-4.3-12.5-7.4-12.5-13c0-4.4,3.8-7.7,8.8-7.7c5.2,0,8.5,2.7,11.1,4.8
			l1.1,0.9v-11.9L212,151c-2.9-1.2-6.9-2.9-12.3-2.9c-10.3,0-18.8,8.6-18.8,19.1c0,10.1,5.4,13.6,18.6,22.1c1.8,1.2,4.8,3.8,4.8,7.7
			c0,3.9-3.4,8.1-8.4,8.1c-5.2,0-8.6-4-11.3-7.3l-1.4-1.6v16l0.5,0.1c2.8,0.8,5.8,1.7,10.7,1.7c12.8,0,21.4-7.6,21.4-18.9
			C215.8,188,212.4,183.1,204.2,178.2z"/>
		<path id="XMLID_406_" class="st0" d="M255.5,149.8h-34.3l-2,12.5l1.4-0.5c11.1-4.1,14.7-4.3,18.3-4.2c0,1.4,0,39.6,0,39.6
			c0,7.4-0.8,11.9-1.7,15.8l-0.2,0.9h14.2l-0.3-1c-1.1-4.2-1.6-9-1.6-14.8c0,0,0-39.1,0-40.5c6.4,0,12.3,0.7,18.5,3.3l0.6,0.2
			l-2.5-11.3H255.5z"/>
		<path id="XMLID_403_" class="st0" d="M325.4,213.5l-2.7-1.2c-2.1-2.9-4.9-7-9.3-16.7l-20.6-45.9h-0.4h-0.9l-23.3,48.1
			c-5.1,10.4-6.8,12.5-8.6,14.7l-2.9,1.3h20.7l-0.1-0.8c0-0.3-1.9-0.6-1.9-0.9c0-4.6,2.2-9.6,3-11.4c0,0,2.5-5.5,2.8-6.3
			c0.8,0,19.3,0,20.2,0c0.3,0.8,3.3,7.9,3.3,7.9c1.8,4.1,2.2,6.9,2.4,9.2c0,0.5-1.8,0.9-1.8,1.4v0.8L325.4,213.5z M300.4,188.7
			c-2.4,0-15.2,0-17.8,0c1.1-2.5,7.8-17.2,9.3-20.4C293.3,171.5,299.4,186.2,300.4,188.7z"/>
		<path id="XMLID_400_" class="st0" d="M369.9,163.9c-9-11.9-21.7-13.5-34.2-13.5l-5.4,0.2l-1.8,0.2l0.5,2c0.8,3,2.1,8,2.1,15.4
			v26.4c0,11.5-1.2,15-2.4,18.7l-0.4,1H344c20.8,0,32-16.2,32-31.4C376.1,178.1,375,170.8,369.9,163.9z M364.7,181.9
			c0,10.1-5.8,22.3-21.9,24.3c-0.4-4.4-0.4-6.8-0.4-13.4v-24.6c0-2.8,0-6.8,0.4-10.4C363,161.1,364.7,177,364.7,181.9z"/>
		<path id="XMLID_399_" class="st0" d="M395.6,196.3v-28.8c0-9.1,1.1-12.4,2.1-16l0.4-1.3h-1h-14.7l0.4,1.1
			c1.4,3.5,2.3,7.2,2.3,14.6v29.8c0,10.3-1.1,13.8-2.3,17.6l-0.3,1l1,0.1h14.5l-0.2-1C396.1,206.8,395.6,203.3,395.6,196.3z"/>
		<path id="XMLID_398_" class="st0" d="M465.4,213.3c-0.9-2.5-2-5.8-2-15.3v-33.6c0-6.4,0.7-9.6,1.5-13.2l0.2-1h-1h-12.5l0.3,1
			c0.9,3.4,1.6,6.2,1.6,17.8c0,0,0,22.7,0,26.3c-2.3-3-26-34.2-26-34.2c-4.6-6.1-5.2-7.6-6.3-10.3l-0.1-0.5l-0.5-0.1h-16.5l1.7,1.4
			c3.5,2.9,5.1,4.4,7.9,8.1c0,0.6,0,37.3,0,37.3c0,1-0.1,9.8-2,16.3l-0.3,1h14.8l-0.4-1.1c-2.2-6-2.4-15.4-2.4-18.1c0,0,0-19,0-22.6
			c2.3,3,24.5,32.4,24.5,32.4c2.1,2.7,4,5.6,5,8.8l0.1,0.5h12.7L465.4,213.3z"/>
		<path id="XMLID_395_" class="st0" d="M538.3,214.3l-0.9-1.2c-2.3-3.1-5-6.9-9.4-16.7l-20.7-46h-0.4h-0.9l-23.6,48.2
			c-5.1,10.4-6.9,12.5-8.8,14.7l-3,1.3h21l-0.1-0.8c0-0.3-1.9-0.6-1.9-0.9c0-4.6,2.3-9.6,3-11.4c0,0,2.6-5.6,2.9-6.3
			c0.9,0,19.6,0,20.4,0c0.3,0.8,3.4,7.9,3.4,7.9c1.7,4,2.3,6.7,2.4,9c0,0.5-1.8,1.1-1.8,1.7v0.7L538.3,214.3z M514.8,189.4
			c-2.5,0-15.5,0-18,0c1.1-2.5,7.9-17.2,9.4-20.4C507.6,172.2,513.8,186.9,514.8,189.4z"/>
	</g>
</g>
</svg>
