<?xml version="1.0" encoding="utf-8"?>
<!-- Generator: Adobe Illustrator 19.0.0, SVG Export Plug-In . SVG Version: 6.00 Build 0)  -->
<svg version="1.1" id="Capa_1" xmlns="http://www.w3.org/2000/svg" xmlns:xlink="http://www.w3.org/1999/xlink" x="0px" y="0px"
	 viewBox="-5 247 600 300" style="enable-background:new -5 247 600 300;" xml:space="preserve">
<style type="text/css">
	.st0{fill:#FFFFFF;}
	.st1{fill:#EF4900;}
	.st2{fill:#EA4600;}
	.st3{fill:#EB4600;}
	.st4{fill:#EC4700;}
	.st5{fill:#ED4700;}
	.st6{fill:#EE4800;}
	.st7{fill:#EF4800;}
	.st8{fill:#F04900;}
	.st9{fill:#F14900;}
	.st10{fill:#F24A00;}
	.st11{fill:#F34A00;}
	.st12{fill:#F44B00;}
	.st13{fill:#F54C00;}
	.st14{fill:#F64C00;}
	.st15{fill:#F74D00;}
	.st16{fill:#F84D00;}
	.st17{fill:#F94E00;}
	.st18{fill:#FA4E00;}
	.st19{fill:#FB4F00;}
	.st20{fill:#FC4F00;}
	.st21{fill:#FD4F00;}
	.st22{fill:#FE5000;}
	.st23{fill:#FF5000;}
	.st24{fill:#E05103;}
	.st25{fill:#E05204;}
	.st26{fill:#E05205;}
	.st27{fill:#E05306;}
	.st28{fill:#E05407;}
	.st29{fill:#E15408;}
	.st30{fill:#E15509;}
	.st31{fill:#E1560A;}
	.st32{fill:#E1570B;}
	.st33{fill:#E1570C;}
	.st34{fill:#E1580D;}
	.st35{fill:#E1590E;}
	.st36{fill:#E1590F;}
	.st37{fill:#E25A10;}
	.st38{fill:#E25B11;}
	.st39{fill:#E25B12;}
	.st40{fill:#E25C13;}
	.st41{fill:#E25D14;}
	.st42{fill:#E25D15;}
	.st43{fill:#E25E16;}
	.st44{fill:#E25F17;}
	.st45{fill:#E36018;}
	.st46{fill:#E36019;}
	.st47{fill:#E3611A;}
	.st48{fill:#E3621B;}
	.st49{fill:#E3621C;}
	.st50{fill:#E3631D;}
	.st51{fill:#E3641E;}
	.st52{fill:#E3641F;}
	.st53{fill:#E46520;}
	.st54{fill:#E46621;}
	.st55{fill:#E46622;}
	.st56{fill:#E46723;}
	.st57{fill:#E46824;}
	.st58{fill:#E46825;}
	.st59{fill:#E46926;}
	.st60{fill:#E46A27;}
	.st61{fill:#E56B28;}
	.st62{fill:#E56B29;}
	.st63{fill:#E56C2A;}
	.st64{fill:#E56D2B;}
	.st65{fill:#E56D2C;}
	.st66{fill:#E56E2D;}
	.st67{fill:#E56F2E;}
	.st68{fill:#E56F2F;}
	.st69{fill:#E67030;}
	.st70{fill:#E67131;}
	.st71{fill:#E67132;}
	.st72{fill:#E67233;}
	.st73{fill:#E67334;}
	.st74{fill:#E67435;}
	.st75{fill:#E67436;}
	.st76{fill:#E67537;}
	.st77{fill:#E77638;}
	.st78{fill:#E77639;}
	.st79{fill:#E7773A;}
	.st80{fill:#E7783B;}
	.st81{fill:#E7783C;}
	.st82{fill:#E7793D;}
	.st83{fill:#E77A3E;}
	.st84{fill:#E77A3F;}
	.st85{fill:#E87B40;}
	.st86{fill:#E87C41;}
	.st87{fill:#E87D42;}
	.st88{fill:#E87D43;}
	.st89{fill:#E87E44;}
	.st90{fill:#E87F45;}
	.st91{fill:#E87F46;}
	.st92{fill:#E88047;}
	.st93{fill:#E88148;}
	.st94{fill:#E98149;}
	.st95{fill:#E9824A;}
	.st96{fill:#E9834B;}
	.st97{fill:#E9834C;}
	.st98{fill:#E9844D;}
	.st99{fill:#E9854E;}
	.st100{fill:#E9854F;}
	.st101{fill:#E98650;}
	.st102{fill:#EA8751;}
	.st103{fill:#EA8852;}
	.st104{fill:#EA8853;}
	.st105{fill:#EA8954;}
	.st106{fill:#EA8A55;}
	.st107{fill:#EA8A56;}
	.st108{fill:#EA8B57;}
	.st109{fill:#EA8C58;}
	.st110{fill:#EB8C59;}
	.st111{fill:#EB8D5A;}
	.st112{fill:#EB8E5B;}
	.st113{fill:#EB8E5C;}
	.st114{fill:#EB8F5D;}
	.st115{fill:#EB905E;}
	.st116{fill:#EB915F;}
	.st117{fill:#EB9160;}
	.st118{fill:#EC9261;}
	.st119{fill:#EC9362;}
	.st120{fill:#EC9363;}
	.st121{fill:#EC9464;}
	.st122{fill:#EC9565;}
	.st123{fill:#EC9566;}
	.st124{fill:#EC9667;}
	.st125{fill:#EC9768;}
	.st126{fill:#ED9769;}
	.st127{fill:#ED986A;}
	.st128{fill:#ED996B;}
	.st129{fill:#ED9A6C;}
	.st130{fill:#ED9A6D;}
	.st131{fill:#ED9B6E;}
	.st132{fill:#ED9C6F;}
	.st133{fill:#ED9C70;}
	.st134{fill:#EE9D71;}
	.st135{fill:#EE9E72;}
	.st136{fill:#EE9E73;}
	.st137{fill:#EE9F74;}
	.st138{fill:#EEA075;}
	.st139{fill:#EEA076;}
	.st140{fill:#EEA177;}
	.st141{fill:#EEA278;}
	.st142{fill:#EFA279;}
	.st143{fill:#EFA37A;}
	.st144{fill:#EFA47B;}
	.st145{fill:#EFA57C;}
	.st146{fill:#EFA57D;}
	.st147{fill:#EFA67E;}
	.st148{fill:#EFA77F;}
	.st149{fill:#EFA780;}
	.st150{fill:#F0A881;}
	.st151{fill:#F0A982;}
	.st152{fill:#F0A983;}
	.st153{fill:#F0AA84;}
	.st154{fill:#F0AB85;}
	.st155{fill:#F0AB86;}
	.st156{fill:#F0AC87;}
	.st157{fill:#F0AD88;}
	.st158{fill:#F0AE89;}
	.st159{fill:#F1AE8A;}
	.st160{fill:#F1AF8B;}
	.st161{fill:#F1B08C;}
	.st162{fill:#F1B08D;}
	.st163{fill:#F1B18E;}
	.st164{fill:#F1B28F;}
	.st165{fill:#F1B290;}
	.st166{fill:#F1B391;}
	.st167{fill:#F2B492;}
	.st168{fill:#F2B493;}
	.st169{fill:#F2B594;}
	.st170{fill:#F2B695;}
	.st171{fill:#F2B696;}
	.st172{fill:#F2B797;}
	.st173{fill:#F2B898;}
	.st174{fill:#F2B999;}
	.st175{fill:#F3B99A;}
	.st176{fill:#F3BA9B;}
	.st177{fill:#F3BB9C;}
	.st178{fill:#F3BB9D;}
	.st179{fill:#F3BC9E;}
	.st180{fill:#F3BD9F;}
	.st181{fill:#F3BDA0;}
	.st182{fill:#F3BEA1;}
	.st183{fill:#F4BFA2;}
	.st184{fill:#F4BFA3;}
	.st185{fill:#F4C0A4;}
	.st186{fill:#F4C1A5;}
	.st187{fill:#F4C2A6;}
	.st188{fill:#F4C2A7;}
	.st189{fill:#F4C3A8;}
	.st190{fill:#F4C4A9;}
	.st191{fill:#F5C4AA;}
	.st192{fill:#F5C5AB;}
	.st193{fill:#F5C6AC;}
	.st194{fill:#F5C6AD;}
	.st195{fill:#F5C7AE;}
	.st196{fill:#F5C8AF;}
	.st197{fill:#F5C8B0;}
	.st198{fill:#F5C9B1;}
	.st199{fill:#F6CAB2;}
	.st200{fill:#F6CBB3;}
	.st201{fill:#F6CBB4;}
	.st202{fill:#F6CCB5;}
	.st203{fill:#F6CDB6;}
	.st204{fill:#F6CDB7;}
	.st205{fill:#F6CEB8;}
	.st206{fill:#F6CFB9;}
	.st207{fill:#F7CFBA;}
	.st208{fill:#F7D0BB;}
	.st209{fill:#F7D1BC;}
	.st210{fill:#F7D1BD;}
	.st211{fill:#F7D2BE;}
	.st212{fill:#F7D3BF;}
	.st213{fill:#F7D3C0;}
	.st214{fill:#F7D4C1;}
	.st215{fill:#F7D5C2;}
	.st216{fill:#F8D6C3;}
	.st217{fill:#F8D6C4;}
	.st218{fill:#F8D7C5;}
	.st219{fill:#F8D8C6;}
	.st220{fill:#F8D8C7;}
	.st221{fill:#F8D9C8;}
	.st222{fill:#F8DAC9;}
	.st223{fill:#F8DACA;}
	.st224{fill:#F9DBCB;}
	.st225{fill:#F9DCCC;}
	.st226{fill:#F9DCCD;}
	.st227{fill:#F9DDCE;}
	.st228{fill:#F9DECF;}
	.st229{fill:#F9DFD0;}
	.st230{fill:#F9DFD1;}
	.st231{fill:#F9E0D2;}
	.st232{fill:#FAE1D3;}
	.st233{fill:#FAE1D4;}
	.st234{fill:#FAE2D5;}
	.st235{fill:#FAE3D6;}
	.st236{fill:#FAE3D7;}
	.st237{fill:#FAE4D8;}
	.st238{fill:#FAE5D9;}
	.st239{fill:#FAE5DA;}
	.st240{fill:#FBE6DB;}
	.st241{fill:#FBE7DC;}
	.st242{fill:#FBE8DD;}
	.st243{fill:#FBE8DE;}
	.st244{fill:#FBE9DF;}
	.st245{fill:#FBEAE0;}
	.st246{fill:#FBEAE1;}
	.st247{fill:#FBEBE2;}
	.st248{fill:#FCECE3;}
	.st249{fill:#FCECE4;}
	.st250{fill:#FCEDE5;}
	.st251{fill:#FCEEE6;}
	.st252{fill:#FCEEE7;}
	.st253{fill:#FCEFE8;}
	.st254{fill:#FCF0E9;}
	.st255{fill:#FCF0EA;}
	.st256{fill:#FDF1EB;}
	.st257{fill:#FDF2EC;}
	.st258{fill:#FDF3ED;}
	.st259{fill:#FDF3EE;}
	.st260{fill:#FDF4EF;}
	.st261{fill:#FDF5F0;}
	.st262{fill:#FDF5F1;}
	.st263{fill:#FDF6F2;}
	.st264{fill:#FEF7F3;}
	.st265{fill:#FEF7F4;}
	.st266{fill:#FEF8F5;}
	.st267{fill:#FEF9F6;}
	.st268{fill:#FEF9F7;}
	.st269{fill:#FEFAF8;}
	.st270{fill:#FEFBF9;}
	.st271{fill:#FEFCFA;}
	.st272{fill:#FFFCFB;}
	.st273{fill:#FFFDFC;}
	.st274{fill:#FFFEFD;}
	.st275{fill:#FFFEFE;}
	.st276{fill:#B73204;}
</style>
<g>
	<path class="st0" d="M360.8,282.7c-24.2-24.2-46-36.5-64.9-36.4c-37.2,0.1-77.6,47.8-98.4,76.2c-25.9,35.4-52.1,84.5-52.2,114.3
		c0,27,10.1,51.3,29.2,70.5c26.9,27.1,68.9,41.4,121.4,41.3c44.8,0,82.6-10.7,109.4-30.9c26.6-20.1,41.2-48.8,41.2-80.8
		C446.5,397.8,401.3,323.2,360.8,282.7z"/>
	<path class="st1" d="M358.4,288c-23.2-23.2-44.1-34.9-62.3-34.9c-35.6,0.1-74.4,45.8-94.3,73.1c-24.8,34-50,81-50.1,109.6
		c0,25.8,9.7,49.2,28,67.6c25.8,25.9,66.1,39.6,116.4,39.6c42.9,0,79.2-10.3,104.9-29.7c25.5-19.3,39.5-46.8,39.5-77.4
		C440.5,398.4,397.1,326.8,358.4,288z"/>
	<g>
		<path class="st2" d="M355.7,291.8c-22.3-22.3-42.4-33.6-59.8-33.5c-34.2,0.1-71.5,44-90.6,70.2c-23.9,32.6-48,77.8-48.1,105.2
			c0,24.8,9.3,47.3,26.9,64.9c24.8,24.9,63.5,38.1,111.8,38.1c41.3,0,76.1-9.9,100.8-28.5c24.5-18.5,37.9-44.9,37.9-74.4
			C434.6,397.8,393,329.1,355.7,291.8z"/>
		<path class="st3" d="M355.5,292.2c-22.2-22.2-42.2-33.5-59.6-33.4c-34.1,0.1-71.2,43.8-90.3,69.9c-23.8,32.5-47.8,77.6-47.9,104.9
			c0,24.7,9.3,47.1,26.8,64.7c24.7,24.8,63.2,37.9,111.4,37.9c41.1,0,75.8-9.8,100.4-28.4c24.4-18.4,37.8-44.7,37.8-74.1
			C434.1,397.8,392.6,329.4,355.5,292.2z"/>
		<path class="st4" d="M355.3,292.5c-22.1-22.1-42.1-33.3-59.4-33.3c-34,0.1-70.9,43.7-90,69.7c-23.7,32.4-47.6,77.3-47.7,104.5
			c0,24.6,9.2,46.9,26.7,64.5c24.6,24.7,63,37.8,111,37.8c41,0,75.5-9.8,100-28.3c24.3-18.4,37.7-44.6,37.7-73.9
			C433.6,397.8,392.3,329.6,355.3,292.5z"/>
		<path class="st5" d="M355.1,292.9c-22-22.1-41.9-33.2-59.2-33.2c-33.9,0.1-70.7,43.5-89.6,69.4c-23.6,32.3-47.5,77-47.6,104.1
			c0,24.6,9.2,46.8,26.6,64.2c24.5,24.6,62.8,37.7,110.6,37.7c40.8,0,75.3-9.7,99.7-28.2c24.2-18.3,37.5-44.4,37.5-73.6
			C433.1,397.8,391.9,329.8,355.1,292.9z"/>
		<path class="st6" d="M354.9,293.3c-21.9-22-41.8-33.1-58.9-33c-33.7,0.1-70.4,43.4-89.3,69.2c-23.5,32.2-47.3,76.7-47.4,103.7
			c0,24.5,9.2,46.6,26.5,64c24.5,24.6,62.5,37.5,110.2,37.5c40.7,0,75-9.7,99.3-28.1c24.1-18.2,37.4-44.3,37.4-73.3
			C432.6,397.8,391.6,330.1,354.9,293.3z"/>
		<path class="st7" d="M354.6,293.7c-21.9-21.9-41.6-33-58.7-32.9c-33.6,0.1-70.2,43.2-89,68.9c-23.4,32.1-47.1,76.4-47.2,103.4
			c0,24.4,9.1,46.4,26.4,63.8c24.4,24.5,62.3,37.4,109.8,37.4c40.5,0,74.7-9.7,99-28c24-18.2,37.2-44.1,37.2-73.1
			C432.1,397.8,391.2,330.3,354.6,293.7z"/>
		<path class="st8" d="M354.4,294.1c-21.8-21.8-41.5-32.9-58.5-32.8c-33.5,0.1-69.9,43.1-88.7,68.7c-23.4,31.9-47,76.2-47,103
			c0,24.3,9.1,46.3,26.3,63.6c24.3,24.4,62.1,37.3,109.4,37.3c40.4,0,74.5-9.6,98.6-27.9c23.9-18.1,37.1-43.9,37.1-72.8
			C431.7,397.8,390.9,330.6,354.4,294.1z"/>
		<path class="st9" d="M354.2,294.4c-21.7-21.7-41.3-32.7-58.3-32.7c-33.4,0.1-69.7,42.9-88.3,68.4c-23.3,31.8-46.8,75.9-46.9,102.6
			c0,24.2,9.1,46.1,26.2,63.3c24.2,24.3,61.9,37.1,109,37.1c40.2,0,74.2-9.6,98.2-27.8c23.8-18,37-43.8,37-72.5
			C431.2,397.8,390.5,330.8,354.2,294.4z"/>
		<path class="st10" d="M354,294.8c-21.6-21.7-41.2-32.6-58.1-32.6c-33.2,0.1-69.4,42.7-88,68.2c-23.2,31.7-46.6,75.6-46.7,102.2
			c0,24.1,9,45.9,26.1,63.1c24.1,24.2,61.6,37,108.6,37c40.1,0,73.9-9.6,97.9-27.7c23.8-18,36.8-43.6,36.8-72.3
			C430.7,397.8,390.2,331.1,354,294.8z"/>
		<path class="st11" d="M353.8,295.2c-21.5-21.6-41-32.5-57.9-32.4c-33.1,0.1-69.2,42.6-87.7,67.9c-23.1,31.6-46.4,75.3-46.5,101.9
			c0,24,9,45.8,26,62.9c24,24.1,61.4,36.9,108.2,36.8c39.9,0,73.6-9.5,97.5-27.6c23.7-17.9,36.7-43.5,36.7-72
			C430.2,397.8,389.8,331.3,353.8,295.2z"/>
		<path class="st12" d="M353.6,295.6c-21.5-21.5-40.9-32.4-57.7-32.3c-33,0.1-68.9,42.4-87.4,67.7c-23,31.5-46.3,75.1-46.4,101.5
			c0,23.9,9,45.6,25.9,62.6c23.9,24,61.2,36.7,107.8,36.7c39.8,0,73.4-9.5,97.2-27.5c23.6-17.8,36.6-43.3,36.6-71.7
			C429.7,397.8,389.5,331.6,353.6,295.6z"/>
		<path class="st12" d="M353.4,295.9c-21.4-21.4-40.7-32.3-57.4-32.2c-32.9,0.1-68.6,42.3-87,67.4c-22.9,31.4-46.1,74.8-46.2,101.1
			c0,23.8,8.9,45.4,25.9,62.4c23.8,23.9,61,36.6,107.4,36.6c39.6,0,73.1-9.5,96.8-27.4c23.5-17.8,36.4-43.1,36.4-71.5
			C429.2,397.8,389.1,331.8,353.4,295.9z"/>
		<path class="st13" d="M353.1,296.3c-21.3-21.3-40.6-32.1-57.2-32.1c-32.7,0.1-68.4,42.1-86.7,67.2c-22.8,31.2-45.9,74.5-46,100.7
			c0,23.8,8.9,45.3,25.8,62.2c23.7,23.8,60.7,36.4,107,36.4c39.5,0,72.8-9.4,96.4-27.3c23.4-17.7,36.3-43,36.3-71.2
			C428.7,397.8,388.8,332,353.1,296.3z"/>
		<path class="st14" d="M352.9,296.7c-21.2-21.3-40.4-32-57-32c-32.6,0.1-68.1,42-86.4,66.9c-22.8,31.1-45.8,74.2-45.8,100.4
			c0,23.7,8.9,45.1,25.7,61.9c23.7,23.8,60.5,36.3,106.6,36.3c39.3,0,72.5-9.4,96.1-27.2c23.3-17.6,36.2-42.8,36.2-70.9
			C428.2,397.8,388.5,332.3,352.9,296.7z"/>
		<path class="st15" d="M352.7,297.1c-21.1-21.2-40.2-31.9-56.8-31.8c-32.5,0.1-67.9,41.8-86.1,66.7c-22.7,31-45.6,73.9-45.7,100
			c0,23.6,8.8,44.9,25.6,61.7c23.6,23.7,60.3,36.2,106.2,36.2c39.2,0,72.3-9.4,95.7-27.1c23.2-17.6,36-42.7,36-70.7
			C427.7,397.8,388.1,332.5,352.7,297.1z"/>
		<path class="st16" d="M352.5,297.5c-21.1-21.1-40.1-31.8-56.6-31.7c-32.4,0.1-67.6,41.6-85.7,66.4c-22.6,30.9-45.4,73.7-45.5,99.6
			c0,23.5,8.8,44.7,25.5,61.5c23.5,23.6,60.1,36,105.8,36c39,0,72-9.3,95.3-27c23.1-17.5,35.9-42.5,35.9-70.4
			C427.2,397.8,387.8,332.8,352.5,297.5z"/>
		<path class="st17" d="M352.3,297.8c-21-21-39.9-31.7-56.4-31.6c-32.3,0.1-67.4,41.5-85.4,66.2c-22.5,30.8-45.2,73.4-45.3,99.2
			c0,23.4,8.8,44.6,25.4,61.2c23.4,23.5,59.8,35.9,105.4,35.9c38.9,0,71.7-9.3,95-26.9c23.1-17.4,35.8-42.3,35.8-70.1
			C426.7,397.8,387.4,333,352.3,297.8z"/>
		<path class="st18" d="M352.1,298.2c-20.9-20.9-39.8-31.5-56.2-31.5c-32.1,0.1-67.1,41.3-85.1,65.9c-22.4,30.7-45.1,73.1-45.2,98.8
			c0,23.3,8.7,44.4,25.3,61c23.3,23.4,59.6,35.8,105,35.8c38.7,0,71.5-9.3,94.6-26.8c23-17.4,35.6-42.2,35.6-69.9
			C426.2,397.8,387.1,333.3,352.1,298.2z"/>
		<path class="st19" d="M351.9,298.6c-20.8-20.9-39.6-31.4-55.9-31.4c-32,0.1-66.9,41.2-84.8,65.7c-22.3,30.5-44.9,72.8-45,98.5
			c0,23.2,8.7,44.2,25.2,60.8c23.2,23.3,59.4,35.6,104.6,35.6c38.6,0,71.2-9.2,94.3-26.7c22.9-17.3,35.5-42,35.5-69.6
			C425.7,397.8,386.7,333.5,351.9,298.6z"/>
		<path class="st20" d="M351.6,299c-20.7-20.8-39.5-31.3-55.7-31.2c-31.9,0.1-66.6,41-84.4,65.4c-22.3,30.4-44.7,72.5-44.8,98.1
			c0,23.1,8.7,44.1,25.1,60.5c23.1,23.2,59.1,35.5,104.2,35.5c38.4,0,70.9-9.2,93.9-26.6c22.8-17.2,35.3-41.9,35.3-69.3
			C425.2,397.8,386.4,333.8,351.6,299z"/>
		<path class="st21" d="M351.4,299.3c-20.7-20.7-39.3-31.2-55.5-31.1c-31.8,0.1-66.3,40.9-84.1,65.2c-22.2,30.3-44.6,72.3-44.6,97.7
			c0,23.1,8.6,43.9,25,60.3c23,23.1,58.9,35.4,103.8,35.3c38.3,0,70.6-9.1,93.5-26.4c22.7-17.2,35.2-41.7,35.2-69.1
			C424.7,397.8,386,334,351.4,299.3z"/>
		<path class="st22" d="M351.2,299.7c-20.6-20.6-39.2-31.1-55.3-31c-31.6,0.1-66.1,40.7-83.8,64.9c-22.1,30.2-44.4,72-44.5,97.3
			c0,23,8.6,43.7,24.9,60.1c22.9,23,58.7,35.2,103.4,35.2c38.2,0,70.4-9.1,93.2-26.3c22.6-17.1,35.1-41.5,35.1-68.8
			C424.2,397.8,385.7,334.2,351.2,299.7z"/>
		<path class="st23" d="M351,300.1c-20.5-20.5-39-30.9-55.1-30.9c-31.5,0.1-65.8,40.5-83.5,64.7c-22,30.1-44.2,71.7-44.3,97
			c0,22.9,8.6,43.6,24.8,59.8c22.9,23,58.5,35.1,103,35.1c38,0,70.1-9.1,92.8-26.2c22.5-17,34.9-41.4,34.9-68.5
			C423.7,397.8,385.3,334.5,351,300.1z"/>
	</g>
	<g>
		<path class="st24" d="M186,433.3c0,44.2,6.4,56.7,6.4,56.7s-21.3-19-21.4-52c0-1.6,0.1-3.3,0.2-5c4.4-51.2,74.2-134.3,74.2-134.3
			S186,388.6,186,433.3z"/>
		<path class="st25" d="M192.4,489.9c0,0-21.3-18.9-21.3-51.9c0-1.6,0-3.3,0.2-5c3.8-51.2,74.1-134.2,74.1-134.2
			S186,388.6,186,433.3C186,477.5,192.4,489.9,192.4,489.9z"/>
		<path class="st26" d="M192.4,489.9c0,0-21.2-18.9-21.3-51.9c0-1.6,0-3.3,0.2-5c3.7-51.1,73.9-134,73.9-134S186,388.7,186,433.3
			C186,477.4,192.4,489.9,192.4,489.9z"/>
		<path class="st27" d="M192.4,489.8c0,0-21.2-18.9-21.2-51.8c0-1.6,0-3.3,0.2-5C175,382,245,299.2,245,299.2S186,388.7,186,433.4
			C186,477.4,192.4,489.8,192.4,489.8z"/>
		<path class="st28" d="M192.3,489.7c0,0-21.1-18.8-21.2-51.7c0-1.6,0-3.3,0.2-5c3.7-51,73.6-133.6,73.6-133.6s-59,89.4-59,133.9
			C185.9,477.3,192.3,489.7,192.3,489.7z"/>
		<path class="st29" d="M192.3,489.7c0,0-21.1-18.8-21.1-51.7c0-1.6,0-3.3,0.2-4.9c3.7-50.9,73.5-133.4,73.5-133.4
			s-58.9,89.2-58.9,133.8C185.9,477.3,192.3,489.7,192.3,489.7z"/>
		<path class="st30" d="M192.3,489.6c0,0-21-18.8-21.1-51.6c0-1.6,0-3.3,0.2-4.9c3.7-50.9,73.3-133.3,73.3-133.3
			s-58.8,89.1-58.8,133.6C185.9,477.2,192.3,489.6,192.3,489.6z"/>
		<path class="st31" d="M192.2,489.6c0,0-20.9-18.7-21-51.5c0-1.6,0-3.3,0.2-4.9C175,382.3,244.5,300,244.5,300
			s-58.7,88.9-58.7,133.4C185.9,477.2,192.2,489.6,192.2,489.6z"/>
		<path class="st32" d="M192.2,489.5c0,0-20.9-18.7-21-51.5c0-1.6,0-3.3,0.2-4.9c3.6-50.7,73-132.9,73-132.9s-58.6,88.8-58.6,133.2
			C185.8,477.2,192.2,489.5,192.2,489.5z"/>
		<path class="st33" d="M192.2,489.4c0,0-20.8-18.7-20.9-51.4c0-1.6,0-3.3,0.2-4.9c3.6-50.7,72.9-132.7,72.9-132.7
			s-58.5,88.6-58.5,133C185.8,477.1,192.2,489.4,192.2,489.4z"/>
		<path class="st34" d="M192.2,489.4c0,0-20.8-18.6-20.9-51.3c0-1.6,0-3.3,0.2-4.9c3.6-50.6,72.7-132.6,72.7-132.6
			s-58.4,88.5-58.4,132.9C185.8,477.1,192.2,489.4,192.2,489.4z"/>
		<path class="st35" d="M192.1,489.3c0,0-20.7-18.6-20.8-51.3c0-1.6,0-3.2,0.2-4.9c3.6-50.5,72.6-132.4,72.6-132.4
			s-58.2,88.4-58.2,132.7C185.8,477,192.1,489.3,192.1,489.3z"/>
		<path class="st36" d="M192.1,489.3c0,0-20.7-18.6-20.8-51.2c0-1.6,0-3.2,0.2-4.9c3.6-50.5,72.4-132.2,72.4-132.2
			s-58.1,88.2-58.1,132.5C185.8,477,192.1,489.3,192.1,489.3z"/>
		<path class="st37" d="M192.1,489.2c0,0-20.6-18.5-20.7-51.1c0-1.6,0-3.2,0.2-4.9c3.6-50.4,72.3-132,72.3-132s-58,88.1-58,132.3
			C185.7,476.9,192.1,489.2,192.1,489.2z"/>
		<path class="st38" d="M192,489.1c0,0-20.6-18.5-20.7-51.1c0-1.6,0-3.2,0.2-4.9c3.5-50.3,72.1-131.9,72.1-131.9
			s-57.9,87.9-57.9,132.2C185.7,476.9,192,489.1,192,489.1z"/>
		<path class="st39" d="M192,489.1c0,0-20.5-18.5-20.6-51c0-1.6,0-3.2,0.2-4.9c3.5-50.3,72-131.7,72-131.7s-57.8,87.8-57.8,132
			C185.7,476.8,192,489.1,192,489.1z"/>
		<path class="st40" d="M192,489c0,0-20.5-18.4-20.6-50.9c0-1.6,0-3.2,0.2-4.8c3.5-50.2,71.8-131.5,71.8-131.5
			s-57.7,87.6-57.7,131.8C185.7,476.8,192,489,192,489z"/>
		<path class="st41" d="M192,489c0,0-20.4-18.4-20.5-50.9c0-1.6,0-3.2,0.2-4.8c3.5-50.1,71.7-131.3,71.7-131.3
			s-57.6,87.5-57.6,131.6C185.6,476.8,192,489,192,489z"/>
		<path class="st42" d="M191.9,488.9c0,0-20.3-18.4-20.5-50.8c0-1.6,0-3.2,0.2-4.8c3.5-50.1,71.5-131.2,71.5-131.2
			s-57.5,87.4-57.5,131.4C185.6,476.7,191.9,488.9,191.9,488.9z"/>
		<path class="st43" d="M191.9,488.8c0,0-20.3-18.3-20.4-50.7c0-1.6,0-3.2,0.2-4.8c3.5-50,71.4-131,71.4-131s-57.4,87.2-57.4,131.3
			C185.6,476.7,191.9,488.8,191.9,488.8z"/>
		<path class="st44" d="M191.9,488.8c0,0-20.2-18.3-20.4-50.7c0-1.6,0-3.2,0.1-4.8c3.5-49.9,71.2-130.8,71.2-130.8
			s-57.3,87.1-57.3,131.1C185.6,476.6,191.9,488.8,191.9,488.8z"/>
		<path class="st45" d="M191.8,488.7c0,0-20.2-18.3-20.3-50.6c0-1.6,0-3.2,0.1-4.8c3.4-49.9,71.1-130.6,71.1-130.6
			s-57.2,86.9-57.2,130.9C185.5,476.6,191.8,488.7,191.8,488.7z"/>
		<path class="st46" d="M191.8,488.7c0,0-20.1-18.2-20.3-50.5c0-1.5,0-3.2,0.1-4.8c3.4-49.8,70.9-130.5,70.9-130.5
			s-57.1,86.8-57.1,130.7C185.5,476.5,191.8,488.7,191.8,488.7z"/>
		<path class="st47" d="M191.8,488.6c0,0-20.1-18.2-20.2-50.5c0-1.5,0-3.2,0.1-4.8c3.4-49.8,70.8-130.3,70.8-130.3
			s-57,86.6-57,130.5C185.5,476.5,191.8,488.6,191.8,488.6z"/>
		<path class="st48" d="M191.7,488.5c0,0-20-18.2-20.2-50.4c0-1.5,0-3.2,0.1-4.8c3.4-49.7,70.6-130.1,70.6-130.1
			s-56.9,86.5-56.9,130.4C185.5,476.4,191.7,488.5,191.7,488.5z"/>
		<path class="st49" d="M191.7,488.5c0,0-20-18.1-20.1-50.3c0-1.5,0-3.2,0.1-4.8c3.4-49.6,70.5-129.9,70.5-129.9
			s-56.8,86.3-56.8,130.2C185.4,476.4,191.7,488.5,191.7,488.5z"/>
		<path class="st50" d="M191.7,488.4c0,0-19.9-18.1-20.1-50.3c0-1.5,0-3.2,0.1-4.8c3.4-49.6,70.3-129.8,70.3-129.8
			s-56.7,86.2-56.7,130C185.4,476.4,191.7,488.4,191.7,488.4z"/>
		<path class="st51" d="M191.7,488.4c0,0-19.8-18.1-20-50.2c0-1.5,0-3.1,0.1-4.7c3.3-49.5,70.2-129.6,70.2-129.6
			s-56.6,86.1-56.6,129.8C185.4,476.3,191.7,488.4,191.7,488.4z"/>
		<path class="st52" d="M191.6,488.3c0,0-19.8-18-19.9-50.1c0-1.5,0-3.1,0.1-4.7c3.3-49.4,70-129.4,70-129.4s-56.5,85.9-56.5,129.7
			C185.4,476.3,191.6,488.3,191.6,488.3z"/>
		<path class="st53" d="M191.6,488.2c0,0-19.7-18-19.9-50.1c0-1.5,0-3.1,0.1-4.7c3.3-49.4,69.9-129.2,69.9-129.2
			s-56.4,85.8-56.4,129.5C185.3,476.2,191.6,488.2,191.6,488.2z"/>
		<path class="st54" d="M191.6,488.2c0,0-19.7-18-19.8-50c0-1.5,0-3.1,0.1-4.7c3.3-49.3,69.7-129.1,69.7-129.1
			s-56.3,85.6-56.3,129.3C185.3,476.2,191.6,488.2,191.6,488.2z"/>
		<path class="st55" d="M191.5,488.1c0,0-19.6-17.9-19.8-49.9c0-1.5,0-3.1,0.1-4.7c3.3-49.2,69.6-128.9,69.6-128.9
			s-56.2,85.5-56.2,129.1C185.3,476.1,191.5,488.1,191.5,488.1z"/>
		<path class="st56" d="M191.5,488.1c0,0-19.6-17.9-19.7-49.8c0-1.5,0-3.1,0.1-4.7c3.3-49.2,69.4-128.7,69.4-128.7
			s-56.1,85.3-56.1,128.9C185.3,476.1,191.5,488.1,191.5,488.1z"/>
		<path class="st57" d="M191.5,488c0,0-19.5-17.9-19.7-49.8c0-1.5,0-3.1,0.1-4.7c3.2-49.1,69.3-128.5,69.3-128.5
			s-55.9,85.2-55.9,128.8C185.2,476.1,191.5,488,191.5,488z"/>
		<path class="st58" d="M191.5,487.9c0,0-19.5-17.8-19.6-49.7c0-1.5,0-3.1,0.1-4.7c3.2-49,69.1-128.4,69.1-128.4
			s-55.8,85.1-55.8,128.6C185.2,476,191.5,487.9,191.5,487.9z"/>
		<path class="st59" d="M191.4,487.9c0,0-19.4-17.8-19.6-49.6c0-1.5,0-3.1,0.1-4.7c3.2-49,69-128.2,69-128.2s-55.7,84.9-55.7,128.4
			C185.2,476,191.4,487.9,191.4,487.9z"/>
		<path class="st60" d="M191.4,487.8c0,0-19.3-17.8-19.5-49.6c0-1.5,0-3.1,0.1-4.7c3.2-48.9,68.8-128,68.8-128
			s-55.6,84.8-55.6,128.2C185.2,475.9,191.4,487.8,191.4,487.8z"/>
		<path class="st61" d="M191.4,487.8c0,0-19.3-17.7-19.5-49.5c0-1.5,0-3.1,0.1-4.7c3.2-48.8,68.7-127.8,68.7-127.8
			s-55.5,84.6-55.5,128C185.2,475.9,191.4,487.8,191.4,487.8z"/>
		<path class="st62" d="M191.3,487.7c0,0-19.2-17.7-19.4-49.4c0-1.5,0-3.1,0.1-4.6c3.2-48.8,68.5-127.7,68.5-127.7
			s-55.4,84.5-55.4,127.9C185.1,475.8,191.3,487.7,191.3,487.7z"/>
		<path class="st63" d="M191.3,487.6c0,0-19.2-17.7-19.4-49.4c0-1.5,0-3.1,0.1-4.6c3.1-48.7,68.4-127.5,68.4-127.5
			s-55.3,84.3-55.3,127.7C185.1,475.8,191.3,487.6,191.3,487.6z"/>
		<path class="st64" d="M191.3,487.6c0,0-19.1-17.6-19.3-49.3c0-1.5,0-3.1,0.1-4.6c3.1-48.6,68.2-127.3,68.2-127.3
			s-55.2,84.2-55.2,127.5C185.1,475.7,191.3,487.6,191.3,487.6z"/>
		<path class="st65" d="M191.2,487.5c0,0-19.1-17.6-19.3-49.2c0-1.5,0-3.1,0.1-4.6c3.1-48.6,68.1-127.1,68.1-127.1
			s-55.1,84.1-55.1,127.3C185.1,475.7,191.2,487.5,191.2,487.5z"/>
		<path class="st66" d="M191.2,487.5c0,0-19-17.6-19.2-49.2c0-1.5,0-3.1,0.1-4.6c3.1-48.5,67.9-126.9,67.9-126.9s-55,83.9-55,127.2
			C185,475.7,191.2,487.5,191.2,487.5z"/>
		<path class="st67" d="M191.2,487.4c0,0-19-17.5-19.2-49.1c0-1.5,0-3,0.1-4.6c3.1-48.4,67.8-126.8,67.8-126.8s-54.9,83.8-54.9,127
			C185,475.6,191.2,487.4,191.2,487.4z"/>
		<path class="st68" d="M191.2,487.3c0,0-18.9-17.5-19.1-49c0-1.5,0-3,0.1-4.6c3.1-48.4,67.6-126.6,67.6-126.6S185,390.7,185,433.9
			C185,475.6,191.2,487.3,191.2,487.3z"/>
		<path class="st69" d="M191.1,487.3c0,0-18.9-17.5-19.1-49c0-1.5,0-3,0.1-4.6c3-48.3,67.5-126.4,67.5-126.4S185,390.8,185,433.9
			C185,475.5,191.1,487.3,191.1,487.3z"/>
		<path class="st70" d="M191.1,487.2c0,0-18.8-17.4-19-48.9c0-1.5,0-3,0.1-4.6c3-48.3,67.3-126.2,67.3-126.2s-54.6,83.3-54.6,126.4
			C184.9,475.5,191.1,487.2,191.1,487.2z"/>
		<path class="st71" d="M191.1,487.2c0,0-18.7-17.4-19-48.8c0-1.5,0-3,0.1-4.6c3-48.2,67.2-126.1,67.2-126.1s-54.5,83.2-54.5,126.3
			C184.9,475.4,191.1,487.2,191.1,487.2z"/>
		<path class="st72" d="M191,487.1c0,0-18.7-17.4-18.9-48.8c0-1.5,0-3,0.1-4.6c3-48.1,67-125.9,67-125.9s-54.4,83-54.4,126.1
			C184.9,475.4,191,487.1,191,487.1z"/>
		<path class="st73" d="M191,487c0,0-18.6-17.3-18.9-48.7c0-1.5,0-3,0.1-4.5c3-48.1,66.9-125.7,66.9-125.7S184.9,391,184.9,434
			C184.9,475.4,191,487,191,487z"/>
		<path class="st74" d="M191,487c0,0-18.6-17.3-18.8-48.6c0-1.5,0-3,0.1-4.5c3-48,66.7-125.5,66.7-125.5S184.8,391,184.8,434
			C184.8,475.3,191,487,191,487z"/>
		<path class="st75" d="M191,486.9c0,0-18.5-17.3-18.8-48.6c0-1.5,0-3,0.1-4.5c2.9-47.9,66.6-125.4,66.6-125.4
			s-54.1,82.6-54.1,125.6C184.8,475.3,191,486.9,191,486.9z"/>
		<path class="st76" d="M190.9,486.9c0,0-18.5-17.2-18.7-48.5c0-1.5,0-3,0.1-4.5c2.9-47.9,66.4-125.2,66.4-125.2s-54,82.5-54,125.4
			C184.8,475.2,190.9,486.9,190.9,486.9z"/>
		<path class="st77" d="M190.9,486.8c0,0-18.4-17.2-18.7-48.4c0-1.5,0-3,0.1-4.5c2.9-47.8,66.3-125,66.3-125s-53.9,82.3-53.9,125.2
			C184.8,475.2,190.9,486.8,190.9,486.8z"/>
		<path class="st78" d="M190.9,486.7c0,0-18.4-17.2-18.6-48.4c0-1.5,0-3,0.1-4.5c2.9-47.7,66.1-124.8,66.1-124.8
			s-53.8,82.2-53.8,125C184.7,475.1,190.9,486.7,190.9,486.7z"/>
		<path class="st79" d="M190.8,486.7c0,0-18.3-17.1-18.6-48.3c0-1.5,0-3,0.1-4.5c2.9-47.7,66-124.7,66-124.7s-53.6,82-53.6,124.8
			C184.7,475.1,190.8,486.7,190.8,486.7z"/>
		<path class="st80" d="M190.8,486.6c0,0-18.2-17.1-18.5-48.2c0-1.4,0-3,0.1-4.5c2.9-47.6,65.8-124.5,65.8-124.5
			s-53.5,81.9-53.5,124.7C184.7,475,190.8,486.6,190.8,486.6z"/>
		<path class="st81" d="M190.8,486.6c0,0-18.2-17.1-18.5-48.2c0-1.4,0-3,0.1-4.5c2.8-47.5,65.7-124.3,65.7-124.3
			s-53.4,81.8-53.4,124.5C184.7,475,190.8,486.6,190.8,486.6z"/>
		<path class="st82" d="M190.7,486.5c0,0-18.1-17-18.4-48.1c0-1.4,0-3,0.1-4.5c2.8-47.5,65.5-124.1,65.5-124.1
			s-53.3,81.6-53.3,124.3C184.6,475,190.7,486.5,190.7,486.5z"/>
		<path class="st83" d="M190.7,486.4c0,0-18.1-17-18.3-48c0-1.4,0-3,0.1-4.5c2.8-47.4,65.4-124,65.4-124s-53.2,81.5-53.2,124.1
			C184.6,474.9,190.7,486.4,190.7,486.4z"/>
		<path class="st84" d="M190.7,486.4c0,0-18-17-18.3-48c0-1.4,0-2.9,0.1-4.4c2.8-47.3,65.2-123.8,65.2-123.8s-53.1,81.3-53.1,123.9
			C184.6,474.9,190.7,486.4,190.7,486.4z"/>
		<path class="st85" d="M190.7,486.3c0,0-18-16.9-18.2-47.9c0-1.4,0-2.9,0.1-4.4c2.8-47.3,65.1-123.6,65.1-123.6s-53,81.2-53,123.8
			C184.6,474.8,190.7,486.3,190.7,486.3z"/>
		<path class="st86" d="M190.6,486.3c0,0-17.9-16.9-18.2-47.8c0-1.4,0-2.9,0.1-4.4c2.8-47.2,64.9-123.4,64.9-123.4
			s-52.9,81-52.9,123.6C184.5,474.8,190.6,486.3,190.6,486.3z"/>
		<path class="st87" d="M190.6,486.2c0,0-17.9-16.9-18.1-47.8c0-1.4,0-2.9,0.1-4.4c2.7-47.1,64.8-123.3,64.8-123.3
			s-52.8,80.9-52.8,123.4C184.5,474.7,190.6,486.2,190.6,486.2z"/>
		<path class="st88" d="M190.6,486.1c0,0-17.8-16.8-18.1-47.7c0-1.4,0-2.9,0.1-4.4C175.3,387,237.2,311,237.2,311
			s-52.7,80.8-52.7,123.2C184.5,474.7,190.6,486.1,190.6,486.1z"/>
		<path class="st89" d="M190.5,486.1c0,0-17.8-16.8-18-47.6c0-1.4,0-2.9,0.1-4.4c2.7-47,64.5-122.9,64.5-122.9
			s-52.6,80.6-52.6,123.1C184.5,474.7,190.5,486.1,190.5,486.1z"/>
		<path class="st90" d="M190.5,486c0,0-17.7-16.8-18-47.5c0-1.4,0-2.9,0.1-4.4c2.7-46.9,64.3-122.7,64.3-122.7
			s-52.5,80.5-52.5,122.9C184.5,474.6,190.5,486,190.5,486z"/>
		<path class="st91" d="M190.5,486c0,0-17.6-16.7-17.9-47.5c0-1.4,0-2.9,0.1-4.4c2.7-46.9,64.2-122.6,64.2-122.6
			s-52.4,80.3-52.4,122.7C184.4,474.6,190.5,486,190.5,486z"/>
		<path class="st92" d="M190.5,485.9c0,0-17.6-16.7-17.9-47.4c0-1.4,0-2.9,0.1-4.4c2.7-46.8,64-122.4,64-122.4
			s-52.3,80.2-52.3,122.5C184.4,474.5,190.5,485.9,190.5,485.9z"/>
		<path class="st93" d="M190.4,485.8c0,0-17.5-16.7-17.8-47.3c0-1.4,0-2.9,0.1-4.4c2.6-46.7,63.9-122.2,63.9-122.2
			s-52.2,80-52.2,122.3C184.4,474.5,190.4,485.8,190.4,485.8z"/>
		<path class="st94" d="M190.4,485.8c0,0-17.5-16.6-17.8-47.3c0-1.4,0-2.9,0.1-4.4c2.6-46.7,63.7-122,63.7-122
			s-52.1,79.9-52.1,122.2C184.4,474.4,190.4,485.8,190.4,485.8z"/>
		<path class="st95" d="M190.4,485.7c0,0-17.4-16.6-17.7-47.2c0-1.4,0-2.9,0.1-4.3c2.6-46.6,63.6-121.9,63.6-121.9s-52,79.7-52,122
			C184.3,474.4,190.4,485.7,190.4,485.7z"/>
		<path class="st96" d="M190.3,485.7c0,0-17.4-16.6-17.7-47.1c0-1.4,0-2.9,0.1-4.3c2.6-46.6,63.4-121.7,63.4-121.7
			s-51.9,79.6-51.9,121.8C184.3,474.3,190.3,485.7,190.3,485.7z"/>
		<path class="st97" d="M190.3,485.6c0,0-17.3-16.5-17.6-47.1c0-1.4,0-2.9,0.1-4.3c2.6-46.5,63.3-121.5,63.3-121.5
			s-51.8,79.5-51.8,121.6C184.3,474.3,190.3,485.6,190.3,485.6z"/>
		<path class="st98" d="M190.3,485.5c0,0-17.3-16.5-17.6-47c0-1.4,0-2.9,0.1-4.3c2.6-46.4,63.1-121.3,63.1-121.3
			s-51.7,79.3-51.7,121.4C184.3,474.3,190.3,485.5,190.3,485.5z"/>
		<path class="st99" d="M190.3,485.5c0,0-17.2-16.5-17.5-46.9c0-1.4,0-2.9,0.1-4.3c2.6-46.4,63-121.2,63-121.2
			s-51.6,79.2-51.6,121.3C184.2,474.2,190.3,485.5,190.3,485.5z"/>
		<path class="st100" d="M190.2,485.4c0,0-17.1-16.4-17.5-46.9c0-1.4,0-2.8,0.1-4.3c2.5-46.3,62.8-121,62.8-121s-51.5,79-51.5,121.1
			C184.2,474.2,190.2,485.4,190.2,485.4z"/>
		<path class="st101" d="M190.2,485.4c0,0-17.1-16.4-17.4-46.8c0-1.4,0-2.8,0.1-4.3c2.5-46.2,62.7-120.8,62.7-120.8
			s-51.4,78.9-51.4,120.9C184.2,474.1,190.2,485.4,190.2,485.4z"/>
		<path class="st102" d="M190.2,485.3c0,0-17-16.4-17.4-46.7c0-1.4,0-2.8,0.1-4.3c2.5-46.2,62.5-120.6,62.5-120.6
			s-51.2,78.7-51.2,120.7C184.2,474.1,190.2,485.3,190.2,485.3z"/>
		<path class="st103" d="M190.1,485.2c0,0-17-16.3-17.3-46.7c0-1.4,0-2.8,0.1-4.3c2.5-46.1,62.4-120.5,62.4-120.5
			s-51.1,78.6-51.1,120.6C184.1,474,190.1,485.2,190.1,485.2z"/>
		<path class="st104" d="M190.1,485.2c0,0-16.9-16.3-17.3-46.6c0-1.4,0-2.8,0.1-4.3c2.5-46,62.2-120.3,62.2-120.3s-51,78.5-51,120.4
			C184.1,474,190.1,485.2,190.1,485.2z"/>
		<path class="st105" d="M190.1,485.1c0,0-16.9-16.3-17.2-46.5c0-1.4,0-2.8,0.1-4.3c2.5-46,62.1-120.1,62.1-120.1
			s-50.9,78.3-50.9,120.2C184.1,474,190.1,485.1,190.1,485.1z"/>
		<path class="st106" d="M190,485.1c0,0-16.8-16.2-17.2-46.5c0-1.4,0-2.8,0.1-4.2c2.4-45.9,61.9-119.9,61.9-119.9
			s-50.8,78.2-50.8,120C184.1,473.9,190,485.1,190,485.1z"/>
		<path class="st107" d="M190,485c0,0-16.8-16.2-17.1-46.4c0-1.4,0-2.8,0.1-4.2c2.4-45.8,61.8-119.7,61.8-119.7s-50.7,78-50.7,119.8
			C184,473.9,190,485,190,485z"/>
		<path class="st108" d="M190,484.9c0,0-16.7-16.2-17.1-46.3c0-1.4,0-2.8,0.1-4.2c2.4-45.8,61.6-119.6,61.6-119.6
			S184,392.7,184,434.5C184,473.8,190,484.9,190,484.9z"/>
		<path class="st109" d="M190,484.9c0,0-16.7-16.1-17-46.3c0-1.4,0-2.8,0.1-4.2c2.4-45.7,61.5-119.4,61.5-119.4S184,392.7,184,434.5
			C184,473.8,190,484.9,190,484.9z"/>
		<path class="st110" d="M189.9,484.8c0,0-16.6-16.1-17-46.2c0-1.4,0-2.8,0.1-4.2c2.4-45.6,61.3-119.2,61.3-119.2
			S184,392.8,184,434.5C184,473.7,189.9,484.8,189.9,484.8z"/>
		<path class="st111" d="M189.9,484.8c0,0-16.5-16.1-16.9-46.1c0-1.4,0-2.8,0.1-4.2c2.4-45.6,61.2-119,61.2-119
			s-50.3,77.5-50.3,119.1C183.9,473.7,189.9,484.8,189.9,484.8z"/>
		<path class="st112" d="M189.9,484.7c0,0-16.5-16-16.9-46.1c0-1.4,0-2.8,0.1-4.2c2.3-45.5,61-118.9,61-118.9s-50.2,77.3-50.2,118.9
			C183.9,473.6,189.9,484.7,189.9,484.7z"/>
		<path class="st113" d="M189.8,484.6c0,0-16.4-16-16.8-46c0-1.4,0-2.8,0.1-4.2C175.4,389,234,315.8,234,315.8
			s-50.1,77.2-50.1,118.8C183.9,473.6,189.8,484.6,189.8,484.6z"/>
		<path class="st114" d="M189.8,484.6c0,0-16.4-16-16.7-45.9c0-1.4,0-2.8,0.1-4.2c2.3-45.4,60.7-118.5,60.7-118.5s-50,77-50,118.6
			C183.9,473.6,189.8,484.6,189.8,484.6z"/>
		<path class="st115" d="M189.8,484.5c0,0-16.3-16-16.7-45.9c0-1.3,0-2.8,0.1-4.2c2.3-45.3,60.6-118.3,60.6-118.3
			s-49.9,76.9-49.9,118.4C183.9,473.5,189.8,484.5,189.8,484.5z"/>
		<path class="st116" d="M189.8,484.5c0,0-16.3-15.9-16.6-45.8c0-1.3,0-2.8,0.1-4.2c2.3-45.2,60.4-118.2,60.4-118.2
			s-49.8,76.7-49.8,118.2C183.8,473.5,189.8,484.5,189.8,484.5z"/>
		<path class="st117" d="M189.7,484.4c0,0-16.2-15.9-16.6-45.7c0-1.3,0-2.7,0.1-4.1c2.3-45.2,60.3-118,60.3-118
			s-49.7,76.6-49.7,118.1C183.8,473.4,189.7,484.4,189.7,484.4z"/>
		<path class="st118" d="M189.7,484.3c0,0-16.2-15.9-16.5-45.7c0-1.3,0-2.7,0.1-4.1c2.2-45.1,60.1-117.8,60.1-117.8
			s-49.6,76.4-49.6,117.9C183.8,473.4,189.7,484.3,189.7,484.3z"/>
		<path class="st119" d="M189.7,484.3c0,0-16.1-15.8-16.5-45.6c0-1.3,0-2.7,0.1-4.1c2.2-45.1,60-117.6,60-117.6
			s-49.5,76.3-49.5,117.7C183.8,473.3,189.7,484.3,189.7,484.3z"/>
		<path class="st120" d="M189.6,484.2c0,0-16-15.8-16.4-45.5c0-1.3,0-2.7,0.1-4.1c2.2-45,59.8-117.5,59.8-117.5
			s-49.4,76.2-49.4,117.5C183.7,473.3,189.6,484.2,189.6,484.2z"/>
		<path class="st121" d="M189.6,484.2c0,0-16-15.8-16.4-45.5c0-1.3,0-2.7,0.1-4.1c2.2-44.9,59.7-117.3,59.7-117.3
			s-49.3,76-49.3,117.3C183.7,473.3,189.6,484.2,189.6,484.2z"/>
		<path class="st122" d="M189.6,484.1c0,0-15.9-15.7-16.3-45.4c0-1.3,0-2.7,0.1-4.1c2.2-44.9,59.5-117.1,59.5-117.1
			s-49.2,75.9-49.2,117.2C183.7,473.2,189.6,484.1,189.6,484.1z"/>
		<path class="st123" d="M189.5,484c0,0-15.9-15.7-16.3-45.3c0-1.3,0-2.7,0.1-4.1c2.2-44.8,59.4-116.9,59.4-116.9
			s-49.1,75.7-49.1,117C183.7,473.2,189.5,484,189.5,484z"/>
		<path class="st124" d="M189.5,484c0,0-15.8-15.7-16.2-45.2c0-1.3,0-2.7,0.1-4.1c2.1-44.7,59.2-116.8,59.2-116.8
			s-48.9,75.6-48.9,116.8C183.6,473.1,189.5,484,189.5,484z"/>
		<path class="st125" d="M189.5,483.9c0,0-15.8-15.6-16.2-45.2c0-1.3,0-2.7,0.1-4.1c2.1-44.7,59.1-116.6,59.1-116.6
			s-48.8,75.4-48.8,116.6C183.6,473.1,189.5,483.9,189.5,483.9z"/>
		<path class="st126" d="M189.5,483.9c0,0-15.7-15.6-16.1-45.1c0-1.3,0-2.7,0.1-4.1c2.1-44.6,58.9-116.4,58.9-116.4
			s-48.7,75.3-48.7,116.4C183.6,473,189.5,483.9,189.5,483.9z"/>
		<path class="st127" d="M189.4,483.8c0,0-15.7-15.6-16.1-45c0-1.3,0-2.7,0.1-4.1c2.1-44.5,58.8-116.2,58.8-116.2
			s-48.6,75.2-48.6,116.3C183.6,473,189.4,483.8,189.4,483.8z"/>
		<path class="st128" d="M189.4,483.7c0,0-15.6-15.5-16-45c0-1.3,0-2.7,0.1-4c2.1-44.5,58.6-116.1,58.6-116.1s-48.5,75-48.5,116.1
			C183.5,472.9,189.4,483.7,189.4,483.7z"/>
		<path class="st129" d="M189.4,483.7c0,0-15.6-15.5-16-44.9c0-1.3,0-2.7,0.1-4c2.1-44.4,58.5-115.9,58.5-115.9
			s-48.4,74.9-48.4,115.9C183.5,472.9,189.4,483.7,189.4,483.7z"/>
		<path class="st130" d="M189.3,483.6c0,0-15.5-15.5-15.9-44.8c0-1.3,0-2.7,0.1-4c2-44.3,58.3-115.7,58.3-115.7
			s-48.3,74.7-48.3,115.7C183.5,472.9,189.3,483.6,189.3,483.6z"/>
		<path class="st131" d="M189.3,483.6c0,0-15.4-15.4-15.9-44.8c0-1.3,0-2.7,0.1-4c2-44.3,58.2-115.5,58.2-115.5
			s-48.2,74.6-48.2,115.6C183.5,472.8,189.3,483.6,189.3,483.6z"/>
		<path class="st132" d="M189.3,483.5c0,0-15.4-15.4-15.8-44.7c0-1.3,0-2.7,0.1-4c2-44.2,58-115.4,58-115.4s-48.1,74.4-48.1,115.4
			C183.4,472.8,189.3,483.5,189.3,483.5z"/>
		<path class="st133" d="M189.3,483.4c0,0-15.3-15.4-15.8-44.6c0-1.3,0-2.6,0.1-4c2-44.1,57.9-115.2,57.9-115.2s-48,74.3-48,115.2
			C183.4,472.7,189.3,483.4,189.3,483.4z"/>
		<path class="st134" d="M189.2,483.4c0,0-15.3-15.3-15.7-44.6c0-1.3,0-2.6,0.1-4c2-44.1,57.7-115,57.7-115s-47.9,74.2-47.9,115
			C183.4,472.7,189.2,483.4,189.2,483.4z"/>
		<path class="st135" d="M189.2,483.3c0,0-15.2-15.3-15.7-44.5c0-1.3,0-2.6,0.1-4c2-44,57.6-114.8,57.6-114.8s-47.8,74-47.8,114.8
			C183.4,472.6,189.2,483.3,189.2,483.3z"/>
		<path class="st136" d="M189.2,483.3c0,0-15.2-15.3-15.6-44.4c0-1.3,0-2.6,0.1-4c1.9-43.9,57.4-114.7,57.4-114.7
			s-47.7,73.9-47.7,114.7C183.3,472.6,189.2,483.3,189.2,483.3z"/>
		<path class="st137" d="M189.1,483.2c0,0-15.1-15.2-15.6-44.4c0-1.3,0-2.6,0.1-4c1.9-43.9,57.3-114.5,57.3-114.5
			s-47.6,73.7-47.6,114.5C183.3,472.5,189.1,483.2,189.1,483.2z"/>
		<path class="st138" d="M189.1,483.1c0,0-15.1-15.2-15.5-44.3c0-1.3,0-2.6,0.1-4c1.9-43.8,57.1-114.3,57.1-114.3
			s-47.5,73.6-47.5,114.3C183.3,472.5,189.1,483.1,189.1,483.1z"/>
		<path class="st139" d="M189.1,483.1c0,0-15-15.2-15.5-44.2c0-1.3,0-2.6,0.1-3.9c1.9-43.7,57-114.1,57-114.1s-47.4,73.4-47.4,114.1
			C183.3,472.5,189.1,483.1,189.1,483.1z"/>
		<path class="st140" d="M189,483c0,0-14.9-15.1-15.4-44.2c0-1.3,0-2.6,0.1-3.9c1.9-43.7,56.8-114,56.8-114s-47.3,73.3-47.3,114
			C183.3,472.4,189,483,189,483z"/>
		<path class="st141" d="M189,483c0,0-14.9-15.1-15.4-44.1c0-1.3,0-2.6,0.1-3.9c1.8-43.6,56.7-113.8,56.7-113.8
			s-47.2,73.1-47.2,113.8C183.2,472.4,189,483,189,483z"/>
		<path class="st142" d="M189,482.9c0,0-14.8-15.1-15.3-44c0-1.3,0-2.6,0.1-3.9c1.8-43.6,56.5-113.6,56.5-113.6s-47.1,73-47.1,113.6
			C183.2,472.3,189,482.9,189,482.9z"/>
		<path class="st143" d="M189,482.8c0,0-14.8-15-15.3-44c0-1.3,0-2.6,0.1-3.9c1.8-43.5,56.4-113.4,56.4-113.4s-47,72.9-47,113.4
			C183.2,472.3,189,482.8,189,482.8z"/>
		<path class="st144" d="M188.9,482.8c0,0-14.7-15-15.2-43.9c0-1.3,0-2.6,0.1-3.9c1.8-43.4,56.2-113.3,56.2-113.3
			s-46.9,72.7-46.9,113.2C183.2,472.2,188.9,482.8,188.9,482.8z"/>
		<path class="st145" d="M188.9,482.7c0,0-14.7-15-15.1-43.8c0-1.3,0-2.6,0.1-3.9c1.8-43.4,56.1-113.1,56.1-113.1
			s-46.8,72.6-46.8,113.1C183.1,472.2,188.9,482.7,188.9,482.7z"/>
		<path class="st146" d="M188.9,482.7c0,0-14.6-14.9-15.1-43.8c0-1.3,0-2.6,0.1-3.9c1.8-43.3,55.9-112.9,55.9-112.9
			s-46.6,72.4-46.6,112.9C183.1,472.2,188.9,482.7,188.9,482.7z"/>
		<path class="st147" d="M188.8,482.6c0,0-14.6-14.9-15-43.7c0-1.3,0-2.6,0.1-3.9c1.7-43.2,55.8-112.7,55.8-112.7
			s-46.5,72.3-46.5,112.7C183.1,472.1,188.8,482.6,188.8,482.6z"/>
		<path class="st148" d="M188.8,482.5c0,0-14.5-14.9-15-43.6c0-1.3,0-2.6,0-3.9c1.7-43.2,55.6-112.5,55.6-112.5
			s-46.4,72.1-46.4,112.5C183.1,472.1,188.8,482.5,188.8,482.5z"/>
		<path class="st149" d="M188.8,482.5c0,0-14.5-14.8-14.9-43.6c0-1.2,0-2.5,0-3.9c1.7-43.1,55.5-112.4,55.5-112.4S183,394.7,183,435
			C183,472,188.8,482.5,188.8,482.5z"/>
		<path class="st150" d="M188.8,482.4c0,0-14.4-14.8-14.9-43.5c0-1.2,0-2.5,0-3.8c1.7-43,55.3-112.2,55.3-112.2S183,394.7,183,435.1
			C183,472,188.8,482.4,188.8,482.4z"/>
		<path class="st151" d="M188.7,482.4c0,0-14.3-14.8-14.8-43.4c0-1.2,0-2.5,0-3.8c1.7-43,55.2-112,55.2-112s-46.1,71.7-46.1,112
			C183,471.9,188.7,482.4,188.7,482.4z"/>
		<path class="st152" d="M188.7,482.3c0,0-14.3-14.7-14.8-43.4c0-1.2,0-2.5,0-3.8c1.7-42.9,55-111.8,55-111.8s-46,71.6-46,111.8
			C183,471.9,188.7,482.3,188.7,482.3z"/>
		<path class="st153" d="M188.7,482.2c0,0-14.2-14.7-14.7-43.3c0-1.2,0-2.5,0-3.8c1.6-42.8,54.9-111.7,54.9-111.7
			s-45.9,71.4-45.9,111.6C182.9,471.8,188.7,482.2,188.7,482.2z"/>
		<path class="st154" d="M188.6,482.2c0,0-14.2-14.7-14.7-43.2c0-1.2,0-2.5,0-3.8c1.6-42.8,54.7-111.5,54.7-111.5
			s-45.8,71.3-45.8,111.5C182.9,471.8,188.6,482.2,188.6,482.2z"/>
		<path class="st155" d="M188.6,482.1c0,0-14.1-14.6-14.6-43.2c0-1.2,0-2.5,0-3.8c1.6-42.7,54.6-111.3,54.6-111.3
			s-45.7,71.1-45.7,111.3C182.9,471.8,188.6,482.1,188.6,482.1z"/>
		<path class="st156" d="M188.6,482.1c0,0-14.1-14.6-14.6-43.1c0-1.2,0-2.5,0-3.8c1.6-42.6,54.4-111.1,54.4-111.1
			s-45.6,71-45.6,111.1C182.9,471.7,188.6,482.1,188.6,482.1z"/>
		<path class="st157" d="M188.5,482c0,0-14-14.6-14.5-43c0-1.2,0-2.5,0-3.8c1.6-42.6,54.3-111,54.3-111s-45.5,70.9-45.5,110.9
			C182.8,471.7,188.5,482,188.5,482z"/>
		<path class="st158" d="M188.5,481.9c0,0-14-14.5-14.5-42.9c0-1.2,0-2.5,0-3.8c1.6-42.5,54.1-110.8,54.1-110.8
			s-45.4,70.7-45.4,110.7C182.8,471.6,188.5,481.9,188.5,481.9z"/>
		<path class="st159" d="M188.5,481.9c0,0-13.9-14.5-14.4-42.9c0-1.2,0-2.5,0-3.8c1.5-42.4,54-110.6,54-110.6s-45.3,70.6-45.3,110.6
			C182.8,471.6,188.5,481.9,188.5,481.9z"/>
		<path class="st160" d="M188.5,481.8c0,0-13.8-14.5-14.4-42.8c0-1.2,0-2.5,0-3.8c1.5-42.4,53.8-110.4,53.8-110.4
			s-45.2,70.4-45.2,110.4C182.8,471.5,188.5,481.8,188.5,481.8z"/>
		<path class="st161" d="M188.4,481.8c0,0-13.8-14.4-14.3-42.7c0-1.2,0-2.5,0-3.7C175.7,393,227.8,325,227.8,325
			s-45.1,70.3-45.1,110.2C182.7,471.5,188.4,481.8,188.4,481.8z"/>
		<path class="st162" d="M188.4,481.7c0,0-13.7-14.4-14.3-42.7c0-1.2,0-2.5,0-3.7c1.5-42.2,53.5-110.1,53.5-110.1s-45,70.1-45,110
			C182.7,471.5,188.4,481.7,188.4,481.7z"/>
		<path class="st163" d="M188.4,481.6c0,0-13.7-14.4-14.2-42.6c0-1.2,0-2.5,0-3.7c1.5-42.2,53.4-109.9,53.4-109.9
			s-44.9,70-44.9,109.8C182.7,471.4,188.4,481.6,188.4,481.6z"/>
		<path class="st164" d="M188.3,481.6c0,0-13.6-14.3-14.2-42.5c0-1.2,0-2.5,0-3.7c1.5-42.1,53.2-109.7,53.2-109.7
			s-44.8,69.8-44.8,109.7C182.7,471.4,188.3,481.6,188.3,481.6z"/>
		<path class="st165" d="M188.3,481.5c0,0-13.6-14.3-14.1-42.5c0-1.2,0-2.5,0-3.7c1.4-42.1,53.1-109.6,53.1-109.6
			s-44.7,69.7-44.7,109.5C182.7,471.3,188.3,481.5,188.3,481.5z"/>
		<path class="st166" d="M188.3,481.5c0,0-13.5-14.3-14.1-42.4c0-1.2,0-2.4,0-3.7c1.4-42,52.9-109.4,52.9-109.4
			s-44.6,69.6-44.6,109.3C182.6,471.3,188.3,481.5,188.3,481.5z"/>
		<path class="st167" d="M188.3,481.4c0,0-13.5-14.2-14-42.3c0-1.2,0-2.4,0-3.7c1.4-41.9,52.8-109.2,52.8-109.2
			s-44.5,69.4-44.5,109.1C182.6,471.2,188.3,481.4,188.3,481.4z"/>
		<path class="st168" d="M188.2,481.3c0,0-13.4-14.2-14-42.3c0-1.2,0-2.4,0-3.7c1.4-41.9,52.6-109,52.6-109s-44.4,69.3-44.4,109
			C182.6,471.2,188.2,481.3,188.2,481.3z"/>
		<path class="st169" d="M188.2,481.3c0,0-13.4-14.2-13.9-42.2c0-1.2,0-2.4,0-3.7c1.4-41.8,52.5-108.9,52.5-108.9
			s-44.2,69.1-44.2,108.8C182.6,471.1,188.2,481.3,188.2,481.3z"/>
		<path class="st170" d="M188.2,481.2c0,0-13.3-14.1-13.9-42.1c0-1.2,0-2.4,0-3.7c1.4-41.7,52.3-108.7,52.3-108.7
			s-44.1,69-44.1,108.6C182.5,471.1,188.2,481.2,188.2,481.2z"/>
		<path class="st171" d="M188.1,481.2c0,0-13.2-14.1-13.8-42.1c0-1.2,0-2.4,0-3.7c1.3-41.7,52.2-108.5,52.2-108.5s-44,68.8-44,108.4
			C182.5,471.1,188.1,481.2,188.1,481.2z"/>
		<path class="st172" d="M188.1,481.1c0,0-13.2-14.1-13.8-42c0-1.2,0-2.4,0-3.6c1.3-41.6,52-108.3,52-108.3s-43.9,68.7-43.9,108.2
			C182.5,471,188.1,481.1,188.1,481.1z"/>
		<path class="st173" d="M188.1,481c0,0-13.1-14-13.7-41.9c0-1.2,0-2.4,0-3.6c1.3-41.5,51.9-108.2,51.9-108.2s-43.8,68.6-43.8,108.1
			C182.5,471,188.1,481,188.1,481z"/>
		<path class="st174" d="M188,481c0,0-13.1-14-13.7-41.9c0-1.2,0-2.4,0-3.6c1.3-41.5,51.7-108,51.7-108s-43.7,68.4-43.7,107.9
			C182.4,470.9,188,481,188,481z"/>
		<path class="st175" d="M188,480.9c0,0-13-14-13.6-41.8c0-1.2,0-2.4,0-3.6c1.3-41.4,51.6-107.8,51.6-107.8s-43.6,68.3-43.6,107.7
			C182.4,470.9,188,480.9,188,480.9z"/>
		<path class="st176" d="M188,480.8c0,0-13-13.9-13.5-41.7c0-1.2,0-2.4,0-3.6c1.3-41.3,51.4-107.6,51.4-107.6s-43.5,68.1-43.5,107.5
			C182.4,470.8,188,480.8,188,480.8z"/>
		<path class="st177" d="M188,480.8c0,0-12.9-13.9-13.5-41.7c0-1.2,0-2.4,0-3.6c1.2-41.3,51.3-107.5,51.3-107.5s-43.4,68-43.4,107.3
			C182.4,470.8,188,480.8,188,480.8z"/>
		<path class="st178" d="M187.9,480.7c0,0-12.9-13.9-13.4-41.6c0-1.2,0-2.4,0-3.6c1.2-41.2,51.1-107.3,51.1-107.3
			s-43.3,67.8-43.3,107.2C182.3,470.8,187.9,480.7,187.9,480.7z"/>
		<path class="st179" d="M187.9,480.7c0,0-12.8-13.8-13.4-41.5c0-1.2,0-2.4,0-3.6c1.2-41.1,51-107.1,51-107.1s-43.2,67.7-43.2,107
			C182.3,470.7,187.9,480.7,187.9,480.7z"/>
		<path class="st180" d="M187.9,480.6c0,0-12.7-13.8-13.3-41.5c0-1.2,0-2.4,0-3.6c1.2-41.1,50.8-106.9,50.8-106.9
			s-43.1,67.6-43.1,106.8C182.3,470.7,187.9,480.6,187.9,480.6z"/>
		<path class="st181" d="M187.8,480.5c0,0-12.7-13.8-13.3-41.4c0-1.2,0-2.4,0-3.6c1.2-41,50.7-106.8,50.7-106.8s-43,67.4-43,106.6
			C182.3,470.6,187.8,480.5,187.8,480.5z"/>
		<path class="st182" d="M187.8,480.5c0,0-12.6-13.7-13.2-41.3c0-1.2,0-2.3,0-3.5c1.1-40.9,50.5-106.6,50.5-106.6
			s-42.9,67.3-42.9,106.5C182.2,470.6,187.8,480.5,187.8,480.5z"/>
		<path class="st183" d="M187.8,480.4c0,0-12.6-13.7-13.2-41.3c0-1.1,0-2.3,0-3.5c1.1-40.9,50.4-106.4,50.4-106.4
			s-42.8,67.1-42.8,106.3C182.2,470.5,187.8,480.4,187.8,480.4z"/>
		<path class="st184" d="M187.8,480.4c0,0-12.5-13.7-13.1-41.2c0-1.1,0-2.3,0-3.5c1.1-40.8,50.2-106.2,50.2-106.2
			s-42.7,67-42.7,106.1C182.2,470.5,187.8,480.4,187.8,480.4z"/>
		<path class="st185" d="M187.7,480.3c0,0-12.5-13.6-13.1-41.1c0-1.1,0-2.3,0-3.5c1.1-40.7,50.1-106,50.1-106s-42.6,66.8-42.6,105.9
			C182.2,470.4,187.7,480.3,187.7,480.3z"/>
		<path class="st186" d="M187.7,480.2c0,0-12.4-13.6-13-41.1c0-1.1,0-2.3,0-3.5c1.1-40.7,49.9-105.9,49.9-105.9
			s-42.5,66.7-42.5,105.7C182.1,470.4,187.7,480.2,187.7,480.2z"/>
		<path class="st187" d="M187.7,480.2c0,0-12.4-13.6-13-41c0-1.1,0-2.3,0-3.5c1.1-40.6,49.8-105.7,49.8-105.7s-42.4,66.5-42.4,105.6
			C182.1,470.4,187.7,480.2,187.7,480.2z"/>
		<path class="st188" d="M187.6,480.1c0,0-12.3-13.5-12.9-40.9c0-1.1,0-2.3,0-3.5c1-40.6,49.6-105.5,49.6-105.5
			s-42.3,66.4-42.3,105.4C182.1,470.3,187.6,480.1,187.6,480.1z"/>
		<path class="st189" d="M187.6,480.1c0,0-12.3-13.5-12.9-40.9c0-1.1,0-2.3,0-3.5c1-40.5,49.5-105.3,49.5-105.3
			s-42.2,66.3-42.2,105.2C182.1,470.3,187.6,480.1,187.6,480.1z"/>
		<path class="st190" d="M187.6,480c0,0-12.2-13.5-12.8-40.8c0-1.1,0-2.3,0-3.5c1-40.4,49.3-105.2,49.3-105.2s-42.1,66.1-42.1,105
			C182.1,470.2,187.6,480,187.6,480z"/>
		<path class="st191" d="M187.5,479.9c0,0-12.1-13.4-12.8-40.7c0-1.1,0-2.3,0-3.5c1-40.4,49.2-105,49.2-105s-41.9,66-41.9,104.8
			C182,470.2,187.5,479.9,187.5,479.9z"/>
		<path class="st192" d="M187.5,479.9c0,0-12.1-13.4-12.7-40.6c0-1.1,0-2.3,0-3.5c1-40.3,49-104.8,49-104.8S182,396.8,182,435.6
			C182,470.1,187.5,479.9,187.5,479.9z"/>
		<path class="st193" d="M187.5,479.8c0,0-12-13.4-12.7-40.6c0-1.1,0-2.3,0-3.4c1-40.2,48.9-104.6,48.9-104.6S182,396.8,182,435.6
			C182,470.1,187.5,479.8,187.5,479.8z"/>
		<path class="st194" d="M187.5,479.8c0,0-12-13.3-12.6-40.5c0-1.1,0-2.3,0-3.4c0.9-40.2,48.7-104.5,48.7-104.5S182,396.9,182,435.7
			C182,470.1,187.5,479.8,187.5,479.8z"/>
		<path class="st195" d="M187.4,479.7c0,0-11.9-13.3-12.6-40.4c0-1.1,0-2.3,0-3.4c0.9-40.1,48.6-104.3,48.6-104.3
			s-41.5,65.4-41.5,104.1C181.9,470,187.4,479.7,187.4,479.7z"/>
		<path class="st196" d="M187.4,479.6c0,0-11.9-13.3-12.5-40.4c0-1.1,0-2.3,0-3.4c0.9-40,48.4-104.1,48.4-104.1s-41.4,65.3-41.4,104
			C181.9,470,187.4,479.6,187.4,479.6z"/>
		<path class="st197" d="M187.4,479.6c0,0-11.8-13.2-12.5-40.3c0-1.1,0-2.3,0-3.4c0.9-40,48.3-103.9,48.3-103.9
			s-41.3,65.1-41.3,103.8C181.9,469.9,187.4,479.6,187.4,479.6z"/>
		<path class="st198" d="M187.3,479.5c0,0-11.8-13.2-12.4-40.2c0-1.1,0-2.3,0-3.4c0.9-39.9,48.1-103.8,48.1-103.8
			s-41.2,65-41.2,103.6C181.9,469.9,187.3,479.5,187.3,479.5z"/>
		<path class="st199" d="M187.3,479.5c0,0-11.7-13.2-12.4-40.2c0-1.1,0-2.2,0-3.4c0.9-39.8,48-103.6,48-103.6s-41.1,64.8-41.1,103.4
			C181.8,469.8,187.3,479.5,187.3,479.5z"/>
		<path class="st200" d="M187.3,479.4c0,0-11.6-13.1-12.3-40.1c0-1.1,0-2.2,0-3.4c0.8-39.8,47.8-103.4,47.8-103.4s-41,64.7-41,103.2
			C181.8,469.8,187.3,479.4,187.3,479.4z"/>
		<path class="st201" d="M187.3,479.3c0,0-11.6-13.1-12.3-40c0-1.1,0-2.2,0-3.4c0.8-39.7,47.7-103.2,47.7-103.2
			s-40.9,64.5-40.9,103.1C181.8,469.7,187.3,479.3,187.3,479.3z"/>
		<path class="st202" d="M187.2,479.3c0,0-11.5-13.1-12.2-40c0-1.1,0-2.2,0-3.4c0.8-39.6,47.5-103.1,47.5-103.1
			s-40.8,64.4-40.8,102.9C181.8,469.7,187.2,479.3,187.2,479.3z"/>
		<path class="st203" d="M187.2,479.2c0,0-11.5-13-12.2-39.9c0-1.1,0-2.2,0-3.4c0.8-39.6,47.4-102.9,47.4-102.9
			s-40.7,64.3-40.7,102.7C181.7,469.7,187.2,479.2,187.2,479.2z"/>
		<path class="st204" d="M187.2,479.2c0,0-11.4-13-12.1-39.8c0-1.1,0-2.2,0-3.3c0.8-39.5,47.2-102.7,47.2-102.7
			s-40.6,64.1-40.6,102.5C181.7,469.6,187.2,479.2,187.2,479.2z"/>
		<path class="st205" d="M187.1,479.1c0,0-11.4-13-12.1-39.8c0-1.1,0-2.2,0-3.3c0.7-39.4,47.1-102.5,47.1-102.5s-40.5,64-40.5,102.4
			C181.7,469.6,187.1,479.1,187.1,479.1z"/>
		<path class="st206" d="M187.1,479c0,0-11.3-12.9-12-39.7c0-1.1,0-2.2,0-3.3c0.7-39.4,46.9-102.4,46.9-102.4s-40.4,63.8-40.4,102.2
			C181.7,469.5,187.1,479,187.1,479z"/>
		<path class="st207" d="M187.1,479c0,0-11.3-12.9-11.9-39.6c0-1.1,0-2.2,0-3.3c0.7-39.3,46.8-102.2,46.8-102.2s-40.3,63.7-40.3,102
			C181.6,469.5,187.1,479,187.1,479z"/>
		<path class="st208" d="M187,478.9c0,0-11.2-12.9-11.9-39.6c0-1.1,0-2.2,0-3.3c0.7-39.3,46.6-102,46.6-102s-40.2,63.5-40.2,101.8
			C181.6,469.4,187,478.9,187,478.9z"/>
		<path class="st209" d="M187,478.9c0,0-11.1-12.8-11.8-39.5c0-1.1,0-2.2,0-3.3c0.7-39.2,46.5-101.8,46.5-101.8
			s-40.1,63.4-40.1,101.6C181.6,469.4,187,478.9,187,478.9z"/>
		<path class="st210" d="M187,478.8c0,0-11.1-12.8-11.8-39.4c0-1.1,0-2.2,0-3.3c0.7-39.1,46.3-101.7,46.3-101.7s-40,63.2-40,101.5
			C181.6,469.4,187,478.8,187,478.8z"/>
		<path class="st211" d="M187,478.7c0,0-11-12.8-11.7-39.4c0-1.1,0-2.2,0-3.3c0.6-39.1,46.2-101.5,46.2-101.5s-39.9,63.1-39.9,101.3
			C181.5,469.3,187,478.7,187,478.7z"/>
		<path class="st212" d="M186.9,478.7c0,0-11-12.7-11.7-39.3c0-1.1,0-2.2,0-3.3c0.6-39,46-101.3,46-101.3s-39.8,63-39.8,101.1
			C181.5,469.3,186.9,478.7,186.9,478.7z"/>
		<path class="st213" d="M186.9,478.6c0,0-10.9-12.7-11.6-39.2c0-1.1,0-2.2,0-3.3c0.6-38.9,45.9-101.1,45.9-101.1
			s-39.6,62.8-39.6,100.9C181.5,469.2,186.9,478.6,186.9,478.6z"/>
		<path class="st214" d="M186.9,478.6c0,0-10.9-12.7-11.6-39.2c0-1.1,0-2.2,0-3.3c0.6-38.9,45.7-101,45.7-101s-39.5,62.7-39.5,100.7
			C181.5,469.2,186.9,478.6,186.9,478.6z"/>
		<path class="st215" d="M186.8,478.5c0,0-10.8-12.6-11.5-39.1c0-1.1,0-2.1,0-3.2c0.6-38.8,45.6-100.8,45.6-100.8
			s-39.4,62.5-39.4,100.6C181.5,469.1,186.8,478.5,186.8,478.5z"/>
		<path class="st216" d="M186.8,478.4c0,0-10.8-12.6-11.5-39c0-1.1,0-2.1,0-3.2c0.6-38.7,45.4-100.6,45.4-100.6S181.4,398,181.4,436
			C181.4,469.1,186.8,478.4,186.8,478.4z"/>
		<path class="st217" d="M186.8,478.4c0,0-10.7-12.6-11.4-39c0-1.1,0-2.1,0-3.2c0.5-38.7,45.3-100.4,45.3-100.4S181.4,398,181.4,436
			C181.4,469,186.8,478.4,186.8,478.4z"/>
		<path class="st218" d="M186.8,478.3c0,0-10.7-12.5-11.4-38.9c0-1,0-2.1,0-3.2c0.5-38.6,45.1-100.3,45.1-100.3s-39.1,62.1-39.1,100
			C181.4,469,186.8,478.3,186.8,478.3z"/>
		<path class="st219" d="M186.7,478.3c0,0-10.6-12.5-11.3-38.8c0-1,0-2.1,0-3.2c0.5-38.5,45-100.1,45-100.1s-39,62-39,99.9
			C181.4,469,186.7,478.3,186.7,478.3z"/>
		<path class="st220" d="M186.7,478.2c0,0-10.5-12.5-11.3-38.8c0-1,0-2.1,0-3.2c0.5-38.5,44.9-99.9,44.9-99.9s-38.9,61.8-38.9,99.7
			C181.3,468.9,186.7,478.2,186.7,478.2z"/>
		<path class="st221" d="M186.7,478.1c0,0-10.5-12.4-11.2-38.7c0-1,0-2.1,0-3.2c0.5-38.4,44.7-99.7,44.7-99.7s-38.8,61.7-38.8,99.5
			C181.3,468.9,186.7,478.1,186.7,478.1z"/>
		<path class="st222" d="M186.6,478.1c0,0-10.4-12.4-11.2-38.6c0-1,0-2.1,0-3.2c0.4-38.3,44.6-99.6,44.6-99.6s-38.7,61.5-38.7,99.3
			C181.3,468.8,186.6,478.1,186.6,478.1z"/>
		<path class="st223" d="M186.6,478c0,0-10.4-12.4-11.1-38.6c0-1,0-2.1,0-3.2c0.4-38.3,44.4-99.4,44.4-99.4s-38.6,61.4-38.6,99.1
			C181.3,468.8,186.6,478,186.6,478z"/>
		<path class="st224" d="M186.6,478c0,0-10.3-12.3-11.1-38.5c0-1,0-2.1,0-3.2c0.4-38.2,44.3-99.2,44.3-99.2s-38.5,61.2-38.5,99
			C181.2,468.7,186.6,478,186.6,478z"/>
		<path class="st225" d="M186.5,477.9c0,0-10.3-12.3-11-38.4c0-1,0-2.1,0-3.2c0.4-38.1,44.1-99,44.1-99s-38.4,61.1-38.4,98.8
			C181.2,468.7,186.5,477.9,186.5,477.9z"/>
		<path class="st226" d="M186.5,477.8c0,0-10.2-12.3-11-38.3c0-1,0-2.1,0-3.1c0.4-38.1,44-98.8,44-98.8s-38.3,60.9-38.3,98.6
			C181.2,468.6,186.5,477.8,186.5,477.8z"/>
		<path class="st227" d="M186.5,477.8c0,0-10.2-12.2-10.9-38.3c0-1,0-2.1,0-3.1c0.4-38,43.8-98.7,43.8-98.7s-38.2,60.8-38.2,98.4
			C181.2,468.6,186.5,477.8,186.5,477.8z"/>
		<path class="st228" d="M186.5,477.7c0,0-10.1-12.2-10.9-38.2c0-1,0-2.1,0-3.1c0.4-37.9,43.7-98.5,43.7-98.5s-38.1,60.7-38.1,98.2
			C181.1,468.6,186.5,477.7,186.5,477.7z"/>
		<path class="st229" d="M186.4,477.7c0,0-10-12.2-10.8-38.1c0-1,0-2.1,0-3.1c0.4-37.9,43.5-98.3,43.5-98.3s-38,60.5-38,98.1
			C181.1,468.5,186.4,477.7,186.4,477.7z"/>
		<path class="st230" d="M186.4,477.6c0,0-10-12.1-10.8-38.1c0-1,0-2.1,0-3.1c0.4-37.8,43.4-98.1,43.4-98.1s-37.9,60.4-37.9,97.9
			C181.1,468.5,186.4,477.6,186.4,477.6z"/>
		<path class="st231" d="M186.4,477.5c0,0-9.9-12.1-10.7-38c0-1,0-2,0-3.1c0.4-37.8,43.2-98,43.2-98s-37.8,60.2-37.8,97.7
			C181.1,468.4,186.4,477.5,186.4,477.5z"/>
		<path class="st232" d="M186.3,477.5c0,0-9.9-12.1-10.7-37.9c0-1,0-2,0-3.1c0.3-37.7,43.1-97.8,43.1-97.8S181,398.7,181,436.2
			C181,468.4,186.3,477.5,186.3,477.5z"/>
		<path class="st233" d="M186.3,477.4c0,0-9.8-12-10.6-37.9c0-1,0-2,0-3.1c0.3-37.6,42.9-97.6,42.9-97.6S181,398.8,181,436.2
			C181,468.3,186.3,477.4,186.3,477.4z"/>
		<path class="st234" d="M186.3,477.4c0,0-9.8-12-10.6-37.8c0-1,0-2,0-3.1c0.3-37.6,42.8-97.4,42.8-97.4S181,398.8,181,436.2
			C181,468.3,186.3,477.4,186.3,477.4z"/>
		<path class="st235" d="M186.3,477.3c0,0-9.7-12-10.5-37.7c0-1,0-2,0-3.1c0.3-37.5,42.6-97.3,42.6-97.3s-37.3,59.7-37.3,97
			C181,468.3,186.3,477.3,186.3,477.3z"/>
		<path class="st236" d="M186.2,477.2c0,0-9.7-11.9-10.5-37.7c0-1,0-2,0-3.1c0.3-37.4,42.5-97.1,42.5-97.1s-37.2,59.5-37.2,96.8
			C180.9,468.2,186.2,477.2,186.2,477.2z"/>
		<path class="st237" d="M186.2,477.2c0,0-9.6-11.9-10.4-37.6c0-1,0-2,0-3c0.2-37.4,42.3-96.9,42.3-96.9s-37.1,59.4-37.1,96.6
			C180.9,468.2,186.2,477.2,186.2,477.2z"/>
		<path class="st238" d="M186.2,477.1c0,0-9.6-11.9-10.3-37.5c0-1,0-2,0-3c0.2-37.3,42.2-96.7,42.2-96.7s-37,59.2-37,96.5
			C180.9,468.1,186.2,477.1,186.2,477.1z"/>
		<path class="st239" d="M186.1,477.1c0,0-9.5-11.8-10.3-37.5c0-1,0-2,0-3c0.2-37.2,42-96.6,42-96.6s-36.9,59.1-36.9,96.3
			C180.9,468.1,186.1,477.1,186.1,477.1z"/>
		<path class="st240" d="M186.1,477c0,0-9.4-11.8-10.2-37.4c0-1,0-2,0-3c0.2-37.2,41.9-96.4,41.9-96.4s-36.8,58.9-36.8,96.1
			C180.9,468,186.1,477,186.1,477z"/>
		<path class="st241" d="M186.1,476.9c0,0-9.4-11.8-10.2-37.3c0-1,0-2,0-3c0.2-37.1,41.7-96.2,41.7-96.2s-36.7,58.8-36.7,95.9
			C180.8,468,186.1,476.9,186.1,476.9z"/>
		<path class="st242" d="M186.1,476.9c0,0-9.3-11.7-10.1-37.3c0-1,0-2,0-3c0.1-37,41.6-96,41.6-96s-36.6,58.7-36.6,95.7
			C180.8,467.9,186.1,476.9,186.1,476.9z"/>
		<path class="st243" d="M186,476.8c0,0-9.3-11.7-10.1-37.2c0-1,0-2,0-3c0.1-37,41.4-95.9,41.4-95.9s-36.5,58.5-36.5,95.6
			C180.8,467.9,186,476.8,186,476.8z"/>
		<path class="st244" d="M186,476.8c0,0-9.2-11.7-10-37.1c0-1,0-2,0-3c0.1-36.9,41.3-95.7,41.3-95.7s-36.4,58.4-36.4,95.4
			C180.8,467.9,186,476.8,186,476.8z"/>
		<path class="st245" d="M186,476.7c0,0-9.2-11.6-10-37.1c0-1,0-2,0-3c0.1-36.8,41.1-95.5,41.1-95.5s-36.3,58.2-36.3,95.2
			C180.7,467.8,186,476.7,186,476.7z"/>
		<path class="st246" d="M185.9,476.6c0,0-9.1-11.6-9.9-37c0-1,0-2,0-3c0.1-36.8,41-95.3,41-95.3s-36.2,58.1-36.2,95
			C180.7,467.8,185.9,476.6,185.9,476.6z"/>
		<path class="st247" d="M185.9,476.6c0,0-9.1-11.6-9.9-36.9c0-1,0-2,0-3c0-36.7,40.8-95.2,40.8-95.2s-36.1,57.9-36.1,94.9
			C180.7,467.7,185.9,476.6,185.9,476.6z"/>
		<path class="st248" d="M185.9,476.5c0,0-9-11.5-9.8-36.9c0-1,0-1.9,0-2.9c0-36.6,40.7-95,40.7-95s-36,57.8-36,94.7
			C180.7,467.7,185.9,476.5,185.9,476.5z"/>
		<path class="st249" d="M185.8,476.5c0,0-8.9-11.5-9.8-36.8c0-1,0-1.9,0-2.9c0-36.6,40.5-94.8,40.5-94.8s-35.9,57.6-35.9,94.5
			C180.6,467.6,185.8,476.5,185.8,476.5z"/>
		<path class="st250" d="M185.8,476.4c0,0-8.9-11.5-9.7-36.7c0-1,0-1.9,0-2.9c0-36.5,40.4-94.6,40.4-94.6s-35.8,57.5-35.8,94.3
			C180.6,467.6,185.8,476.4,185.8,476.4z"/>
		<path class="st251" d="M185.8,476.3c0,0-8.8-11.4-9.7-36.7c0-1,0-1.9,0-2.9c0-36.5,40.2-94.5,40.2-94.5s-35.7,57.4-35.7,94.1
			C180.6,467.6,185.8,476.3,185.8,476.3z"/>
		<path class="st252" d="M185.8,476.3c0,0-8.8-11.4-9.6-36.6c0-0.9,0-1.9-0.1-2.9c-0.1-36.4,40.1-94.3,40.1-94.3s-35.6,57.2-35.6,94
			C180.6,467.5,185.8,476.3,185.8,476.3z"/>
		<path class="st253" d="M185.7,476.2c0,0-8.7-11.4-9.6-36.5c0-0.9,0-1.9-0.1-2.9c-0.1-36.3,39.9-94.1,39.9-94.1
			s-35.5,57.1-35.5,93.8C180.5,467.5,185.7,476.2,185.7,476.2z"/>
		<path class="st254" d="M185.7,476.2c0,0-8.7-11.3-9.5-36.5c0-0.9,0-1.9-0.1-2.9c-0.1-36.3,39.8-93.9,39.8-93.9
			s-35.4,56.9-35.4,93.6C180.5,467.4,185.7,476.2,185.7,476.2z"/>
		<path class="st255" d="M185.7,476.1c0,0-8.6-11.3-9.5-36.4c0-0.9,0-1.9-0.1-2.9c-0.1-36.2,39.6-93.8,39.6-93.8
			s-35.3,56.8-35.3,93.4C180.5,467.4,185.7,476.1,185.7,476.1z"/>
		<path class="st256" d="M185.6,476c0,0-8.6-11.3-9.4-36.3c0-0.9,0-1.9-0.1-2.9c-0.1-36.1,39.5-93.6,39.5-93.6s-35.2,56.6-35.2,93.2
			C180.5,467.3,185.6,476,185.6,476z"/>
		<path class="st257" d="M185.6,476c0,0-8.5-11.2-9.4-36.3c0-0.9,0-1.9-0.1-2.9c-0.2-36.1,39.3-93.4,39.3-93.4s-35.1,56.5-35.1,93.1
			C180.4,467.3,185.6,476,185.6,476z"/>
		<path class="st258" d="M185.6,475.9c0,0-8.5-11.2-9.3-36.2c0-0.9,0-1.9-0.1-2.9c-0.2-36,39.2-93.2,39.2-93.2s-34.9,56.4-34.9,92.9
			C180.4,467.2,185.6,475.9,185.6,475.9z"/>
		<path class="st259" d="M185.6,475.9c0,0-8.4-11.2-9.3-36.1c0-0.9,0-1.9-0.1-2.8c-0.2-35.9,39-93.1,39-93.1s-34.8,56.2-34.8,92.7
			C180.4,467.2,185.6,475.9,185.6,475.9z"/>
		<path class="st260" d="M185.5,475.8c0,0-8.3-11.1-9.2-36c0-0.9-0.1-1.9-0.1-2.8C176,401,215.1,344,215.1,344s-34.7,56.1-34.7,92.5
			C180.4,467.2,185.5,475.8,185.5,475.8z"/>
		<path class="st261" d="M185.5,475.7c0,0-8.3-11.1-9.2-36c0-0.9-0.1-1.9-0.1-2.8c-0.2-35.8,38.7-92.7,38.7-92.7
			s-34.6,55.9-34.6,92.4C180.3,467.1,185.5,475.7,185.5,475.7z"/>
		<path class="st262" d="M185.5,475.7c0,0-8.2-11.1-9.1-35.9c0-0.9-0.1-1.9-0.1-2.8c-0.2-35.7,38.6-92.5,38.6-92.5
			s-34.5,55.8-34.5,92.2C180.3,467.1,185.5,475.7,185.5,475.7z"/>
		<path class="st263" d="M185.4,475.6c0,0-8.2-11-9.1-35.8c0-0.9-0.1-1.9-0.1-2.8c-0.3-35.7,38.4-92.4,38.4-92.4s-34.4,55.6-34.4,92
			C180.3,467,185.4,475.6,185.4,475.6z"/>
		<path class="st264" d="M185.4,475.6c0,0-8.1-11-9-35.8c0-0.9-0.1-1.8-0.1-2.8c-0.3-35.6,38.3-92.2,38.3-92.2s-34.3,55.5-34.3,91.8
			C180.3,467,185.4,475.6,185.4,475.6z"/>
		<path class="st265" d="M185.4,475.5c0,0-8.1-11-9-35.7c0-0.9-0.1-1.8-0.1-2.8c-0.3-35.5,38.1-92,38.1-92s-34.2,55.4-34.2,91.6
			C180.3,466.9,185.4,475.5,185.4,475.5z"/>
		<path class="st266" d="M185.3,475.4c0,0-8-10.9-8.9-35.6c0-0.9-0.1-1.8-0.1-2.8c-0.3-35.5,38-91.8,38-91.8s-34.1,55.2-34.1,91.5
			C180.2,466.9,185.3,475.4,185.3,475.4z"/>
		<path class="st267" d="M185.3,475.4c0,0-8-10.9-8.9-35.6c0-0.9-0.1-1.8-0.1-2.8c-0.3-35.4,37.8-91.6,37.8-91.6s-34,55.1-34,91.3
			C180.2,466.9,185.3,475.4,185.3,475.4z"/>
		<path class="st268" d="M185.3,475.3c0,0-7.9-10.9-8.8-35.5c0-0.9-0.1-1.8-0.1-2.8c-0.4-35.3,37.7-91.5,37.7-91.5
			s-33.9,54.9-33.9,91.1C180.2,466.8,185.3,475.3,185.3,475.3z"/>
		<path class="st269" d="M185.3,475.3c0,0-7.8-10.8-8.7-35.4c0-0.9-0.1-1.8-0.1-2.8c-0.4-35.3,37.5-91.3,37.5-91.3
			s-33.8,54.8-33.8,90.9C180.2,466.8,185.3,475.3,185.3,475.3z"/>
		<path class="st270" d="M185.2,475.2c0,0-7.8-10.8-8.7-35.4c0-0.9-0.1-1.8-0.1-2.7c-0.4-35.2,37.4-91.1,37.4-91.1
			s-33.7,54.6-33.7,90.8C180.1,466.7,185.2,475.2,185.2,475.2z"/>
		<path class="st271" d="M185.2,475.1c0,0-7.7-10.8-8.6-35.3c0-0.9-0.1-1.8-0.1-2.7c-0.4-35.2,37.2-90.9,37.2-90.9
			s-33.6,54.5-33.6,90.6C180.1,466.7,185.2,475.1,185.2,475.1z"/>
		<path class="st272" d="M185.2,475.1c0,0-7.7-10.7-8.6-35.2c0-0.9-0.1-1.8-0.1-2.7c-0.4-35.1,37.1-90.8,37.1-90.8
			s-33.5,54.3-33.5,90.4C180.1,466.6,185.2,475.1,185.2,475.1z"/>
		<path class="st273" d="M185.1,475c0,0-7.6-10.7-8.5-35.2c0-0.9-0.1-1.8-0.1-2.7c-0.5-35,36.9-90.6,36.9-90.6s-33.4,54.2-33.4,90.2
			C180.1,466.6,185.1,475,185.1,475z"/>
		<path class="st274" d="M185.1,475c0,0-7.6-10.7-8.5-35.1c0-0.9-0.1-1.8-0.1-2.7c-0.5-35,36.8-90.4,36.8-90.4s-33.3,54.1-33.3,90
			C180,466.5,185.1,475,185.1,475z"/>
		<path class="st275" d="M185.1,474.9c0,0-7.5-10.6-8.4-35c0-0.9-0.1-1.8-0.1-2.7c-0.5-34.9,36.6-90.2,36.6-90.2
			S180,400.8,180,436.8C180,466.5,185.1,474.9,185.1,474.9z"/>
		<path class="st0" d="M213.1,347.1c0,0-37,55.2-36.5,90.1c0.4,26.3,8.5,37.7,8.5,37.7s-5.1-8.4-5.1-38
			C180,400.9,213.1,347.1,213.1,347.1z"/>
	</g>
</g>
<g>
	<g>
		<path class="st276" d="M240.4,456.2c10.6,0,16.9,2.9,16.9,11.3c0,8.5-6.5,15.3-16.3,15.3c-1,0-2-0.1-2.8-0.1v6.8v5.5
			c-2.4,0-6.7,0.2-7.8,0.2c-1,0-2-0.8-2-0.8v-37.1C228.4,457.2,234,456.2,240.4,456.2L240.4,456.2z M239.3,476.6
			c5.6,0,8.6-3.2,8.6-7.7c0-4-2.3-5.6-6.3-5.6c-1,0-2.4,0.1-3.6,0.2v13L239.3,476.6z"/>
		<path class="st276" d="M296.3,495c-3.3,0-7.5,0.2-8.7,0.2c-1,0-2-0.8-2-0.8l-3.4-9.4h-11.6L267,495c-2.8,0-6.1,0.2-7.2,0.2
			c-1,0-2-0.8-2-0.8l12.9-33.9c0.7-1.7,0.4-3.8,0.4-3.8c3,0,8-0.2,8.7-0.2c1,0,2,0.8,2,0.8L296.3,495z M275.9,463.8
			c-0.2,1-0.8,4.3-1.3,6.3l-2.5,8.4h8.3l-2.6-8C276.8,467.1,276.1,464.6,275.9,463.8L275.9,463.8z"/>
		<path class="st276" d="M328.7,456.4c1,0,2,0.8,2,0.8L317,495c-1.7,0-5.8,0.2-6.8,0.2c-1,0-2-0.8-2-0.8l-14-37.7
			c3.3,0,7.4-0.2,8.6-0.2c0.9,0,2,0.8,2,0.8l7.4,20.7c0.6,1.7,1,3.9,1.3,6.1c0.3-1.9,0.6-3.7,1-5.1l7.1-22.2
			C324.3,456.7,327.6,456.4,328.7,456.4L328.7,456.4z"/>
		<path class="st276" d="M373.3,475c0,12.1-8.8,20.5-20.9,20.5c-11.5,0-19.3-7.4-19.3-18.9c0-12.2,8.9-20.5,21-20.5
			C365.7,456.2,373.3,463.7,373.3,475z M343.1,474.5c0,8,4.4,13.8,11.1,13.9c5.9,0.1,9.1-4.6,9.1-11.3c0-8.4-4.8-13.9-11.2-13.9
			C346.1,463.2,343.1,468.2,343.1,474.5z"/>
		<path class="st276" d="M314.4,445.3c-8.9,0-9.3-2.4-9.8-5.3l-7.2-45l0,0l-16.9,50.2c-1-0.1-2.5-0.2-4.9-0.2
			c-6.8,0-8.5-2.5-9.2-5.2l-14.6-44.1l0,0l-9,49.5c-2.1-0.4-5.9-0.9-10.2-0.9c-1.8,0-3-0.5-3.8-1.4c-0.8-1.1-0.9-2.6-0.6-3.5
			l0.3-1.3c1.8-6.9,4.8-18.4,6.9-30.4c2.9-16,3.6-32.1,3.6-33.9c0-0.9,0-1.8-0.1-2.4c1.4-0.6,4.4-1.4,8.7-1.4
			c7.8,0,10.1,5.6,10.5,6.7l17.5,51.1l1.4-4.1c0.1-0.2,6.4-18.2,9.6-29.4c2.5-8.6,6.1-20.4,7-23.2c0.8-0.4,2.9-1,6-1
			c0.5,0,0.9,0,1.4,0c5.1,0.3,9.8,4,10.2,8.1c0.2,1.5,0.3,3.1,0.5,5c0.6,6.4,1.4,15.2,3.4,27.8c2.7,16.9,6.1,28.7,7.3,32.4
			C320.7,444.1,317.1,445.3,314.4,445.3z"/>
		<path class="st276" d="M338.1,445.6c-4.4,0-6.5-1.9-6.5-5.7c0-7.4,0.1-20.3,0.1-27.2c0-2.5,0-4.2,0-4.6c0-1.8,0-6.3-2.2-11.7
			c1.9-1.5,3.8-2.9,7.6-2.9c3,0,6.7,1,8.5,8.4l0.6,2.7l1.9-2c0.3-0.3,0.6-0.7,1-1.2c1.8-2.6,5.6-7.8,12.3-7.8c7.1,0,7.2,5.6,7.2,6.2
			c0,4.4-3.5,7.7-5.3,9.1c-1.5-1.6-3.6-3.3-6.6-3.3c-4.6,0-9,4.4-10.2,5.7l-0.4,0.4l0,32.7C345,444.8,342.2,445.6,338.1,445.6z"/>
		<path class="st276" d="M363.7,445.4c-3.4,0-5.8-2-5.8-4.9c0-3.5,3.6-6.5,7.9-6.5c2.6,0,5,2.2,5,4.5
			C370.8,442.3,367.7,445.4,363.7,445.4z"/>
	</g>
	<g>
		<g>
			<g>
				<path class="st0" d="M253.9,464.2c0,8.5-6.5,15.3-16.3,15.3c-1,0-1.9-0.1-2.8-0.1v6.8v5.5c-2.5,0-6.6,0.2-7.8,0.2
					c-1,0-2-0.8-2-0.8v-37.1c0,0,5.5-1.1,12-1.1C247.7,452.8,253.9,455.8,253.9,464.2z M235.9,473.2c5.6,0,8.6-3.1,8.6-7.7
					c0-4-2.3-5.6-6.4-5.6c-1,0-2.4,0.1-3.6,0.2v13L235.9,473.2z"/>
				<path class="st0" d="M293,491.6c-3.3,0-7.5,0.3-8.7,0.3c-1,0-2-0.8-2-0.8l-3.4-9.4h-11.6l-3.6,9.9c-2.7,0-6.1,0.3-7.2,0.3
					c-1,0-2-0.8-2-0.8l12.9-33.9c0.7-1.7,0.4-3.8,0.4-3.8c3,0,8-0.2,8.8-0.2c1,0,2,0.8,2,0.8L293,491.6z M271.2,466.7l-2.5,8.4h8.3
					l-2.6-8c-1-3.4-1.6-5.9-1.8-6.7C272.3,461.5,271.7,464.7,271.2,466.7z"/>
				<path class="st0" d="M325.4,453.1c1,0,2,0.8,2,0.8l-13.8,37.7c-1.7,0-5.8,0.3-6.9,0.3c-1,0-2-0.8-2-0.8l-14-37.7
					c3.3,0,7.4-0.2,8.6-0.2c1,0,2,0.8,2,0.8l7.4,20.7c0.6,1.6,1,3.9,1.3,6.1c0.3-1.9,0.6-3.8,1-5.1l7.1-22.3
					C320.9,453.4,324.3,453.1,325.4,453.1L325.4,453.1z"/>
				<path class="st0" d="M350.8,452.8c11.5,0,19.2,7.6,19.2,18.9c0,12.1-8.8,20.5-21,20.5c-11.5,0-19.3-7.4-19.3-18.9
					C329.8,461.1,338.7,452.8,350.8,452.8L350.8,452.8z M348.8,459.9c-6.1,0-9.1,5-9.1,11.3c0,8,4.4,13.8,11.1,13.9
					c5.9,0.1,9.1-4.6,9.1-11.3C360,465.4,355.2,459.9,348.8,459.9L348.8,459.9z"/>
			</g>
		</g>
		<g>
			<path class="st0" d="M311,442c-8.9,0-9.3-2.5-9.8-5.3l-7.2-45l0,0l-16.9,50.2c-1-0.1-2.5-0.2-4.8-0.2c-6.8,0-8.5-2.5-9.2-5.2
				l-14.6-44.1l0,0l-9,49.5c-2.1-0.4-5.9-0.9-10.2-0.9c-1.7,0-3-0.5-3.8-1.4c-0.9-1.1-0.9-2.6-0.6-3.5l0.3-1.3
				c1.8-6.9,4.8-18.4,7-30.4c2.9-16,3.6-32.1,3.6-33.8c0-0.9,0-1.8-0.1-2.4c1.4-0.5,4.4-1.4,8.7-1.4c7.8,0,10.1,5.6,10.5,6.7
				l17.5,51.1l1.4-4.1c0.1-0.2,6.4-18.2,9.6-29.4c2.5-8.6,6.1-20.4,7-23.2c0.8-0.3,2.9-1,6-1c0.4,0,0.9,0,1.4,0
				c5.1,0.3,9.8,4,10.2,8.1c0.2,1.5,0.3,3.1,0.5,5c0.6,6.4,1.5,15.2,3.5,27.8c2.7,16.9,6.1,28.7,7.3,32.5
				C317.3,440.8,313.8,442,311,442z"/>
			<path class="st0" d="M334.8,442.3c-4.4,0-6.5-1.9-6.5-5.7c0-7.4,0.1-20.3,0.1-27.2c0-2.5,0-4.2,0-4.6c0-1.8,0-6.2-2.2-11.7
				c1.9-1.5,3.8-2.9,7.6-2.9c3,0,6.7,1,8.4,8.4l0.7,2.7l1.9-2.1c0.3-0.3,0.6-0.7,0.9-1.2c1.8-2.5,5.6-7.8,12.3-7.8
				c7.1,0,7.3,5.6,7.3,6.2c0,4.5-3.5,7.7-5.3,9.1c-1.5-1.6-3.6-3.3-6.6-3.3c-4.6,0-9,4.4-10.2,5.7l-0.4,0.4l0,32.7
				C341.6,441.5,338.8,442.3,334.8,442.3z"/>
			<path class="st0" d="M360.3,442.1c-3.4,0-5.8-2-5.8-4.9c0-3.5,3.7-6.5,7.9-6.5c2.6,0,5,2.2,5,4.5
				C367.5,439,364.3,442.1,360.3,442.1z"/>
		</g>
	</g>
	<g>
		<g>
			<path class="st0" d="M320.3,293.3c-0.1-0.3-0.3-0.6-0.7-0.6c-0.4-0.1-0.9,0.1-1.2,0.5c-0.3,0.4-0.4,0.8-0.3,1.1
				c0.1,0.3,0.4,0.6,0.7,0.6c0.3,0.1,0.7,0,0.9,0c0.2-0.1,0.4-0.1,0.5-0.2c0.1-0.1,0.1-0.3,0.1-0.5
				C320.4,293.9,320.4,293.6,320.3,293.3z"/>
		</g>
		<g>
			<path class="st0" d="M277.1,320.8c-0.2-0.1-0.6,0.4-1.2,1.5c-0.5,1.1-1.1,2.7-1.5,4.9c-0.4,2.2-0.6,4.8-0.4,7.8
				c0.1,1.5,0.3,3.1,0.7,4.8c0.2,0.8,0.4,1.7,0.7,2.6c0.2,0.5,0.4,0.9,0.7,1.4c0.2,0.3,0.3,0.5,0.6,0.8c0.1,0.1,0.3,0.3,0.5,0.5
				c0.2,0.2,0.6,0.4,1.1,0.5l-0.5-0.1c0.7,0.3,1.4,0.4,2,0.4c0.6,0,1.1-0.1,1.7-0.2c1-0.2,2-0.6,2.9-0.9c1.8-0.8,3.4-1.8,5-2.9
				c4.1-2.9,7.4-6.4,10-9.8c2.6-3.4,4.4-6.8,5.6-9.8c1.2-3,1.9-5.5,2.2-7.2c0.3-1.8,0.3-2.8,0-2.8c-0.3-0.1-0.7,0.8-1.4,2.4
				c-0.7,1.6-1.7,3.8-3.2,6.5c-1.5,2.7-3.4,5.7-6,8.8c-2.5,3.1-5.7,6.2-9.4,8.8c-1.4,1-2.9,1.9-4.3,2.5c-0.7,0.3-1.4,0.6-2.1,0.7
				c-0.6,0.2-1.3,0.1-1.4,0.1l-0.5-0.2l-0.1,1.5c0-0.1,0.1-0.3,0.3-0.5c0.1-0.1,0.2-0.2,0.3-0.4c0.1-0.1,0.1-0.1,0.2-0.2
				c0.1-0.1,0,0,0,0c0,0-0.1-0.1-0.2-0.2c-0.2-0.2-0.3-0.6-0.4-0.9c-0.3-0.7-0.5-1.4-0.7-2.1c-0.4-1.5-0.7-2.9-0.9-4.3
				c-0.4-2.8-0.5-5.2-0.4-7.3C276.9,323.3,277.5,320.9,277.1,320.8z"/>
		</g>
		<g>
			<path class="st0" d="M306.4,320.6c-0.2,0-0.2,0.6-0.2,1.6c0,1,0.2,2.4,0.3,4.1c0.1,1.7,0.1,3.7-0.3,5.9c-0.4,2.1-1.3,4.3-2.8,6.3
				c-1.5,2-3.4,3.6-5.2,5c-0.9,0.7-1.8,1.3-2.7,1.8l-0.3,0.2l-0.2,0.1c0,0,0,0,0,0c-0.1,0-0.1,0.1-0.1,0.1c-0.1,0-0.2,0-0.2-0.1
				c-0.1-0.1-0.3-0.2-0.4-0.3c-1.2-1-1.9-2.2-2.4-3c-0.4-0.8-0.7-1.3-0.9-1.3c-0.2,0-0.3,0.6-0.1,1.6c0.2,1,0.7,2.5,2,4
				c0.2,0.2,0.3,0.4,0.6,0.6c0.3,0.3,0.7,0.5,1.1,0.7l0.1,0.1c0,0,0,0,0.1,0l0.1,0l0.3-0.1l0.6-0.3l0.3-0.1l0.2-0.1l0.4-0.2
				c1-0.5,2-1,3-1.7c2.1-1.3,4.2-3.1,5.9-5.4c1.8-2.3,2.8-5,3.1-7.5c0.3-2.5,0.1-4.7-0.2-6.5c-0.3-1.8-0.8-3.2-1.1-4.1
				C306.9,321,306.6,320.5,306.4,320.6z"/>
		</g>
		<g>
			<path class="st0" d="M300.5,292.5c0.2-0.2-0.4-1.2-1.7-2.8c-0.6-0.8-1.5-1.7-2.6-2.7c-1.1-1-2.4-2-4.1-3c-0.8-0.5-1.7-1-2.7-1.3
				c-0.5-0.2-1-0.4-1.5-0.6l-0.4-0.1c-0.1,0-0.4-0.1-0.5-0.1c-0.4-0.1-0.7-0.1-1.1-0.1c-1.4,0-2.7,0.4-3.8,0.8
				c-1.2,0.5-2.3,1-3.4,1.7c-2.2,1.3-4.2,2.9-6.2,4.8c-1.9,1.9-3.8,3.9-5.4,6.4c-1.5,2.4-2.8,4.9-3.7,7.4c-1,2.5-1.5,5.2-1.6,7.7
				c0,2.6,0.5,5,1.3,7.1c0.8,2.1,2,3.9,3.2,5.3c1,1.3,1.8,2.7,2.6,3.9c0.8,1.2,1.6,2.2,2.4,2.9c1.5,1.5,2.5,2,2.7,1.8
				c0.2-0.2-0.5-1.1-1.5-2.7c-0.5-0.8-1.1-1.9-1.7-3.1c-0.6-1.2-1.2-2.7-2.2-4.4c-1-1.4-1.8-3-2.4-4.8c-0.6-1.8-0.9-3.8-0.8-5.9
				c0.3-4.2,2.2-8.8,5-13.3c1.3-2.1,3-4,4.8-5.8c1.7-1.7,3.6-3.3,5.4-4.5c0.9-0.6,1.9-1.2,2.8-1.6c0.9-0.4,1.8-0.7,2.5-0.8
				c0.2,0,0.3,0,0.5,0c0,0,0.1,0,0.2,0l0.4,0.1c0.5,0.1,0.9,0.2,1.3,0.4c0.9,0.3,1.7,0.6,2.5,1c3.1,1.5,5.4,3.2,6.9,4.4
				C299.3,292,300.3,292.7,300.5,292.5z"/>
		</g>
		<g>
			<path class="st0" d="M318.5,301.9c-0.2,0-0.2,1,0.4,2.6c0.5,1.6,1.8,3.8,4,6c1.1,1.1,2.4,2.1,3.8,3.2c0.3,0.3,0.7,0.5,1,0.8
				l0.2,0.2c0.1,0.1,0.2,0.1,0.1,0.1c0,0,0,0.1,0,0.1c0,0.1-0.1,0.1-0.1,0.1l-0.2,0.1c-0.1,0-0.2,0.1-0.3,0.1
				c-0.2,0.1-0.4,0.2-0.6,0.3c-1.6,0.7-3.6,1.3-5,0.7c-1.4-0.4-2.4-2.2-3.3-4.2c-0.9-2-1.9-4.1-3.2-5.9c-1.2-1.8-2.4-3.5-3.7-5
				c-1.3-1.5-2.7-2.9-4.1-4c-1.4-1.1-3-2-4.5-2.4c-1.5-0.5-3-0.6-4.3-0.5c-1.3,0.1-2.3,0.4-3.1,0.8c-1.6,0.7-2.3,1.3-2.2,1.5
				c0.1,0.2,1-0.2,2.5-0.5c1.6-0.3,3.9-0.6,6.4,0.5c2.5,1,5.1,3.3,7.4,6.2c1.2,1.5,2.3,3.1,3.4,4.9c1.1,1.7,2,3.6,2.9,5.6
				c0.5,1,1,2.1,1.8,3.1c0.7,1,1.8,2,3.1,2.4c1.3,0.4,2.7,0.3,3.8,0.1c1.1-0.2,2.1-0.6,3.1-1.1c0.3-0.1,0.5-0.2,0.7-0.4
				c0.1-0.1,0.2-0.1,0.4-0.2c0.1-0.1,0.2-0.1,0.4-0.3c0.7-0.5,1.2-1.4,0.9-2.2c-0.1-0.4-0.3-0.8-0.6-1.1c-0.2-0.2-0.2-0.3-0.3-0.4
				c-0.1-0.1-0.2-0.2-0.3-0.3c-0.4-0.3-0.8-0.6-1.1-0.9c-1.4-1-2.7-1.9-3.8-2.8c-2.2-1.8-3.5-3.7-4.3-5
				C319.1,302.7,318.7,301.8,318.5,301.9z"/>
		</g>
		<g>
			<path class="st0" d="M321.4,298.3c0.1,0.1,0.3-0.1,0.5-0.2c0.3-0.1,0.5,0,0.9,0.4c0.4,0.4,0.8,1.1,1.4,1.9l0.1,0.1l0.2,0.2
				c0.1,0.1,0.3,0.3,0.4,0.4c0.3,0.3,0.6,0.5,1,0.7c0.3,0.1,0.7,0.2,1.2,0.1c0.2-0.1,0.4-0.2,0.5-0.3c0.1-0.1,0.2-0.3,0.4-0.4
				c0.1-0.4,0.2-0.7,0.3-1.2c0-0.2,0.1-0.4,0.1-0.7l0-0.4c0.1-0.6,0-1.1,0-1.7c-0.2-1.2-0.5-2.4-1.1-3.5c-1.2-2.3-3.4-4.3-5.8-5.7
				c-0.7-0.4-1.4-0.7-2.1-1.1c-0.7-0.3-1.5-0.6-2.3-0.8c-1.6-0.4-3.2-0.3-4.6,0c-2.9,0.6-5,2.3-6.4,3.9c-1.3,1.7-1.9,3.4-1.9,4.6
				c0,1.2,0.4,1.8,0.6,1.8c0.2-0.1,0.1-0.7,0.4-1.6c0.3-0.9,1-2.2,2.3-3.5c1.3-1.2,3.2-2.5,5.4-2.8c1.1-0.2,2.3-0.1,3.5,0.2
				c0.6,0.2,1.2,0.4,1.8,0.7c0.6,0.3,1.3,0.6,1.9,1c2.2,1.2,3.9,2.8,5,4.6c0.5,0.9,0.4,1.8,0.6,2.7c0.1,0.5-0.3,0.9-0.3,1.3v0.3
				l0.4,0.1c0,0.1,0.2,0.1,0.2,0.2c0,0.1,0.1,0.2,0.1,0.3c-0.1,0-0.1,0-0.2,0c-0.1,0-0.1,0-0.2-0.1l-0.1-0.1l0,0l-0.1-0.1
				c-0.6-0.7-1.2-1.3-1.9-1.7c-0.3-0.2-0.7-0.4-1.1-0.4c-0.4,0-0.7,0.2-0.8,0.3C321.3,298,321.4,298.2,321.4,298.3z"/>
		</g>
		<g>
			<path class="st0" d="M327.9,312.1c0.1,0,0.3,0,0.5-0.3c0.2-0.2,0.6-0.7,0.7-1.4c0.2-0.7-0.1-1.6-0.6-2.3c-0.5-0.7-1.2-1.4-1.8-2
				c-0.7-0.6-1.3-1.2-1.7-1.8c-0.4-0.6-0.7-1.2-0.8-1.7c-0.2-1,0-1.8-0.1-1.8c-0.1,0-0.3,0.1-0.4,0.4c-0.2,0.3-0.3,0.8-0.3,1.5
				c0,0.7,0.3,1.5,0.7,2.2c0.5,0.8,1.1,1.4,1.8,2.1c0.7,0.6,1.3,1.2,1.8,1.8c0.4,0.6,0.7,1.1,0.7,1.6c0,0.5-0.1,0.9-0.2,1.2
				C327.9,311.8,327.8,312,327.9,312.1z"/>
		</g>
		<g>
			<path class="st0" d="M327.2,316.6c-0.2,0-0.3,0.6-0.5,1.5c-0.2,1-0.4,2.4-0.9,4c-0.5,1.6-1.3,3.5-2.7,5.4c-1.3,1.9-3,3.7-5,5.5
				c-4.1,3.4-8.5,5.8-11.7,7.6c-3.2,1.7-5.2,2.9-5,3.2c0.1,0.3,2.4-0.2,5.8-1.6c1.7-0.7,3.7-1.6,5.9-2.8c2.2-1.2,4.5-2.7,6.7-4.5
				c2.2-1.9,4.1-4,5.4-6.2c1.3-2.1,2.1-4.4,2.4-6.2c0.3-1.9,0.3-3.4,0.2-4.4C327.6,317.2,327.4,316.6,327.2,316.6z"/>
		</g>
		<g>
			<path class="st0" d="M325.1,324.9c-0.5,0-1,1.4-1.6,3.7l-0.9,3.9c-0.3,1.4-0.7,3-1.3,4.6c-0.3,0.8-0.6,1.5-0.9,2
				c-0.3,0.6-0.7,1-1,1.3c-0.1,0-0.1,0.1-0.1,0.1c0,0-0.1,0.1-0.1,0.1s0,0,0,0.1c0,0-0.1,0-0.2,0c0,0-0.2-0.1-0.3-0.1
				c-0.1-0.1-0.2-0.1-0.4-0.2l-0.8-0.4c-1.1-0.6-2.2-1-3-1.1c-0.4,0-0.8,0.1-1,0.2c-0.2,0.1-0.3,0.3-0.3,0.4
				c0.1,0.3,0.4,0.4,0.8,0.8c0.4,0.4,1,1,1.8,1.8c0.2,0.2,0.4,0.4,0.7,0.7c0.1,0.1,0.3,0.2,0.4,0.4c0.2,0.1,0.3,0.2,0.6,0.4
				c0.5,0.3,1.2,0.6,1.9,0.5c0.4,0,0.7-0.1,1-0.2c0.2-0.1,0.3-0.1,0.5-0.2c0.1-0.1,0.3-0.1,0.4-0.2c1-0.6,1.8-1.5,2.3-2.4
				c0.5-0.9,0.9-1.8,1.3-2.7c0.7-1.9,0.9-3.6,1.1-5.2c0.2-1.6,0.2-3,0.1-4.3C326.2,326.4,325.7,324.9,325.1,324.9z"/>
		</g>
		<g>
			<path class="st0" d="M308.6,349.5c0.5,0.1,1.1-0.5,1.3-1.5c0.2-1,0.1-2.5-0.8-3.8c-0.4-0.7-1-1.3-1.7-1.8
				c-0.7-0.5-1.6-0.7-2.4-0.6c-0.8,0.1-1.2,0.5-1.4,0.8c-0.2,0.3-0.2,0.6,0,0.9c0.3,0.4,1,0.6,1.2,1c0.1,0.2,0.2,0.3,0.3,0.6l0.6,1
				c0.5,0.8,1,1.6,1.4,2.3C307.6,348.9,308,349.4,308.6,349.5z"/>
		</g>
		<g>
			<path class="st0" d="M312.9,347.8c0.3,0.1,0.5,0.1,0.8-0.1c0.3-0.2,0.6-0.5,0.7-0.9c0.2-0.5,0.2-1.1,0-1.8
				c-0.2-0.6-0.5-1.2-1-1.7c-0.9-0.9-2-1.3-2.8-1.3c-0.4,0-0.8,0.1-1.1,0.2c-0.3,0.1-0.5,0.4-0.5,0.7c-0.1,0.2,0,0.5,0.1,0.7
				c0,0.2,0.1,0.5,0.3,0.8c0.3,0.5,0.8,1.1,1.2,1.5c0.4,0.5,0.7,0.6,1.1,0.8C312.1,347.1,312.4,347.6,312.9,347.8z"/>
		</g>
	</g>
</g>
</svg>
