<?xml version="1.0" standalone="no"?>
<!DOCTYPE svg PUBLIC "-//W3C//DTD SVG 20010904//EN"
 "http://www.w3.org/TR/2001/REC-SVG-20010904/DTD/svg10.dtd">
<svg version="1.0" xmlns="http://www.w3.org/2000/svg"
 width="349.000000pt" height="292.000000pt" viewBox="0 0 349.000000 292.000000"
 preserveAspectRatio="xMidYMid meet">

<g transform="translate(0.000000,292.000000) scale(0.100000,-0.100000)"
fill="#000000" stroke="none">
<path d="M1205 2405 c-83 -18 -139 -45 -211 -97 -113 -84 -196 -220 -238 -391
-12 -50 -28 -94 -36 -99 -8 -4 -40 -17 -71 -28 -110 -40 -235 -127 -306 -215
-60 -73 -93 -136 -114 -218 -31 -117 -22 -211 31 -323 88 -183 321 -312 566
-314 l61 0 48 -61 c156 -198 423 -305 647 -258 66 14 175 70 218 112 82 80
120 162 127 273 7 105 0 136 -30 132 -19 -3 -23 -11 -29 -63 -11 -84 -49 -155
-116 -215 -72 -64 -142 -92 -252 -97 -99 -6 -181 12 -279 60 -66 33 -174 122
-169 139 2 5 35 22 73 37 73 28 170 86 194 114 21 26 -1 21 -77 -17 -126 -63
-234 -83 -264 -48 -9 9 -28 49 -43 87 -36 89 -46 225 -21 276 9 17 16 38 16
46 0 45 90 154 155 187 l30 16 -30 0 c-34 0 -113 -43 -164 -89 -18 -17 -37
-31 -41 -31 -12 0 -49 85 -66 152 -19 74 -23 230 -6 251 18 22 149 40 256 35
113 -5 126 -12 107 -64 -18 -49 -6 -55 16 -8 16 34 23 39 47 36 39 -4 117 -45
161 -83 20 -18 35 -25 35 -18 0 18 -78 88 -139 124 -28 17 -51 37 -51 45 0 22
75 92 134 126 101 57 296 39 338 -32 22 -37 48 -159 48 -223 0 -51 13 -71 44
-71 36 0 47 15 53 74 4 35 10 55 17 53 6 -2 25 -30 41 -63 l30 -59 54 -3 c30
-2 58 1 64 7 11 11 -13 88 -57 181 -21 45 -54 89 -110 145 -54 55 -92 104
-120 158 -23 42 -63 104 -89 137 -116 143 -321 222 -482 185z m203 -210 c67
-21 186 -104 170 -120 -3 -3 -31 -10 -62 -16 -31 -5 -77 -19 -102 -29 -59 -26
-139 -102 -177 -168 -16 -30 -35 -56 -41 -58 -6 -2 -47 5 -90 16 -52 13 -112
20 -172 20 -51 0 -95 4 -98 9 -3 5 13 46 35 91 110 219 320 319 537 255z
m-674 -521 c3 -9 6 -28 6 -44 0 -47 50 -202 87 -272 l36 -67 -28 -62 c-45
-100 -51 -248 -15 -367 7 -23 11 -45 8 -48 -11 -10 -104 19 -173 55 -198 101
-287 302 -225 504 35 114 111 207 235 290 46 31 60 33 69 11z"/>
<path d="M1410 1501 c-18 -35 -12 -119 10 -141 25 -25 41 -25 71 -2 15 13 20
25 16 36 -7 16 -9 16 -26 -5 -11 -14 -24 -20 -34 -16 -24 9 -24 115 -1 124 10
4 22 -1 29 -10 15 -20 35 -22 35 -4 0 39 -81 53 -100 18z"/>
<path d="M1552 1508 c-7 -7 -12 -39 -12 -75 0 -56 3 -64 26 -80 24 -15 29 -15
53 -2 23 13 26 22 29 78 2 38 -2 68 -9 77 -14 17 -71 18 -87 2z m62 -24 c3 -9
6 -31 6 -49 0 -43 -9 -65 -26 -65 -17 0 -34 32 -34 65 0 52 39 88 54 49z"/>
<path d="M1680 1501 c-16 -31 -13 -138 5 -145 12 -4 15 3 15 29 0 50 18 53 37
6 16 -41 41 -60 54 -40 8 13 3 159 -6 168 -10 9 -25 -22 -25 -51 0 -40 -14
-34 -33 12 -17 44 -31 50 -47 21z"/>
<path d="M1832 1508 c-24 -24 -14 -58 23 -79 39 -23 48 -59 15 -59 -11 0 -20
5 -20 10 0 6 -7 10 -16 10 -25 0 -12 -34 18 -44 50 -17 103 43 66 73 -7 6 -26
21 -42 34 -17 14 -26 29 -22 35 9 15 36 16 36 2 0 -5 7 -10 15 -10 20 0 19 26
-1 34 -25 10 -59 7 -72 -6z"/>
<path d="M1956 1498 c-9 -34 -7 -131 3 -146 10 -16 73 -12 78 5 2 6 -6 13 -19
15 -34 5 -32 50 2 59 l25 6 -27 8 c-21 5 -28 13 -28 31 0 14 6 24 14 24 8 0
18 5 21 10 4 6 -8 10 -28 10 -27 0 -36 -5 -41 -22z"/>
<path d="M2136 1513 c-3 -3 -6 -35 -6 -69 0 -66 -11 -84 -36 -63 -13 10 -17
10 -24 -1 -6 -9 -2 -19 11 -28 27 -19 73 -3 77 26 4 29 16 28 36 -2 21 -33 52
-41 81 -22 22 14 25 24 25 72 0 74 -12 94 -55 94 -26 0 -39 -6 -51 -25 -20
-30 -34 -32 -34 -6 0 21 -13 34 -24 24z m132 -76 c3 -61 -13 -82 -43 -57 -31
26 -11 125 23 118 13 -2 18 -16 20 -61z"/>
<path d="M2394 1507 c-3 -8 -4 -47 -2 -88 l3 -74 38 1 c55 2 70 21 70 90 0 44
-4 60 -18 71 -24 17 -84 17 -91 0z m70 -23 c13 -33 6 -104 -10 -111 -21 -8
-34 14 -34 59 0 45 8 68 25 68 7 0 16 -7 19 -16z"/>
<path d="M2536 1483 c-9 -56 -4 -122 10 -134 16 -13 66 -8 71 8 2 6 -6 13 -19
15 -33 4 -37 45 -6 57 l23 8 -23 7 c-26 9 -32 56 -7 56 8 0 15 5 15 10 0 6
-13 10 -29 10 -26 0 -30 -4 -35 -37z"/>
<path d="M2862 1503 c-7 -15 -14 -38 -38 -121 -3 -9 -17 -12 -41 -10 l-38 3
-3 68 c-3 64 -15 87 -26 50 -10 -36 -4 -132 8 -142 20 -17 116 -8 131 12 15
21 51 22 59 2 5 -15 36 -21 36 -7 0 4 -11 41 -23 82 -24 77 -47 99 -65 63z
m38 -63 c0 -11 -7 -20 -15 -20 -17 0 -18 2 -9 24 9 23 24 20 24 -4z"/>
<path d="M1138 1453 c7 -3 16 -2 19 1 4 3 -2 6 -13 5 -11 0 -14 -3 -6 -6z"/>
<path d="M3071 1326 c-25 -6 -46 -17 -49 -25 -4 -12 26 -101 34 -101 3 0 21 7
41 15 40 17 67 20 59 6 -3 -5 -21 -12 -40 -15 -39 -7 -71 -38 -63 -61 8 -18
30 -19 60 -3 12 6 58 13 102 15 107 3 155 12 155 29 0 7 -4 16 -10 19 -5 3
-10 24 -10 45 0 45 -18 60 -72 60 -18 0 -42 7 -52 15 -23 18 -92 18 -155 1z
m256 -92 c-3 -3 -12 -4 -19 -1 -8 3 -5 6 6 6 11 1 17 -2 13 -5z m-52 -14 c-3
-5 -15 -10 -26 -10 -10 0 -19 5 -19 10 0 6 12 10 26 10 14 0 23 -4 19 -10z"/>
<path d="M1992 1280 c-12 -5 -27 -21 -32 -35 -13 -34 -13 -126 0 -160 18 -48
94 -56 138 -15 20 19 20 19 25 -1 7 -25 39 -25 62 1 10 11 24 20 31 20 8 0 19
-9 26 -20 16 -25 58 -27 58 -3 0 10 -10 62 -22 116 l-22 98 -40 -3 -41 -3 -20
-77 c-23 -88 -30 -99 -49 -73 -16 22 -46 14 -53 -15 -3 -11 -14 -20 -24 -20
-17 0 -19 8 -19 75 0 68 2 75 20 75 11 0 20 -6 20 -14 0 -20 31 -29 47 -13 11
11 12 19 2 40 -16 35 -59 46 -107 27z m236 -124 c-5 -33 -23 -24 -26 13 -3 31
-2 33 13 21 9 -7 15 -23 13 -34z"/>
<path d="M1400 1186 c0 -52 -4 -97 -9 -100 -4 -3 -16 3 -26 14 -33 37 -69 14
-46 -28 22 -41 107 -36 131 8 6 12 12 60 13 108 l2 87 -32 3 -33 3 0 -95z"/>
<path d="M1492 1173 c3 -107 3 -108 31 -121 18 -9 42 -11 63 -8 49 10 64 45
64 151 l0 85 -35 0 -35 0 0 -93 c0 -98 -4 -114 -27 -96 -9 8 -13 38 -13 100 0
89 0 89 -25 89 l-26 0 3 -107z"/>
<path d="M1670 1181 c0 -55 3 -106 6 -115 5 -12 21 -16 71 -16 l64 0 16 37
c19 47 13 154 -10 178 -11 10 -35 15 -81 15 l-66 0 0 -99z m98 47 c16 -16 15
-100 -1 -123 -23 -30 -37 -8 -37 59 0 75 10 92 38 64z"/>
<path d="M1865 1229 c-4 -28 -4 -80 0 -115 6 -58 9 -64 30 -64 31 0 35 15 35
131 l0 99 -29 0 c-27 0 -30 -3 -36 -51z"/>
<path d="M2290 1261 c0 -12 9 -21 25 -25 24 -6 25 -9 25 -96 0 -89 0 -90 25
-90 29 0 34 14 37 115 3 67 4 70 28 70 24 0 25 -3 30 -77 6 -93 20 -113 81
-113 65 0 79 26 79 141 l0 94 -30 0 -29 0 -3 -97 c-2 -79 -6 -98 -18 -98 -12
0 -16 19 -18 98 l-3 97 -114 0 c-106 0 -115 -1 -115 -19z"/>
<path d="M2642 1218 c-1 -35 1 -87 4 -116 5 -51 7 -53 32 -50 23 3 28 9 32 43
3 27 10 40 20 40 10 0 17 -13 20 -40 4 -35 9 -40 33 -43 25 -3 27 -1 27 32 0
19 -5 47 -12 61 -9 19 -9 28 0 37 16 16 15 59 -2 81 -10 13 -28 17 -83 17
l-70 0 -1 -62z m103 -4 c0 -10 -8 -20 -17 -22 -18 -3 -26 27 -11 42 12 11 28
0 28 -20z"/>
<path d="M2861 1193 c-37 -144 -37 -143 -9 -143 14 0 33 9 43 20 10 11 24 20
31 20 7 0 18 -9 24 -20 6 -12 21 -20 35 -20 31 0 32 18 5 115 -11 39 -20 80
-20 93 0 19 -5 22 -43 22 l-43 0 -23 -87z m75 -48 c-3 -9 -10 -13 -16 -10 -12
7 -13 48 -3 59 11 11 27 -30 19 -49z"/>
<path d="M3305 1139 c-16 -5 -50 -6 -75 -3 -33 4 -61 0 -102 -16 -56 -21 -74
-42 -63 -72 5 -14 13 -13 66 3 34 11 74 19 91 19 39 0 148 41 148 56 0 9 -26
27 -33 23 -1 0 -15 -5 -32 -10z"/>
</g>
</svg>
